# https://github.com/mikedh/trimesh
v -24.72200394 -4.96481121 24.81265044 0.69411765 0.37647059 0.17647059
v -27.43145466 -4.96481121 25.56571102 0.69411765 0.37647059 0.17647059
v -24.72200394 -4.91576672 24.78681004 0.69411765 0.37647059 0.17647059
v -24.72200394 -4.96481121 29.07419360 0.69411765 0.37647059 0.17647059
v -27.97500134 -4.96481121 25.72497195 0.69411765 0.37647059 0.17647059
v -27.97500134 -4.82425094 25.64375943 0.69411765 0.37647059 0.17647059
v -24.72200394 -4.90363240 24.78100932 0.69411765 0.37647059 0.17647059
v -24.72200394 -2.87207484 29.07419360 0.69411765 0.37647059 0.17647059
v -27.97500134 -4.96481121 29.07419360 0.69411765 0.37647059 0.17647059
v -27.97500134 -3.67650688 25.14857447 0.69411765 0.37647059 0.17647059
v -24.72200394 -4.50268030 24.60751003 0.69411765 0.37647059 0.17647059
v -24.72518921 -1.69803888 29.07419360 0.69411765 0.37647059 0.17647059
v -24.72200394 0.20003632 25.26090091 0.69411765 0.37647059 0.17647059
v -27.97500134 -1.42955780 29.07419360 0.69411765 0.37647059 0.17647059
v -27.97500134 -2.47870713 24.78997445 0.69411765 0.37647059 0.17647059
v -24.72200394 -3.70077610 24.29689860 0.69411765 0.37647059 0.17647059
v -24.78537083 -1.63332030 29.07419360 0.69411765 0.37647059 0.17647059
v -24.72518921 0.20003632 26.37678063 0.69411765 0.37647059 0.17647059
v -24.72200394 0.20003632 23.69202471 0.69411765 0.37647059 0.17647059
v -27.97500134 0.20003632 26.62621891 0.69411765 0.37647059 0.17647059
v -24.97514963 -1.42955780 29.07419360 0.69411765 0.37647059 0.17647059
v -27.97500134 -1.24804236 24.57270479 0.69411765 0.37647059 0.17647059
v -24.72200394 -2.01101407 23.87027001 0.69411765 0.37647059 0.17647059
v -24.72200394 -2.45140389 23.95095503 0.69411765 0.37647059 0.17647059
v -24.72200394 -3.28263342 24.17191601 0.69411765 0.37647059 0.17647059
v -24.97514963 0.20003632 26.62621891 0.69411765 0.37647059 0.17647059
v -24.72200394 -0.00018686 23.68675089 0.69411765 0.37647059 0.17647059
v -27.97500134 -0.00018686 24.50045741 0.69411765 0.37647059 0.17647059
v -26.63412809 0.20003632 24.17033410 0.69411765 0.37647059 0.17647059
v -27.97500134 0.20003632 24.51205885 0.69411765 0.37647059 0.17647059
v -24.72200394 -0.48557639 23.69940734 0.69411765 0.37647059 0.17647059
v -24.72200394 -0.73433846 23.71417320 0.69411765 0.37647059 0.17647059
v -24.72200394 -1.22124486 23.75161505 0.69411765 0.37647059 0.17647059
v -24.72200394 -1.65758982 23.80804217 0.69411765 0.37647059 0.17647059
f 1 2 3
f 1 3 7
f 1 7 11
f 1 11 16
f 1 16 25
f 1 25 24
f 1 24 23
f 1 23 34
f 1 34 33
f 1 33 32
f 1 32 31
f 1 31 27
f 1 27 19
f 1 19 13
f 1 13 8
f 1 8 4
f 1 4 9
f 1 9 5
f 1 5 2
f 2 5 6
f 2 6 3
f 3 6 7
f 4 8 12
f 4 12 17
f 4 17 21
f 4 21 14
f 4 14 9
f 5 9 14
f 5 14 20
f 5 20 30
f 5 30 28
f 5 28 22
f 5 22 15
f 5 15 10
f 5 10 6
f 6 10 11
f 6 11 7
f 8 13 12
f 10 15 16
f 10 16 11
f 12 13 18
f 12 18 17
f 13 19 29
f 13 29 30
f 13 30 20
f 13 20 26
f 13 26 18
f 14 21 26
f 14 26 20
f 15 22 23
f 15 23 24
f 15 24 25
f 15 25 16
f 17 18 21
f 18 26 21
f 19 27 28
f 19 28 29
f 22 28 31
f 22 31 32
f 22 32 33
f 22 33 34
f 22 34 23
f 27 31 28
f 28 30 29

