# https://github.com/mikedh/trimesh
v -13.98302078 14.50880051 50.49999809 0.13725490 0.19607843 0.36862745
v -20.47439337 20.99999905 47.74662232 0.13725490 0.19607843 0.36862745
v -17.72557139 18.24987888 50.49999809 0.13725490 0.19607843 0.36862745
v -13.98302078 12.34817386 50.49999809 0.13725490 0.19607843 0.36862745
v -13.98302078 14.50880051 7.67683125 0.13725490 0.19607843 0.36862745
v -22.97412157 20.99999905 47.74662232 0.13725490 0.19607843 0.36862745
v -20.47439337 20.99999905 22.75367117 0.13725490 0.19607843 0.36862745
v -22.97412157 18.24987888 50.49999809 0.13725490 0.19607843 0.36862745
v -22.97412157 12.34817386 50.49999809 0.13725490 0.19607843 0.36862745
v -13.98302078 12.34817386 45.49745536 0.13725490 0.19607843 0.36862745
v -13.98302078 12.35071421 7.67683125 0.13725490 0.19607843 0.36862745
v -17.72557139 14.50033069 0.00000095 0.13725490 0.19607843 0.36862745
v -15.01723886 15.54210782 5.55618858 0.13725490 0.19607843 0.36862745
v -22.97412157 20.99999905 22.75367117 0.13725490 0.19607843 0.36862745
v -22.97412157 12.34817386 20.01018083 0.13725490 0.19607843 0.36862745
v -17.72557139 12.34817386 0.00494576 0.13725490 0.19607843 0.36862745
v -17.72557139 12.35071421 0.00000095 0.13725490 0.19607843 0.36862745
v -22.97412157 14.50033069 0.00000095 0.13725490 0.19607843 0.36862745
v -22.97412157 12.35071421 0.00000095 0.13725490 0.19607843 0.36862745
v -20.22442102 12.34817386 5.50181246 0.13725490 0.19607843 0.36862745
v -18.72458339 12.34817386 0.00494576 0.13725490 0.19607843 0.36862745
f 1 2 3
f 1 3 8
f 1 8 9
f 1 9 4
f 1 4 10
f 1 10 11
f 1 11 5
f 1 5 7
f 1 7 2
f 2 6 8
f 2 8 3
f 2 7 14
f 2 14 6
f 4 9 15
f 4 15 20
f 4 20 21
f 4 21 16
f 4 16 10
f 5 11 17
f 5 17 12
f 5 12 13
f 5 13 7
f 6 14 18
f 6 18 19
f 6 19 15
f 6 15 9
f 6 9 8
f 7 13 12
f 7 12 18
f 7 18 14
f 10 16 11
f 11 16 17
f 12 17 19
f 12 19 18
f 15 19 20
f 16 21 19
f 16 19 17
f 19 21 20

