# https://github.com/mikedh/trimesh
v 17.28404284 1.77263588 18.20000029 0.08235294 0.54901961 0.58431373
v 17.27721930 1.77263588 18.20000029 0.08235294 0.54901961 0.58431373
v 17.28397965 -3.49365860 18.20000029 0.08235294 0.54901961 0.58431373
v 17.28404284 -3.49365860 18.16856003 0.08235294 0.54901961 0.58431373
v 17.28404284 1.77263588 13.79999971 0.08235294 0.54901961 0.58431373
v 17.27499962 1.77263588 17.11421347 0.08235294 0.54901961 0.58431373
v 17.27500200 -3.49365860 18.20000029 0.08235294 0.54901961 0.58431373
v 17.28404284 -3.49365860 13.79999971 0.08235294 0.54901961 0.58431373
v 17.27499962 1.77263588 13.79999971 0.08235294 0.54901961 0.58431373
v 17.27499962 -3.49365860 13.80430675 0.08235294 0.54901961 0.58431373
f 1 2 7
f 1 7 3
f 1 3 4
f 1 4 8
f 1 8 5
f 1 5 9
f 1 9 6
f 1 6 2
f 2 6 7
f 3 7 10
f 3 10 8
f 3 8 4
f 5 8 9
f 6 9 10
f 6 10 7
f 8 10 9

