# https://github.com/mikedh/trimesh
v -27.97500134 3.49526584 35.42399740 0.71372549 0.28627451 0.18039216
v -27.97500134 0.20065188 38.73257971 0.71372549 0.28627451 0.18039216
v -27.97500134 5.37262321 35.42399740 0.71372549 0.28627451 0.18039216
v -20.22500038 3.49526584 35.42399740 0.71372549 0.28627451 0.18039216
v -27.97500134 0.20065188 40.62624192 0.71372549 0.28627451 0.18039216
v -20.22500038 0.20065188 38.73257971 0.71372549 0.28627451 0.18039216
v -27.97500134 6.49176955 36.81095219 0.71372549 0.28627451 0.18039216
v -24.97468233 5.37262321 35.42399740 0.71372549 0.28627451 0.18039216
v -20.22500038 3.76134813 35.42399740 0.71372549 0.28627451 0.18039216
v -27.97500134 1.64685756 42.22560143 0.71372549 0.28627451 0.18039216
v -24.97468233 0.20065188 40.62624192 0.71372549 0.28627451 0.18039216
v -20.22500038 0.20065188 39.02089036 0.71372549 0.28627451 0.18039216
v -27.97500134 6.49176955 42.22560143 0.71372549 0.28627451 0.18039216
v -24.97468233 6.49176955 36.81095219 0.71372549 0.28627451 0.18039216
v -20.47534227 6.49176955 38.20656216 0.71372549 0.28627451 0.18039216
v -20.47534227 4.02065516 35.42399740 0.71372549 0.28627451 0.18039216
v -20.22500038 6.49176955 38.45958328 0.71372549 0.28627451 0.18039216
v -24.97468233 1.64685756 42.22560143 0.71372549 0.28627451 0.18039216
v -20.47534227 0.20065188 39.27391148 0.71372549 0.28627451 0.18039216
v -20.22500038 3.23226362 42.22560143 0.71372549 0.28627451 0.18039216
v -20.47534227 2.98281163 42.22560143 0.71372549 0.28627451 0.18039216
v -20.22500038 6.49176955 42.22560143 0.71372549 0.28627451 0.18039216
f 1 2 5
f 1 5 10
f 1 10 13
f 1 13 7
f 1 7 3
f 1 3 8
f 1 8 16
f 1 16 9
f 1 9 4
f 1 4 6
f 1 6 2
f 2 6 12
f 2 12 19
f 2 19 11
f 2 11 5
f 3 7 14
f 3 14 8
f 4 9 17
f 4 17 22
f 4 22 20
f 4 20 12
f 4 12 6
f 5 11 18
f 5 18 10
f 7 13 22
f 7 22 17
f 7 17 15
f 7 15 14
f 8 14 15
f 8 15 16
f 9 16 17
f 10 18 21
f 10 21 20
f 10 20 22
f 10 22 13
f 11 19 18
f 12 20 21
f 12 21 19
f 15 17 16
f 18 19 21

