# https://github.com/mikedh/trimesh
v -17.71672010 -5.64648926 50.50675488 0.20392157 0.42352941 0.37254902
v -17.71672010 -5.67411661 50.50675488 0.20392157 0.42352941 0.37254902
v -17.71672010 -4.96561408 50.49908018 0.20392157 0.42352941 0.37254902
v -18.27195644 -4.96680230 50.50675488 0.20392157 0.42352941 0.37254902
v -22.93914795 -6.65978134 50.50675488 0.20392157 0.42352941 0.37254902
v -17.71672010 -6.65978134 50.50547695 0.20392157 0.42352941 0.37254902
v -17.71672010 -4.96561408 45.49994802 0.20392157 0.42352941 0.37254902
v -18.27883005 -4.96561408 50.50675488 0.20392157 0.42352941 0.37254902
v -22.97428131 -6.65978134 50.50675488 0.20392157 0.42352941 0.37254902
v -17.72512197 -8.00014257 45.46668863 0.20392157 0.42352941 0.37254902
v -17.71672010 -6.65978134 45.49994802 0.20392157 0.42352941 0.37254902
v -17.72512197 -8.00014257 38.32872605 0.20392157 0.42352941 0.37254902
v -17.72512197 -6.49995983 38.46304214 0.20392157 0.42352941 0.37254902
v -20.22559404 -4.96561408 37.76587582 0.20392157 0.42352941 0.37254902
v -22.97428131 -4.96561408 50.50675488 0.20392157 0.42352941 0.37254902
v -25.51904917 -4.96561408 45.46668863 0.20392157 0.42352941 0.37254902
v -24.69574213 -8.00014257 43.59649158 0.20392157 0.42352941 0.37254902
v -22.97428131 -8.00014257 45.46668863 0.20392157 0.42352941 0.37254902
v -17.97562718 -8.00014257 38.06137180 0.20392157 0.42352941 0.37254902
v -17.97562718 -6.49995983 38.20848024 0.20392157 0.42352941 0.37254902
v -20.47609806 -4.96561408 37.43967867 0.20392157 0.42352941 0.37254902
v -24.69574213 -4.96561408 37.73005819 0.20392157 0.42352941 0.37254902
v -24.69574213 -4.96799052 37.45247042 0.20392157 0.42352941 0.37254902
v -24.69574213 -8.00014257 38.07416415 0.20392157 0.42352941 0.37254902
v -24.42843437 -4.96561408 37.45119131 0.20392157 0.42352941 0.37254902
f 1 2 6
f 1 6 11
f 1 11 7
f 1 7 3
f 1 3 4
f 1 4 8
f 1 8 15
f 1 15 9
f 1 9 5
f 1 5 2
f 2 5 6
f 3 7 14
f 3 14 21
f 3 21 25
f 3 25 22
f 3 22 16
f 3 16 15
f 3 15 8
f 3 8 4
f 5 9 18
f 5 18 10
f 5 10 6
f 6 10 12
f 6 12 11
f 7 11 12
f 7 12 13
f 7 13 14
f 9 15 16
f 9 16 17
f 9 17 18
f 10 18 17
f 10 17 24
f 10 24 19
f 10 19 12
f 12 19 13
f 13 19 20
f 13 20 21
f 13 21 14
f 16 22 23
f 16 23 24
f 16 24 17
f 19 24 21
f 19 21 20
f 21 24 25
f 22 25 23
f 23 25 24

