# https://github.com/mikedh/trimesh
v -9.13611531 0.82488105 50.49966431 0.31764706 0.38039216 0.58823529
v -9.13611531 -4.96531665 50.49966431 0.31764706 0.38039216 0.58823529
v -9.13611531 0.82488105 48.98439622 0.31764706 0.38039216 0.58823529
v -13.59962821 0.82488105 51.99966049 0.31764706 0.38039216 0.58823529
v -9.13611531 -4.96531665 49.00000668 0.31764706 0.38039216 0.58823529
v -13.59962821 -4.96531665 51.99966049 0.31764706 0.38039216 0.58823529
v -9.13611531 0.76820329 48.53337979 0.31764706 0.38039216 0.58823529
v -9.20964360 0.82488105 48.53337979 0.31764706 0.38039216 0.58823529
v -14.84960794 0.82488105 51.99966049 0.31764706 0.38039216 0.58823529
v -9.13821578 -0.77003062 48.53337979 0.31764706 0.38039216 0.58823529
v -9.13611531 -0.72468832 48.53337979 0.31764706 0.38039216 0.58823529
v -12.08774805 -4.96531665 48.53337979 0.31764706 0.38039216 0.58823529
v -14.84960794 -4.96531665 51.99966049 0.31764706 0.38039216 0.58823529
v -16.29006028 0.82488105 48.53337979 0.31764706 0.38039216 0.58823529
v -16.29006028 0.82488105 50.49966431 0.31764706 0.38039216 0.58823529
v -16.29006028 -4.96531665 48.53337979 0.31764706 0.38039216 0.58823529
v -16.29006028 -4.96531665 50.49966431 0.31764706 0.38039216 0.58823529
f 1 2 5
f 1 5 11
f 1 11 7
f 1 7 3
f 1 3 8
f 1 8 14
f 1 14 15
f 1 15 9
f 1 9 4
f 1 4 6
f 1 6 2
f 2 6 13
f 2 13 17
f 2 17 16
f 2 16 12
f 2 12 5
f 3 7 8
f 4 9 13
f 4 13 6
f 5 10 11
f 5 12 10
f 7 11 10
f 7 10 12
f 7 12 16
f 7 16 14
f 7 14 8
f 9 15 17
f 9 17 13
f 14 16 17
f 14 17 15

