# https://github.com/mikedh/trimesh
v -9.13611531 12.35021949 44.27179313 0.58039216 0.87843137 0.69019608
v -9.13611531 10.59391618 45.50043797 0.58039216 0.87843137 0.69019608
v -9.13611531 14.49961782 44.27179313 0.58039216 0.87843137 0.69019608
v -0.44698358 12.35021949 44.27179313 0.58039216 0.87843137 0.69019608
v -9.13611531 10.59391618 51.99999905 0.58039216 0.87843137 0.69019608
v -0.44698358 10.59391618 45.50043797 0.58039216 0.87843137 0.69019608
v -9.13611531 14.49961782 50.49975014 0.58039216 0.87843137 0.69019608
v -0.44698358 14.49961782 44.27179313 0.58039216 0.87843137 0.69019608
v -3.39155823 10.59391618 51.99999905 0.58039216 0.87843137 0.69019608
v -9.13611531 10.75566530 51.99999905 0.58039216 0.87843137 0.69019608
v -0.44698358 10.59391618 50.88181114 0.58039216 0.87843137 0.69019608
v -0.44698358 12.43625760 51.99999905 0.58039216 0.87843137 0.69019608
v -0.44698358 14.49961782 50.49975014 0.58039216 0.87843137 0.69019608
v -0.44698358 11.16329074 51.99999905 0.58039216 0.87843137 0.69019608
f 1 2 5
f 1 5 10
f 1 10 7
f 1 7 3
f 1 3 8
f 1 8 4
f 1 4 6
f 1 6 2
f 2 6 11
f 2 11 9
f 2 9 5
f 3 7 13
f 3 13 8
f 4 8 13
f 4 13 12
f 4 12 14
f 4 14 11
f 4 11 6
f 5 9 14
f 5 14 12
f 5 12 10
f 7 10 12
f 7 12 13
f 9 11 14

