# https://github.com/mikedh/trimesh
v -7.60063469 -22.34116316 33.75027633 0.61176471 0.12156863 0.84705882
v -7.60063469 -22.34116316 36.74975133 0.61176471 0.12156863 0.84705882
v -7.60063469 -14.51035738 33.75027633 0.61176471 0.12156863 0.84705882
v -6.32074475 -14.51035738 32.79328442 0.61176471 0.12156863 0.84705882
v -6.29020095 -25.01208782 32.77216142 0.61176471 0.12156863 0.84705882
v -6.69020355 -25.01208782 33.11189061 0.61176471 0.12156863 0.84705882
v -6.78418338 -25.01208782 33.19403565 0.61176471 0.12156863 0.84705882
v -7.10136592 -25.01208782 33.61180311 0.61176471 0.12156863 0.84705882
v -7.17537522 -25.01208782 33.71272421 0.61176471 0.12156863 0.84705882
v -7.18477309 -25.01208782 33.72856653 0.61176471 0.12156863 0.84705882
v -7.27287948 -25.01208782 33.90693939 0.61176471 0.12156863 0.84705882
v -7.40621328 -25.01208782 34.19562107 0.61176471 0.12156863 0.84705882
v -7.46965051 -25.01208782 34.38220835 0.61176471 0.12156863 0.84705882
v -7.54013538 -25.01208782 34.70257437 0.61176471 0.12156863 0.84705882
v -7.57831454 -25.01208782 34.89326870 0.61176471 0.12156863 0.84705882
v -7.59064913 -25.01208782 35.08220291 0.61176471 0.12156863 0.84705882
v -6.32015705 -14.51035738 37.70732975 0.61176471 0.12156863 0.84705882
v -7.60063469 -14.51035738 36.74975133 0.61176471 0.12156863 0.84705882
v -7.59064913 -25.01208782 35.41782475 0.61176471 0.12156863 0.84705882
v -7.57831454 -25.01208782 35.60675895 0.61176471 0.12156863 0.84705882
v -7.54013538 -25.01208782 35.79745328 0.61176471 0.12156863 0.84705882
v -7.46965051 -25.01208782 36.11781931 0.61176471 0.12156863 0.84705882
v -7.40621328 -25.01208782 36.30440688 0.61176471 0.12156863 0.84705882
v -7.27287948 -25.01208782 36.59308827 0.61176471 0.12156863 0.84705882
v -7.18477309 -25.01208782 36.77146113 0.61176471 0.12156863 0.84705882
v -7.17537522 -25.01208782 36.78730345 0.61176471 0.12156863 0.84705882
v -7.10136592 -25.01208782 36.88822484 0.61176471 0.12156863 0.84705882
v -6.78418338 -25.01208782 37.30599201 0.61176471 0.12156863 0.84705882
v -6.69020355 -25.01208782 37.38813734 0.61176471 0.12156863 0.84705882
v -6.29020095 -25.01208782 37.72786593 0.61176471 0.12156863 0.84705882
v -5.74805379 -14.51035738 32.47878557 0.61176471 0.12156863 0.84705882
v -6.18094921 -25.01208782 32.71231270 0.61176471 0.12156863 0.84705882
v -5.74746609 -14.51035738 38.02124238 0.61176471 0.12156863 0.84705882
v -6.18094921 -25.01208782 37.78830147 0.61176471 0.12156863 0.84705882
v -5.12132466 -14.51035738 32.29571915 0.61176471 0.12156863 0.84705882
v -5.59709847 -25.01208782 32.43125862 0.61176471 0.12156863 0.84705882
v -5.71750998 -25.01208782 32.46646380 0.61176471 0.12156863 0.84705882
v -5.12073696 -14.51035738 38.20430851 0.61176471 0.12156863 0.84705882
v -5.71750998 -25.01208782 38.03356385 0.61176471 0.12156863 0.84705882
v -5.59709847 -25.01208782 38.06876874 0.61176471 0.12156863 0.84705882
v -4.46992546 -14.51035738 32.25347286 0.61176471 0.12156863 0.84705882
v -4.96743232 -25.01208782 32.28281057 0.61176471 0.12156863 0.84705882
v -5.09195566 -25.01208782 32.29102498 0.61176471 0.12156863 0.84705882
v -4.46933806 -14.51035738 38.24714160 0.61176471 0.12156863 0.84705882
v -5.09195566 -25.01208782 38.20900297 0.61176471 0.12156863 0.84705882
v -3.82440031 -14.51035738 32.35263383 0.61176471 0.12156863 0.84705882
v -4.32014495 -25.01208782 32.27342254 0.61176471 0.12156863 0.84705882
v -4.44408119 -25.01208782 32.25464648 0.61176471 0.12156863 0.84705882
v -3.82381290 -14.51035738 38.14739382 0.61176471 0.12156863 0.84705882
v -4.96684492 -25.01208782 38.21721709 0.61176471 0.12156863 0.84705882
v -4.44408119 -25.01208782 38.24538088 0.61176471 0.12156863 0.84705882
v -4.32014495 -25.01208782 38.22660542 0.61176471 0.12156863 0.84705882
v -3.21529239 -14.51035738 32.58909500 0.61176471 0.12156863 0.84705882
v -3.80266756 -25.01208782 32.35850132 0.61176471 0.12156863 0.84705882
v -3.21529239 -14.51035738 37.91093266 0.61176471 0.12156863 0.84705882
v -3.80266756 -25.01208782 38.14152634 0.61176471 0.12156863 0.84705882
v -3.68636727 -25.01208782 38.09634662 0.61176471 0.12156863 0.84705882
v -2.67255783 -14.51035738 32.95170760 0.61176471 0.12156863 0.84705882
v -3.09488058 -25.01208782 32.66713297 0.61176471 0.12156863 0.84705882
v -3.19884598 -25.01208782 32.59789622 0.61176471 0.12156863 0.84705882
v -3.68636727 -25.01208782 32.40368134 0.61176471 0.12156863 0.84705882
v -2.67197043 -14.51035738 37.54773355 0.61176471 0.12156863 0.84705882
v -3.19884598 -25.01208782 37.90213144 0.61176471 0.12156863 0.84705882
v -3.09488058 -25.01208782 37.83289468 0.61176471 0.12156863 0.84705882
v -2.22086638 -14.51035738 33.42345572 0.61176471 0.12156863 0.84705882
v -2.66081035 -25.01208782 32.96168214 0.61176471 0.12156863 0.84705882
v -2.22027913 -14.51035738 37.07598543 0.61176471 0.12156863 0.84705882
v -2.66081035 -25.01208782 37.53834581 0.61176471 0.12156863 0.84705882
v -1.88136369 -14.51035738 33.98204333 0.61176471 0.12156863 0.84705882
v -2.14861929 -25.01208782 33.53963262 0.61176471 0.12156863 0.84705882
v -2.21381798 -25.01208782 33.43284374 0.61176471 0.12156863 0.84705882
v -2.57446617 -25.01208782 33.05204189 0.61176471 0.12156863 0.84705882
v -1.88136369 -14.51035738 36.51739752 0.61176471 0.12156863 0.84705882
v -2.57446617 -25.01208782 37.44798577 0.61176471 0.12156863 0.84705882
v -2.21381798 -25.01208782 37.06718421 0.61176471 0.12156863 0.84705882
v -2.14861929 -25.01208782 36.96039534 0.61176471 0.12156863 0.84705882
v -1.67167068 -14.51035738 34.60047936 0.61176471 0.12156863 0.84705882
v -1.83789790 -25.01208782 34.10760826 0.61176471 0.12156863 0.84705882
v -1.87842667 -25.01208782 33.98908442 0.61176471 0.12156863 0.84705882
v -1.67167068 -14.51035738 35.89896119 0.61176471 0.12156863 0.84705882
v -1.87842667 -25.01208782 36.51094294 0.61176471 0.12156863 0.84705882
v -1.83789790 -25.01208782 36.39241910 0.61176471 0.12156863 0.84705882
v -1.60059839 -14.51035738 35.25001383 0.61176471 0.12156863 0.84705882
v -1.67049587 -25.01208782 34.60458672 0.61176471 0.12156863 0.84705882
v -1.67049587 -25.01208782 35.89544094 0.61176471 0.12156863 0.84705882
v -1.60001099 -25.01208782 35.25001383 0.61176471 0.12156863 0.84705882
f 1 2 18
f 1 18 3
f 1 3 4
f 1 4 5
f 1 5 6
f 1 6 7
f 1 7 8
f 1 8 9
f 1 9 10
f 1 10 11
f 1 11 12
f 1 12 13
f 1 13 14
f 1 14 15
f 1 15 16
f 1 16 19
f 1 19 2
f 2 17 18
f 2 19 20
f 2 20 21
f 2 21 22
f 2 22 23
f 2 23 24
f 2 24 25
f 2 25 26
f 2 26 27
f 2 27 28
f 2 28 29
f 2 29 30
f 2 30 17
f 3 18 17
f 3 17 33
f 3 33 38
f 3 38 44
f 3 44 49
f 3 49 55
f 3 55 62
f 3 62 67
f 3 67 73
f 3 73 80
f 3 80 83
f 3 83 77
f 3 77 69
f 3 69 65
f 3 65 58
f 3 58 53
f 3 53 46
f 3 46 41
f 3 41 35
f 3 35 31
f 3 31 4
f 4 31 5
f 5 31 32
f 5 32 37
f 5 37 36
f 5 36 43
f 5 43 42
f 5 42 48
f 5 48 47
f 5 47 54
f 5 54 61
f 5 61 60
f 5 60 59
f 5 59 66
f 5 66 72
f 5 72 71
f 5 71 70
f 5 70 79
f 5 79 78
f 5 78 84
f 5 84 86
f 5 86 85
f 5 85 82
f 5 82 81
f 5 81 76
f 5 76 75
f 5 75 74
f 5 74 68
f 5 68 64
f 5 64 63
f 5 63 57
f 5 57 56
f 5 56 52
f 5 52 51
f 5 51 50
f 5 50 45
f 5 45 40
f 5 40 39
f 5 39 34
f 5 34 30
f 5 30 29
f 5 29 28
f 5 28 27
f 5 27 26
f 5 26 25
f 5 25 24
f 5 24 23
f 5 23 22
f 5 22 21
f 5 21 20
f 5 20 19
f 5 19 16
f 5 16 15
f 5 15 14
f 5 14 13
f 5 13 12
f 5 12 11
f 5 11 10
f 5 10 9
f 5 9 8
f 5 8 7
f 5 7 6
f 17 30 34
f 17 34 33
f 31 35 36
f 31 36 37
f 31 37 32
f 33 34 39
f 33 39 40
f 33 40 38
f 35 41 42
f 35 42 43
f 35 43 36
f 38 40 45
f 38 45 44
f 41 46 47
f 41 47 48
f 41 48 42
f 44 45 50
f 44 50 51
f 44 51 52
f 44 52 49
f 46 53 54
f 46 54 47
f 49 52 56
f 49 56 57
f 49 57 55
f 53 58 59
f 53 59 60
f 53 60 61
f 53 61 54
f 55 57 63
f 55 63 64
f 55 64 62
f 58 65 66
f 58 66 59
f 62 64 68
f 62 68 67
f 65 69 70
f 65 70 71
f 65 71 72
f 65 72 66
f 67 68 74
f 67 74 75
f 67 75 76
f 67 76 73
f 69 77 78
f 69 78 79
f 69 79 70
f 73 76 81
f 73 81 82
f 73 82 80
f 77 83 84
f 77 84 78
f 80 82 85
f 80 85 83
f 83 86 84
f 83 85 86

