# https://github.com/mikedh/trimesh
v -9.13611591 -11.99358106 50.50000286 0.09411765 0.97254902 0.46666667
v -13.97364736 -11.99358106 50.50000286 0.09411765 0.97254902 0.46666667
v -9.13611591 -14.49980259 50.50000286 0.09411765 0.97254902 0.46666667
v -9.13611591 -11.99358106 45.49704289 0.09411765 0.97254902 0.46666667
v -13.97364736 -14.49980259 50.50000286 0.09411765 0.97254902 0.46666667
v -13.97364736 -11.99358106 45.49704289 0.09411765 0.97254902 0.46666667
v -9.13611591 -14.50447321 36.74814856 0.09411765 0.97254902 0.46666667
v -9.13611591 -12.35024333 17.62041783 0.09411765 0.97254902 0.46666667
v -13.97364736 -12.35024333 7.69411182 0.09411765 0.97254902 0.46666667
v -13.97364736 -14.50103164 33.74804860 0.09411765 0.97254902 0.46666667
v -13.97127986 -14.50447321 33.74804860 0.09411765 0.97254902 0.46666667
v -13.97033215 -14.50447321 36.74814856 0.09411765 0.97254902 0.46666667
v -9.13611591 -14.50447321 33.74804860 0.09411765 0.97254902 0.46666667
v -9.13611591 -14.49980259 17.62041783 0.09411765 0.97254902 0.46666667
v -13.97364736 -14.49980259 7.69411182 0.09411765 0.97254902 0.46666667
f 1 2 5
f 1 5 3
f 1 3 7
f 1 7 13
f 1 13 14
f 1 14 8
f 1 8 4
f 1 4 6
f 1 6 2
f 2 6 9
f 2 9 15
f 2 15 10
f 2 10 5
f 3 5 12
f 3 12 7
f 4 8 9
f 4 9 6
f 5 10 11
f 5 11 12
f 7 12 11
f 7 11 13
f 8 14 15
f 8 15 9
f 10 15 11
f 11 15 13
f 13 15 14

