# https://github.com/mikedh/trimesh
v -9.13611531 8.40905786 45.50063705 0.72156863 0.49803922 0.95294118
v -9.13611531 8.40047121 48.99941182 0.72156863 0.49803922 0.95294118
v -9.13611531 10.59331894 45.50063705 0.72156863 0.49803922 0.95294118
v -0.44698358 10.20305037 45.50063705 0.72156863 0.49803922 0.95294118
v -0.44698358 8.40047121 48.99941182 0.72156863 0.49803922 0.95294118
v -9.13611531 8.40047121 50.49970484 0.72156863 0.49803922 0.95294118
v -9.13611531 10.59331894 51.99936247 0.72156863 0.49803922 0.95294118
v -0.44698358 10.59331894 45.50063705 0.72156863 0.49803922 0.95294118
v -0.44698358 8.40047121 50.49970484 0.72156863 0.49803922 0.95294118
v -9.13611531 9.48240459 51.99936247 0.72156863 0.49803922 0.95294118
v -3.39155823 10.59331894 51.99936247 0.72156863 0.49803922 0.95294118
v -0.44698358 10.59331894 50.88146067 0.72156863 0.49803922 0.95294118
f 1 2 6
f 1 6 10
f 1 10 7
f 1 7 3
f 1 3 8
f 1 8 4
f 1 4 5
f 1 5 2
f 2 5 9
f 2 9 6
f 3 7 11
f 3 11 12
f 3 12 8
f 4 8 12
f 4 12 9
f 4 9 5
f 6 9 10
f 7 10 11
f 9 12 11
f 9 11 10

