# https://github.com/mikedh/trimesh
v -13.96441579 14.51341987 33.75290728 0.69411765 0.05882353 0.66666667
v -13.96441579 14.51341987 36.74941278 0.69411765 0.05882353 0.66666667
v -9.13644552 20.45286179 33.75026411 0.69411765 0.05882353 0.66666667
v -9.13644552 14.51341987 33.75026411 0.69411765 0.05882353 0.66666667
v -9.13395643 14.51112270 33.75026411 0.69411765 0.05882353 0.66666667
v -9.13644552 14.51112270 36.74999988 0.69411765 0.05882353 0.66666667
v -9.13644552 20.45209646 36.74999988 0.69411765 0.05882353 0.66666667
v -9.13644552 20.45286179 36.74941278 0.69411765 0.05882353 0.66666667
v -7.60677934 22.33363390 33.75026411 0.69411765 0.05882353 0.66666667
v -7.60677934 14.51112270 33.74997056 0.69411765 0.05882353 0.66666667
v -7.60677934 14.51112270 36.74999988 0.69411765 0.05882353 0.66666667
v -7.60677934 22.33363390 36.74999988 0.69411765 0.05882353 0.66666667
f 1 2 8
f 1 8 3
f 1 3 4
f 1 4 5
f 1 5 6
f 1 6 2
f 2 6 7
f 2 7 8
f 3 8 12
f 3 12 9
f 3 9 10
f 3 10 4
f 4 10 5
f 5 10 11
f 5 11 6
f 6 11 12
f 6 12 7
f 7 12 8
f 9 12 11
f 9 11 10

