# https://github.com/mikedh/trimesh
v 17.27485657 -20.97834587 30.15821910 0.73333333 0.96078431 0.24705882
v 17.27632523 -20.97834587 20.04521108 0.73333333 0.96078431 0.24705882
v 14.24840808 -20.97834587 30.15821910 0.73333333 0.96078431 0.24705882
v 17.27485657 -39.99814034 30.15821910 0.73333333 0.96078431 0.24705882
v 14.24840808 -20.97834587 20.04521108 0.73333333 0.96078431 0.24705882
v 17.27485657 -39.99814034 20.04521108 0.73333333 0.96078431 0.24705882
v 12.27499962 -30.32904625 29.24947387 0.73333333 0.96078431 0.24705882
v 12.27499962 -31.23581409 30.15821910 0.73333333 0.96078431 0.24705882
v 14.27533388 -39.99814034 30.15821910 0.73333333 0.96078431 0.24705882
v 14.27533388 -39.99814034 20.04521108 0.73333333 0.96078431 0.24705882
v 12.27499962 -31.03472471 29.24947387 0.73333333 0.96078431 0.24705882
v 12.27499962 -31.94335461 30.15821910 0.73333333 0.96078431 0.24705882
f 1 2 5
f 1 5 3
f 1 3 8
f 1 8 12
f 1 12 9
f 1 9 4
f 1 4 2
f 2 4 6
f 2 6 10
f 2 10 5
f 3 5 7
f 3 7 8
f 4 9 10
f 4 10 6
f 5 10 11
f 5 11 7
f 7 11 12
f 7 12 8
f 9 12 10
f 10 12 11

