# https://github.com/mikedh/trimesh
v -18.72518301 -11.99333549 0.00000095 0.79215686 0.22352941 0.34509804
v -18.72518301 -9.35021877 0.00000095 0.79215686 0.22352941 0.34509804
v -17.72500038 -11.99333549 0.00000095 0.79215686 0.22352941 0.34509804
v -20.22496700 -11.99333549 5.50094461 0.79215686 0.22352941 0.34509804
v -17.72500038 -9.35021877 0.00000095 0.79215686 0.22352941 0.34509804
v -20.22496700 -9.45134699 5.50094461 0.79215686 0.22352941 0.34509804
v -20.22570133 -9.17854846 23.49918044 0.79215686 0.22352941 0.34509804
v -17.72500038 -11.99333549 45.46735382 0.79215686 0.22352941 0.34509804
v -20.22570133 -11.99333549 20.79321420 0.79215686 0.22352941 0.34509804
v -20.22496700 -9.17854846 23.49918044 0.79215686 0.22352941 0.34509804
v -17.72500038 -9.17854846 27.04631037 0.79215686 0.22352941 0.34509804
v -20.22570133 -9.17854846 45.46735382 0.79215686 0.22352941 0.34509804
v -17.72500038 -9.17854846 45.46735382 0.79215686 0.22352941 0.34509804
v -20.22570133 -11.99333549 45.46735382 0.79215686 0.22352941 0.34509804
f 1 2 5
f 1 5 3
f 1 3 8
f 1 8 14
f 1 14 9
f 1 9 4
f 1 4 6
f 1 6 2
f 2 6 7
f 2 7 10
f 2 10 5
f 3 5 11
f 3 11 13
f 3 13 8
f 4 9 6
f 5 10 11
f 6 9 7
f 7 9 14
f 7 14 12
f 7 12 13
f 7 13 11
f 7 11 10
f 8 13 12
f 8 12 14

