# https://github.com/mikedh/trimesh
v -18.27950358 -4.96531695 50.50912952 0.05098039 0.19607843 0.01568627
v -18.27225327 -4.96669292 50.50912952 0.05098039 0.19607843 0.01568627
v -22.97479868 -4.96531695 50.50912952 0.05098039 0.19607843 0.01568627
v -22.97479868 -4.96531695 54.15102100 0.05098039 0.19607843 0.01568627
v -18.25684667 -4.98526752 50.50912952 0.05098039 0.19607843 0.01568627
v -26.97499990 -6.66728616 50.50912952 0.05098039 0.19607843 0.01568627
v -26.97499990 -5.03548741 56.66227436 0.05098039 0.19607843 0.01568627
v -17.71672010 -7.18255520 51.48013926 0.05098039 0.19607843 0.01568627
v -17.71672010 -5.64638019 50.50912952 0.05098039 0.19607843 0.01568627
v -25.33558846 -5.18064260 56.11533022 0.05098039 0.19607843 0.01568627
v -26.97499990 -9.81324673 50.50912952 0.05098039 0.19607843 0.01568627
v -26.97499990 -9.81324673 56.66227436 0.05098039 0.19607843 0.01568627
v -25.97902775 -10.64565659 56.33037186 0.05098039 0.19607843 0.01568627
v -21.74229622 -7.68888056 54.91722679 0.05098039 0.19607843 0.01568627
v -17.71672010 -7.68888056 51.79999447 0.05098039 0.19607843 0.01568627
v -17.71672010 -9.73000526 50.50912952 0.05098039 0.19607843 0.01568627
v -26.77471876 -10.00105500 50.50912952 0.05098039 0.19607843 0.01568627
v -26.65781021 -10.11181355 56.55625916 0.05098039 0.19607843 0.01568627
v -26.32612228 -10.38974166 56.44542551 0.05098039 0.19607843 0.01568627
v -26.02615356 -10.61194777 50.50912952 0.05098039 0.19607843 0.01568627
v -25.88024616 -10.71101069 50.50912952 0.05098039 0.19607843 0.01568627
v -25.27758837 -11.07424498 55.51597691 0.05098039 0.19607843 0.01568627
v -22.97479868 -11.81309462 53.26494312 0.05098039 0.19607843 0.01568627
v -19.56457019 -11.99264765 50.50912952 0.05098039 0.19607843 0.01568627
v -26.62156105 -10.14345884 50.50912952 0.05098039 0.19607843 0.01568627
v -26.40677929 -10.32301188 50.50912952 0.05098039 0.19607843 0.01568627
v -26.25543594 -10.44271350 50.50912952 0.05098039 0.19607843 0.01568627
v -26.18565321 -10.49430966 50.50912952 0.05098039 0.19607843 0.01568627
v -25.72890282 -10.80319524 50.50912952 0.05098039 0.19607843 0.01568627
v -25.39449453 -11.00682616 50.50912952 0.05098039 0.19607843 0.01568627
v -25.26399374 -11.08181238 50.50912952 0.05098039 0.19607843 0.01568627
v -25.13802528 -11.14166260 50.50912952 0.05098039 0.19607843 0.01568627
v -24.97308731 -11.21733665 50.50912952 0.05098039 0.19607843 0.01568627
v -24.53717947 -11.41408801 54.72688055 0.05098039 0.19607843 0.01568627
v -22.97479868 -11.99264765 53.15109825 0.05098039 0.19607843 0.01568627
v -22.97479868 -11.99264765 50.50912952 0.05098039 0.19607843 0.01568627
v -24.59608555 -11.39001012 50.50912952 0.05098039 0.19607843 0.01568627
v -24.47736740 -11.43610239 50.50912952 0.05098039 0.19607843 0.01568627
f 1 2 5
f 1 5 9
f 1 9 16
f 1 16 24
f 1 24 36
f 1 36 38
f 1 38 37
f 1 37 33
f 1 33 32
f 1 32 31
f 1 31 30
f 1 30 29
f 1 29 21
f 1 21 20
f 1 20 28
f 1 28 27
f 1 27 26
f 1 26 25
f 1 25 17
f 1 17 11
f 1 11 6
f 1 6 3
f 1 3 4
f 1 4 2
f 2 4 5
f 3 6 7
f 3 7 4
f 4 8 9
f 4 9 5
f 4 7 10
f 4 10 8
f 6 11 12
f 6 12 7
f 7 12 13
f 7 13 14
f 7 14 10
f 8 15 16
f 8 16 9
f 8 10 15
f 10 14 15
f 11 17 18
f 11 18 12
f 12 18 13
f 13 18 19
f 13 19 20
f 13 20 21
f 13 21 22
f 13 22 23
f 13 23 15
f 13 15 14
f 15 23 16
f 16 23 24
f 17 25 18
f 18 25 19
f 19 25 26
f 19 26 27
f 19 27 28
f 19 28 20
f 21 29 22
f 22 29 30
f 22 30 31
f 22 31 32
f 22 32 33
f 22 33 34
f 22 34 35
f 22 35 23
f 23 35 24
f 24 35 36
f 33 37 34
f 34 37 38
f 34 38 36
f 34 36 35

