# https://github.com/mikedh/trimesh
v -27.97500134 0.82485832 45.45606828 0.27058824 0.79607843 0.18431373
v -27.97500134 0.82485832 45.95217919 0.27058824 0.79607843 0.18431373
v -27.97500134 1.23008363 45.45606828 0.27058824 0.79607843 0.18431373
v -20.22450209 0.82485832 45.45606828 0.27058824 0.79607843 0.18431373
v -9.85177577 -0.84990904 46.50009966 0.27058824 0.79607843 0.18431373
v -9.85177577 -1.05330400 48.53273845 0.27058824 0.79607843 0.18431373
v -22.97212124 0.82485832 47.26248956 0.27058824 0.79607843 0.18431373
v -22.97212124 1.23008363 47.26248956 0.27058824 0.79607843 0.18431373
v -27.97500134 1.23008363 45.92838264 0.27058824 0.79607843 0.18431373
v -10.12284994 -1.01709522 48.53273845 0.27058824 0.79607843 0.18431373
v -20.22450209 1.23008363 45.45606828 0.27058824 0.79607843 0.18431373
v -13.27984571 1.23008363 45.50034738 0.27058824 0.79607843 0.18431373
v -13.30381870 0.82485832 45.50034738 0.27058824 0.79607843 0.18431373
v -9.63049054 -0.82085259 46.50009966 0.27058824 0.79607843 0.18431373
v -9.61942673 -1.02268301 48.53273845 0.27058824 0.79607843 0.18431373
v -10.16157389 -1.00144945 48.53273845 0.27058824 0.79607843 0.18431373
v -10.37732720 -0.91204509 48.53273845 0.27058824 0.79607843 0.18431373
v -10.41051984 -0.88678837 48.53273845 0.27058824 0.79607843 0.18431373
v -10.59492350 -0.74441187 48.53273845 0.27058824 0.79607843 0.18431373
v -10.62073946 -0.71177930 48.53273845 0.27058824 0.79607843 0.18431373
v -10.76273203 -0.52648872 48.53273845 0.27058824 0.79607843 0.18431373
v -10.86784124 -0.27235683 48.53273845 0.27058824 0.79607843 0.18431373
v -10.90472221 0.00010299 48.53273845 0.27058824 0.79607843 0.18431373
v -10.86784124 0.27256282 48.53273845 0.27058824 0.79607843 0.18431373
v -10.76273203 0.52647121 48.53273845 0.27058824 0.79607843 0.18431373
v -10.59492350 0.74461788 48.53273845 0.27058824 0.79607843 0.18431373
v -10.49165726 0.82485832 48.53273845 0.27058824 0.79607843 0.18431373
v -13.27984571 1.23008363 47.26248956 0.27058824 0.79607843 0.18431373
v -9.85177577 0.92610873 47.26248956 0.27058824 0.79607843 0.18431373
v -9.71900463 0.90867490 47.26248956 0.27058824 0.79607843 0.18431373
v -9.61205006 0.89459375 47.26248956 0.27058824 0.79607843 0.18431373
v -9.63417888 0.82485832 46.53443909 0.27058824 0.79607843 0.18431373
v -9.63049054 0.82083508 46.50009966 0.27058824 0.79607843 0.18431373
v -9.42580223 0.73590100 46.50009966 0.27058824 0.79607843 0.18431373
v -9.25061822 0.60090035 46.50009966 0.27058824 0.79607843 0.18431373
v -9.13628817 0.45383018 46.50009966 0.27058824 0.79607843 0.18431373
v -9.13628817 -0.45384768 46.50009966 0.27058824 0.79607843 0.18431373
v -9.25061822 -0.60091786 46.50009966 0.27058824 0.79607843 0.18431373
v -9.42580223 -0.73591851 46.50009966 0.27058824 0.79607843 0.18431373
v -9.32438016 -0.91204509 48.53273845 0.27058824 0.79607843 0.18431373
v -9.57885742 -1.01709522 48.53273845 0.27058824 0.79607843 0.18431373
v -9.21004951 0.82485832 48.53273845 0.27058824 0.79607843 0.18431373
v -9.37416911 0.82485832 47.52485371 0.27058824 0.79607843 0.18431373
v -9.63049054 0.82485832 46.53986073 0.27058824 0.79607843 0.18431373
v -9.13628817 0.71377337 48.09566712 0.27058824 0.79607843 0.18431373
v -9.13628817 -0.71356736 48.09566712 0.27058824 0.79607843 0.18431373
v -9.13997591 -0.76989211 48.53273845 0.27058824 0.79607843 0.18431373
v -9.13628817 0.76831006 48.53273845 0.27058824 0.79607843 0.18431373
v -9.13628817 -0.72407238 48.53273845 0.27058824 0.79607843 0.18431373
f 1 2 9
f 1 9 3
f 1 3 11
f 1 11 4
f 1 4 5
f 1 5 6
f 1 6 2
f 2 7 8
f 2 8 9
f 2 6 10
f 2 10 7
f 3 9 8
f 3 8 28
f 3 28 12
f 3 12 11
f 4 11 12
f 4 12 13
f 4 13 5
f 5 14 6
f 5 13 14
f 6 14 15
f 6 15 41
f 6 41 40
f 6 40 47
f 6 47 49
f 6 49 48
f 6 48 42
f 6 42 27
f 6 27 26
f 6 26 25
f 6 25 24
f 6 24 23
f 6 23 22
f 6 22 21
f 6 21 20
f 6 20 19
f 6 19 18
f 6 18 17
f 6 17 16
f 6 16 10
f 7 10 16
f 7 16 17
f 7 17 18
f 7 18 19
f 7 19 20
f 7 20 21
f 7 21 22
f 7 22 23
f 7 23 8
f 8 23 24
f 8 24 25
f 8 25 26
f 8 26 27
f 8 27 42
f 8 42 28
f 12 28 29
f 12 29 30
f 12 30 31
f 12 31 32
f 12 32 33
f 12 33 34
f 12 34 35
f 12 35 36
f 12 36 37
f 12 37 13
f 13 37 38
f 13 38 39
f 13 39 14
f 14 39 40
f 14 40 41
f 14 41 15
f 28 42 29
f 29 42 30
f 30 42 31
f 31 42 43
f 31 43 33
f 31 33 44
f 31 44 32
f 32 44 33
f 33 43 34
f 34 43 45
f 34 45 35
f 35 45 36
f 36 45 48
f 36 48 49
f 36 49 46
f 36 46 37
f 37 46 38
f 38 46 39
f 39 46 40
f 40 46 47
f 42 48 45
f 42 45 43
f 46 49 47

