# https://github.com/mikedh/trimesh
v 14.26251173 10.50015688 50.79627609 0.08627451 0.01960784 0.83137255
v 14.26251173 10.50015688 56.69942474 0.08627451 0.01960784 0.83137255
v 14.26251173 20.98679543 50.79627609 0.08627451 0.01960784 0.83137255
v 14.27549601 -10.43856144 50.79627609 0.08627451 0.01960784 0.83137255
v 14.27549601 -10.43856144 54.69972944 0.08627451 0.01960784 0.83137255
v 16.27518177 -10.43856144 56.69942474 0.08627451 0.01960784 0.83137255
v 14.26251173 39.95556355 56.69942474 0.08627451 0.01960784 0.83137255
v 14.26251173 39.95556355 52.50006294 0.08627451 0.01960784 0.83137255
v 14.27549601 40.00000000 50.79627609 0.08627451 0.01960784 0.83137255
v 17.27502346 -10.43856144 50.79627609 0.08627451 0.01960784 0.83137255
v 22.06495047 -10.43856144 56.69942474 0.08627451 0.01960784 0.83137255
v 14.27549601 40.00000000 56.69942474 0.08627451 0.01960784 0.83137255
v 17.27502346 40.00000000 50.79627609 0.08627451 0.01960784 0.83137255
v 22.06495047 -10.43856144 52.30009413 0.08627451 0.01960784 0.83137255
v 22.06495047 40.00000000 56.69942474 0.08627451 0.01960784 0.83137255
v 22.06495047 40.00000000 52.30009413 0.08627451 0.01960784 0.83137255
f 1 2 7
f 1 7 8
f 1 8 3
f 1 3 9
f 1 9 13
f 1 13 10
f 1 10 4
f 1 4 5
f 1 5 2
f 2 5 6
f 2 6 11
f 2 11 15
f 2 15 12
f 2 12 7
f 3 8 9
f 4 10 14
f 4 14 11
f 4 11 6
f 4 6 5
f 7 12 9
f 7 9 8
f 9 12 15
f 9 15 16
f 9 16 13
f 10 13 16
f 10 16 14
f 11 14 16
f 11 16 15

