# https://github.com/mikedh/trimesh
v -9.13611650 -4.96531695 50.49970484 0.81960784 0.09411765 0.83529412
v -9.13611650 -9.48165834 51.99936247 0.81960784 0.09411765 0.83529412
v -9.13611650 -4.96531695 48.99941182 0.81960784 0.09411765 0.83529412
v -13.59944105 -4.96531695 51.99936247 0.81960784 0.09411765 0.83529412
v -9.13611650 -10.75503945 51.99936247 0.81960784 0.09411765 0.83529412
v -9.13611650 -8.40915620 45.50063705 0.81960784 0.09411765 0.83529412
v -12.08758831 -4.96531695 45.50063705 0.81960784 0.09411765 0.83529412
v -14.84923959 -4.96531695 51.99936247 0.81960784 0.09411765 0.83529412
v -9.13611650 -11.99264765 50.49970484 0.81960784 0.09411765 0.83529412
v -14.84923959 -9.65020418 51.99936247 0.81960784 0.09411765 0.83529412
v -17.71588087 -11.99264765 50.49970484 0.81960784 0.09411765 0.83529412
v -9.13611650 -11.99264765 45.50063705 0.81960784 0.09411765 0.83529412
v -17.71588087 -4.96531695 45.50063705 0.81960784 0.09411765 0.83529412
v -17.71588087 -4.96531695 50.49970484 0.81960784 0.09411765 0.83529412
v -17.71588087 -7.68888056 51.79957962 0.81960784 0.09411765 0.83529412
v -17.71588087 -11.99264765 45.50063705 0.81960784 0.09411765 0.83529412
f 1 2 5
f 1 5 9
f 1 9 12
f 1 12 6
f 1 6 3
f 1 3 7
f 1 7 13
f 1 13 14
f 1 14 8
f 1 8 4
f 1 4 2
f 2 4 8
f 2 8 10
f 2 10 5
f 3 6 7
f 5 10 11
f 5 11 9
f 6 12 16
f 6 16 13
f 6 13 7
f 8 14 15
f 8 15 10
f 9 11 16
f 9 16 12
f 10 15 11
f 11 15 14
f 11 14 13
f 11 13 16

