# https://github.com/mikedh/trimesh
v -17.71672010 -6.66064262 50.50606108 0.46274510 0.27450980 0.58431373
v -17.71672010 -9.73026872 50.50803518 0.46274510 0.27450980 0.58431373
v -17.71672010 -6.66064262 45.50041533 0.46274510 0.27450980 0.58431373
v -22.93945551 -6.66064262 50.50803518 0.46274510 0.27450980 0.58431373
v -17.71672010 -11.99281335 50.49964762 0.46274510 0.27450980 0.58431373
v -19.56457019 -11.99281335 50.50803518 0.46274510 0.27450980 0.58431373
v -17.71672010 -11.99281335 45.50041533 0.46274510 0.27450980 0.58431373
v -17.72578239 -6.66064262 45.46735382 0.46274510 0.27450980 0.58431373
v -22.97479868 -6.66064262 50.50803518 0.46274510 0.27450980 0.58431373
v -22.97479868 -11.99281335 50.50803518 0.46274510 0.27450980 0.58431373
v -17.72578239 -11.99281335 45.46735382 0.46274510 0.27450980 0.58431373
v -22.97479868 -6.66064262 45.46735382 0.46274510 0.27450980 0.58431373
v -26.97499990 -6.66690707 50.50803518 0.46274510 0.27450980 0.58431373
v -22.97479868 -11.99281335 45.46735382 0.46274510 0.27450980 0.58431373
v -24.47736740 -11.43631339 50.50803518 0.46274510 0.27450980 0.58431373
v -26.97499990 -8.00334334 45.46735382 0.46274510 0.27450980 0.58431373
v -26.97499990 -9.81327415 50.50803518 0.46274510 0.27450980 0.58431373
v -24.40486670 -11.46241546 45.46735382 0.46274510 0.27450980 0.58431373
v -24.59608555 -11.39037371 50.50803518 0.46274510 0.27450980 0.58431373
v -24.66586828 -11.36166096 45.46735382 0.46274510 0.27450980 0.58431373
v -26.97499990 -9.81327415 45.46735382 0.46274510 0.27450980 0.58431373
v -26.91881180 -9.86600101 50.50803518 0.46274510 0.27450980 0.58431373
v -24.97308731 -11.21757627 50.50803518 0.46274510 0.27450980 0.58431373
v -25.13802528 -11.14187956 50.50803518 0.46274510 0.27450980 0.58431373
v -24.99665022 -11.20974541 45.46735382 0.46274510 0.27450980 0.58431373
v -26.87259197 -9.90880847 45.46735382 0.46274510 0.27450980 0.58431373
v -26.77471876 -10.00121117 50.50803518 0.46274510 0.27450980 0.58431373
v -25.26399374 -11.08184457 50.50803518 0.46274510 0.27450980 0.58431373
v -25.25040150 -11.08915329 45.46735382 0.46274510 0.27450980 0.58431373
v -26.59074783 -10.17035365 45.46735382 0.46274510 0.27450980 0.58431373
v -26.62156105 -10.14372945 50.50803518 0.46274510 0.27450980 0.58431373
v -25.39449453 -11.00719213 50.50803518 0.46274510 0.27450980 0.58431373
v -25.51230669 -10.93932629 45.46735382 0.46274510 0.27450980 0.58431373
v -26.47565365 -10.26641011 45.46735382 0.46274510 0.27450980 0.58431373
v -26.40677929 -10.32279015 50.50803518 0.46274510 0.27450980 0.58431373
v -25.88024616 -10.71119189 50.50803518 0.46274510 0.27450980 0.58431373
v -25.79415321 -10.76757312 45.46735382 0.46274510 0.27450980 0.58431373
v -26.19562149 -10.48827887 45.46735382 0.46274510 0.27450980 0.58431373
v -26.25543594 -10.44286132 50.50803518 0.46274510 0.27450980 0.58431373
v -26.02615356 -10.61200380 50.50803518 0.46274510 0.27450980 0.58431373
v -26.06693506 -10.58276892 45.46735382 0.46274510 0.27450980 0.58431373
f 1 2 5
f 1 5 7
f 1 7 3
f 1 3 8
f 1 8 12
f 1 12 9
f 1 9 4
f 1 4 2
f 2 4 9
f 2 9 13
f 2 13 17
f 2 17 22
f 2 22 27
f 2 27 31
f 2 31 35
f 2 35 39
f 2 39 40
f 2 40 36
f 2 36 32
f 2 32 28
f 2 28 24
f 2 24 23
f 2 23 19
f 2 19 15
f 2 15 10
f 2 10 6
f 2 6 5
f 3 7 11
f 3 11 8
f 5 6 10
f 5 10 14
f 5 14 11
f 5 11 7
f 8 11 14
f 8 14 18
f 8 18 20
f 8 20 25
f 8 25 29
f 8 29 33
f 8 33 37
f 8 37 41
f 8 41 38
f 8 38 34
f 8 34 30
f 8 30 26
f 8 26 21
f 8 21 16
f 8 16 12
f 9 12 13
f 10 15 14
f 12 16 13
f 13 16 21
f 13 21 17
f 14 15 18
f 15 19 20
f 15 20 18
f 17 21 22
f 19 23 20
f 20 23 24
f 20 24 25
f 21 26 27
f 21 27 22
f 24 28 29
f 24 29 25
f 26 30 31
f 26 31 27
f 28 32 29
f 29 32 33
f 30 34 31
f 31 34 35
f 32 36 33
f 33 36 37
f 34 38 39
f 34 39 35
f 36 40 41
f 36 41 37
f 38 41 40
f 38 40 39

