# https://github.com/mikedh/trimesh
v 14.26882505 -20.99867821 18.00565696 0.05490196 0.43137255 0.30980392
v 14.26882505 -20.99635124 20.04301524 0.05490196 0.43137255 0.30980392
v 14.26882505 -16.21983409 18.00565696 0.05490196 0.43137255 0.30980392
v 14.27502275 -39.99534607 18.00565696 0.05490196 0.43137255 0.30980392
v 14.27502275 -39.99767303 20.04521108 0.05490196 0.43137255 0.30980392
v 14.26882505 -20.98936796 20.04521108 0.05490196 0.43137255 0.30980392
v 14.26882505 -16.21983409 20.04521108 0.05490196 0.43137255 0.30980392
v 17.28374839 -16.21983409 18.00565696 0.05490196 0.43137255 0.30980392
v 14.28358197 -39.99767303 18.00565696 0.05490196 0.43137255 0.30980392
v 17.27489352 -39.99767303 20.04521108 0.05490196 0.43137255 0.30980392
v 17.27666497 -16.21983409 20.04521108 0.05490196 0.43137255 0.30980392
v 17.28374839 -39.99767303 18.00565696 0.05490196 0.43137255 0.30980392
v 17.28374839 -16.21983409 18.20010996 0.05490196 0.43137255 0.30980392
v 17.28374839 -39.99767303 18.20010996 0.05490196 0.43137255 0.30980392
f 1 2 6
f 1 6 7
f 1 7 3
f 1 3 8
f 1 8 12
f 1 12 9
f 1 9 4
f 1 4 5
f 1 5 2
f 2 5 6
f 3 7 11
f 3 11 13
f 3 13 8
f 4 9 5
f 5 9 12
f 5 12 14
f 5 14 10
f 5 10 11
f 5 11 7
f 5 7 6
f 8 13 14
f 8 14 12
f 10 14 11
f 11 14 13

