# https://github.com/mikedh/trimesh
v -13.97089124 -14.50447321 33.75000066 0.25098039 0.46274510 0.24313725
v -13.97026777 -14.50447321 36.74944258 0.25098039 0.46274510 0.24313725
v -9.13645566 -14.50447321 33.75000066 0.25098039 0.46274510 0.24313725
v -9.13645566 -20.45258760 33.75000066 0.25098039 0.46274510 0.24313725
v -9.13645566 -20.45258760 36.74944258 0.25098039 0.46274510 0.24313725
v -9.13645566 -14.50447321 36.74944258 0.25098039 0.46274510 0.24313725
v -7.60063529 -14.51061010 33.75000066 0.25098039 0.46274510 0.24313725
v -7.60063529 -22.34119415 33.75000066 0.25098039 0.46274510 0.24313725
v -7.60063529 -22.34119415 36.74944258 0.25098039 0.46274510 0.24313725
v -7.60063529 -14.51061010 36.74944258 0.25098039 0.46274510 0.24313725
f 1 2 6
f 1 6 3
f 1 3 7
f 1 7 8
f 1 8 4
f 1 4 5
f 1 5 2
f 2 5 9
f 2 9 10
f 2 10 6
f 3 6 10
f 3 10 7
f 4 8 9
f 4 9 5
f 7 10 9
f 7 9 8

