# https://github.com/mikedh/trimesh
v -0.75611413 -12.29306459 51.99999905 0.14901961 0.86666667 0.16078431
v -1.18676215 -12.29306459 51.99999905 0.14901961 0.86666667 0.16078431
v -0.75611413 -12.37645030 51.99999905 0.14901961 0.86666667 0.16078431
v -0.75611413 -12.29306459 45.50041294 0.14901961 0.86666667 0.16078431
v -9.13611531 -12.29306459 50.49920177 0.14901961 0.86666667 0.16078431
v -9.13611531 -14.49978471 50.49920177 0.14901961 0.86666667 0.16078431
v -0.75611413 -14.49978471 50.49920177 0.14901961 0.86666667 0.16078431
v -0.75611413 -12.35009551 43.53470898 0.14901961 0.86666667 0.16078431
v -9.13611531 -12.29306459 45.50041294 0.14901961 0.86666667 0.16078431
v -9.13611531 -14.49978471 43.53470898 0.14901961 0.86666667 0.16078431
v -0.75611413 -14.49978471 43.53719449 0.14901961 0.86666667 0.16078431
v -0.75611413 -13.56524944 43.53470898 0.14901961 0.86666667 0.16078431
v -9.13611531 -12.35009551 43.53470898 0.14901961 0.86666667 0.16078431
v -0.75857520 -14.49978471 43.53470898 0.14901961 0.86666667 0.16078431
f 1 2 3
f 1 3 7
f 1 7 11
f 1 11 12
f 1 12 8
f 1 8 4
f 1 4 9
f 1 9 5
f 1 5 2
f 2 5 6
f 2 6 3
f 3 6 7
f 4 8 13
f 4 13 9
f 5 9 13
f 5 13 10
f 5 10 6
f 6 10 14
f 6 14 11
f 6 11 7
f 8 12 14
f 8 14 10
f 8 10 13
f 11 14 12

