# https://github.com/mikedh/trimesh
v -17.72500038 12.34732747 45.46632624 0.09803922 0.01568627 0.92941176
v -22.97430754 12.34732747 45.46632624 0.09803922 0.01568627 0.92941176
v -17.72500038 9.85061228 45.46632624 0.09803922 0.01568627 0.92941176
v -17.72500038 12.34732747 19.97963762 0.09803922 0.01568627 0.92941176
v -22.98099518 9.84914422 42.09587550 0.09803922 0.01568627 0.92941176
v -22.98099518 9.34692264 42.74701452 0.09803922 0.01568627 0.92941176
v -22.97430754 9.85061228 45.46632624 0.09803922 0.01568627 0.92941176
v -22.97430754 12.34732747 20.00708079 0.09803922 0.01568627 0.92941176
v -22.98099518 11.98079348 34.60155225 0.09803922 0.01568627 0.92941176
v -22.98099518 11.97961926 35.91630197 0.09803922 0.01568627 0.92941176
v -22.98099518 11.83541417 37.21608317 0.09803922 0.01568627 0.92941176
v -22.98099518 11.54964685 38.49840140 0.09803922 0.01568627 0.92941176
v -22.98099518 11.12584352 39.73830676 0.09803922 0.01568627 0.92941176
v -22.98099518 10.56987524 40.92582321 0.09803922 0.01568627 0.92941176
v -22.98099518 9.88673687 42.04598045 0.09803922 0.01568627 0.92941176
v -17.72500038 9.34692264 45.45385218 0.09803922 0.01568627 0.92941176
v -17.72500038 10.51642299 19.97963762 0.09803922 0.01568627 0.92941176
v -18.36296320 12.34732747 19.97963762 0.09803922 0.01568627 0.92941176
v -22.97430754 9.34692264 45.45385218 0.09803922 0.01568627 0.92941176
v -22.98099518 9.34692264 27.75337672 0.09803922 0.01568627 0.92941176
v -20.22592068 12.34732747 19.98961663 0.09803922 0.01568627 0.92941176
v -20.22592068 12.34585881 19.97963762 0.09803922 0.01568627 0.92941176
v -20.22592068 10.51642299 19.97963762 0.09803922 0.01568627 0.92941176
v -22.97430754 9.34692264 23.50226974 0.09803922 0.01568627 0.92941176
v -22.98099518 9.36278224 27.77333504 0.09803922 0.01568627 0.92941176
v -22.98099518 9.85061228 28.40700960 0.09803922 0.01568627 0.92941176
v -22.98099518 9.89819109 28.46937901 0.09803922 0.01568627 0.92941176
v -22.98099518 10.57956696 29.58953595 0.09803922 0.01568627 0.92941176
v -22.98099518 11.13377333 30.77954686 0.09803922 0.01568627 0.92941176
v -22.98099518 11.55522823 32.02194786 0.09803922 0.01568627 0.92941176
v -22.98099518 11.83893919 33.29678154 0.09803922 0.01568627 0.92941176
v -17.72500038 9.34692264 26.68311542 0.09803922 0.01568627 0.92941176
v -17.72500038 9.35015321 23.50226974 0.09803922 0.01568627 0.92941176
v -20.22592068 9.34692264 23.50226974 0.09803922 0.01568627 0.92941176
v -17.72860169 9.34692264 26.67563146 0.09803922 0.01568627 0.92941176
f 1 2 7
f 1 7 3
f 1 3 16
f 1 16 32
f 1 32 33
f 1 33 17
f 1 17 4
f 1 4 18
f 1 18 21
f 1 21 8
f 1 8 2
f 2 5 6
f 2 6 7
f 2 8 9
f 2 9 10
f 2 10 11
f 2 11 12
f 2 12 13
f 2 13 14
f 2 14 15
f 2 15 5
f 3 7 19
f 3 19 16
f 4 17 23
f 4 23 22
f 4 22 18
f 5 15 14
f 5 14 13
f 5 13 12
f 5 12 11
f 5 11 10
f 5 10 9
f 5 9 31
f 5 31 30
f 5 30 29
f 5 29 28
f 5 28 27
f 5 27 26
f 5 26 25
f 5 25 20
f 5 20 6
f 6 19 7
f 6 20 24
f 6 24 34
f 6 34 35
f 6 35 32
f 6 32 16
f 6 16 19
f 8 21 22
f 8 22 23
f 8 23 24
f 8 24 20
f 8 20 25
f 8 25 26
f 8 26 27
f 8 27 28
f 8 28 29
f 8 29 30
f 8 30 31
f 8 31 9
f 17 33 34
f 17 34 24
f 17 24 23
f 18 22 21
f 32 35 33
f 33 35 34

