# https://github.com/mikedh/trimesh
v -22.97500134 -20.99911690 22.75145864 0.56470588 0.92549020 0.07058824
v -22.97500134 -14.50067282 0.00000334 0.56470588 0.92549020 0.07058824
v -20.47456026 -20.99911690 22.75145864 0.56470588 0.92549020 0.07058824
v -22.97500134 -20.99911690 47.74528360 0.56470588 0.92549020 0.07058824
v -22.97500134 -12.35039353 0.00000334 0.56470588 0.92549020 0.07058824
v -17.72566199 -14.50067282 0.00000334 0.56470588 0.92549020 0.07058824
v -15.01729250 -15.54186940 5.55649853 0.56470588 0.92549020 0.07058824
v -13.97412062 -14.50067282 7.69481277 0.56470588 0.92549020 0.07058824
v -13.97412062 -14.50155497 33.74999082 0.56470588 0.92549020 0.07058824
v -20.47456026 -20.99911690 47.74528360 0.56470588 0.92549020 0.07058824
v -22.97500134 -18.24933529 50.49751854 0.56470588 0.92549020 0.07058824
v -18.72478127 -11.99333668 0.00000334 0.56470588 0.92549020 0.07058824
v -22.97500134 -11.99333668 20.79523957 0.56470588 0.92549020 0.07058824
v -20.22433996 -11.99333668 5.50447083 0.56470588 0.92549020 0.07058824
v -17.72566199 -11.99333668 0.00000334 0.56470588 0.92549020 0.07058824
v -13.97412062 -12.35039353 7.69481277 0.56470588 0.92549020 0.07058824
v -13.97412062 -14.50067282 50.49751854 0.56470588 0.92549020 0.07058824
v -17.72566199 -18.24933529 50.49751854 0.56470588 0.92549020 0.07058824
v -22.97500134 -11.99333668 53.15090036 0.56470588 0.92549020 0.07058824
v -13.97412062 -11.99333668 45.49771285 0.56470588 0.92549020 0.07058824
v -13.97412062 -11.99333668 50.49751854 0.56470588 0.92549020 0.07058824
f 1 2 6
f 1 6 3
f 1 3 10
f 1 10 4
f 1 4 11
f 1 11 19
f 1 19 13
f 1 13 5
f 1 5 2
f 2 5 12
f 2 12 15
f 2 15 6
f 3 6 7
f 3 7 8
f 3 8 9
f 3 9 10
f 4 10 18
f 4 18 11
f 5 13 14
f 5 14 12
f 6 15 16
f 6 16 8
f 6 8 7
f 8 16 20
f 8 20 21
f 8 21 17
f 8 17 9
f 9 17 10
f 10 17 18
f 11 18 19
f 12 14 13
f 12 13 19
f 12 19 21
f 12 21 20
f 12 20 15
f 15 20 16
f 17 21 19
f 17 19 18

