# https://github.com/mikedh/trimesh
v -0.44698328 -1.42496347 49.00016522 0.81176471 0.39607843 0.87843137
v 3.05022299 0.00034899 48.99604893 0.81176471 0.39607843 0.87843137
v 3.08766484 -0.28394252 48.99604893 0.81176471 0.39607843 0.87843137
v 3.19736302 -0.54895997 48.99604893 0.81176471 0.39607843 0.87843137
v 3.37209195 -0.77639312 48.99604893 0.81176471 0.39607843 0.87843137
v 3.59937102 -0.95178664 48.99604893 0.81176471 0.39607843 0.87843137
v 3.86474878 -1.06164843 48.99604893 0.81176471 0.39607843 0.87843137
v 4.14917588 -1.09923273 48.99604893 0.81176471 0.39607843 0.87843137
v 6.26365900 -1.42496347 49.00016522 0.81176471 0.39607843 0.87843137
v -0.44698328 -1.42496347 50.49978828 0.81176471 0.39607843 0.87843137
v -0.44698328 8.42019677 49.00016522 0.81176471 0.39607843 0.87843137
v 3.42201442 8.42019677 48.99604893 0.81176471 0.39607843 0.87843137
v 4.43360329 -1.06164843 48.99604893 0.81176471 0.39607843 0.87843137
v 6.26365900 -1.42496347 50.49978828 0.81176471 0.39607843 0.87843137
v 4.69898105 -0.95178664 48.99604893 0.81176471 0.39607843 0.87843137
v 4.92691696 -0.77735692 48.99604893 0.81176471 0.39607843 0.87843137
v 5.10164559 -0.54992378 48.99604893 0.81176471 0.39607843 0.87843137
v 5.21200061 -0.28490603 48.99604893 0.81176471 0.39607843 0.87843137
v 6.26365900 5.17830968 48.99604893 0.81176471 0.39607843 0.87843137
v 0.82538486 -1.42496347 51.99999905 0.81176471 0.39607843 0.87843137
v -0.44698328 8.42019677 50.49978828 0.81176471 0.39607843 0.87843137
v 6.26365900 8.42019677 48.99604893 0.81176471 0.39607843 0.87843137
v 2.07541928 -1.42496347 51.99999905 0.81176471 0.39607843 0.87843137
v 6.26365900 8.42019677 50.49978828 0.81176471 0.39607843 0.87843137
v 0.82538486 8.42019677 51.99999905 0.81176471 0.39607843 0.87843137
v 2.07541928 8.42019677 51.99999905 0.81176471 0.39607843 0.87843137
f 1 2 3
f 1 3 4
f 1 4 5
f 1 5 6
f 1 6 7
f 1 7 8
f 1 8 9
f 1 9 14
f 1 14 23
f 1 23 20
f 1 20 10
f 1 10 21
f 1 21 11
f 1 11 2
f 2 11 12
f 2 12 22
f 2 22 19
f 2 19 18
f 2 18 17
f 2 17 16
f 2 16 15
f 2 15 13
f 2 13 8
f 2 8 7
f 2 7 6
f 2 6 5
f 2 5 4
f 2 4 3
f 8 13 9
f 9 13 15
f 9 15 16
f 9 16 17
f 9 17 18
f 9 18 19
f 9 19 22
f 9 22 24
f 9 24 14
f 10 20 25
f 10 25 21
f 11 21 25
f 11 25 26
f 11 26 24
f 11 24 22
f 11 22 12
f 14 24 26
f 14 26 23
f 20 23 26
f 20 26 25

