# https://github.com/mikedh/trimesh
v 6.26365900 -14.50123429 52.47521257 0.43529412 0.89019608 0.96078431
v 6.26365900 -14.50123429 56.68844318 0.43529412 0.89019608 0.96078431
v 6.26365900 -14.39995646 50.79627609 0.43529412 0.89019608 0.96078431
v 6.26520574 -14.50123429 50.79627609 0.43529412 0.89019608 0.96078431
v 14.27450895 -40.00000000 50.79627609 0.43529412 0.89019608 0.96078431
v 6.27603352 -14.50123429 56.69942474 0.43529412 0.89019608 0.96078431
v 6.26365900 -10.50222278 56.68844318 0.43529412 0.89019608 0.96078431
v 14.27450895 -40.00000000 56.69942474 0.43529412 0.89019608 0.96078431
v 6.26365900 -10.50222278 50.79627609 0.43529412 0.89019608 0.96078431
v 17.27374315 -40.00000000 50.79627609 0.43529412 0.89019608 0.96078431
v 6.27603352 -10.50222278 56.69942474 0.43529412 0.89019608 0.96078431
v 16.27451420 -10.44145584 56.69942474 0.43529412 0.89019608 0.96078431
v 16.26832724 -10.44145584 56.69364548 0.43529412 0.89019608 0.96078431
v 14.27450895 -10.44145584 54.69972944 0.43529412 0.89019608 0.96078431
v 22.06571341 -40.00000000 56.69942474 0.43529412 0.89019608 0.96078431
v 14.27450895 -10.44145584 50.79627609 0.43529412 0.89019608 0.96078431
v 22.06571341 -40.00000000 52.30009413 0.43529412 0.89019608 0.96078431
v 17.27374315 -10.44145584 50.79627609 0.43529412 0.89019608 0.96078431
v 22.06571341 -10.44145584 56.69942474 0.43529412 0.89019608 0.96078431
v 22.06571341 -10.44145584 52.30009413 0.43529412 0.89019608 0.96078431
f 1 2 7
f 1 7 9
f 1 9 3
f 1 3 4
f 1 4 5
f 1 5 8
f 1 8 2
f 2 6 11
f 2 11 7
f 2 8 6
f 3 9 16
f 3 16 18
f 3 18 10
f 3 10 5
f 3 5 4
f 5 10 17
f 5 17 15
f 5 15 8
f 6 8 15
f 6 15 19
f 6 19 12
f 6 12 11
f 7 11 12
f 7 12 13
f 7 13 14
f 7 14 16
f 7 16 9
f 10 18 20
f 10 20 17
f 12 19 20
f 12 20 18
f 12 18 16
f 12 16 14
f 12 14 13
f 15 17 20
f 15 20 19

