# https://github.com/mikedh/trimesh
v 13.46186042 30.03197670 41.54676294 0.92549020 0.70196078 0.03137255
v 14.27252293 31.44523859 41.54676294 0.92549020 0.70196078 0.03137255
v 13.46186042 31.15861893 41.54676294 0.92549020 0.70196078 0.03137255
v 12.27499962 30.32867670 41.24911761 0.92549020 0.70196078 0.03137255
v 12.27499962 31.23672962 30.15821910 0.92549020 0.70196078 0.03137255
v 14.27252293 31.23672962 30.15821910 0.92549020 0.70196078 0.03137255
v 14.27252293 30.03229141 41.54564834 0.92549020 0.70196078 0.03137255
v 14.27252293 33.24937820 39.74194145 0.92549020 0.70196078 0.03137255
v 12.27499962 32.74983883 39.53459358 0.92549020 0.70196078 0.03137255
v 12.27499962 31.03578091 41.24911761 0.92549020 0.70196078 0.03137255
v 12.27499962 31.94351912 30.15821910 0.92549020 0.70196078 0.03137255
v 14.27252293 32.64967918 30.15821910 0.92549020 0.70196078 0.03137255
v 14.27252293 33.24937820 30.75796819 0.92549020 0.70196078 0.03137255
v 12.27499962 32.74983883 30.96531636 0.92549020 0.70196078 0.03137255
v 13.48004460 32.36967325 30.15821910 0.92549020 0.70196078 0.03137255
f 1 2 3
f 1 3 10
f 1 10 4
f 1 4 5
f 1 5 6
f 1 6 7
f 1 7 2
f 2 8 3
f 2 7 6
f 2 6 12
f 2 12 13
f 2 13 8
f 3 8 9
f 3 9 10
f 4 10 9
f 4 9 14
f 4 14 11
f 4 11 5
f 5 11 15
f 5 15 12
f 5 12 6
f 8 13 14
f 8 14 9
f 11 14 13
f 11 13 15
f 12 15 13

