# https://github.com/mikedh/trimesh
v 26.47454023 40.00000000 58.69922733 0.54117647 0.42352941 0.64313725
v 27.97500134 40.00000000 52.30019665 0.54117647 0.42352941 0.64313725
v 24.07519341 40.00000000 58.69922733 0.54117647 0.42352941 0.64313725
v 26.47454023 -40.00000000 58.69922733 0.54117647 0.42352941 0.64313725
v 27.97500134 40.00000000 50.80077267 0.54117647 0.42352941 0.64313725
v 27.97500134 -40.00000000 52.30019665 0.54117647 0.42352941 0.64313725
v 22.06629038 40.00000000 56.69948196 0.54117647 0.42352941 0.64313725
v 24.07519341 -40.00000000 58.69922733 0.54117647 0.42352941 0.64313725
v 26.47454023 40.00000000 50.80077267 0.54117647 0.42352941 0.64313725
v 27.97500134 -40.00000000 50.80077267 0.54117647 0.42352941 0.64313725
v 22.06629038 40.00000000 52.30019665 0.54117647 0.42352941 0.64313725
v 22.06629038 -40.00000000 56.69948196 0.54117647 0.42352941 0.64313725
v 26.47454023 -40.00000000 50.80077267 0.54117647 0.42352941 0.64313725
v 22.06629038 -40.00000000 52.30019665 0.54117647 0.42352941 0.64313725
f 1 2 5
f 1 5 9
f 1 9 11
f 1 11 7
f 1 7 3
f 1 3 8
f 1 8 4
f 1 4 6
f 1 6 2
f 2 6 10
f 2 10 5
f 3 7 12
f 3 12 8
f 4 8 12
f 4 12 14
f 4 14 13
f 4 13 10
f 4 10 6
f 5 10 13
f 5 13 9
f 7 11 14
f 7 14 12
f 9 13 14
f 9 14 11

