# https://github.com/mikedh/trimesh
v -17.72524476 -9.17827308 32.85925961 0.12941176 0.71372549 0.39215686
v -17.97507167 -9.17827308 33.19881535 0.12941176 0.71372549 0.39215686
v -17.72524476 -9.17827308 27.04828238 0.12941176 0.71372549 0.39215686
v -17.72524476 -6.94990277 32.00013554 0.12941176 0.71372549 0.39215686
v -20.21961451 -9.17712629 33.18918264 0.12941176 0.71372549 0.39215686
v -20.21961451 -9.17827308 33.18436629 0.12941176 0.71372549 0.39215686
v -17.97507167 -6.83546841 32.25420034 0.12941176 0.71372549 0.39215686
v -20.21961451 -6.83546841 32.25420034 0.12941176 0.71372549 0.39215686
v -20.21961451 -9.17827308 27.04828238 0.12941176 0.71372549 0.39215686
f 1 2 6
f 1 6 9
f 1 9 3
f 1 3 4
f 1 4 2
f 2 5 6
f 2 4 7
f 2 7 8
f 2 8 5
f 3 9 8
f 3 8 7
f 3 7 4
f 5 8 9
f 5 9 6

