# https://github.com/mikedh/trimesh
v 7.43181944 18.18736076 13.79999971 0.56470588 0.01568627 0.61568627
v 17.28307843 18.18736076 13.79999971 0.56470588 0.01568627 0.61568627
v 7.43181944 18.18736076 17.99956179 0.56470588 0.01568627 0.61568627
v 14.27417755 40.00000000 13.79999971 0.56470588 0.01568627 0.61568627
v 17.28307843 18.18736076 14.42949867 0.56470588 0.01568627 0.61568627
v 17.28307843 40.00000000 13.79999971 0.56470588 0.01568627 0.61568627
v 10.81394076 18.18736076 18.48728514 0.56470588 0.01568627 0.61568627
v 14.27417755 40.00000000 18.48728514 0.56470588 0.01568627 0.61568627
v 17.28018522 18.18736076 18.19960570 0.56470588 0.01568627 0.61568627
v 17.28307843 40.00000000 18.19960570 0.56470588 0.01568627 0.61568627
v 17.27439880 18.18736076 18.48728514 0.56470588 0.01568627 0.61568627
v 17.27439880 40.00000000 18.48728514 0.56470588 0.01568627 0.61568627
f 1 2 5
f 1 5 9
f 1 9 11
f 1 11 7
f 1 7 3
f 1 3 8
f 1 8 4
f 1 4 6
f 1 6 2
f 2 6 10
f 2 10 5
f 3 7 8
f 4 8 12
f 4 12 10
f 4 10 6
f 5 10 9
f 7 11 12
f 7 12 8
f 9 10 11
f 10 12 11

