# https://github.com/mikedh/trimesh
v -0.44698328 10.20293236 45.50063705 0.84313725 0.69803922 0.29411765
v -0.44698328 8.42019677 48.99941182 0.84313725 0.69803922 0.29411765
v -0.44698328 10.49474120 45.50063705 0.84313725 0.69803922 0.29411765
v 3.42201442 8.42019677 45.50063705 0.84313725 0.69803922 0.29411765
v -0.44698328 8.42019677 50.49970484 0.84313725 0.69803922 0.29411765
v -0.44698328 10.49474120 50.68740225 0.84313725 0.69803922 0.29411765
v 6.26365900 10.49474120 45.50063705 0.84313725 0.69803922 0.29411765
v 6.26365900 8.42019677 45.50063705 0.84313725 0.69803922 0.29411765
v 0.82538486 8.42019677 51.99936247 0.84313725 0.69803922 0.29411765
v 0.82538486 10.49474120 51.99936247 0.84313725 0.69803922 0.29411765
v 6.26365900 10.49474120 50.49970484 0.84313725 0.69803922 0.29411765
v 6.26365900 8.42019677 50.49970484 0.84313725 0.69803922 0.29411765
v 2.07541928 8.42019677 51.99936247 0.84313725 0.69803922 0.29411765
v 2.07541928 10.49474120 51.99936247 0.84313725 0.69803922 0.29411765
f 1 2 5
f 1 5 6
f 1 6 3
f 1 3 7
f 1 7 8
f 1 8 4
f 1 4 2
f 2 4 8
f 2 8 12
f 2 12 13
f 2 13 9
f 2 9 5
f 3 6 10
f 3 10 14
f 3 14 11
f 3 11 7
f 5 9 6
f 6 9 10
f 7 11 12
f 7 12 8
f 9 13 14
f 9 14 10
f 11 14 13
f 11 13 12

