# https://github.com/mikedh/trimesh
v -27.97500134 1.62837967 28.08500832 0.23529412 0.93333333 0.61176471
v -27.97500134 0.20065188 29.87379184 0.23529412 0.93333333 0.61176471
v -27.97500134 6.49176955 28.08500832 0.23529412 0.93333333 0.61176471
v -24.97468233 1.62837967 28.08500832 0.23529412 0.93333333 0.61176471
v -27.97500134 0.20065188 31.77033356 0.23529412 0.93333333 0.61176471
v -24.97468233 0.20065188 29.87379184 0.23529412 0.93333333 0.61176471
v -27.97500134 6.49176955 33.68914521 0.23529412 0.93333333 0.61176471
v -20.22500038 6.49176955 28.08500832 0.23529412 0.93333333 0.61176471
v -20.47534227 2.98219562 28.08500832 0.23529412 0.93333333 0.61176471
v -20.47534227 0.20065188 31.23944557 0.23529412 0.93333333 0.61176471
v -27.97500134 3.49526584 35.42333162 0.23529412 0.93333333 0.61176471
v -20.22500038 0.20065188 31.77033356 0.23529412 0.93333333 0.61176471
v -27.97500134 5.37262321 35.42333162 0.23529412 0.93333333 0.61176471
v -24.97468233 6.49176955 33.68914521 0.23529412 0.93333333 0.61176471
v -20.22500038 6.49176955 32.05265975 0.23529412 0.93333333 0.61176471
v -20.22500038 3.23287934 28.08500832 0.23529412 0.93333333 0.61176471
v -20.22500038 0.20065188 31.48226044 0.23529412 0.93333333 0.61176471
v -20.22500038 3.49526584 35.42333162 0.23529412 0.93333333 0.61176471
v -24.97468233 5.37262321 35.42333162 0.23529412 0.93333333 0.61176471
v -20.47534227 6.49176955 32.30912393 0.23529412 0.93333333 0.61176471
v -20.47534227 4.02065516 35.42333162 0.23529412 0.93333333 0.61176471
v -20.22500038 3.76134813 35.42333162 0.23529412 0.93333333 0.61176471
f 1 2 5
f 1 5 11
f 1 11 13
f 1 13 7
f 1 7 3
f 1 3 8
f 1 8 16
f 1 16 9
f 1 9 4
f 1 4 6
f 1 6 2
f 2 6 10
f 2 10 17
f 2 17 12
f 2 12 5
f 3 7 14
f 3 14 20
f 3 20 15
f 3 15 8
f 4 9 10
f 4 10 6
f 5 12 18
f 5 18 11
f 7 13 19
f 7 19 14
f 8 15 22
f 8 22 18
f 8 18 12
f 8 12 17
f 8 17 16
f 9 16 17
f 9 17 10
f 11 18 22
f 11 22 21
f 11 21 19
f 11 19 13
f 14 19 20
f 15 21 22
f 15 20 21
f 19 21 20

