# https://github.com/mikedh/trimesh
v -20.25003433 0.20003632 45.45576668 0.49019608 0.22352941 0.25098039
v -20.22500038 -0.42085782 45.45576668 0.49019608 0.22352941 0.25098039
v -20.22500038 -3.21386993 41.82665801 0.49019608 0.22352941 0.25098039
v -20.47534227 -2.95347869 41.82665801 0.49019608 0.22352941 0.25098039
v -20.47534227 0.20003632 45.22590494 0.49019608 0.22352941 0.25098039
v -27.97500134 0.20003632 45.45576668 0.49019608 0.22352941 0.25098039
v -20.22500038 -4.96481121 45.45576668 0.49019608 0.22352941 0.25098039
v -20.22500038 -4.96481121 41.82665801 0.49019608 0.22352941 0.25098039
v -24.97240782 -1.59641057 41.82665801 0.49019608 0.22352941 0.25098039
v -24.97468233 0.20003632 43.87338257 0.49019608 0.22352941 0.25098039
v -27.97500134 0.20003632 43.87338257 0.49019608 0.22352941 0.25098039
v -27.97500134 -3.32864434 45.45576668 0.49019608 0.22352941 0.25098039
v -25.56109190 -4.96481121 45.45576668 0.49019608 0.22352941 0.25098039
v -27.97500134 -4.96481121 41.82665801 0.49019608 0.22352941 0.25098039
v -27.95072556 -1.59438804 41.82665801 0.49019608 0.22352941 0.25098039
v -27.97500134 -1.59438804 41.82665801 0.49019608 0.22352941 0.25098039
v -27.97500134 -3.67650688 45.35167074 0.49019608 0.22352941 0.25098039
v -27.53879786 -3.70886624 45.45576668 0.49019608 0.22352941 0.25098039
v -27.21487045 -3.91667366 45.45576668 0.49019608 0.22352941 0.25098039
v -27.97500134 -4.82425094 44.85642171 0.49019608 0.22352941 0.25098039
v -26.35308504 -4.96481121 45.23905015 0.49019608 0.22352941 0.25098039
v -27.97500134 -4.96481121 44.77506375 0.49019608 0.22352941 0.25098039
v -27.52893686 -4.96481121 44.90473843 0.49019608 0.22352941 0.25098039
f 1 2 3
f 1 3 4
f 1 4 5
f 1 5 10
f 1 10 11
f 1 11 6
f 1 6 12
f 1 12 18
f 1 18 19
f 1 19 13
f 1 13 7
f 1 7 2
f 2 7 8
f 2 8 3
f 3 8 14
f 3 14 16
f 3 16 15
f 3 15 9
f 3 9 4
f 4 9 5
f 5 9 10
f 6 11 16
f 6 16 14
f 6 14 22
f 6 22 20
f 6 20 17
f 6 17 12
f 7 13 21
f 7 21 23
f 7 23 22
f 7 22 14
f 7 14 8
f 9 15 10
f 10 15 16
f 10 16 11
f 12 17 18
f 13 19 17
f 13 17 20
f 13 20 21
f 17 19 18
f 20 22 23
f 20 23 21

