# https://github.com/mikedh/trimesh
v 6.26365900 -12.35020995 43.53092647 0.43529412 0.98823529 0.10196078
v 2.27177083 -12.35020995 43.53092647 0.43529412 0.98823529 0.10196078
v 6.26365900 -14.50000048 43.53092647 0.43529412 0.98823529 0.10196078
v 6.26365900 -12.35020995 13.35518813 0.43529412 0.98823529 0.10196078
v 2.27177083 -14.50000048 43.53092647 0.43529412 0.98823529 0.10196078
v 2.27177083 -12.35020995 20.00247693 0.43529412 0.98823529 0.10196078
v 6.26365900 -14.50000048 13.35518813 0.43529412 0.98823529 0.10196078
v 2.27177083 -14.50000048 20.00247693 0.43529412 0.98823529 0.10196078
f 1 2 5
f 1 5 3
f 1 3 7
f 1 7 4
f 1 4 6
f 1 6 2
f 2 6 8
f 2 8 5
f 3 5 8
f 3 8 7
f 4 7 8
f 4 8 6

