# https://github.com/mikedh/trimesh
v 6.26365900 14.50000048 44.27103615 0.28627451 0.61568627 0.42745098
v 2.10568428 14.50000048 44.27103615 0.28627451 0.61568627 0.42745098
v 6.26365900 12.35020995 44.27103615 0.28627451 0.61568627 0.42745098
v 6.26365900 14.50000048 13.35223532 0.28627451 0.61568627 0.42745098
v 2.10568428 12.35020995 44.27103615 0.28627451 0.61568627 0.42745098
v 2.10568428 14.50000048 20.00147200 0.28627451 0.61568627 0.42745098
v 6.26365900 12.35020995 13.35223532 0.28627451 0.61568627 0.42745098
v 2.10568428 12.35020995 20.00147200 0.28627451 0.61568627 0.42745098
f 1 2 5
f 1 5 3
f 1 3 7
f 1 7 4
f 1 4 6
f 1 6 2
f 2 6 8
f 2 8 5
f 3 5 8
f 3 8 7
f 4 7 8
f 4 8 6

