# https://github.com/mikedh/trimesh
v -17.72500038 -8.00014317 45.46735263 0.86274510 0.11372549 0.51372549
v -22.97441244 -8.00014317 45.46735263 0.86274510 0.11372549 0.51372549
v -17.72500038 -9.17827308 45.46735263 0.86274510 0.11372549 0.51372549
v -17.72500038 -8.00014317 38.32889593 0.86274510 0.11372549 0.51372549
v -27.97500134 -8.00014317 42.41122818 0.86274510 0.11372549 0.51372549
v -26.97468281 -8.00325692 45.46735263 0.86274510 0.11372549 0.51372549
v -26.97468281 -9.17827308 45.46735263 0.86274510 0.11372549 0.51372549
v -17.72500038 -9.17827308 37.64225876 0.86274510 0.11372549 0.51372549
v -17.97583222 -9.17827308 37.29197717 0.86274510 0.11372549 0.51372549
v -17.97583222 -8.00014317 38.06216812 0.86274510 0.11372549 0.51372549
v -27.97500134 -8.62276673 41.66888809 0.86274510 0.11372549 0.51372549
v -27.97500134 -8.00014317 36.54535270 0.86274510 0.11372549 0.51372549
v -27.97500134 -9.17827308 40.82478499 0.86274510 0.11372549 0.51372549
v -24.72421885 -9.17827308 34.52507532 0.86274510 0.11372549 0.51372549
v -24.72421885 -8.73820424 34.52507532 0.86274510 0.11372549 0.51372549
v -24.97404575 -8.46996486 34.52507532 0.86274510 0.11372549 0.51372549
v -24.97404575 -8.00014317 36.54535270 0.86274510 0.11372549 0.51372549
v -27.97500134 -8.46996486 34.52507532 0.86274510 0.11372549 0.51372549
v -27.97500134 -9.17827308 34.52507532 0.86274510 0.11372549 0.51372549
f 1 2 6
f 1 6 7
f 1 7 3
f 1 3 8
f 1 8 4
f 1 4 10
f 1 10 17
f 1 17 12
f 1 12 5
f 1 5 2
f 2 5 6
f 3 7 13
f 3 13 19
f 3 19 14
f 3 14 9
f 3 9 8
f 4 8 9
f 4 9 10
f 5 11 7
f 5 7 6
f 5 12 18
f 5 18 19
f 5 19 13
f 5 13 11
f 7 11 13
f 9 14 15
f 9 15 16
f 9 16 10
f 10 16 17
f 12 17 16
f 12 16 18
f 14 19 18
f 14 18 16
f 14 16 15

