# https://github.com/mikedh/trimesh
v 17.28404284 14.51158881 15.37721610 0.56470588 0.26274510 0.52156863
v 17.28404284 14.51158881 13.79999971 0.56470588 0.26274510 0.52156863
v 17.28404284 18.18735838 14.42928529 0.56470588 0.26274510 0.52156863
v 17.27434635 18.18735838 30.15821910 0.56470588 0.26274510 0.52156863
v 17.27434635 14.51158881 30.15821910 0.56470588 0.26274510 0.52156863
v 6.27959967 14.51158881 13.79999971 0.56470588 0.26274510 0.52156863
v 17.28404284 18.18735838 13.79999971 0.56470588 0.26274510 0.52156863
v 10.81388235 18.18735838 30.15821910 0.56470588 0.26274510 0.52156863
v 6.28929555 14.51158881 30.15821910 0.56470588 0.26274510 0.52156863
v 6.27959967 14.51158881 18.00003982 0.56470588 0.26274510 0.52156863
v 7.43229270 18.18735838 13.79999971 0.56470588 0.26274510 0.52156863
v 7.43229270 18.18735838 18.00003982 0.56470588 0.26274510 0.52156863
f 1 2 7
f 1 7 3
f 1 3 4
f 1 4 5
f 1 5 9
f 1 9 10
f 1 10 6
f 1 6 2
f 2 6 11
f 2 11 7
f 3 7 11
f 3 11 12
f 3 12 8
f 3 8 4
f 4 8 9
f 4 9 5
f 6 10 12
f 6 12 11
f 8 12 9
f 9 12 10

