# https://github.com/mikedh/trimesh
v 17.27451086 40.00000000 30.15821910 0.41176471 0.06274510 0.69019608
v 17.27451086 40.00000000 18.48728514 0.41176471 0.06274510 0.69019608
v 14.27541018 40.00000000 30.15821910 0.41176471 0.06274510 0.69019608
v 17.27451086 18.18736076 30.15821910 0.41176471 0.06274510 0.69019608
v 14.27541018 40.00000000 18.48728514 0.41176471 0.06274510 0.69019608
v 17.27451086 18.18736076 18.48728514 0.41176471 0.06274510 0.69019608
v 12.27519512 31.94196224 30.15821910 0.41176471 0.06274510 0.69019608
v 14.27198410 18.18736076 30.15821910 0.41176471 0.06274510 0.69019608
v 14.27198410 20.99721193 18.48728514 0.41176471 0.06274510 0.69019608
v 12.27519512 31.03452682 29.24999750 0.41176471 0.06274510 0.69019608
v 14.27198410 18.18736076 18.48728514 0.41176471 0.06274510 0.69019608
v 12.27519512 31.23522997 30.15821910 0.41176471 0.06274510 0.69019608
v 12.27519512 30.32779455 29.24999750 0.41176471 0.06274510 0.69019608
f 1 2 5
f 1 5 3
f 1 3 7
f 1 7 12
f 1 12 8
f 1 8 4
f 1 4 6
f 1 6 2
f 2 6 11
f 2 11 9
f 2 9 5
f 3 5 7
f 4 8 11
f 4 11 6
f 5 9 10
f 5 10 7
f 7 10 13
f 7 13 12
f 8 12 13
f 8 13 11
f 9 11 13
f 9 13 10

