# https://github.com/mikedh/trimesh
v 6.26365900 -1.42496347 50.49978828 0.31372549 0.36078431 0.56862745
v 6.26365900 -8.39967847 50.49978828 0.31372549 0.36078431 0.56862745
v 6.26365900 -1.42496347 49.00016642 0.31372549 0.36078431 0.56862745
v 2.07303911 -1.42496347 51.99999905 0.31372549 0.36078431 0.56862745
v 6.26365900 -8.39967847 48.99634337 0.31372549 0.36078431 0.56862745
v 2.07303911 -8.39967847 51.99999905 0.31372549 0.36078431 0.56862745
v 6.26365900 -5.17858386 48.99634337 0.31372549 0.36078431 0.56862745
v 2.60967970 -1.42496347 49.00016642 0.31372549 0.36078431 0.56862745
v 0.82339019 -1.42496347 51.99999905 0.31372549 0.36078431 0.56862745
v 3.44629616 -8.39967847 48.99634337 0.31372549 0.36078431 0.56862745
v 0.82339019 -8.39967847 51.99999905 0.31372549 0.36078431 0.56862745
v -9.13611531 -1.42496347 49.00045967 0.31372549 0.36078431 0.56862745
v -9.13611531 -1.42496347 50.49978828 0.31372549 0.36078431 0.56862745
v -9.13611531 -8.39967847 49.00045967 0.31372549 0.36078431 0.56862745
v -9.13611531 -8.39967847 50.49978828 0.31372549 0.36078431 0.56862745
f 1 2 5
f 1 5 7
f 1 7 3
f 1 3 8
f 1 8 12
f 1 12 13
f 1 13 9
f 1 9 4
f 1 4 6
f 1 6 2
f 2 6 11
f 2 11 15
f 2 15 14
f 2 14 10
f 2 10 5
f 3 7 8
f 4 9 11
f 4 11 6
f 5 10 7
f 7 10 12
f 7 12 8
f 9 13 15
f 9 15 11
f 10 14 12
f 12 14 15
f 12 15 13

