# https://github.com/mikedh/trimesh
v -9.13611531 -1.42496347 48.99960852 0.67843137 0.35686275 0.43529412
v -0.44698358 -1.42496347 48.99960852 0.67843137 0.35686275 0.43529412
v -9.13611531 -1.42496347 50.50000048 0.67843137 0.35686275 0.43529412
v -9.13611531 -0.45357645 46.49999952 0.67843137 0.35686275 0.43529412
v -0.44698358 -1.42496347 50.50000048 0.67843137 0.35686275 0.43529412
v -9.11315084 -0.42472333 46.49999952 0.67843137 0.35686275 0.43529412
v -9.02894735 -0.21986663 46.49999952 0.67843137 0.35686275 0.43529412
v -8.99917841 0.00037849 46.49999952 0.67843137 0.35686275 0.43529412
v -0.44698358 8.40047061 48.99960852 0.67843137 0.35686275 0.43529412
v -9.13611531 8.40047061 50.50000048 0.67843137 0.35686275 0.43529412
v -9.13611531 0.45433342 46.49999952 0.67843137 0.35686275 0.43529412
v -0.44698358 8.40047061 50.50000048 0.67843137 0.35686275 0.43529412
v -9.02894735 0.22062361 46.49999952 0.67843137 0.35686275 0.43529412
v -9.11315084 0.42548060 46.49999952 0.67843137 0.35686275 0.43529412
v -9.13611531 8.40047061 48.99960852 0.67843137 0.35686275 0.43529412
f 1 2 5
f 1 5 3
f 1 3 10
f 1 10 15
f 1 15 11
f 1 11 4
f 1 4 2
f 2 4 6
f 2 6 7
f 2 7 8
f 2 8 9
f 2 9 12
f 2 12 5
f 3 5 12
f 3 12 10
f 4 11 14
f 4 14 13
f 4 13 8
f 4 8 7
f 4 7 6
f 8 13 9
f 9 13 14
f 9 14 11
f 9 11 15
f 9 15 10
f 9 10 12

