# https://github.com/mikedh/trimesh
v 12.27284431 -19.37324882 30.16023850 0.26274510 0.77254902 0.45490196
v 6.26365900 -14.50002432 30.16023850 0.26274510 0.77254902 0.45490196
v 12.27284431 -12.35021472 30.16023850 0.26274510 0.77254902 0.45490196
v 12.27284431 -19.37324882 50.79569912 0.26274510 0.77254902 0.45490196
v 6.26365900 -12.35021472 30.16023850 0.26274510 0.77254902 0.45490196
v 6.26483560 -14.50002432 50.79569912 0.26274510 0.77254902 0.45490196
v 6.26365900 -14.39948916 50.79569912 0.26274510 0.77254902 0.45490196
v 12.27284431 -12.33850837 45.49896097 0.26274510 0.77254902 0.45490196
v 12.27284431 -12.33850837 50.79569912 0.26274510 0.77254902 0.45490196
v 6.26365900 -12.33850837 45.49896097 0.26274510 0.77254902 0.45490196
v 6.26365900 -12.33850837 50.79569912 0.26274510 0.77254902 0.45490196
f 1 2 5
f 1 5 3
f 1 3 8
f 1 8 9
f 1 9 4
f 1 4 2
f 2 4 6
f 2 6 7
f 2 7 11
f 2 11 10
f 2 10 5
f 3 5 10
f 3 10 8
f 4 9 11
f 4 11 7
f 4 7 6
f 8 10 11
f 8 11 9

