# https://github.com/mikedh/trimesh
v 14.27274942 -16.21983290 13.80086994 0.31764706 0.66666667 0.12941176
v 14.27274942 -14.49956059 0.00590420 0.31764706 0.66666667 0.12941176
v 14.27510738 -14.49956059 0.00000095 0.31764706 0.66666667 0.12941176
v 14.72638845 -16.21983290 13.80086994 0.31764706 0.66666667 0.12941176
v 14.27274942 -16.21983290 30.15822029 0.31764706 0.66666667 0.12941176
v 14.27274942 -12.34953046 0.00590420 0.31764706 0.66666667 0.12941176
v 14.27510738 -7.50013113 0.00000095 0.31764706 0.66666667 0.12941176
v 14.72638845 -14.49956059 0.00000095 0.31764706 0.66666667 0.12941176
v 17.28404284 -16.21858716 13.80382156 0.31764706 0.66666667 0.12941176
v 14.72638845 -16.21983290 30.15822029 0.31764706 0.66666667 0.12941176
v 14.27274942 -12.34953046 30.15822029 0.31764706 0.66666667 0.12941176
v 15.52519560 -3.50027859 0.00295258 0.31764706 0.66666667 0.12941176
v 14.72638845 -7.50013113 0.00000095 0.31764706 0.66666667 0.12941176
v 14.27510738 -7.50013113 27.33605242 0.31764706 0.66666667 0.12941176
v 17.27461100 -14.49831486 0.00295258 0.31764706 0.66666667 0.12941176
v 17.28404284 -7.49141097 13.80382156 0.31764706 0.66666667 0.12941176
v 17.28404284 -16.21858716 18.19943523 0.31764706 0.66666667 0.12941176
v 17.27461100 -16.21858716 30.15822029 0.31764706 0.66666667 0.12941176
v 14.27510738 -9.62898374 30.15822029 0.31764706 0.66666667 0.12941176
v 17.27461100 -3.50027859 0.00295258 0.31764706 0.66666667 0.12941176
v 15.52519560 -3.50027859 13.78610945 0.31764706 0.66666667 0.12941176
v 17.27461100 -3.49405050 13.80972600 0.31764706 0.66666667 0.12941176
v 17.28374839 -3.49405050 13.80677438 0.31764706 0.66666667 0.12941176
v 15.52549005 -3.50152433 24.59359145 0.31764706 0.66666667 0.12941176
v 17.28404284 -7.49141097 18.19943523 0.31764706 0.66666667 0.12941176
v 17.27461100 -10.45860171 30.15822029 0.31764706 0.66666667 0.12941176
v 17.27461100 -3.49405050 18.19943523 0.31764706 0.66666667 0.12941176
v 17.28374839 -3.49405050 18.19943523 0.31764706 0.66666667 0.12941176
v 16.69098020 -3.50152433 24.28952968 0.31764706 0.66666667 0.12941176
v 17.27461100 -3.50152433 24.13602269 0.31764706 0.66666667 0.12941176
f 1 2 3
f 1 3 8
f 1 8 4
f 1 4 10
f 1 10 5
f 1 5 11
f 1 11 6
f 1 6 2
f 2 6 7
f 2 7 3
f 3 7 13
f 3 13 8
f 4 9 17
f 4 17 10
f 4 8 9
f 5 10 18
f 5 18 26
f 5 26 19
f 5 19 11
f 6 11 14
f 6 14 7
f 7 12 20
f 7 20 13
f 7 14 21
f 7 21 12
f 8 13 20
f 8 20 15
f 8 15 9
f 9 15 20
f 9 20 16
f 9 16 25
f 9 25 17
f 10 17 18
f 11 19 14
f 12 21 27
f 12 27 22
f 12 22 23
f 12 23 20
f 14 19 24
f 14 24 21
f 16 23 28
f 16 28 25
f 16 20 23
f 17 25 26
f 17 26 18
f 19 26 24
f 21 24 27
f 22 27 28
f 22 28 23
f 24 29 28
f 24 28 27
f 24 26 29
f 25 28 26
f 26 28 30
f 26 30 29
f 28 29 30

