# https://github.com/mikedh/trimesh
v -18.72539163 9.35000062 0.00195599 0.94509804 0.72941176 0.25098039
v -18.72539163 9.85082626 0.00000095 0.94509804 0.72941176 0.25098039
v -17.72500038 9.35000062 0.00195599 0.94509804 0.72941176 0.25098039
v -18.72539163 9.35000062 4.12656879 0.94509804 0.72941176 0.25098039
v -20.22500038 9.45122182 5.50144053 0.94509804 0.72941176 0.25098039
v -18.72539163 12.34732747 0.00391102 0.94509804 0.72941176 0.25098039
v -17.72500038 9.85082626 0.00000095 0.94509804 0.72941176 0.25098039
v -20.22500038 12.34732747 5.50144053 0.94509804 0.72941176 0.25098039
v -17.72500038 9.35000062 4.12656879 0.94509804 0.72941176 0.25098039
v -20.22500038 10.51654100 19.97963524 0.94509804 0.72941176 0.25098039
v -17.72500038 12.34732747 0.00391102 0.94509804 0.72941176 0.25098039
v -20.22500038 12.34586000 19.97963524 0.94509804 0.72941176 0.25098039
v -18.36297035 12.34732747 19.97963524 0.94509804 0.72941176 0.25098039
v -17.72500038 10.51654100 19.97963524 0.94509804 0.72941176 0.25098039
v -17.72500038 12.34732747 19.97963524 0.94509804 0.72941176 0.25098039
f 1 2 7
f 1 7 3
f 1 3 9
f 1 9 4
f 1 4 5
f 1 5 2
f 2 6 11
f 2 11 7
f 2 5 8
f 2 8 6
f 3 7 11
f 3 11 15
f 3 15 14
f 3 14 9
f 4 9 14
f 4 14 10
f 4 10 5
f 5 10 12
f 5 12 8
f 6 8 13
f 6 13 15
f 6 15 11
f 8 12 13
f 10 14 15
f 10 15 13
f 10 13 12

