# https://github.com/mikedh/trimesh
v -20.22500038 6.49176955 45.45576668 0.58823529 0.57254902 0.65098039
v -20.22500038 0.42115510 45.45576668 0.58823529 0.57254902 0.65098039
v -20.22500038 6.49176955 42.22591734 0.58823529 0.57254902 0.65098039
v -22.97573566 6.49176955 45.45576668 0.58823529 0.57254902 0.65098039
v -20.25003433 0.20065188 45.45576668 0.58823529 0.57254902 0.65098039
v -20.22500038 3.23226362 42.22591734 0.58823529 0.57254902 0.65098039
v -27.97500134 6.49176955 42.22591734 0.58823529 0.57254902 0.65098039
v -27.97500134 6.49176955 43.79610157 0.58823529 0.57254902 0.65098039
v -27.97500134 5.90663552 44.23149085 0.58823529 0.57254902 0.65098039
v -27.97500134 4.82444465 44.85627627 0.58823529 0.57254902 0.65098039
v -25.74467659 4.86201644 45.45576668 0.58823529 0.57254902 0.65098039
v -20.47534227 0.20065188 45.22589779 0.58823529 0.57254902 0.65098039
v -20.47534227 2.98281163 42.22591734 0.58823529 0.57254902 0.65098039
v -27.97500134 0.20065188 45.45576668 0.58823529 0.57254902 0.65098039
v -27.97500134 1.64685756 42.22591734 0.58823529 0.57254902 0.65098039
v -27.97500134 3.67634952 45.35142398 0.58823529 0.57254902 0.65098039
v -27.36128330 3.82725269 45.45576668 0.58823529 0.57254902 0.65098039
v -24.97468233 0.20065188 43.87356734 0.58823529 0.57254902 0.65098039
v -24.97468233 1.64685756 42.22591734 0.58823529 0.57254902 0.65098039
v -27.97500134 3.32958072 45.45576668 0.58823529 0.57254902 0.65098039
v -27.97500134 0.20065188 43.87356734 0.58823529 0.57254902 0.65098039
v -27.57976294 3.67696553 45.45576668 0.58823529 0.57254902 0.65098039
f 1 2 6
f 1 6 3
f 1 3 7
f 1 7 8
f 1 8 4
f 1 4 11
f 1 11 17
f 1 17 22
f 1 22 20
f 1 20 14
f 1 14 5
f 1 5 2
f 2 5 6
f 3 6 13
f 3 13 19
f 3 19 15
f 3 15 7
f 4 8 9
f 4 9 10
f 4 10 11
f 5 12 13
f 5 13 6
f 5 14 21
f 5 21 18
f 5 18 12
f 7 15 21
f 7 21 14
f 7 14 20
f 7 20 16
f 7 16 10
f 7 10 9
f 7 9 8
f 10 16 17
f 10 17 11
f 12 18 19
f 12 19 13
f 15 19 18
f 15 18 21
f 16 20 22
f 16 22 17

