# https://github.com/mikedh/trimesh
v 6.26365960 10.49999952 50.79627609 0.77647059 0.86666667 0.97647059
v 14.26172853 10.49999952 50.79627609 0.77647059 0.86666667 0.97647059
v 6.26365960 10.49999952 56.68728685 0.77647059 0.86666667 0.97647059
v 6.26365960 14.40168738 50.79627609 0.77647059 0.86666667 0.97647059
v 14.26172853 10.49999952 56.69942474 0.77647059 0.86666667 0.97647059
v 14.26172853 20.99101067 50.79627609 0.77647059 0.86666667 0.97647059
v 6.27540410 10.49999952 56.69942474 0.77647059 0.86666667 0.97647059
v 6.26365960 10.50576687 56.68844318 0.77647059 0.86666667 0.97647059
v 6.26365960 14.50261712 52.47636890 0.77647059 0.86666667 0.97647059
v 6.26444221 14.50261712 50.79627609 0.77647059 0.86666667 0.97647059
v 14.26172853 39.96019125 56.69942474 0.77647059 0.86666667 0.97647059
v 14.26172853 39.96019125 52.50006294 0.77647059 0.86666667 0.97647059
v 6.27540410 14.50261712 56.69942474 0.77647059 0.86666667 0.97647059
v 6.26365960 14.50261712 56.68844318 0.77647059 0.86666667 0.97647059
f 1 2 5
f 1 5 7
f 1 7 3
f 1 3 8
f 1 8 14
f 1 14 9
f 1 9 4
f 1 4 10
f 1 10 6
f 1 6 2
f 2 6 12
f 2 12 11
f 2 11 5
f 3 7 8
f 4 9 10
f 5 11 13
f 5 13 7
f 6 10 12
f 7 13 14
f 7 14 8
f 9 14 11
f 9 11 12
f 9 12 10
f 11 14 13

