# https://github.com/mikedh/trimesh
v -20.22061586 -9.17703569 33.18916833 0.56470588 0.18039216 0.14117647
v -20.22516966 -4.96572912 32.73379123 0.56470588 0.18039216 0.14117647
v -20.47567844 -4.96572912 33.06507266 0.56470588 0.18039216 0.14117647
v -24.72445965 -4.96572912 34.52400541 0.56470588 0.18039216 0.14117647
v -24.72445965 -9.17827308 34.52400541 0.56470588 0.18039216 0.14117647
v -20.22061586 -9.17827308 33.18485177 0.56470588 0.18039216 0.14117647
v -20.22061586 -6.83549643 32.25359535 0.56470588 0.18039216 0.14117647
v -20.22516966 -4.96572912 23.50000000 0.56470588 0.18039216 0.14117647
v -27.97499895 -4.96572912 34.52400541 0.56470588 0.18039216 0.14117647
v -27.97499895 -9.17827308 34.52400541 0.56470588 0.18039216 0.14117647
v -20.22061586 -9.17827308 27.04913369 0.56470588 0.18039216 0.14117647
v -20.22516966 -9.17827308 23.50000000 0.56470588 0.18039216 0.14117647
v -22.97545195 -4.96572912 23.50000000 0.56470588 0.18039216 0.14117647
v -27.97499895 -4.96572912 25.72508758 0.56470588 0.18039216 0.14117647
v -27.97499895 -9.17827308 29.67456503 0.56470588 0.18039216 0.14117647
v -22.97545195 -9.17827308 23.50000000 0.56470588 0.18039216 0.14117647
v -27.97499895 -5.90762377 26.26895016 0.56470588 0.18039216 0.14117647
v -27.97499895 -8.62278640 28.83071492 0.56470588 0.18039216 0.14117647
v -27.97499895 -6.91013873 27.01568192 0.56470588 0.18039216 0.14117647
v -27.97499895 -7.81904221 27.87356025 0.56470588 0.18039216 0.14117647
f 1 2 3
f 1 3 4
f 1 4 5
f 1 5 6
f 1 6 11
f 1 11 7
f 1 7 2
f 2 7 8
f 2 8 13
f 2 13 14
f 2 14 9
f 2 9 4
f 2 4 3
f 4 9 10
f 4 10 5
f 5 10 15
f 5 15 16
f 5 16 12
f 5 12 11
f 5 11 6
f 7 11 8
f 8 11 12
f 8 12 16
f 8 16 13
f 9 14 17
f 9 17 19
f 9 19 20
f 9 20 18
f 9 18 15
f 9 15 10
f 13 16 14
f 14 16 17
f 15 18 16
f 16 19 17
f 16 18 20
f 16 20 19

