# https://github.com/mikedh/trimesh
v -22.97488213 -4.96481121 23.50000000 0.72156863 0.86274510 0.97254902
v -20.22500038 -4.96481121 23.50000000 0.72156863 0.86274510 0.97254902
v -24.72200394 -4.96481121 24.81279469 0.72156863 0.86274510 0.97254902
v -24.72200394 -4.90363240 24.78060222 0.72156863 0.86274510 0.97254902
v -24.72200394 -4.50268030 24.60763639 0.72156863 0.86274510 0.97254902
v -24.72200394 -3.70077610 24.29717100 0.72156863 0.86274510 0.97254902
v -24.72200394 -3.28263342 24.17167521 0.72156863 0.86274510 0.97254902
v -24.72200394 -2.45140389 23.95069337 0.72156863 0.86274510 0.97254902
v -24.72200394 -2.01101407 23.87048519 0.72156863 0.86274510 0.97254902
v -24.72200394 -1.65758982 23.80828297 0.72156863 0.86274510 0.97254902
v -24.72200394 -1.22124486 23.75208235 0.72156863 0.86274510 0.97254902
v -24.72200394 -0.73433846 23.71388829 0.72156863 0.86274510 0.97254902
v -24.72200394 -0.48557639 23.69970179 0.72156863 0.86274510 0.97254902
v -23.91248941 -0.60641810 23.50000000 0.72156863 0.86274510 0.97254902
v -20.22500038 0.20003632 23.50000000 0.72156863 0.86274510 0.97254902
v -20.22500038 -4.96481121 29.07419360 0.72156863 0.86274510 0.97254902
v -24.72200394 -4.96481121 29.07419360 0.72156863 0.86274510 0.97254902
v -24.72200394 -0.00018686 23.68715262 0.72156863 0.86274510 0.97254902
v -23.97499800 -0.00018686 23.50000000 0.72156863 0.86274510 0.97254902
v -23.95430803 0.20003632 23.50000000 0.72156863 0.86274510 0.97254902
v -20.22500038 0.20003632 25.01795268 0.72156863 0.86274510 0.97254902
v -20.22500038 -3.13044369 29.07419360 0.72156863 0.86274510 0.97254902
v -24.72200394 -2.87207484 29.07419360 0.72156863 0.86274510 0.97254902
v -24.72200394 0.05593628 23.68824339 0.72156863 0.86274510 0.97254902
v -24.72200394 0.20003632 23.69206285 0.72156863 0.86274510 0.97254902
v -20.47502995 0.20003632 25.26075995 0.72156863 0.86274510 0.97254902
v -20.47502995 -2.87207484 29.07419360 0.72156863 0.86274510 0.97254902
v -24.72200394 0.20003632 25.26075995 0.72156863 0.86274510 0.97254902
f 1 2 16
f 1 16 17
f 1 17 3
f 1 3 4
f 1 4 5
f 1 5 6
f 1 6 7
f 1 7 8
f 1 8 9
f 1 9 10
f 1 10 11
f 1 11 12
f 1 12 13
f 1 13 14
f 1 14 19
f 1 19 20
f 1 20 15
f 1 15 2
f 2 15 21
f 2 21 22
f 2 22 16
f 3 17 23
f 3 23 28
f 3 28 25
f 3 25 24
f 3 24 18
f 3 18 13
f 3 13 12
f 3 12 11
f 3 11 10
f 3 10 9
f 3 9 8
f 3 8 7
f 3 7 6
f 3 6 5
f 3 5 4
f 13 18 14
f 14 18 19
f 15 20 25
f 15 25 28
f 15 28 26
f 15 26 21
f 16 22 27
f 16 27 23
f 16 23 17
f 18 24 19
f 19 24 20
f 20 24 25
f 21 26 27
f 21 27 22
f 23 27 26
f 23 26 28

