# https://github.com/mikedh/trimesh
v 17.27499962 40.00000000 41.54676294 0.03529412 0.28235294 0.11764706
v 17.27499962 40.00000000 30.15821910 0.03529412 0.28235294 0.11764706
v 14.27558661 40.00000000 41.54676294 0.03529412 0.28235294 0.11764706
v 17.27499962 9.78156447 41.54676294 0.03529412 0.28235294 0.11764706
v 14.27558661 40.00000000 30.15821910 0.03529412 0.28235294 0.11764706
v 17.27499962 10.46398520 30.15821910 0.03529412 0.28235294 0.11764706
v 12.27303982 19.37505722 41.54676294 0.03529412 0.28235294 0.11764706
v 14.27558661 8.87674809 41.54676294 0.03529412 0.28235294 0.11764706
v 12.27303982 19.37505722 30.15821910 0.03529412 0.28235294 0.11764706
v 14.27558661 9.62923884 30.15821910 0.03529412 0.28235294 0.11764706
v 12.27303982 12.35282779 41.54676294 0.03529412 0.28235294 0.11764706
v 14.27264810 8.87674809 41.54676294 0.03529412 0.28235294 0.11764706
v 12.27303982 12.35282779 30.15821910 0.03529412 0.28235294 0.11764706
v 13.02509665 8.87979507 41.54676294 0.03529412 0.28235294 0.11764706
f 1 2 5
f 1 5 3
f 1 3 7
f 1 7 11
f 1 11 14
f 1 14 12
f 1 12 8
f 1 8 4
f 1 4 6
f 1 6 2
f 2 6 10
f 2 10 13
f 2 13 9
f 2 9 5
f 3 5 9
f 3 9 7
f 4 8 6
f 6 8 10
f 7 9 13
f 7 13 11
f 8 12 10
f 10 12 14
f 10 14 13
f 11 13 14

