# https://github.com/mikedh/trimesh
v -16.29071474 0.82488105 50.50021982 0.82745098 0.62745098 0.87058824
v -16.29071474 -4.96531665 50.50021982 0.82745098 0.62745098 0.87058824
v -16.29071474 0.82488105 48.53304005 0.82745098 0.62745098 0.87058824
v -22.97500134 0.82488105 50.50021982 0.82745098 0.62745098 0.87058824
v -22.97500134 -4.96531665 54.15135479 0.82745098 0.62745098 0.87058824
v -16.29071474 -4.96531665 48.53304005 0.82745098 0.62745098 0.87058824
v -22.97500134 0.82488105 48.53304005 0.82745098 0.62745098 0.87058824
v -22.97500134 -4.96531665 48.53304005 0.82745098 0.62745098 0.87058824
f 1 2 6
f 1 6 3
f 1 3 7
f 1 7 4
f 1 4 5
f 1 5 2
f 2 5 8
f 2 8 6
f 3 6 8
f 3 8 7
f 4 7 8
f 4 8 5

