# https://github.com/mikedh/trimesh
v -23.13557148 -9.17827368 45.46735263 0.76470588 0.74509804 0.90196078
v -26.97499752 -9.17827368 45.46735263 0.76470588 0.74509804 0.90196078
v -23.13557148 -11.78817034 45.46735263 0.76470588 0.74509804 0.90196078
v -23.13557148 -9.17827368 27.59027219 0.76470588 0.74509804 0.90196078
v -27.97500134 -9.17827368 40.82484102 0.76470588 0.74509804 0.90196078
v -26.97499752 -9.81353104 45.46735263 0.76470588 0.74509804 0.90196078
v -23.52685690 -11.71360970 45.46735263 0.76470588 0.74509804 0.90196078
v -23.13557148 -11.93349600 36.04233718 0.76470588 0.74509804 0.90196078
v -23.13557148 -9.89676774 28.53697336 0.76470588 0.74509804 0.90196078
v -25.86462021 -9.17827368 28.70321488 0.76470588 0.74509804 0.90196078
v -27.97500134 -9.31004286 40.62360144 0.76470588 0.74509804 0.90196078
v -27.97500134 -9.17827368 29.67616475 0.76470588 0.74509804 0.90196078
v -27.97500134 -9.87101078 39.50715876 0.76470588 0.74509804 0.90196078
v -27.97500134 -10.29858232 38.33296990 0.76470588 0.74509804 0.90196078
v -27.97500134 -10.58652282 37.11503243 0.76470588 0.74509804 0.90196078
v -26.87314987 -9.90924001 45.46735263 0.76470588 0.74509804 0.90196078
v -23.61307144 -11.69707060 45.46735263 0.76470588 0.74509804 0.90196078
v -27.97500134 -10.73157668 35.87609625 0.76470588 0.74509804 0.90196078
v -23.13557148 -11.94786668 34.76315355 0.76470588 0.74509804 0.90196078
v -23.70497227 -11.67673588 45.46735263 0.76470588 0.74509804 0.90196078
v -23.80018711 -11.65314794 45.46735263 0.76470588 0.74509804 0.90196078
v -23.13557148 -9.91466224 28.56322205 0.76470588 0.74509804 0.90196078
v -27.97500134 -9.31004286 29.87565434 0.76470588 0.74509804 0.90196078
v -25.25116444 -11.08919740 45.46735263 0.76470588 0.74509804 0.90196078
v -25.51312685 -10.93926311 45.46735263 0.76470588 0.74509804 0.90196078
v -25.79403639 -10.76790810 45.46735263 0.76470588 0.74509804 0.90196078
v -26.06736660 -10.58299780 45.46735263 0.76470588 0.74509804 0.90196078
v -26.19574308 -10.48864484 45.46735263 0.76470588 0.74509804 0.90196078
v -26.47570610 -10.26686072 45.46735263 0.76470588 0.74509804 0.90196078
v -26.59081936 -10.17060876 45.46735263 0.76470588 0.74509804 0.90196078
v -27.97500134 -10.73157668 34.62666011 0.76470588 0.74509804 0.90196078
v -23.88450861 -11.62928820 45.46735263 0.76470588 0.74509804 0.90196078
v -24.03135777 -11.58265471 45.46735263 0.76470588 0.74509804 0.90196078
v -24.40606356 -11.46254420 45.46735263 0.76470588 0.74509804 0.90196078
v -24.66660500 -11.36168361 45.46735263 0.76470588 0.74509804 0.90196078
v -24.99772787 -11.20985031 45.46735263 0.76470588 0.74509804 0.90196078
v -23.13557148 -11.94786668 34.72290492 0.76470588 0.74509804 0.90196078
v -23.13557148 -10.57594895 29.66741538 0.76470588 0.74509804 0.90196078
v -23.13557148 -10.59411407 29.70241344 0.76470588 0.74509804 0.90196078
v -27.97500134 -9.87101078 30.99384701 0.76470588 0.74509804 0.90196078
v -27.97500134 -10.58652282 33.38422424 0.76470588 0.74509804 0.90196078
v -23.13557148 -11.82179093 33.44897068 0.76470588 0.74509804 0.90196078
v -23.13557148 -11.12688422 30.86610353 0.76470588 0.74509804 0.90196078
v -27.97500134 -10.29858232 32.16803676 0.76470588 0.74509804 0.90196078
v -23.13557148 -11.55147433 32.15753710 0.76470588 0.74509804 0.90196078
v -23.13557148 -11.81691051 33.40872294 0.76470588 0.74509804 0.90196078
v -23.13557148 -11.14044070 30.90460157 0.76470588 0.74509804 0.90196078
v -23.13557148 -11.54225588 32.11903906 0.76470588 0.74509804 0.90196078
f 1 2 6
f 1 6 16
f 1 16 30
f 1 30 29
f 1 29 28
f 1 28 27
f 1 27 26
f 1 26 25
f 1 25 24
f 1 24 36
f 1 36 35
f 1 35 34
f 1 34 33
f 1 33 32
f 1 32 21
f 1 21 20
f 1 20 17
f 1 17 7
f 1 7 3
f 1 3 8
f 1 8 19
f 1 19 37
f 1 37 42
f 1 42 46
f 1 46 45
f 1 45 48
f 1 48 47
f 1 47 43
f 1 43 39
f 1 39 38
f 1 38 22
f 1 22 9
f 1 9 4
f 1 4 10
f 1 10 12
f 1 12 5
f 1 5 2
f 2 5 6
f 3 7 8
f 4 9 10
f 5 11 6
f 5 12 23
f 5 23 40
f 5 40 44
f 5 44 41
f 5 41 31
f 5 31 18
f 5 18 15
f 5 15 14
f 5 14 13
f 5 13 11
f 6 11 13
f 6 13 14
f 6 14 15
f 6 15 16
f 7 17 8
f 8 18 19
f 8 17 20
f 8 20 21
f 8 21 18
f 9 22 10
f 10 22 23
f 10 23 12
f 15 24 25
f 15 25 26
f 15 26 27
f 15 27 28
f 15 28 29
f 15 29 30
f 15 30 16
f 15 18 24
f 18 31 37
f 18 37 19
f 18 21 32
f 18 32 33
f 18 33 34
f 18 34 35
f 18 35 36
f 18 36 24
f 22 38 23
f 23 38 39
f 23 39 40
f 31 41 42
f 31 42 37
f 39 43 40
f 40 43 44
f 41 44 45
f 41 45 46
f 41 46 42
f 43 47 44
f 44 47 48
f 44 48 45

