# https://github.com/mikedh/trimesh
v -24.69600201 -4.96561378 45.46735263 0.96078431 0.29019608 0.23921569
v -25.51928282 -4.96561378 45.46735263 0.96078431 0.29019608 0.23921569
v -24.69600201 -5.40200353 45.46735263 0.96078431 0.29019608 0.23921569
v -24.69600201 -4.96561378 37.72902584 0.96078431 0.29019608 0.23921569
v -25.38672209 -5.04938662 45.46735263 0.96078431 0.29019608 0.23921569
v -26.35347605 -4.96561378 45.23811674 0.96078431 0.29019608 0.23921569
v -25.26571751 -5.11117637 45.46735263 0.96078431 0.29019608 0.23921569
v -24.69600201 -5.86097062 45.21133637 0.96078431 0.29019608 0.23921569
v -24.69600201 -4.96799052 37.45265698 0.96078431 0.29019608 0.23921569
v -24.72521067 -4.96561378 34.52507532 0.96078431 0.29019608 0.23921569
v -27.52949953 -4.96561378 44.90390277 0.96078431 0.29019608 0.23921569
v -24.69600201 -5.90939283 45.18348551 0.96078431 0.29019608 0.23921569
v -24.69600201 -8.00014317 38.07395077 0.96078431 0.29019608 0.23921569
v -24.72521067 -5.26178837 34.52507532 0.96078431 0.29019608 0.23921569
v -27.97500134 -4.96561378 34.52507532 0.96078431 0.29019608 0.23921569
v -27.97500134 -4.96561378 44.77428770 0.96078431 0.29019608 0.23921569
v -27.97500134 -5.90731323 44.23119164 0.96078431 0.29019608 0.23921569
v -24.69600201 -6.23349130 44.99602652 0.96078431 0.29019608 0.23921569
v -24.69600201 -8.00014317 43.59597182 0.96078431 0.29019608 0.23921569
v -24.72521067 -8.00014317 36.85707128 0.96078431 0.29019608 0.23921569
v -24.83209133 -5.37675321 34.52507532 0.96078431 0.29019608 0.23921569
v -24.97524261 -8.00014317 36.54535270 0.96078431 0.29019608 0.23921569
v -27.97500134 -5.53033650 34.52507532 0.96078431 0.29019608 0.23921569
v -27.97500134 -6.90991104 43.48456717 0.96078431 0.29019608 0.23921569
v -24.69600201 -6.93456709 44.49791884 0.96078431 0.29019608 0.23921569
v -24.69600201 -7.92260885 43.66881227 0.96078431 0.29019608 0.23921569
v -27.97500134 -7.81922996 42.62653804 0.96078431 0.29019608 0.23921569
v -26.55055046 -8.00014317 42.95111036 0.96078431 0.29019608 0.23921569
v -24.97524261 -5.53033650 34.52507532 0.96078431 0.29019608 0.23921569
v -27.97500134 -8.00014317 36.54535270 0.96078431 0.29019608 0.23921569
v -24.69600201 -7.27975786 44.24083209 0.96078431 0.29019608 0.23921569
v -27.97500134 -8.00014317 42.41122818 0.96078431 0.29019608 0.23921569
v -27.44572639 -8.00014317 42.62225366 0.96078431 0.29019608 0.23921569
v -27.10197210 -8.00014317 42.75293922 0.96078431 0.29019608 0.23921569
f 1 2 5
f 1 5 7
f 1 7 3
f 1 3 8
f 1 8 12
f 1 12 18
f 1 18 25
f 1 25 31
f 1 31 26
f 1 26 19
f 1 19 13
f 1 13 9
f 1 9 4
f 1 4 10
f 1 10 15
f 1 15 16
f 1 16 11
f 1 11 6
f 1 6 2
f 2 6 5
f 3 7 8
f 4 9 10
f 5 6 11
f 5 11 7
f 7 11 8
f 8 11 12
f 9 13 14
f 9 14 10
f 10 14 21
f 10 21 29
f 10 29 23
f 10 23 15
f 11 16 17
f 11 17 12
f 12 17 18
f 13 19 28
f 13 28 34
f 13 34 33
f 13 33 32
f 13 32 30
f 13 30 22
f 13 22 20
f 13 20 14
f 14 20 22
f 14 22 21
f 15 23 30
f 15 30 32
f 15 32 27
f 15 27 24
f 15 24 17
f 15 17 16
f 17 24 25
f 17 25 18
f 19 26 24
f 19 24 27
f 19 27 28
f 21 22 29
f 22 30 23
f 22 23 29
f 24 26 31
f 24 31 25
f 27 32 33
f 27 33 34
f 27 34 28

