# https://github.com/mikedh/trimesh
v 5.24934590 -0.00021526 48.99604893 0.45098039 0.53333333 0.89411765
v 5.21189034 -0.28479185 48.99604893 0.45098039 0.53333333 0.89411765
v 4.97101188 -0.21978268 46.49999952 0.45098039 0.53333333 0.89411765
v 4.99985695 0.00000000 46.49999952 0.45098039 0.53333333 0.89411765
v 5.21210551 0.28414607 48.99604893 0.45098039 0.53333333 0.89411765
v 5.10189116 -0.54999486 48.99604893 0.45098039 0.53333333 0.89411765
v 4.88598347 -0.42492751 46.49999952 0.45098039 0.53333333 0.89411765
v 4.97101188 0.21978268 46.49999952 0.45098039 0.53333333 0.89411765
v 5.10232210 0.54934908 48.99604893 0.45098039 0.53333333 0.89411765
v 4.92709845 -0.77774219 48.99604893 0.45098039 0.53333333 0.89411765
v 4.75101411 -0.60101200 46.49999952 0.45098039 0.53333333 0.89411765
v 4.88598347 0.42492751 46.49999952 0.45098039 0.53333333 0.89411765
v 4.75101411 0.60101200 46.49999952 0.45098039 0.53333333 0.89411765
v 4.92774427 0.77709645 48.99604893 0.45098039 0.53333333 0.89411765
v 4.69935119 -0.95231988 48.99604893 0.45098039 0.53333333 0.89411765
v 4.57492948 -0.73598139 46.49999952 0.45098039 0.53333333 0.89411765
v 4.57492948 0.73598139 46.49999952 0.45098039 0.53333333 0.89411765
v 4.69999701 0.95188931 48.99604893 0.45098039 0.53333333 0.89411765
v 4.43414807 -1.06210358 48.99604893 0.45098039 0.53333333 0.89411765
v 4.36978459 -0.82100995 46.49999952 0.45098039 0.53333333 0.89411765
v 4.36978459 0.82100995 46.49999952 0.45098039 0.53333333 0.89411765
v 4.43479389 1.06188826 48.99604893 0.45098039 0.53333333 0.89411765
v 4.14978683 -1.09955914 48.99604893 0.45098039 0.53333333 0.89411765
v 4.15000200 -0.84985502 46.49999952 0.45098039 0.53333333 0.89411765
v 4.15000200 0.84985502 46.49999952 0.45098039 0.53333333 0.89411765
v 4.15021718 1.09955914 48.99604893 0.45098039 0.53333333 0.89411765
v 3.86521012 -1.06188826 48.99604893 0.45098039 0.53333333 0.89411765
v 3.93021941 -0.82100995 46.49999952 0.45098039 0.53333333 0.89411765
v 3.93021941 0.82100995 46.49999952 0.45098039 0.53333333 0.89411765
v 3.86585593 1.06210358 48.99604893 0.45098039 0.53333333 0.89411765
v 3.60000700 -0.95188931 48.99604893 0.45098039 0.53333333 0.89411765
v 3.72507453 -0.73598139 46.49999952 0.45098039 0.53333333 0.89411765
v 3.72507453 0.73598139 46.49999952 0.45098039 0.53333333 0.89411765
v 3.60065281 0.95231988 48.99604893 0.45098039 0.53333333 0.89411765
v 3.37225974 -0.77709645 48.99604893 0.45098039 0.53333333 0.89411765
v 3.54898989 -0.60101200 46.49999952 0.45098039 0.53333333 0.89411765
v 3.54898989 0.60101200 46.49999952 0.45098039 0.53333333 0.89411765
v 3.37290555 0.77774219 48.99604893 0.45098039 0.53333333 0.89411765
v 3.19768190 -0.54934908 48.99604893 0.45098039 0.53333333 0.89411765
v 3.41402054 -0.42492751 46.49999952 0.45098039 0.53333333 0.89411765
v 3.41402054 0.42492751 46.49999952 0.45098039 0.53333333 0.89411765
v 3.19811255 0.54999486 48.99604893 0.45098039 0.53333333 0.89411765
v 3.08789849 -0.28414607 48.99604893 0.45098039 0.53333333 0.89411765
v 3.32899213 -0.21978268 46.49999952 0.45098039 0.53333333 0.89411765
v 3.32899213 0.21978268 46.49999952 0.45098039 0.53333333 0.89411765
v 3.08789849 0.28457658 48.99604893 0.45098039 0.53333333 0.89411765
v 3.05044264 0.00021526 48.99604893 0.45098039 0.53333333 0.89411765
v 3.30014706 0.00000000 46.49999952 0.45098039 0.53333333 0.89411765
f 1 2 3
f 1 3 4
f 1 4 5
f 1 5 9
f 1 9 14
f 1 14 18
f 1 18 22
f 1 22 26
f 1 26 30
f 1 30 34
f 1 34 38
f 1 38 42
f 1 42 46
f 1 46 47
f 1 47 43
f 1 43 39
f 1 39 35
f 1 35 31
f 1 31 27
f 1 27 23
f 1 23 19
f 1 19 15
f 1 15 10
f 1 10 6
f 1 6 2
f 2 6 7
f 2 7 3
f 3 7 11
f 3 11 16
f 3 16 20
f 3 20 24
f 3 24 28
f 3 28 32
f 3 32 36
f 3 36 40
f 3 40 44
f 3 44 48
f 3 48 45
f 3 45 41
f 3 41 37
f 3 37 33
f 3 33 29
f 3 29 25
f 3 25 21
f 3 21 17
f 3 17 13
f 3 13 12
f 3 12 8
f 3 8 4
f 4 8 5
f 5 8 9
f 6 10 11
f 6 11 7
f 8 12 9
f 9 12 13
f 9 13 14
f 10 15 11
f 11 15 16
f 13 17 18
f 13 18 14
f 15 19 20
f 15 20 16
f 17 21 22
f 17 22 18
f 19 23 20
f 20 23 24
f 21 25 26
f 21 26 22
f 23 27 28
f 23 28 24
f 25 29 26
f 26 29 30
f 27 31 32
f 27 32 28
f 29 33 34
f 29 34 30
f 31 35 36
f 31 36 32
f 33 37 34
f 34 37 38
f 35 39 36
f 36 39 40
f 37 41 42
f 37 42 38
f 39 43 44
f 39 44 40
f 41 45 46
f 41 46 42
f 43 47 44
f 44 47 48
f 45 48 47
f 45 47 46

