# https://github.com/mikedh/trimesh
v -13.30327988 0.82488105 48.53273845 0.94901961 0.68627451 0.21176471
v -12.08711624 -4.96531665 48.53273845 0.94901961 0.68627451 0.21176471
v -13.30327988 0.82488105 45.50004578 0.94901961 0.68627451 0.21176471
v -22.97348976 0.82488105 48.53273845 0.94901961 0.68627451 0.21176471
v -12.08711624 -4.96531665 45.50004578 0.94901961 0.68627451 0.21176471
v -22.97348976 -4.96531665 48.53273845 0.94901961 0.68627451 0.21176471
v -20.22390366 0.82488105 45.45606828 0.94901961 0.68627451 0.21176471
v -27.97500134 0.82488105 45.95217919 0.94901961 0.68627451 0.21176471
v -27.97500134 -0.00034690 46.00007272 0.94901961 0.68627451 0.21176471
v -20.22390366 -4.96531665 45.45606828 0.94901961 0.68627451 0.21176471
v -27.97500134 -1.24839067 45.92747903 0.94901961 0.68627451 0.21176471
v -27.97500134 -2.47886434 45.71029878 0.94901961 0.68627451 0.21176471
v -27.97500134 -3.32903028 45.45606828 0.94901961 0.68627451 0.21176471
v -27.53798962 -3.70877147 45.45606828 0.94901961 0.68627451 0.21176471
v -27.21451044 -3.91677856 45.45606828 0.94901961 0.68627451 0.21176471
v -25.56133747 -4.96531665 45.45606828 0.94901961 0.68627451 0.21176471
v -27.97500134 0.82488105 45.45606828 0.94901961 0.68627451 0.21176471
f 1 2 5
f 1 5 3
f 1 3 7
f 1 7 17
f 1 17 8
f 1 8 4
f 1 4 6
f 1 6 2
f 2 6 16
f 2 16 10
f 2 10 5
f 3 5 7
f 4 8 9
f 4 9 6
f 5 10 7
f 6 9 11
f 6 11 12
f 6 12 13
f 6 13 14
f 6 14 15
f 6 15 16
f 7 10 16
f 7 16 15
f 7 15 14
f 7 14 13
f 7 13 17
f 8 17 13
f 8 13 12
f 8 12 11
f 8 11 9

