# https://github.com/mikedh/trimesh
v 3.44739258 -8.39936376 45.50034261 0.65098039 0.43137255 0.89411765
v 6.26365900 -8.39936376 45.50034261 0.65098039 0.43137255 0.89411765
v 3.44739258 -8.39936376 48.99570680 0.65098039 0.43137255 0.89411765
v 6.26365900 -5.17915130 45.50034261 0.65098039 0.43137255 0.89411765
v 6.26365900 -8.39936376 48.99570680 0.65098039 0.43137255 0.89411765
v 6.26365900 -5.17915130 48.99570680 0.65098039 0.43137255 0.89411765
f 1 2 5
f 1 5 3
f 1 3 6
f 1 6 4
f 1 4 2
f 2 4 6
f 2 6 5
f 3 5 6

