# https://github.com/mikedh/trimesh
v 6.26365900 12.33370781 45.49896097 0.38039216 0.78823529 0.52549020
v 6.26365900 12.35024691 30.16023850 0.38039216 0.78823529 0.52549020
v 12.27284431 12.33370781 45.49896097 0.38039216 0.78823529 0.52549020
v 6.26365900 12.33370781 50.79569912 0.38039216 0.78823529 0.52549020
v 12.27284431 12.35024691 30.16023850 0.38039216 0.78823529 0.52549020
v 6.26365900 13.16136122 30.16023850 0.38039216 0.78823529 0.52549020
v 12.27284431 12.33370781 50.79569912 0.38039216 0.78823529 0.52549020
v 6.26365900 14.39974189 50.79569912 0.38039216 0.78823529 0.52549020
v 12.27284431 19.37324762 30.16023850 0.38039216 0.78823529 0.52549020
v 6.26777649 14.50035572 30.16023850 0.38039216 0.78823529 0.52549020
v 12.27284431 19.37324762 50.79569912 0.38039216 0.78823529 0.52549020
v 6.26424730 14.50035572 50.79569912 0.38039216 0.78823529 0.52549020
f 1 2 5
f 1 5 3
f 1 3 7
f 1 7 4
f 1 4 8
f 1 8 6
f 1 6 2
f 2 6 10
f 2 10 9
f 2 9 5
f 3 5 9
f 3 9 11
f 3 11 7
f 4 7 11
f 4 11 12
f 4 12 8
f 6 8 10
f 8 12 10
f 9 10 12
f 9 12 11

