# https://github.com/mikedh/trimesh
v -7.98620462 14.49989557 44.27103615 0.67058824 0.20784314 0.12549020
v -9.13625479 14.49989557 44.27103615 0.67058824 0.20784314 0.12549020
v -7.98620462 12.35000014 44.27103615 0.67058824 0.20784314 0.12549020
v -7.98620462 14.51026917 36.74853480 0.67058824 0.20784314 0.12549020
v -9.13625479 14.51280951 36.74853480 0.67058824 0.20784314 0.12549020
v -13.98301840 14.50772882 43.51878738 0.67058824 0.20784314 0.12549020
v -9.13625479 12.35000014 44.27103615 0.67058824 0.20784314 0.12549020
v -7.98620462 12.35000014 19.98052216 0.67058824 0.20784314 0.12549020
v -7.98620462 14.51026917 33.74669886 0.67058824 0.20784314 0.12549020
v -13.96364570 14.51280951 36.74853480 0.67058824 0.20784314 0.12549020
v -9.13625479 14.51280951 33.74669886 0.67058824 0.20784314 0.12549020
v -13.98301840 14.50772882 7.67585850 0.67058824 0.20784314 0.12549020
v -13.98301840 12.35021234 43.51878738 0.67058824 0.20784314 0.12549020
v -9.13625479 12.35000014 17.61988974 0.67058824 0.20784314 0.12549020
v -7.98620462 14.49989557 19.98052216 0.67058824 0.20784314 0.12549020
v -13.96364570 14.51280951 33.74669886 0.67058824 0.20784314 0.12549020
v -9.13625479 14.49989557 17.61988974 0.67058824 0.20784314 0.12549020
v -13.98301840 12.35021234 7.67585850 0.67058824 0.20784314 0.12549020
f 1 2 7
f 1 7 3
f 1 3 8
f 1 8 15
f 1 15 9
f 1 9 4
f 1 4 5
f 1 5 6
f 1 6 2
f 2 6 13
f 2 13 7
f 3 7 14
f 3 14 8
f 4 9 11
f 4 11 5
f 5 10 6
f 5 11 16
f 5 16 10
f 6 10 16
f 6 16 12
f 6 12 18
f 6 18 13
f 7 13 18
f 7 18 14
f 8 14 17
f 8 17 15
f 9 15 12
f 9 12 11
f 11 12 16
f 12 17 14
f 12 14 18
f 12 15 17

