# https://github.com/mikedh/trimesh
v 6.26365900 -10.50006866 56.68866014 0.80392157 0.70196078 0.09803922
v -0.75611413 -10.50006866 50.81433630 0.80392157 0.70196078 0.09803922
v -0.75611413 -11.10348463 51.99898577 0.80392157 0.70196078 0.09803922
v 6.26365900 -14.49960947 56.68866014 0.80392157 0.70196078 0.09803922
v 6.26365900 -10.50006866 45.50014472 0.80392157 0.70196078 0.09803922
v -0.75611413 -10.50006866 45.50014472 0.80392157 0.70196078 0.09803922
v -0.75611413 -12.37649322 51.99898577 0.80392157 0.70196078 0.09803922
v -0.75611413 -14.49960947 50.49885845 0.80392157 0.70196078 0.09803922
v 6.26365900 -14.49960947 43.53388166 0.80392157 0.70196078 0.09803922
v 6.26365900 -12.35025764 43.53388166 0.80392157 0.70196078 0.09803922
v -0.75611413 -12.35025764 43.53388166 0.80392157 0.70196078 0.09803922
v -0.75611413 -14.49960947 43.53645658 0.80392157 0.70196078 0.09803922
v 1.97937101 -14.49960947 43.53388166 0.80392157 0.70196078 0.09803922
v -0.75611413 -13.56492162 43.53388166 0.80392157 0.70196078 0.09803922
f 1 2 3
f 1 3 7
f 1 7 4
f 1 4 9
f 1 9 10
f 1 10 5
f 1 5 6
f 1 6 2
f 2 6 11
f 2 11 14
f 2 14 12
f 2 12 8
f 2 8 7
f 2 7 3
f 4 7 8
f 4 8 12
f 4 12 13
f 4 13 9
f 5 10 11
f 5 11 6
f 9 13 14
f 9 14 11
f 9 11 10
f 12 14 13

