# https://github.com/mikedh/trimesh
v 6.26365900 -12.33609200 45.50051904 0.94117647 0.52156863 0.41176471
v 12.27284431 -12.33609200 45.50051904 0.94117647 0.52156863 0.41176471
v 6.26365900 -12.33609200 50.79518175 0.94117647 0.52156863 0.41176471
v 6.26365900 12.33060360 45.50051904 0.94117647 0.52156863 0.41176471
v 12.27284431 -12.33609200 50.79518175 0.94117647 0.52156863 0.41176471
v 12.27284431 12.33060360 45.50051904 0.94117647 0.52156863 0.41176471
v 6.26365900 12.33060360 50.79518175 0.94117647 0.52156863 0.41176471
v 12.27284431 12.33060360 50.79518175 0.94117647 0.52156863 0.41176471
f 1 2 5
f 1 5 3
f 1 3 7
f 1 7 4
f 1 4 6
f 1 6 2
f 2 6 8
f 2 8 5
f 3 5 8
f 3 8 7
f 4 7 8
f 4 8 6

