# https://github.com/mikedh/trimesh
v 2.10527748 14.49999452 44.27103734 0.13333333 0.29803922 0.56862745
v -2.22108543 14.51035619 37.07545495 0.13333333 0.29803922 0.56862745
v -2.67248899 14.51035619 37.54628277 0.13333333 0.29803922 0.56862745
v -3.21476609 14.51035619 37.91010475 0.13333333 0.29803922 0.56862745
v -3.82322252 14.51035619 38.14551926 0.13333333 0.29803922 0.56862745
v -4.46921378 14.51035619 38.24539161 0.13333333 0.29803922 0.56862745
v -7.98463106 14.49999452 44.27103734 0.13333333 0.29803922 0.56862745
v 2.10527748 12.35000014 44.27103734 0.13333333 0.29803922 0.56862745
v 2.10527748 14.49999452 20.00199890 0.13333333 0.29803922 0.56862745
v -1.60077587 14.51035619 35.24921393 0.13333333 0.29803922 0.56862745
v -1.67189419 14.51035619 35.89838541 0.13333333 0.29803922 0.56862745
v -1.88228577 14.51035619 36.51664472 0.13333333 0.29803922 0.56862745
v -5.12113154 14.51035619 38.20258832 0.13333333 0.29803922 0.56862745
v -7.98463106 12.35000014 44.27103734 0.13333333 0.29803922 0.56862745
v -5.74835539 14.51035619 38.01948881 0.13333333 0.29803922 0.56862745
v -6.32026494 14.51035619 37.70560360 0.13333333 0.29803922 0.56862745
v -7.98463106 14.51035619 36.74968040 0.13333333 0.29803922 0.56862745
v 2.10527748 12.35000014 20.00199890 0.13333333 0.29803922 0.56862745
v -7.98463106 14.49999452 19.97822022 0.13333333 0.29803922 0.56862745
v -4.46822613 14.51035619 32.25065804 0.13333333 0.29803922 0.56862745
v -3.82322252 14.51035619 32.35053068 0.13333333 0.29803922 0.56862745
v -3.21377844 14.51035619 32.58832252 0.13333333 0.29803922 0.56862745
v -2.67248899 14.51035619 32.94976628 0.13333333 0.29803922 0.56862745
v -2.22009778 14.51035619 33.42297232 0.13333333 0.29803922 0.56862745
v -1.88129812 14.51035619 33.98178315 0.13333333 0.29803922 0.56862745
v -1.67189419 14.51035619 34.60004187 0.13333333 0.29803922 0.56862745
v -7.98463106 12.35000014 19.97822022 0.13333333 0.29803922 0.56862745
v -7.98463106 14.51035619 33.74874687 0.13333333 0.29803922 0.56862745
v -6.32026494 14.51035619 32.79044574 0.13333333 0.29803922 0.56862745
v -5.74736774 14.51035619 32.47656053 0.13333333 0.29803922 0.56862745
v -5.12014389 14.51035619 32.29346073 0.13333333 0.29803922 0.56862745
f 1 2 3
f 1 3 4
f 1 4 5
f 1 5 6
f 1 6 7
f 1 7 14
f 1 14 8
f 1 8 18
f 1 18 9
f 1 9 10
f 1 10 11
f 1 11 12
f 1 12 2
f 2 12 11
f 2 11 10
f 2 10 26
f 2 26 25
f 2 25 24
f 2 24 23
f 2 23 22
f 2 22 21
f 2 21 20
f 2 20 31
f 2 31 30
f 2 30 29
f 2 29 28
f 2 28 17
f 2 17 16
f 2 16 15
f 2 15 13
f 2 13 6
f 2 6 5
f 2 5 4
f 2 4 3
f 6 13 7
f 7 13 15
f 7 15 16
f 7 16 17
f 7 17 28
f 7 28 19
f 7 19 27
f 7 27 14
f 8 14 27
f 8 27 18
f 9 18 27
f 9 27 19
f 9 19 20
f 9 20 21
f 9 21 22
f 9 22 23
f 9 23 24
f 9 24 25
f 9 25 26
f 9 26 10
f 19 28 29
f 19 29 30
f 19 30 31
f 19 31 20

