# https://github.com/mikedh/trimesh
v -9.13611531 -12.29306340 45.50063705 0.91764706 0.71372549 0.99607843
v -9.13611531 -12.29306340 50.49970484 0.91764706 0.71372549 0.99607843
v -9.13611531 -8.40920627 45.50063705 0.91764706 0.71372549 0.99607843
v -0.75611413 -12.29306340 45.50063705 0.91764706 0.71372549 0.99607843
v -9.13611531 -10.75529814 51.99936247 0.91764706 0.71372549 0.99607843
v -1.18676215 -12.29306340 51.99936247 0.91764706 0.71372549 0.99607843
v -9.13611531 -8.39967847 48.99941182 0.91764706 0.71372549 0.99607843
v -0.75611413 -8.39967847 48.99941182 0.91764706 0.71372549 0.99607843
v -0.75611413 -10.27662873 45.50063705 0.91764706 0.71372549 0.99607843
v -0.75611413 -12.29306340 51.99936247 0.91764706 0.71372549 0.99607843
v -9.13611531 -9.48240221 51.99936247 0.91764706 0.71372549 0.99607843
v -9.13611531 -8.39967847 50.49970484 0.91764706 0.71372549 0.99607843
v -0.75611413 -8.39967847 50.49970484 0.91764706 0.71372549 0.99607843
v -0.75611413 -11.10286713 51.99936247 0.91764706 0.71372549 0.99607843
f 1 2 5
f 1 5 11
f 1 11 12
f 1 12 7
f 1 7 3
f 1 3 9
f 1 9 4
f 1 4 10
f 1 10 6
f 1 6 2
f 2 6 5
f 3 7 8
f 3 8 9
f 4 9 8
f 4 8 13
f 4 13 14
f 4 14 10
f 5 6 10
f 5 10 14
f 5 14 11
f 7 12 13
f 7 13 8
f 11 14 13
f 11 13 12

