# https://github.com/mikedh/trimesh
v -1.60058618 27.49995470 35.24999714 0.64313725 0.42352941 0.60392157
v -1.60058618 24.99501228 35.24999714 0.64313725 0.42352941 0.60392157
v -1.67037100 24.99501228 34.60424876 0.64313725 0.42352941 0.60392157
v -1.67037100 27.49995470 34.60542178 0.64313725 0.42352941 0.60392157
v -2.10022330 27.99970627 35.24999714 0.64313725 0.42352941 0.60392157
v -1.67037100 27.49995470 35.89457250 0.64313725 0.42352941 0.60392157
v -1.67037100 24.99501228 35.89574552 0.64313725 0.42352941 0.60392157
v -1.83808982 24.99501228 34.10806096 0.64313725 0.42352941 0.60392157
v -1.87738031 27.49995470 33.99075902 0.64313725 0.42352941 0.60392157
v -2.16766268 27.99970627 34.67404401 0.64313725 0.42352941 0.60392157
v -2.16766268 27.99970627 35.82653677 0.64313725 0.42352941 0.60392157
v -1.87738031 27.49995470 36.50923526 0.64313725 0.42352941 0.60392157
v -1.83808982 24.99501228 36.39193332 0.64313725 0.42352941 0.60392157
v -1.87855333 24.99501228 33.98899949 0.64313725 0.42352941 0.60392157
v -2.36646205 27.99970627 34.12800229 0.64313725 0.42352941 0.60392157
v -2.14831054 24.99501228 33.54031897 0.64313725 0.42352941 0.60392157
v -2.21223131 27.49995470 33.43474692 0.64313725 0.42352941 0.60392157
v -2.36646205 27.99970627 36.37199199 0.64313725 0.42352941 0.60392157
v -1.87855333 24.99501228 36.51099479 0.64313725 0.42352941 0.60392157
v -2.21223131 27.49995470 37.06524706 0.64313725 0.42352941 0.60392157
v -2.14831054 24.99501228 36.95967531 0.64313725 0.42352941 0.60392157
v -2.68489301 27.99970627 33.64354467 0.64313725 0.42352941 0.60392157
v -2.21340418 24.99501228 33.43298739 0.64313725 0.42352941 0.60392157
v -2.57347137 24.99501228 33.05234200 0.64313725 0.42352941 0.60392157
v -2.65791714 27.49995470 32.96377873 0.64313725 0.42352941 0.60392157
v -2.68489301 27.99970627 36.85644960 0.64313725 0.42352941 0.60392157
v -2.65791714 27.49995470 37.53621554 0.64313725 0.42352941 0.60392157
v -2.21340418 24.99501228 37.06759310 0.64313725 0.42352941 0.60392157
v -3.10712159 27.99970627 33.24471748 0.64313725 0.42352941 0.60392157
v -2.66084909 24.99501228 32.96143270 0.64313725 0.42352941 0.60392157
v -3.19508582 27.49995470 32.59955591 0.64313725 0.42352941 0.60392157
v -3.10712159 27.99970627 37.25527680 0.64313725 0.42352941 0.60392157
v -2.57347137 24.99501228 37.44765258 0.64313725 0.42352941 0.60392157
v -3.19508582 27.49995470 37.90043807 0.64313725 0.42352941 0.60392157
v -2.66084909 24.99501228 37.53856158 0.64313725 0.42352941 0.60392157
v -3.61027718 27.99970627 32.95498109 0.64313725 0.42352941 0.60392157
v -3.09422016 24.99501228 32.66759104 0.64313725 0.42352941 0.60392157
v -3.19919080 24.99501228 32.59779638 0.64313725 0.42352941 0.60392157
v -3.68534029 24.99501228 32.40366137 0.64313725 0.42352941 0.60392157
v -3.79793465 27.49995470 32.35967314 0.64313725 0.42352941 0.60392157
v -3.61027718 27.99970627 37.54501319 0.64313725 0.42352941 0.60392157
v -3.19919080 24.99501228 37.90219760 0.64313725 0.42352941 0.60392157
v -3.09422016 24.99501228 37.83240294 0.64313725 0.42352941 0.60392157
v -3.79793465 27.49995470 38.14032114 0.64313725 0.42352941 0.60392157
v -3.68534029 24.99501228 38.09633291 0.64313725 0.42352941 0.60392157
v -4.16621178 27.99970627 32.78841233 0.64313725 0.42352941 0.60392157
v -3.80262613 24.99501228 32.35850012 0.64313725 0.42352941 0.60392157
v -4.31926966 24.99501228 32.27345592 0.64313725 0.42352941 0.60392157
v -4.43772823 27.49995470 32.25468761 0.64313725 0.42352941 0.60392157
v -4.16621178 27.99970627 37.71158195 0.64313725 0.42352941 0.60392157
v -4.43772823 27.49995470 38.24530697 0.64313725 0.42352941 0.60392157
v -4.31926966 24.99501228 38.22653866 0.64313725 0.42352941 0.60392157
v -3.80262613 24.99501228 38.14149415 0.64313725 0.42352941 0.60392157
v -4.74501699 27.99970627 32.75439477 0.64313725 0.42352941 0.60392157
v -4.44417894 24.99501228 32.25468761 0.64313725 0.42352941 0.60392157
v -4.96610045 24.99501228 32.28284007 0.64313725 0.42352941 0.60392157
v -5.08514583 27.49995470 32.28987819 0.64313725 0.42352941 0.60392157
v -4.74501699 27.99970627 37.74559951 0.64313725 0.42352941 0.60392157
v -4.44417894 24.99501228 38.24589348 0.64313725 0.42352941 0.60392157
v -5.08514583 27.49995470 38.21011639 0.64313725 0.42352941 0.60392157
v -5.31678498 27.99970627 32.85527444 0.64313725 0.42352941 0.60392157
v -5.09218276 24.99501228 32.29105121 0.64313725 0.42352941 0.60392157
v -5.71027875 27.49995470 32.46348536 0.64313725 0.42352941 0.60392157
v -5.31678498 27.99970627 37.64471984 0.64313725 0.42352941 0.60392157
v -4.96610045 24.99501228 38.21715450 0.64313725 0.42352941 0.60392157
v -5.71027875 27.49995470 38.03650892 0.64313725 0.42352941 0.60392157
v -5.09218276 24.99501228 38.20894337 0.64313725 0.42352941 0.60392157
v -5.84984899 27.99970627 33.08518654 0.64313725 0.42352941 0.60392157
v -5.59651136 24.99501228 32.43122733 0.64313725 0.42352941 0.60392157
v -5.71731567 24.99501228 32.46641791 0.64313725 0.42352941 0.60392157
v -6.18000805 24.99501228 32.71157926 0.64313725 0.42352941 0.60392157
v -6.28321946 27.49995470 32.76729798 0.64313725 0.42352941 0.60392157
v -5.84984899 27.99970627 37.41480803 0.64313725 0.42352941 0.60392157
v -5.59651136 24.99501228 38.06876695 0.64313725 0.42352941 0.60392157
v -6.28321946 27.49995470 37.73269629 0.64313725 0.42352941 0.60392157
v -6.18000805 24.99501228 37.78841472 0.64313725 0.42352941 0.60392157
v -5.71731567 24.99501228 38.03357637 0.64313725 0.42352941 0.60392157
v -6.31547332 27.99970627 33.43181437 0.64313725 0.42352941 0.60392157
v -6.29025638 24.99501228 32.77199006 0.64313725 0.42352941 0.60392157
v -6.68961465 24.99501228 33.11099327 0.64313725 0.42352941 0.60392157
v -6.77757859 27.49995470 33.18723953 0.64313725 0.42352941 0.60392157
v -6.31547332 27.99970627 37.06817961 0.64313725 0.42352941 0.60392157
v -6.29025638 24.99501228 37.72800422 0.64313725 0.42352941 0.60392157
v -6.77757859 27.49995470 37.31275475 0.64313725 0.42352941 0.60392157
v -6.68961465 24.99501228 37.38900101 0.64313725 0.42352941 0.60392157
v -6.68844163 27.99970627 33.87638932 0.64313725 0.42352941 0.60392157
v -6.78402960 24.99501228 33.19427764 0.64313725 0.42352941 0.60392157
v -7.17048645 27.49995470 33.70336866 0.64313725 0.42352941 0.60392157
v -6.68844163 27.99970627 36.62360525 0.64313725 0.42352941 0.60392157
v -7.17048645 27.49995470 36.79662561 0.64313725 0.42352941 0.60392157
v -6.78402960 24.99501228 37.30571663 0.64313725 0.42352941 0.60392157
v -6.94881618 27.99970627 34.39545131 0.64313725 0.42352941 0.60392157
v -7.10128784 24.99501228 33.61128664 0.64313725 0.42352941 0.60392157
v -7.17576385 24.99501228 33.71275282 0.64313725 0.42352941 0.60392157
v -7.18514681 24.99501228 33.72858858 0.64313725 0.42352941 0.60392157
v -7.27369785 24.99501228 33.90864766 0.64313725 0.42352941 0.60392157
v -7.40623057 24.99501228 34.19486469 0.64313725 0.42352941 0.60392157
v -7.44258881 27.49995470 34.29222530 0.64313725 0.42352941 0.60392157
v -6.94881618 27.99970627 36.10454297 0.64313725 0.42352941 0.60392157
v -7.10128784 24.99501228 36.88870764 0.64313725 0.42352941 0.60392157
v -7.44258881 27.49995470 36.20776868 0.64313725 0.42352941 0.60392157
v -7.40623057 24.99501228 36.30512989 0.64313725 0.42352941 0.60392157
v -7.27369785 24.99501228 36.59134662 0.64313725 0.42352941 0.60392157
v -7.18514681 24.99501228 36.77140570 0.64313725 0.42352941 0.60392157
v -7.17576385 24.99501228 36.78724146 0.64313725 0.42352941 0.60392157
v -7.08252192 27.99970627 34.96026075 0.64313725 0.42352941 0.60392157
v -7.47015119 24.99501228 34.38254809 0.64313725 0.42352941 0.60392157
v -7.58215904 27.49995470 34.92565668 0.64313725 0.42352941 0.60392157
v -7.08252192 27.99970627 35.53973353 0.64313725 0.42352941 0.60392157
v -7.58215904 27.49995470 35.57433760 0.64313725 0.42352941 0.60392157
v -7.47015119 24.99501228 36.11744618 0.64313725 0.42352941 0.60392157
v -7.53993630 24.99501228 34.70102346 0.64313725 0.42352941 0.60392157
v -7.57805407 24.99501228 34.89281213 0.64313725 0.42352941 0.60392157
v -7.59095550 24.99501228 35.08342838 0.64313725 0.42352941 0.60392157
v -7.59095550 24.99501228 35.41656590 0.64313725 0.42352941 0.60392157
v -7.57805407 24.99501228 35.60718215 0.64313725 0.42352941 0.60392157
v -7.53993630 24.99501228 35.79897082 0.64313725 0.42352941 0.60392157
f 1 2 3
f 1 3 4
f 1 4 5
f 1 5 6
f 1 6 7
f 1 7 2
f 2 7 13
f 2 13 19
f 2 19 21
f 2 21 28
f 2 28 33
f 2 33 35
f 2 35 43
f 2 43 42
f 2 42 45
f 2 45 53
f 2 53 52
f 2 52 59
f 2 59 65
f 2 65 67
f 2 67 74
f 2 74 77
f 2 77 76
f 2 76 83
f 2 83 85
f 2 85 91
f 2 91 100
f 2 100 105
f 2 105 104
f 2 104 103
f 2 103 102
f 2 102 111
f 2 111 117
f 2 117 116
f 2 116 115
f 2 115 114
f 2 114 113
f 2 113 112
f 2 112 107
f 2 107 97
f 2 97 96
f 2 96 95
f 2 95 94
f 2 94 93
f 2 93 87
f 2 87 80
f 2 80 79
f 2 79 71
f 2 71 70
f 2 70 69
f 2 69 62
f 2 62 56
f 2 56 55
f 2 55 48
f 2 48 47
f 2 47 39
f 2 39 38
f 2 38 37
f 2 37 30
f 2 30 24
f 2 24 23
f 2 23 16
f 2 16 14
f 2 14 8
f 2 8 3
f 3 8 9
f 3 9 4
f 4 9 10
f 4 10 5
f 5 11 6
f 5 10 15
f 5 15 22
f 5 22 29
f 5 29 36
f 5 36 46
f 5 46 54
f 5 54 61
f 5 61 68
f 5 68 78
f 5 78 86
f 5 86 92
f 5 92 106
f 5 106 109
f 5 109 99
f 5 99 89
f 5 89 82
f 5 82 73
f 5 73 64
f 5 64 58
f 5 58 50
f 5 50 41
f 5 41 32
f 5 32 26
f 5 26 18
f 5 18 11
f 6 11 12
f 6 12 7
f 7 12 13
f 8 14 9
f 9 15 10
f 9 14 16
f 9 16 17
f 9 17 15
f 11 18 12
f 12 19 13
f 12 18 20
f 12 20 21
f 12 21 19
f 15 17 22
f 16 23 17
f 17 23 24
f 17 24 25
f 17 25 22
f 18 26 20
f 20 27 28
f 20 28 21
f 20 26 27
f 22 25 29
f 24 30 25
f 25 30 31
f 25 31 29
f 26 32 27
f 27 33 28
f 27 32 34
f 27 34 35
f 27 35 33
f 29 31 36
f 30 37 31
f 31 37 38
f 31 38 39
f 31 39 40
f 31 40 36
f 32 41 34
f 34 42 43
f 34 43 35
f 34 41 44
f 34 44 45
f 34 45 42
f 36 40 46
f 39 47 40
f 40 47 48
f 40 48 49
f 40 49 46
f 41 50 44
f 44 51 52
f 44 52 53
f 44 53 45
f 44 50 51
f 46 49 54
f 48 55 49
f 49 55 56
f 49 56 57
f 49 57 54
f 50 58 51
f 51 59 52
f 51 58 60
f 51 60 59
f 54 57 61
f 56 62 57
f 57 62 63
f 57 63 61
f 58 64 60
f 59 60 65
f 60 64 66
f 60 66 67
f 60 67 65
f 61 63 68
f 62 69 63
f 63 69 70
f 63 70 71
f 63 71 72
f 63 72 68
f 64 73 66
f 66 74 67
f 66 73 75
f 66 75 76
f 66 76 77
f 66 77 74
f 68 72 78
f 71 79 72
f 72 79 80
f 72 80 81
f 72 81 78
f 73 82 75
f 75 83 76
f 75 82 84
f 75 84 85
f 75 85 83
f 78 81 86
f 80 87 81
f 81 87 88
f 81 88 86
f 82 89 84
f 84 89 90
f 84 90 91
f 84 91 85
f 86 88 92
f 87 93 88
f 88 94 95
f 88 95 96
f 88 96 97
f 88 97 98
f 88 98 92
f 88 93 94
f 89 99 90
f 90 100 91
f 90 99 101
f 90 101 102
f 90 102 103
f 90 103 104
f 90 104 105
f 90 105 100
f 92 98 106
f 97 107 98
f 98 107 108
f 98 108 106
f 99 109 101
f 101 109 110
f 101 110 111
f 101 111 102
f 106 108 110
f 106 110 109
f 107 112 108
f 108 112 113
f 108 113 114
f 108 114 115
f 108 115 110
f 110 115 116
f 110 116 117
f 110 117 111

