# https://github.com/mikedh/trimesh
v 14.27140236 20.99707842 30.15821910 0.18431373 0.94117647 0.73725490
v 10.81362724 18.18763375 30.15821910 0.18431373 0.94117647 0.73725490
v 14.27140236 18.18763375 30.15821910 0.18431373 0.94117647 0.73725490
v 14.27140236 20.99707842 18.48728514 0.18431373 0.94117647 0.73725490
v 10.81362724 18.18763375 18.48728514 0.18431373 0.94117647 0.73725490
v 14.27140236 18.18763375 18.48728514 0.18431373 0.94117647 0.73725490
f 1 2 3
f 1 3 6
f 1 6 4
f 1 4 5
f 1 5 2
f 2 5 6
f 2 6 3
f 4 6 5

