# https://github.com/mikedh/trimesh
v 6.81455612 -16.21983409 13.80041099 0.57254902 0.58823529 0.56862745
v 6.81455612 -16.21983409 17.99989319 0.57254902 0.58823529 0.56862745
v 17.28301764 -16.21983409 13.80041099 0.57254902 0.58823529 0.56862745
v 14.27416801 -39.99767303 13.80041099 0.57254902 0.58823529 0.56862745
v 8.39174271 -16.21983409 18.00565577 0.57254902 0.58823529 0.56862745
v 14.27416801 -39.99767303 17.99989319 0.57254902 0.58823529 0.56862745
v 14.27416801 -39.99534607 18.00565577 0.57254902 0.58823529 0.56862745
v 17.28301764 -39.99767303 13.80041099 0.57254902 0.58823529 0.56862745
v 17.28301764 -16.21983409 18.00565577 0.57254902 0.58823529 0.56862745
v 14.28236604 -39.99767303 18.00565577 0.57254902 0.58823529 0.56862745
v 17.28301764 -39.99767303 18.00565577 0.57254902 0.58823529 0.56862745
f 1 2 5
f 1 5 9
f 1 9 3
f 1 3 8
f 1 8 4
f 1 4 6
f 1 6 2
f 2 6 7
f 2 7 5
f 3 9 11
f 3 11 8
f 4 8 11
f 4 11 10
f 4 10 6
f 5 7 10
f 5 10 11
f 5 11 9
f 6 10 7

