# https://github.com/mikedh/trimesh
v -20.22570133 -9.17854846 45.46735263 0.48627451 0.35294118 0.93725490
v -23.13557148 -9.17854846 45.46735263 0.48627451 0.35294118 0.93725490
v -20.22570133 -11.99333549 45.46735263 0.48627451 0.35294118 0.93725490
v -20.22570133 -9.17854846 23.50014663 0.48627451 0.35294118 0.93725490
v -23.13557148 -11.78832293 45.46735263 0.48627451 0.35294118 0.93725490
v -23.13557148 -9.17854846 27.59167469 0.48627451 0.35294118 0.93725490
v -22.97492504 -11.99333549 45.46735263 0.48627451 0.35294118 0.93725490
v -20.22570133 -11.99333549 20.79258895 0.48627451 0.35294118 0.93725490
v -22.97492504 -9.17854846 23.50014663 0.48627451 0.35294118 0.93725490
v -23.13557148 -11.93354011 36.04041433 0.48627451 0.35294118 0.93725490
v -22.97492504 -11.99333549 20.79258895 0.48627451 0.35294118 0.93725490
v -23.13557148 -9.89664257 28.53605932 0.48627451 0.35294118 0.93725490
v -23.13557148 -11.94786906 34.76030207 0.48627451 0.35294118 0.93725490
v -23.13557148 -11.94786906 34.71924222 0.48627451 0.35294118 0.93725490
v -23.13557148 -11.82166457 33.44637579 0.48627451 0.35294118 0.93725490
v -23.13557148 -11.81698084 33.40773082 0.48627451 0.35294118 0.93725490
v -23.13557148 -11.55134559 32.15901768 0.48627451 0.35294118 0.93725490
v -23.13557148 -11.54225230 32.11795783 0.48627451 0.35294118 0.93725490
v -23.13557148 -11.14049435 30.90547419 0.48627451 0.35294118 0.93725490
v -23.13557148 -11.12671733 30.86682922 0.48627451 0.35294118 0.93725490
v -23.13557148 -10.59407115 29.70265186 0.48627451 0.35294118 0.93725490
v -23.13557148 -10.57615995 29.66642237 0.48627451 0.35294118 0.93725490
v -23.13557148 -9.91455376 28.56262749 0.48627451 0.35294118 0.93725490
f 1 2 5
f 1 5 7
f 1 7 3
f 1 3 8
f 1 8 4
f 1 4 9
f 1 9 6
f 1 6 2
f 2 6 12
f 2 12 23
f 2 23 22
f 2 22 21
f 2 21 20
f 2 20 19
f 2 19 18
f 2 18 17
f 2 17 16
f 2 16 15
f 2 15 14
f 2 14 13
f 2 13 10
f 2 10 5
f 3 7 11
f 3 11 8
f 4 8 11
f 4 11 9
f 5 10 7
f 6 9 11
f 6 11 12
f 7 10 13
f 7 13 14
f 7 14 11
f 11 14 15
f 11 15 16
f 11 16 17
f 11 17 18
f 11 18 19
f 11 19 20
f 11 20 21
f 11 21 22
f 11 22 23
f 11 23 12

