# https://github.com/mikedh/trimesh
v 17.27499962 -0.00641823 50.79569912 0.11764706 0.63921569 0.14117647
v 17.27499962 -0.00641823 46.88192105 0.11764706 0.63921569 0.14117647
v 14.27546859 -0.00641823 50.79569912 0.11764706 0.63921569 0.14117647
v 17.27499962 -40.00000000 50.79569912 0.11764706 0.63921569 0.14117647
v 12.27284431 -0.00641823 45.64794517 0.11764706 0.63921569 0.14117647
v 17.27499962 -9.78167057 41.54676294 0.11764706 0.63921569 0.14117647
v 12.27284431 -0.00641823 50.49965477 0.11764706 0.63921569 0.14117647
v 12.27284431 -10.50199270 50.79569912 0.11764706 0.63921569 0.14117647
v 14.27546859 -40.00000000 50.79569912 0.11764706 0.63921569 0.14117647
v 17.27499962 -40.00000000 41.54676294 0.11764706 0.63921569 0.14117647
v 14.27546859 -8.87735248 41.54676294 0.11764706 0.63921569 0.14117647
v 13.02541971 -8.87735248 41.54676294 0.11764706 0.63921569 0.14117647
v 12.27284431 -12.35369325 41.54676294 0.11764706 0.63921569 0.14117647
v 12.27284431 -19.37684178 50.79569912 0.11764706 0.63921569 0.14117647
v 14.27546859 -40.00000000 41.54676294 0.11764706 0.63921569 0.14117647
v 12.27284431 -19.37684178 41.54676294 0.11764706 0.63921569 0.14117647
f 1 2 5
f 1 5 7
f 1 7 3
f 1 3 8
f 1 8 14
f 1 14 9
f 1 9 4
f 1 4 10
f 1 10 6
f 1 6 2
f 2 6 5
f 3 7 8
f 4 9 15
f 4 15 10
f 5 6 11
f 5 11 12
f 5 12 13
f 5 13 16
f 5 16 14
f 5 14 8
f 5 8 7
f 6 10 15
f 6 15 16
f 6 16 13
f 6 13 12
f 6 12 11
f 9 14 16
f 9 16 15

