# https://github.com/mikedh/trimesh
v 6.26365900 14.50000048 56.68744421 0.21960784 0.94901961 0.44705882
v -0.44698328 14.50000048 50.49929714 0.21960784 0.94901961 0.44705882
v -0.44698328 12.43620872 51.99923372 0.21960784 0.94901961 0.44705882
v 6.26365900 10.50571799 56.68744421 0.21960784 0.94901961 0.44705882
v 6.26365900 14.50000048 44.27103853 0.21960784 0.94901961 0.44705882
v -0.44698328 14.50000048 44.27103853 0.21960784 0.94901961 0.44705882
v -0.44698328 11.16319895 51.99923372 0.21960784 0.94901961 0.44705882
v 6.26365900 10.50022960 56.68623066 0.21960784 0.94901961 0.44705882
v 6.26365900 12.35034823 44.27103853 0.21960784 0.94901961 0.44705882
v -0.44698328 12.35034823 44.27103853 0.21960784 0.94901961 0.44705882
v 0.82538486 10.49513221 51.99923372 0.21960784 0.94901961 0.44705882
v -0.44698328 10.49513221 50.68770027 0.21960784 0.94901961 0.44705882
v 2.07541928 10.49513221 51.99923372 0.21960784 0.94901961 0.44705882
v 6.26365900 10.49513221 50.49929714 0.21960784 0.94901961 0.44705882
v 6.26365900 10.49513221 45.50113177 0.21960784 0.94901961 0.44705882
v -0.44698328 10.49513221 45.50113177 0.21960784 0.94901961 0.44705882
f 1 2 3
f 1 3 7
f 1 7 4
f 1 4 8
f 1 8 14
f 1 14 15
f 1 15 9
f 1 9 5
f 1 5 6
f 1 6 2
f 2 6 10
f 2 10 16
f 2 16 12
f 2 12 7
f 2 7 3
f 4 7 8
f 5 9 10
f 5 10 6
f 7 11 8
f 7 12 11
f 8 11 13
f 8 13 14
f 9 15 16
f 9 16 10
f 11 12 16
f 11 16 15
f 11 15 14
f 11 14 13

