# https://github.com/mikedh/trimesh
v -27.97500134 -4.96481121 29.07419360 0.16078431 0.61960784 0.57647059
v -27.97500134 -4.96481121 35.15135205 0.16078431 0.61960784 0.57647059
v -27.97500134 -1.42955780 29.07419360 0.16078431 0.61960784 0.57647059
v -20.22500038 -4.96481121 29.07419360 0.16078431 0.61960784 0.57647059
v -27.97500134 -3.48133981 35.15135205 0.16078431 0.61960784 0.57647059
v -24.72434044 -4.96481121 35.15135205 0.16078431 0.61960784 0.57647059
v -27.97500134 0.20003632 29.87369454 0.16078431 0.61960784 0.57647059
v -24.97468233 -1.42955780 29.07419360 0.16078431 0.61960784 0.57647059
v -20.22500038 -3.13044369 29.07419360 0.16078431 0.61960784 0.57647059
v -20.22500038 -4.96481121 32.73440844 0.16078431 0.61960784 0.57647059
v -27.97500134 0.20003632 31.77072442 0.16078431 0.61960784 0.57647059
v -20.22500038 -3.48133981 35.15135205 0.16078431 0.61960784 0.57647059
v -20.47534227 -4.96481121 33.06515431 0.16078431 0.61960784 0.57647059
v -20.47534227 -4.00768399 35.15135205 0.16078431 0.61960784 0.57647059
v -24.97468233 0.20003632 29.87369454 0.16078431 0.61960784 0.57647059
v -20.47534227 -2.87207484 29.07419360 0.16078431 0.61960784 0.57647059
v -20.22500038 0.20003632 31.48221409 0.16078431 0.61960784 0.57647059
v -20.47534227 0.20003632 31.23950845 0.16078431 0.61960784 0.57647059
v -20.22500038 -3.76448363 35.15135205 0.16078431 0.61960784 0.57647059
v -20.22500038 0.20003632 31.77072442 0.16078431 0.61960784 0.57647059
f 1 2 5
f 1 5 11
f 1 11 7
f 1 7 3
f 1 3 8
f 1 8 16
f 1 16 9
f 1 9 4
f 1 4 10
f 1 10 13
f 1 13 6
f 1 6 2
f 2 6 14
f 2 14 19
f 2 19 12
f 2 12 5
f 3 7 15
f 3 15 8
f 4 9 17
f 4 17 20
f 4 20 12
f 4 12 19
f 4 19 10
f 5 12 20
f 5 20 11
f 6 13 14
f 7 11 20
f 7 20 17
f 7 17 18
f 7 18 15
f 8 15 16
f 9 16 18
f 9 18 17
f 10 19 14
f 10 14 13
f 15 18 16

