# https://github.com/mikedh/trimesh
v -17.72600412 9.34692204 33.00351864 0.30980392 0.39607843 0.20784314
v -17.97583342 9.34692204 33.40703374 0.30980392 0.39607843 0.20784314
v -17.72600412 6.95007205 31.99965185 0.30980392 0.39607843 0.20784314
v -17.72600412 9.34692204 26.68383247 0.30980392 0.39607843 0.20784314
v -24.72522020 9.34692204 36.06801844 0.30980392 0.39607843 0.20784314
v -24.72522020 8.69978905 36.06801844 0.30980392 0.39607843 0.20784314
v -24.97504950 8.43182743 36.06801844 0.30980392 0.39607843 0.20784314
v -17.97583342 6.83551073 32.25430942 0.30980392 0.39607843 0.20784314
v -20.22529364 6.49238527 23.50000000 0.30980392 0.39607843 0.20784314
v -17.72901416 9.34692204 26.67522109 0.30980392 0.39607843 0.20784314
v -27.97500134 9.34692204 36.06801844 0.30980392 0.39607843 0.20784314
v -27.97500134 8.43182743 36.06801844 0.30980392 0.39607843 0.20784314
v -24.97504950 6.49238527 33.68875629 0.30980392 0.39607843 0.20784314
v -20.22529364 6.49238527 32.05255187 0.30980392 0.39607843 0.20784314
v -20.47612667 6.49238527 32.30843937 0.30980392 0.39607843 0.20784314
v -22.97441244 6.49238527 23.50000000 0.30980392 0.39607843 0.20784314
v -20.22529364 9.34692204 23.50000000 0.30980392 0.39607843 0.20784314
v -27.97500134 9.34692204 29.94886017 0.30980392 0.39607843 0.20784314
v -27.97500134 6.49238527 33.68875629 0.30980392 0.39607843 0.20784314
v -22.97441244 9.34692204 23.50000000 0.30980392 0.39607843 0.20784314
v -27.97500134 6.49238527 26.70474654 0.30980392 0.39607843 0.20784314
v -27.97500134 9.30948019 29.87504645 0.30980392 0.39607843 0.20784314
v -27.97500134 6.91011548 27.01599425 0.30980392 0.39607843 0.20784314
v -27.97500134 7.81962216 27.87346399 0.30980392 0.39607843 0.20784314
v -27.97500134 8.62267017 28.83181228 0.30980392 0.39607843 0.20784314
f 1 2 3
f 1 3 4
f 1 4 10
f 1 10 17
f 1 17 20
f 1 20 18
f 1 18 11
f 1 11 5
f 1 5 2
f 2 5 6
f 2 6 7
f 2 7 8
f 2 8 3
f 3 8 9
f 3 9 4
f 4 9 10
f 5 11 12
f 5 12 7
f 5 7 6
f 7 12 19
f 7 19 13
f 7 13 8
f 8 14 9
f 8 13 15
f 8 15 14
f 9 16 20
f 9 20 17
f 9 17 10
f 9 14 15
f 9 15 13
f 9 13 19
f 9 19 21
f 9 21 16
f 11 18 22
f 11 22 25
f 11 25 24
f 11 24 23
f 11 23 21
f 11 21 19
f 11 19 12
f 16 21 20
f 18 20 22
f 20 21 23
f 20 23 24
f 20 24 25
f 20 25 22

