# https://github.com/mikedh/trimesh
v -7.60677874 14.51138258 33.75024831 0.01568627 0.29803922 0.65882353
v -7.60677874 14.51138258 36.74972332 0.01568627 0.29803922 0.65882353
v -7.60677874 22.33382225 33.75024831 0.01568627 0.29803922 0.65882353
v -6.32028639 14.51138258 32.79266989 0.01568627 0.29803922 0.65882353
v -6.32087409 14.51138258 37.70671523 0.01568627 0.29803922 0.65882353
v -7.60677874 22.33382225 36.74972332 0.01568627 0.29803922 0.65882353
v -7.59090304 24.99501228 35.08334851 0.01568627 0.29803922 0.65882353
v -7.57796764 24.99501228 34.89324069 0.01568627 0.29803922 0.65882353
v -7.53974915 24.99501228 34.70078623 0.01568627 0.29803922 0.65882353
v -7.46978045 24.99501228 34.38276684 0.01568627 0.29803922 0.65882353
v -7.40627885 24.99501228 34.19441944 0.01568627 0.29803922 0.65882353
v -7.27339625 24.99501228 33.90867150 0.01568627 0.29803922 0.65882353
v -7.18519926 24.99501228 33.72853851 0.01568627 0.29803922 0.65882353
v -7.17579246 24.99501228 33.71269619 0.01568627 0.29803922 0.65882353
v -7.10111916 24.99501228 33.61118829 0.01568627 0.29803922 0.65882353
v -6.78419948 24.99501228 33.19400764 0.01568627 0.29803922 0.65882353
v -6.68953538 24.99501228 33.11127579 0.01568627 0.29803922 0.65882353
v -6.29029930 24.99501228 32.77213341 0.01568627 0.29803922 0.65882353
v -5.74759722 14.51138258 32.47875756 0.01568627 0.29803922 0.65882353
v -5.74818492 14.51138258 38.02121377 0.01568627 0.29803922 0.65882353
v -6.18034780 24.99501228 37.78827405 0.01568627 0.29803922 0.65882353
v -6.29029930 24.99501228 37.72783852 0.01568627 0.29803922 0.65882353
v -7.18519926 24.99501228 36.77143312 0.01568627 0.29803922 0.65882353
v -7.27339625 24.99501228 36.59188724 0.01568627 0.29803922 0.65882353
v -7.40627885 24.99501228 36.30555189 0.01568627 0.29803922 0.65882353
v -7.46978045 24.99501228 36.11720479 0.01568627 0.29803922 0.65882353
v -7.53974915 24.99501228 35.79918540 0.01568627 0.29803922 0.65882353
v -7.57796764 24.99501228 35.60673094 0.01568627 0.29803922 0.65882353
v -7.59090304 24.99501228 35.41662312 0.01568627 0.29803922 0.65882353
v -6.68953538 24.99501228 37.38869584 0.01568627 0.29803922 0.65882353
v -6.78419948 24.99501228 37.30596399 0.01568627 0.29803922 0.65882353
v -7.10111916 24.99501228 36.88878334 0.01568627 0.29803922 0.65882353
v -7.17579246 24.99501228 36.78727543 0.01568627 0.29803922 0.65882353
v -6.17975950 24.99501228 32.71169788 0.01568627 0.29803922 0.65882353
v -5.12081444 14.51138258 32.29569113 0.01568627 0.29803922 0.65882353
v -5.71761012 24.99501228 32.46643579 0.01568627 0.29803922 0.65882353
v -5.12140214 14.51138258 38.20428050 0.01568627 0.29803922 0.65882353
v -5.71761012 24.99501228 38.03353584 0.01568627 0.29803922 0.65882353
v -4.46933627 14.51138258 32.25344485 0.01568627 0.29803922 0.65882353
v -5.59648693 24.99501228 32.43123060 0.01568627 0.29803922 0.65882353
v -5.09200335 24.99501228 32.29099697 0.01568627 0.29803922 0.65882353
v -4.96617645 24.99501228 32.28278255 0.01568627 0.29803922 0.65882353
v -4.46992427 14.51138258 38.24711359 0.01568627 0.29803922 0.65882353
v -5.09200335 24.99501228 38.20897436 0.01568627 0.29803922 0.65882353
v -5.59648693 24.99501228 38.06874132 0.01568627 0.29803922 0.65882353
v -3.82373810 14.51138258 32.35260582 0.01568627 0.29803922 0.65882353
v -4.44405317 24.99501228 32.25461847 0.01568627 0.29803922 0.65882353
v -4.31940228 24.99501228 32.27339453 0.01568627 0.29803922 0.65882353
v -3.82432610 14.51138258 38.14736581 0.01568627 0.29803922 0.65882353
v -4.31940228 24.99501228 38.22657681 0.01568627 0.29803922 0.65882353
v -4.44405317 24.99501228 38.24535346 0.01568627 0.29803922 0.65882353
v -4.96617645 24.99501228 38.21718907 0.01568627 0.29803922 0.65882353
v -3.21518242 14.51138258 32.58906698 0.01568627 0.29803922 0.65882353
v -3.80257070 24.99501228 32.35847330 0.01568627 0.29803922 0.65882353
v -3.68556350 24.99501228 32.40365332 0.01568627 0.29803922 0.65882353
v -3.21577013 14.51138258 37.91090465 0.01568627 0.29803922 0.65882353
v -3.68556350 24.99501228 38.09631801 0.01568627 0.29803922 0.65882353
v -3.80257070 24.99501228 38.14149833 0.01568627 0.29803922 0.65882353
v -2.67189205 14.51138258 32.95226610 0.01568627 0.29803922 0.65882353
v -3.19871902 24.99501228 32.59786820 0.01568627 0.29803922 0.65882353
v -3.09405923 24.99501228 32.66769147 0.01568627 0.29803922 0.65882353
v -2.67248005 14.51138258 37.54829204 0.01568627 0.29803922 0.65882353
v -3.09405923 24.99501228 37.83228016 0.01568627 0.29803922 0.65882353
v -3.19871902 24.99501228 37.90210342 0.01568627 0.29803922 0.65882353
v -2.22032607 14.51138258 33.42401451 0.01568627 0.29803922 0.65882353
v -2.66072035 24.99501228 32.96165413 0.01568627 0.29803922 0.65882353
v -2.22032607 14.51138258 37.07654393 0.01568627 0.29803922 0.65882353
v -2.66072035 24.99501228 37.53831720 0.01568627 0.29803922 0.65882353
v -1.88165158 14.51138258 33.98260212 0.01568627 0.29803922 0.65882353
v -2.57369995 24.99501228 33.05260068 0.01568627 0.29803922 0.65882353
v -2.21385837 24.99501228 33.43281573 0.01568627 0.29803922 0.65882353
v -2.14800507 24.99501228 33.54019141 0.01568627 0.29803922 0.65882353
v -1.88165158 14.51138258 36.51795602 0.01568627 0.29803922 0.65882353
v -2.14859292 24.99501228 36.95978022 0.01568627 0.29803922 0.65882353
v -2.21385837 24.99501228 37.06715560 0.01568627 0.29803922 0.65882353
v -2.57369995 24.99501228 37.44737124 0.01568627 0.29803922 0.65882353
v -1.67115599 14.51138258 34.60103846 0.01568627 0.29803922 0.65882353
v -1.87812388 24.99501228 33.98905641 0.01568627 0.29803922 0.65882353
v -1.83755338 24.99501228 34.10816705 0.01568627 0.29803922 0.65882353
v -1.67174399 14.51138258 35.89951968 0.01568627 0.29803922 0.65882353
v -1.83755338 24.99501228 36.39180458 0.01568627 0.29803922 0.65882353
v -1.87812388 24.99501228 36.51091552 0.01568627 0.29803922 0.65882353
v -1.60059899 14.51138258 35.24998581 0.01568627 0.29803922 0.65882353
v -1.67056799 24.99501228 34.60455871 0.01568627 0.29803922 0.65882353
v -1.60001099 24.99501228 35.24998581 0.01568627 0.29803922 0.65882353
v -1.67056799 24.99501228 35.89541292 0.01568627 0.29803922 0.65882353
f 1 2 6
f 1 6 3
f 1 3 4
f 1 4 19
f 1 19 35
f 1 35 39
f 1 39 46
f 1 46 53
f 1 53 59
f 1 59 65
f 1 65 69
f 1 69 77
f 1 77 83
f 1 83 80
f 1 80 73
f 1 73 67
f 1 67 62
f 1 62 56
f 1 56 49
f 1 49 43
f 1 43 37
f 1 37 20
f 1 20 5
f 1 5 2
f 2 5 6
f 3 6 29
f 3 29 7
f 3 7 8
f 3 8 9
f 3 9 10
f 3 10 11
f 3 11 12
f 3 12 13
f 3 13 14
f 3 14 15
f 3 15 16
f 3 16 17
f 3 17 18
f 3 18 4
f 4 18 19
f 5 20 21
f 5 21 22
f 5 22 6
f 6 23 24
f 6 24 25
f 6 25 26
f 6 26 27
f 6 27 28
f 6 28 29
f 6 22 30
f 6 30 31
f 6 31 32
f 6 32 33
f 6 33 23
f 7 29 28
f 7 28 27
f 7 27 26
f 7 26 25
f 7 25 24
f 7 24 23
f 7 23 33
f 7 33 32
f 7 32 31
f 7 31 30
f 7 30 22
f 7 22 21
f 7 21 38
f 7 38 45
f 7 45 44
f 7 44 52
f 7 52 51
f 7 51 50
f 7 50 58
f 7 58 57
f 7 57 64
f 7 64 63
f 7 63 68
f 7 68 76
f 7 76 75
f 7 75 74
f 7 74 82
f 7 82 81
f 7 81 86
f 7 86 85
f 7 85 84
f 7 84 79
f 7 79 78
f 7 78 72
f 7 72 71
f 7 71 70
f 7 70 66
f 7 66 61
f 7 61 60
f 7 60 55
f 7 55 54
f 7 54 48
f 7 48 47
f 7 47 42
f 7 42 41
f 7 41 40
f 7 40 36
f 7 36 34
f 7 34 18
f 7 18 17
f 7 17 16
f 7 16 15
f 7 15 14
f 7 14 13
f 7 13 12
f 7 12 11
f 7 11 10
f 7 10 9
f 7 9 8
f 18 34 19
f 19 34 36
f 19 36 35
f 20 37 38
f 20 38 21
f 35 36 40
f 35 40 41
f 35 41 42
f 35 42 39
f 37 43 44
f 37 44 45
f 37 45 38
f 39 42 47
f 39 47 48
f 39 48 46
f 43 49 50
f 43 50 51
f 43 51 52
f 43 52 44
f 46 48 54
f 46 54 55
f 46 55 53
f 49 56 57
f 49 57 58
f 49 58 50
f 53 55 60
f 53 60 61
f 53 61 59
f 56 62 63
f 56 63 64
f 56 64 57
f 59 61 66
f 59 66 65
f 62 67 68
f 62 68 63
f 65 66 70
f 65 70 71
f 65 71 72
f 65 72 69
f 67 73 74
f 67 74 75
f 67 75 76
f 67 76 68
f 69 72 78
f 69 78 79
f 69 79 77
f 73 80 81
f 73 81 82
f 73 82 74
f 77 79 84
f 77 84 85
f 77 85 83
f 80 83 86
f 80 86 81
f 83 85 86

