# https://github.com/mikedh/trimesh
v -9.13746953 9.85056520 51.99999905 0.72941176 0.16862745 0.51764706
v -9.13746953 9.48215127 51.99999905 0.72941176 0.16862745 0.51764706
v -9.13746953 9.85056520 47.26270294 0.72941176 0.16862745 0.51764706
v -13.81500244 9.85056520 51.99999905 0.72941176 0.16862745 0.51764706
v -9.13746953 0.82576454 50.49988604 0.72941176 0.16862745 0.51764706
v -13.60097051 0.82576454 51.99999905 0.72941176 0.16862745 0.51764706
v -9.13746953 8.40871692 47.26270294 0.72941176 0.16862745 0.51764706
v -22.97500134 9.85056520 47.26270294 0.72941176 0.16862745 0.51764706
v -22.97500134 9.85056520 50.49988604 0.72941176 0.16862745 0.51764706
v -14.85129237 9.65001345 51.99999905 0.72941176 0.16862745 0.51764706
v -9.13746953 0.82576454 48.97797918 0.72941176 0.16862745 0.51764706
v -14.85129237 0.82576454 51.99999905 0.72941176 0.16862745 0.51764706
v -9.37452912 0.82576454 47.52516484 0.72941176 0.16862745 0.51764706
v -9.44226086 0.82576454 47.26270294 0.72941176 0.16862745 0.51764706
v -22.97500134 0.82576454 47.26270294 0.72941176 0.16862745 0.51764706
v -22.97500134 0.82576454 50.49988604 0.72941176 0.16862745 0.51764706
f 1 2 5
f 1 5 11
f 1 11 7
f 1 7 3
f 1 3 8
f 1 8 9
f 1 9 4
f 1 4 10
f 1 10 12
f 1 12 6
f 1 6 2
f 2 6 5
f 3 7 14
f 3 14 15
f 3 15 8
f 4 9 10
f 5 6 12
f 5 12 16
f 5 16 15
f 5 15 14
f 5 14 13
f 5 13 11
f 7 11 13
f 7 13 14
f 8 15 16
f 8 16 9
f 9 16 12
f 9 12 10

