# https://github.com/mikedh/trimesh
v -0.75611413 -10.49967766 45.50063705 0.36470588 0.43529412 0.89019608
v -0.75611413 -10.49967766 50.81465340 0.36470588 0.43529412 0.89019608
v -0.75611413 -10.27623415 45.50063705 0.36470588 0.43529412 0.89019608
v 6.26365900 -10.49967766 45.50063705 0.36470588 0.43529412 0.89019608
v -0.75611413 -8.39967847 50.49970484 0.36470588 0.43529412 0.89019608
v 0.82567111 -10.49967766 51.99936247 0.36470588 0.43529412 0.89019608
v 0.82567111 -8.39967847 51.99936247 0.36470588 0.43529412 0.89019608
v -0.75611413 -8.39967847 48.99941182 0.36470588 0.43529412 0.89019608
v 3.44709188 -8.39967847 45.50063705 0.36470588 0.43529412 0.89019608
v 6.26365900 -8.39967847 45.50063705 0.36470588 0.43529412 0.89019608
v 6.26365900 -10.49967766 50.49970484 0.36470588 0.43529412 0.89019608
v 2.07556993 -10.49967766 51.99936247 0.36470588 0.43529412 0.89019608
v 2.07556993 -8.39967847 51.99936247 0.36470588 0.43529412 0.89019608
v 6.26365900 -8.39967847 50.49970484 0.36470588 0.43529412 0.89019608
f 1 2 5
f 1 5 8
f 1 8 3
f 1 3 9
f 1 9 10
f 1 10 4
f 1 4 11
f 1 11 12
f 1 12 6
f 1 6 2
f 2 6 7
f 2 7 5
f 3 8 9
f 4 10 14
f 4 14 11
f 5 7 13
f 5 13 14
f 5 14 10
f 5 10 9
f 5 9 8
f 6 12 13
f 6 13 7
f 11 14 13
f 11 13 12

