# https://github.com/mikedh/trimesh
v -22.97412157 9.85056520 45.46632624 0.85490196 0.00784314 0.35686275
v -22.97412157 12.34732747 45.46632624 0.85490196 0.00784314 0.35686275
v -17.72557139 9.85056520 45.46632624 0.85490196 0.00784314 0.35686275
v -22.97412157 9.85056520 50.50000048 0.85490196 0.00784314 0.35686275
v -22.97412157 12.34732747 50.50000048 0.85490196 0.00784314 0.35686275
v -17.72557139 12.34732747 45.46632624 0.85490196 0.00784314 0.35686275
v -13.98302078 9.85056520 45.50032473 0.85490196 0.00784314 0.35686275
v -13.98302078 9.85056520 50.50000048 0.85490196 0.00784314 0.35686275
v -13.98302078 12.34732747 50.50000048 0.85490196 0.00784314 0.35686275
v -13.98302078 12.34732747 45.50032473 0.85490196 0.00784314 0.35686275
f 1 2 6
f 1 6 3
f 1 3 7
f 1 7 8
f 1 8 4
f 1 4 5
f 1 5 2
f 2 5 9
f 2 9 10
f 2 10 6
f 3 6 10
f 3 10 7
f 4 8 9
f 4 9 5
f 7 10 9
f 7 9 8

