# https://github.com/mikedh/trimesh
v -27.97500134 -4.96481121 35.15135264 0.97647059 0.60392157 0.73725490
v -27.97500134 -3.48133981 35.15135264 0.97647059 0.60392157 0.73725490
v -24.72434044 -4.96481121 35.15135264 0.97647059 0.60392157 0.73725490
v -27.97500134 -4.96481121 41.82564950 0.97647059 0.60392157 0.73725490
v -27.97500134 0.20003632 38.73188591 0.97647059 0.60392157 0.73725490
v -20.22500038 -3.48133981 35.15135264 0.97647059 0.60392157 0.73725490
v -20.47534227 -4.00768399 35.15135264 0.97647059 0.60392157 0.73725490
v -20.47534227 -4.96481121 37.44014955 0.97647059 0.60392157 0.73725490
v -27.97500134 -1.59438804 41.82564950 0.97647059 0.60392157 0.73725490
v -20.22500038 -4.96481121 41.82564950 0.97647059 0.60392157 0.73725490
v -27.97500134 0.20003632 40.62604046 0.97647059 0.60392157 0.73725490
v -20.22500038 0.20003632 38.73188591 0.97647059 0.60392157 0.73725490
v -20.22500038 -3.76448363 35.15135264 0.97647059 0.60392157 0.73725490
v -20.22500038 -4.96481121 37.76618695 0.97647059 0.60392157 0.73725490
v -27.95072556 -1.59438804 41.82564950 0.97647059 0.60392157 0.73725490
v -20.22500038 -3.21386993 41.82564950 0.97647059 0.60392157 0.73725490
v -24.97468233 0.20003632 40.62604046 0.97647059 0.60392157 0.73725490
v -20.22500038 0.20003632 39.02068055 0.97647059 0.60392157 0.73725490
v -24.97240782 -1.59641057 41.82564950 0.97647059 0.60392157 0.73725490
v -20.47534227 0.20003632 39.27353954 0.97647059 0.60392157 0.73725490
v -20.47534227 -2.95347869 41.82564950 0.97647059 0.60392157 0.73725490
f 1 2 6
f 1 6 13
f 1 13 7
f 1 7 3
f 1 3 8
f 1 8 14
f 1 14 10
f 1 10 4
f 1 4 9
f 1 9 11
f 1 11 5
f 1 5 2
f 2 5 12
f 2 12 6
f 3 7 8
f 4 10 16
f 4 16 21
f 4 21 19
f 4 19 15
f 4 15 9
f 5 11 17
f 5 17 20
f 5 20 18
f 5 18 12
f 6 12 18
f 6 18 16
f 6 16 10
f 6 10 14
f 6 14 13
f 7 13 14
f 7 14 8
f 9 15 17
f 9 17 11
f 15 19 17
f 16 18 20
f 16 20 21
f 17 19 21
f 17 21 20

