# https://github.com/mikedh/trimesh
v 6.26365900 5.17915130 45.50034261 0.02352941 0.06666667 0.67843137
v 3.42266440 8.41987967 45.50034261 0.02352941 0.06666667 0.67843137
v 6.26365900 8.41987967 45.50034261 0.02352941 0.06666667 0.67843137
v 6.26365900 5.17915130 48.99570680 0.02352941 0.06666667 0.67843137
v 3.42266440 8.41987967 48.99570680 0.02352941 0.06666667 0.67843137
v 6.26365900 8.41987967 48.99570680 0.02352941 0.06666667 0.67843137
f 1 2 3
f 1 3 6
f 1 6 4
f 1 4 5
f 1 5 2
f 2 5 6
f 2 6 3
f 4 6 5

