# https://github.com/mikedh/trimesh
v 2.27177054 -12.35000014 43.53388047 0.20784314 0.16078431 0.65098039
v -9.13611531 -12.35000014 43.53388047 0.20784314 0.16078431 0.65098039
v 2.27177054 -14.49999452 43.53388047 0.20784314 0.16078431 0.65098039
v 2.27177054 -12.35000014 20.00025249 0.20784314 0.16078431 0.65098039
v -9.13611531 -14.49999452 43.53388047 0.20784314 0.16078431 0.65098039
v -9.13611531 -12.35000014 17.61822438 0.20784314 0.16078431 0.65098039
v -4.46844071 -14.51035619 38.24471211 0.20784314 0.16078431 0.65098039
v -3.82300615 -14.51035619 38.14577794 0.20784314 0.16078431 0.65098039
v -3.21553856 -14.51035619 37.90985858 0.20784314 0.16078431 0.65098039
v -2.67172098 -14.51035619 37.54709995 0.20784314 0.16078431 0.65098039
v -2.22058684 -14.51035619 37.07526064 0.20784314 0.16078431 0.65098039
v -1.88111976 -14.51035619 36.51717103 0.20784314 0.16078431 0.65098039
v -1.67118594 -14.51035619 35.89819884 0.20784314 0.16078431 0.65098039
v -1.60083592 -14.51035619 35.24878538 0.20784314 0.16078431 0.65098039
v 2.27177054 -14.49999452 20.00025249 0.20784314 0.16078431 0.65098039
v -5.74702621 -14.51035619 38.02147663 0.20784314 0.16078431 0.65098039
v -5.12057483 -14.51035619 38.20412374 0.20784314 0.16078431 0.65098039
v -9.13611531 -14.51035619 33.74955332 0.20784314 0.16078431 0.65098039
v -9.13276434 -14.51035619 36.74801683 0.20784314 0.16078431 0.65098039
v -9.13611531 -14.49999452 17.61822438 0.20784314 0.16078431 0.65098039
v -1.67230263 -14.51035619 34.59937191 0.20784314 0.16078431 0.65098039
v -1.88223630 -14.51035619 33.98039973 0.20784314 0.16078431 0.65098039
v -2.22058684 -14.51035619 33.42230982 0.20784314 0.16078431 0.65098039
v -2.67283767 -14.51035619 32.95047021 0.20784314 0.16078431 0.65098039
v -3.21553856 -14.51035619 32.58771217 0.20784314 0.16078431 0.65098039
v -3.82300615 -14.51035619 32.35179222 0.20784314 0.16078431 0.65098039
v -5.74814260 -14.51035619 32.47609413 0.20784314 0.16078431 0.65098039
v -4.46955740 -14.51035619 32.25285834 0.20784314 0.16078431 0.65098039
v -5.12057483 -14.51035619 32.29344642 0.20784314 0.16078431 0.65098039
f 1 2 5
f 1 5 3
f 1 3 15
f 1 15 4
f 1 4 6
f 1 6 2
f 2 6 20
f 2 20 18
f 2 18 5
f 3 5 7
f 3 7 8
f 3 8 9
f 3 9 10
f 3 10 11
f 3 11 12
f 3 12 13
f 3 13 14
f 3 14 15
f 4 15 20
f 4 20 6
f 5 16 17
f 5 17 7
f 5 18 19
f 5 19 16
f 7 17 16
f 7 16 19
f 7 19 18
f 7 18 27
f 7 27 29
f 7 29 28
f 7 28 26
f 7 26 25
f 7 25 24
f 7 24 23
f 7 23 22
f 7 22 21
f 7 21 14
f 7 14 13
f 7 13 12
f 7 12 11
f 7 11 10
f 7 10 9
f 7 9 8
f 14 21 15
f 15 21 22
f 15 22 23
f 15 23 24
f 15 24 25
f 15 25 26
f 15 26 20
f 18 20 27
f 20 26 28
f 20 28 29
f 20 29 27

