# https://github.com/mikedh/trimesh
v 17.27695584 -16.21983290 20.04575527 0.00392157 0.67450980 0.26666667
v 17.27434635 -16.21983290 30.15821910 0.00392157 0.67450980 0.26666667
v 17.27434635 -20.97790956 30.15821910 0.00392157 0.67450980 0.26666667
v 17.27608681 -20.97790956 20.04575527 0.00392157 0.67450980 0.26666667
v 14.26766396 -20.99708319 18.00565696 0.00392157 0.67450980 0.26666667
v 14.26766396 -16.21983290 18.00565696 0.00392157 0.67450980 0.26666667
v 8.39171767 -16.21983290 30.15821910 0.00392157 0.67450980 0.26666667
v 14.24766064 -20.97790956 30.15821910 0.00392157 0.67450980 0.26666667
v 14.26766396 -20.99427700 20.04337645 0.00392157 0.67450980 0.26666667
v 8.39171767 -16.21983290 18.00565696 0.00392157 0.67450980 0.26666667
v 9.09446597 -16.79126978 30.15821910 0.00392157 0.67450980 0.26666667
v 9.38147902 -17.02461481 20.04575527 0.00392157 0.67450980 0.26666667
f 1 2 3
f 1 3 4
f 1 4 5
f 1 5 6
f 1 6 10
f 1 10 7
f 1 7 2
f 2 7 11
f 2 11 8
f 2 8 3
f 3 8 9
f 3 9 5
f 3 5 4
f 5 10 6
f 5 9 8
f 5 8 11
f 5 11 12
f 5 12 10
f 7 10 11
f 10 12 11

