# https://github.com/mikedh/trimesh
v -20.22500038 6.49176955 28.08428979 0.06666667 0.69411765 0.45098039
v -20.22500038 3.23287934 28.08428979 0.06666667 0.69411765 0.45098039
v -20.22500038 6.49176955 23.50000000 0.06666667 0.69411765 0.45098039
v -27.97500134 6.49176955 28.08428979 0.06666667 0.69411765 0.45098039
v -20.47534227 2.98219562 28.08428979 0.06666667 0.69411765 0.45098039
v -20.22500038 0.20065188 25.01807487 0.06666667 0.69411765 0.45098039
v -20.22500038 0.20065188 23.50000000 0.06666667 0.69411765 0.45098039
v -22.97573566 6.49176955 23.50000000 0.06666667 0.69411765 0.45098039
v -27.97500134 6.49176955 26.70397705 0.06666667 0.69411765 0.45098039
v -27.97500134 1.62837967 28.08428979 0.06666667 0.69411765 0.45098039
v -20.47534227 0.20065188 25.26084101 0.06666667 0.69411765 0.45098039
v -24.97468233 1.62837967 28.08428979 0.06666667 0.69411765 0.45098039
v -23.95510674 0.20065188 23.50000000 0.06666667 0.69411765 0.45098039
v -23.91262293 0.60655028 23.50000000 0.06666667 0.69411765 0.45098039
v -26.63377285 0.20065188 24.17041218 0.06666667 0.69411765 0.45098039
v -27.97500134 0.20065188 24.51190031 0.06666667 0.69411765 0.45098039
v -27.97500134 1.24835029 24.57292831 0.06666667 0.69411765 0.45098039
v -27.97500134 2.47959614 24.79011691 0.06666667 0.69411765 0.45098039
v -27.97500134 3.67634952 25.14865702 0.06666667 0.69411765 0.45098039
v -27.97500134 4.82444465 25.64361310 0.06666667 0.69411765 0.45098039
v -27.97500134 5.90663552 26.26825398 0.06666667 0.69411765 0.45098039
v -27.97500134 0.20065188 26.62589705 0.06666667 0.69411765 0.45098039
v -24.97468233 0.20065188 26.62589705 0.06666667 0.69411765 0.45098039
f 1 2 6
f 1 6 7
f 1 7 3
f 1 3 8
f 1 8 9
f 1 9 4
f 1 4 10
f 1 10 12
f 1 12 5
f 1 5 2
f 2 5 6
f 3 7 13
f 3 13 14
f 3 14 8
f 4 9 21
f 4 21 20
f 4 20 19
f 4 19 18
f 4 18 17
f 4 17 16
f 4 16 22
f 4 22 10
f 5 11 6
f 5 12 11
f 6 11 23
f 6 23 22
f 6 22 16
f 6 16 15
f 6 15 13
f 6 13 7
f 8 14 15
f 8 15 16
f 8 16 17
f 8 17 18
f 8 18 19
f 8 19 20
f 8 20 21
f 8 21 9
f 10 22 23
f 10 23 12
f 11 12 23
f 13 15 14

