# https://github.com/mikedh/trimesh
v -1.60000026 -27.49974966 35.25000250 0.80392157 0.56862745 0.40392157
v -2.10021883 -27.99999952 35.25000250 0.80392157 0.56862745 0.40392157
v -1.67037100 -27.49974966 34.60542774 0.80392157 0.56862745 0.40392157
v -1.67037100 -25.01311541 34.60425472 0.80392157 0.56862745 0.40392157
v -1.65688336 -25.01311541 34.72859478 0.80392157 0.56862745 0.40392157
v -1.60058677 -25.01311541 35.25000250 0.80392157 0.56862745 0.40392157
v -1.67037100 -25.01311541 35.89575028 0.80392157 0.56862745 0.40392157
v -1.67037100 -27.49974966 35.89457726 0.80392157 0.56862745 0.40392157
v -2.16765746 -27.99999952 35.82595563 0.80392157 0.56862745 0.40392157
v -2.16765746 -27.99999952 34.67346287 0.80392157 0.56862745 0.40392157
v -1.87737823 -27.49974966 33.99076498 0.80392157 0.56862745 0.40392157
v -1.83808804 -25.01311541 34.10748070 0.80392157 0.56862745 0.40392157
v -1.83808804 -25.01311541 36.39252400 0.80392157 0.56862745 0.40392157
v -1.87737823 -27.49974966 36.50924003 0.80392157 0.56862745 0.40392157
v -2.36645475 -27.99999952 36.37199616 0.80392157 0.56862745 0.40392157
v -2.36645475 -27.99999952 34.12800854 0.80392157 0.56862745 0.40392157
v -1.87855095 -25.01311541 33.98900545 0.80392157 0.56862745 0.40392157
v -2.21222550 -27.49974966 33.43475348 0.80392157 0.56862745 0.40392157
v -2.21339837 -25.01311541 33.43240744 0.80392157 0.56862745 0.40392157
v -1.87855095 -25.01311541 36.51099956 0.80392157 0.56862745 0.40392157
v -2.14889184 -25.01311541 36.96026599 0.80392157 0.56862745 0.40392157
v -2.21222550 -27.49974966 37.06525183 0.80392157 0.56862745 0.40392157
v -2.68546879 -27.99999952 36.85645378 0.80392157 0.56862745 0.40392157
v -2.68546879 -27.99999952 33.64355123 0.80392157 0.56862745 0.40392157
v -2.65790671 -27.49974966 32.96378589 0.80392157 0.56862745 0.40392157
v -2.57463455 -25.01311541 33.05176234 0.80392157 0.56862745 0.40392157
v -2.21339837 -25.01311541 37.06701136 0.80392157 0.56862745 0.40392157
v -2.57404834 -25.01311541 37.44824266 0.80392157 0.56862745 0.40392157
v -2.65790671 -27.49974966 37.53621912 0.80392157 0.56862745 0.40392157
v -3.10710669 -27.99999952 37.25528097 0.80392157 0.56862745 0.40392157
v -3.10710669 -27.99999952 33.24472404 0.80392157 0.56862745 0.40392157
v -3.19507003 -27.49974966 32.59956306 0.80392157 0.56862745 0.40392157
v -3.09479177 -25.01311541 32.66701168 0.80392157 0.56862745 0.40392157
v -2.66083896 -25.01311541 32.96143985 0.80392157 0.56862745 0.40392157
v -2.66083896 -25.01311541 37.53856516 0.80392157 0.56862745 0.40392157
v -3.09479177 -25.01311541 37.83299303 0.80392157 0.56862745 0.40392157
v -3.19507003 -27.49974966 37.90044165 0.80392157 0.56862745 0.40392157
v -3.61025721 -27.99999952 37.54501677 0.80392157 0.56862745 0.40392157
v -3.61025721 -27.99999952 32.95498824 0.80392157 0.56862745 0.40392157
v -3.19917500 -25.01311541 32.59780353 0.80392157 0.56862745 0.40392157
v -3.79791230 -27.49974966 32.35968029 0.80392157 0.56862745 0.40392157
v -3.68649215 -25.01311541 32.40366852 0.80392157 0.56862745 0.40392157
v -3.19917500 -25.01311541 37.90220118 0.80392157 0.56862745 0.40392157
v -3.68590564 -25.01311541 38.09633648 0.80392157 0.56862745 0.40392157
v -3.79791230 -27.49974966 38.14032471 0.80392157 0.56862745 0.40392157
v -4.16618586 -27.99999952 37.71158552 0.80392157 0.56862745 0.40392157
v -4.16618586 -27.99999952 32.78841949 0.80392157 0.56862745 0.40392157
v -4.43769962 -27.49974966 32.25469506 0.80392157 0.56862745 0.40392157
v -4.32041496 -25.01311541 32.27346337 0.80392157 0.56862745 0.40392157
v -3.80260378 -25.01311541 32.35850728 0.80392157 0.56862745 0.40392157
v -3.80260378 -25.01311541 38.14149773 0.80392157 0.56862745 0.40392157
v -4.32041496 -25.01311541 38.22654164 0.80392157 0.56862745 0.40392157
v -4.43769962 -27.49974966 38.24530995 0.80392157 0.56862745 0.40392157
v -4.74498510 -27.99999952 37.74560308 0.80392157 0.56862745 0.40392157
v -4.74498510 -27.99999952 32.75440162 0.80392157 0.56862745 0.40392157
v -4.44415003 -25.01311541 32.25469506 0.80392157 0.56862745 0.40392157
v -5.08511007 -27.49974966 32.28988564 0.80392157 0.56862745 0.40392157
v -4.96723920 -25.01311541 32.28284752 0.80392157 0.56862745 0.40392157
v -4.44415003 -25.01311541 38.24589646 0.80392157 0.56862745 0.40392157
v -5.08511007 -27.49974966 38.21011937 0.80392157 0.56862745 0.40392157
v -5.31674683 -27.99999952 37.64472342 0.80392157 0.56862745 0.40392157
v -5.31674683 -27.99999952 32.85528159 0.80392157 0.56862745 0.40392157
v -5.09214699 -25.01311541 32.29105866 0.80392157 0.56862745 0.40392157
v -5.71023643 -27.49974966 32.46349251 0.80392157 0.56862745 0.40392157
v -5.59764326 -25.01311541 32.43123448 0.80392157 0.56862745 0.40392157
v -4.96723920 -25.01311541 38.21715748 0.80392157 0.56862745 0.40392157
v -5.09214699 -25.01311541 38.20894635 0.80392157 0.56862745 0.40392157
v -5.59705734 -25.01311541 38.06877053 0.80392157 0.56862745 0.40392157
v -5.71023643 -27.49974966 38.03651249 0.80392157 0.56862745 0.40392157
v -5.84980488 -27.99999952 37.41481161 0.80392157 0.56862745 0.40392157
v -5.84980488 -27.99999952 33.08519340 0.80392157 0.56862745 0.40392157
v -5.71727395 -25.01311541 32.46642506 0.80392157 0.56862745 0.40392157
v -6.28317177 -27.49974966 32.76730514 0.80392157 0.56862745 0.40392157
v -5.71727395 -25.01311541 38.03357995 0.80392157 0.56862745 0.40392157
v -6.28317177 -27.49974966 37.73269987 0.80392157 0.56862745 0.40392157
v -6.31542444 -27.99999952 37.06818438 0.80392157 0.56862745 0.40392157
v -6.31542444 -27.99999952 33.43182093 0.80392157 0.56862745 0.40392157
v -6.18054748 -25.01311541 32.71217293 0.80392157 0.56862745 0.40392157
v -6.29020870 -25.01311541 32.77199721 0.80392157 0.56862745 0.40392157
v -6.77752614 -27.49974966 33.18724608 0.80392157 0.56862745 0.40392157
v -6.69014871 -25.01311541 33.11158633 0.80392157 0.56862745 0.40392157
v -6.18054748 -25.01311541 37.78783178 0.80392157 0.56862745 0.40392157
v -6.29020870 -25.01311541 37.72800779 0.80392157 0.56862745 0.40392157
v -6.69014871 -25.01311541 37.38841867 0.80392157 0.56862745 0.40392157
v -6.77752614 -27.49974966 37.31275892 0.80392157 0.56862745 0.40392157
v -6.68838978 -27.99999952 36.62360942 0.80392157 0.56862745 0.40392157
v -6.68838978 -27.99999952 33.87639558 0.80392157 0.56862745 0.40392157
v -7.17042923 -27.49974966 33.70337522 0.80392157 0.56862745 0.40392157
v -6.78397655 -25.01311541 33.19428420 0.80392157 0.56862745 0.40392157
v -6.78397655 -25.01311541 37.30572081 0.80392157 0.56862745 0.40392157
v -7.17042923 -27.49974966 36.79662979 0.80392157 0.56862745 0.40392157
v -6.94876134 -27.99999952 36.10454774 0.80392157 0.56862745 0.40392157
v -6.94876134 -27.99999952 34.39545727 0.80392157 0.56862745 0.40392157
v -7.44252920 -27.49974966 34.29223156 0.80392157 0.56862745 0.40392157
v -7.27305293 -25.01311541 33.90689409 0.80392157 0.56862745 0.40392157
v -7.18508959 -25.01311541 33.72859514 0.80392157 0.56862745 0.40392157
v -7.17570662 -25.01311541 33.71275938 0.80392157 0.56862745 0.40392157
v -7.10181773 -25.01311541 33.61187971 0.80392157 0.56862745 0.40392157
v -7.10181773 -25.01311541 36.88812530 0.80392157 0.56862745 0.40392157
v -7.17570662 -25.01311541 36.78724563 0.80392157 0.56862745 0.40392157
v -7.18508959 -25.01311541 36.77140987 0.80392157 0.56862745 0.40392157
v -7.27305293 -25.01311541 36.59311092 0.80392157 0.56862745 0.40392157
v -7.44252920 -27.49974966 36.20777345 0.80392157 0.56862745 0.40392157
v -7.08305240 -27.99999952 35.53973830 0.80392157 0.56862745 0.40392157
v -7.08305240 -27.99999952 34.96026671 0.80392157 0.56862745 0.40392157
v -7.46950448 -25.01311541 34.38196754 0.80392157 0.56862745 0.40392157
v -7.40617096 -25.01311541 34.19545716 0.80392157 0.56862745 0.40392157
v -7.58209765 -27.49974966 34.92566264 0.80392157 0.56862745 0.40392157
v -7.54046202 -25.01311541 34.70220184 0.80392157 0.56862745 0.40392157
v -7.40617096 -25.01311541 36.30454755 0.80392157 0.56862745 0.40392157
v -7.46950448 -25.01311541 36.11803746 0.80392157 0.56862745 0.40392157
v -7.54046202 -25.01311541 35.79780316 0.80392157 0.56862745 0.40392157
v -7.58209765 -27.49974966 35.57434237 0.80392157 0.56862745 0.40392157
v -7.59089410 -25.01311541 35.08226073 0.80392157 0.56862745 0.40392157
v -7.57799268 -25.01311541 34.89340401 0.80392157 0.56862745 0.40392157
v -7.57799268 -25.01311541 35.60660100 0.80392157 0.56862745 0.40392157
v -7.59089410 -25.01311541 35.41774428 0.80392157 0.56862745 0.40392157
f 1 2 3
f 1 3 4
f 1 4 5
f 1 5 6
f 1 6 7
f 1 7 8
f 1 8 2
f 2 8 9
f 2 9 15
f 2 15 23
f 2 23 30
f 2 30 38
f 2 38 46
f 2 46 54
f 2 54 61
f 2 61 70
f 2 70 76
f 2 76 86
f 2 86 92
f 2 92 104
f 2 104 105
f 2 105 93
f 2 93 87
f 2 87 77
f 2 77 71
f 2 71 62
f 2 62 55
f 2 55 47
f 2 47 39
f 2 39 31
f 2 31 24
f 2 24 16
f 2 16 10
f 2 10 3
f 3 10 11
f 3 11 4
f 4 11 12
f 4 12 17
f 4 17 19
f 4 19 26
f 4 26 34
f 4 34 33
f 4 33 40
f 4 40 42
f 4 42 50
f 4 50 49
f 4 49 56
f 4 56 58
f 4 58 63
f 4 63 65
f 4 65 72
f 4 72 78
f 4 78 79
f 4 79 81
f 4 81 89
f 4 89 98
f 4 98 97
f 4 97 96
f 4 96 95
f 4 95 107
f 4 107 106
f 4 106 109
f 4 109 115
f 4 115 114
f 4 114 117
f 4 117 116
f 4 116 112
f 4 112 111
f 4 111 110
f 4 110 102
f 4 102 101
f 4 101 100
f 4 100 99
f 4 99 90
f 4 90 84
f 4 84 83
f 4 83 82
f 4 82 74
f 4 74 68
f 4 68 67
f 4 67 66
f 4 66 59
f 4 59 52
f 4 52 51
f 4 51 44
f 4 44 43
f 4 43 36
f 4 36 35
f 4 35 28
f 4 28 27
f 4 27 21
f 4 21 20
f 4 20 13
f 4 13 7
f 4 7 6
f 4 6 5
f 7 13 14
f 7 14 8
f 8 14 9
f 9 14 15
f 10 16 11
f 11 17 12
f 11 16 18
f 11 18 19
f 11 19 17
f 13 20 14
f 14 20 21
f 14 21 22
f 14 22 15
f 15 22 23
f 16 24 18
f 18 24 25
f 18 25 19
f 19 25 26
f 21 27 22
f 22 27 28
f 22 28 29
f 22 29 23
f 23 29 30
f 24 31 25
f 25 32 33
f 25 33 34
f 25 34 26
f 25 31 32
f 28 35 29
f 29 35 36
f 29 36 37
f 29 37 30
f 30 37 38
f 31 39 32
f 32 40 33
f 32 39 41
f 32 41 42
f 32 42 40
f 36 43 37
f 37 43 44
f 37 44 45
f 37 45 38
f 38 45 46
f 39 47 41
f 41 48 49
f 41 49 50
f 41 50 42
f 41 47 48
f 44 51 45
f 45 51 52
f 45 52 53
f 45 53 46
f 46 53 54
f 47 55 48
f 48 56 49
f 48 55 57
f 48 57 58
f 48 58 56
f 52 59 53
f 53 59 60
f 53 60 54
f 54 60 61
f 55 62 57
f 57 63 58
f 57 62 64
f 57 64 65
f 57 65 63
f 59 66 60
f 60 66 67
f 60 67 68
f 60 68 69
f 60 69 61
f 61 69 70
f 62 71 64
f 64 72 65
f 64 71 73
f 64 73 72
f 68 74 69
f 69 74 75
f 69 75 70
f 70 75 76
f 71 77 73
f 72 73 78
f 73 79 78
f 73 77 80
f 73 80 81
f 73 81 79
f 74 82 75
f 75 82 83
f 75 83 84
f 75 84 85
f 75 85 76
f 76 85 86
f 77 87 80
f 80 87 88
f 80 88 89
f 80 89 81
f 84 90 85
f 85 90 91
f 85 91 86
f 86 91 92
f 87 93 88
f 88 93 94
f 88 94 95
f 88 95 96
f 88 96 97
f 88 97 98
f 88 98 89
f 90 99 91
f 91 99 100
f 91 100 101
f 91 101 102
f 91 102 103
f 91 103 92
f 92 103 104
f 93 105 94
f 94 106 107
f 94 107 95
f 94 105 108
f 94 108 109
f 94 109 106
f 102 110 103
f 103 110 111
f 103 111 112
f 103 112 113
f 103 113 104
f 104 113 108
f 104 108 105
f 108 114 115
f 108 115 109
f 108 113 117
f 108 117 114
f 112 116 113
f 113 116 117

