# https://github.com/mikedh/trimesh
v 17.27499962 39.99608517 50.79569912 0.79607843 0.45882353 0.78039216
v 17.27499962 39.99608517 41.54676294 0.79607843 0.45882353 0.78039216
v 14.27546859 39.99608517 50.79569912 0.79607843 0.45882353 0.78039216
v 17.27499962 -0.00250220 50.79569912 0.79607843 0.45882353 0.78039216
v 14.27546859 39.99608517 41.54676294 0.79607843 0.45882353 0.78039216
v 17.27499962 9.78371859 41.54676294 0.79607843 0.45882353 0.78039216
v 12.27284431 19.37413812 50.79569912 0.79607843 0.45882353 0.78039216
v 14.27546859 -0.00250220 50.79569912 0.79607843 0.45882353 0.78039216
v 17.27499962 -0.00250220 46.88192105 0.79607843 0.45882353 0.78039216
v 12.27284431 19.37413812 41.54676294 0.79607843 0.45882353 0.78039216
v 12.27284431 -0.00250220 45.64794517 0.79607843 0.45882353 0.78039216
v 14.27546859 8.87911081 41.54676294 0.79607843 0.45882353 0.78039216
v 12.27284431 10.50035715 50.79569912 0.79607843 0.45882353 0.78039216
v 12.27284431 -0.00250220 50.49965477 0.79607843 0.45882353 0.78039216
v 12.27284431 12.35265136 41.54676294 0.79607843 0.45882353 0.78039216
v 13.02541971 8.87911081 41.54676294 0.79607843 0.45882353 0.78039216
f 1 2 5
f 1 5 3
f 1 3 7
f 1 7 13
f 1 13 8
f 1 8 4
f 1 4 9
f 1 9 6
f 1 6 2
f 2 6 12
f 2 12 16
f 2 16 15
f 2 15 10
f 2 10 5
f 3 5 10
f 3 10 7
f 4 8 14
f 4 14 11
f 4 11 9
f 6 9 11
f 6 11 12
f 7 10 15
f 7 15 11
f 7 11 14
f 7 14 13
f 8 13 14
f 11 16 12
f 11 15 16

