# https://github.com/mikedh/trimesh
v 14.27252293 -33.24937820 39.73079419 0.53333333 0.58823529 0.72941176
v 14.27252293 -33.24937820 39.74194145 0.53333333 0.58823529 0.72941176
v 12.27499962 -32.74983883 30.96531636 0.53333333 0.58823529 0.72941176
v 14.27252293 -33.24717522 30.75573897 0.53333333 0.58823529 0.72941176
v 12.27499962 -32.74983883 39.53459358 0.53333333 0.58823529 0.72941176
v 14.27252293 -31.44555569 41.54564834 0.53333333 0.58823529 0.72941176
v 13.46186042 -31.15861893 41.54676294 0.53333333 0.58823529 0.72941176
v 12.27499962 -31.94351912 30.15821910 0.53333333 0.58823529 0.72941176
v 13.48004460 -32.36967325 30.15821910 0.53333333 0.58823529 0.72941176
v 14.27252293 -32.64967918 30.15821910 0.53333333 0.58823529 0.72941176
v 12.27499962 -31.03578091 41.24911761 0.53333333 0.58823529 0.72941176
v 14.27252293 -30.03197670 41.54676294 0.53333333 0.58823529 0.72941176
v 13.46186042 -30.03197670 41.54676294 0.53333333 0.58823529 0.72941176
v 12.27499962 -31.23672962 30.15821910 0.53333333 0.58823529 0.72941176
v 14.27252293 -31.23672962 30.15821910 0.53333333 0.58823529 0.72941176
v 12.27499962 -30.32867670 41.24911761 0.53333333 0.58823529 0.72941176
f 1 2 5
f 1 5 3
f 1 3 4
f 1 4 10
f 1 10 15
f 1 15 12
f 1 12 6
f 1 6 2
f 2 6 7
f 2 7 5
f 3 8 4
f 3 5 11
f 3 11 16
f 3 16 14
f 3 14 8
f 4 8 9
f 4 9 10
f 5 7 11
f 6 12 7
f 7 12 13
f 7 13 16
f 7 16 11
f 8 14 15
f 8 15 10
f 8 10 9
f 12 15 14
f 12 14 13
f 13 14 16

