# https://github.com/mikedh/trimesh
v 17.27491140 1.77263618 13.80086875 0.61176471 0.61568627 0.94117647
v 17.28404284 1.77263618 13.80086875 0.61176471 0.61568627 0.94117647
v 17.27491140 1.77263618 17.11307740 0.61176471 0.61568627 0.94117647
v 15.52503705 3.50028127 0.00000095 0.61176471 0.61568627 0.94117647
v 17.28404284 12.34127283 13.80086875 0.61176471 0.61568627 0.94117647
v 17.28404284 1.77263618 18.19943404 0.61176471 0.61568627 0.94117647
v 17.27491140 3.50028127 0.00000095 0.61176471 0.61568627 0.94117647
v 17.27697372 1.77263618 18.19943404 0.61176471 0.61568627 0.94117647
v 15.52503705 3.50028127 24.59654248 0.61176471 0.61568627 0.94117647
v 14.27500010 7.49972820 0.00000095 0.61176471 0.61568627 0.94117647
v 17.28404284 12.34127283 15.93225455 0.61176471 0.61568627 0.94117647
v 17.27491140 12.34127283 0.00000095 0.61176471 0.61568627 0.94117647
v 17.28404284 3.54373127 18.19943404 0.61176471 0.61568627 0.94117647
v 17.27491140 10.46051860 30.15821910 0.61176471 0.61568627 0.94117647
v 17.27491140 3.50028127 24.13602149 0.61176471 0.61568627 0.94117647
v 14.27500010 9.62669730 30.15821910 0.61176471 0.61568627 0.94117647
v 14.27500010 7.49972820 27.33900404 0.61176471 0.61568627 0.94117647
v 14.27500010 12.34127283 0.00000095 0.61176471 0.61568627 0.94117647
v 17.27491140 12.34127283 30.15821910 0.61176471 0.61568627 0.94117647
v 14.27500010 12.34127283 30.15821910 0.61176471 0.61568627 0.94117647
f 1 2 6
f 1 6 8
f 1 8 3
f 1 3 9
f 1 9 4
f 1 4 7
f 1 7 2
f 2 5 11
f 2 11 13
f 2 13 6
f 2 7 12
f 2 12 5
f 3 8 9
f 4 10 18
f 4 18 12
f 4 12 7
f 4 9 17
f 4 17 10
f 5 12 18
f 5 18 20
f 5 20 19
f 5 19 11
f 6 13 19
f 6 19 14
f 6 14 15
f 6 15 9
f 6 9 8
f 9 15 14
f 9 14 16
f 9 16 17
f 10 17 16
f 10 16 20
f 10 20 18
f 11 19 13
f 14 19 20
f 14 20 16

