# https://github.com/mikedh/trimesh
v -9.13611531 10.75552225 51.99999905 0.15686275 0.10980392 0.65490196
v -13.81411791 9.85102057 51.99999905 0.15686275 0.10980392 0.65490196
v -9.13611531 9.85102057 51.99999905 0.15686275 0.10980392 0.65490196
v -9.13611531 14.49981213 50.49935675 0.15686275 0.10980392 0.65490196
v -13.98301959 14.50801849 50.49935675 0.15686275 0.10980392 0.65490196
v -13.98301959 9.85102057 50.49935675 0.15686275 0.10980392 0.65490196
v -9.13611531 9.85102057 45.50025797 0.15686275 0.10980392 0.65490196
v -9.13611531 14.49981213 43.52070427 0.15686275 0.10980392 0.65490196
v -13.98301959 14.50801849 43.52070427 0.15686275 0.10980392 0.65490196
v -13.98301959 9.85102057 45.50025797 0.15686275 0.10980392 0.65490196
v -9.13611531 12.34979749 43.52070427 0.15686275 0.10980392 0.65490196
v -13.98301959 12.34979749 43.52070427 0.15686275 0.10980392 0.65490196
f 1 2 3
f 1 3 7
f 1 7 11
f 1 11 8
f 1 8 4
f 1 4 5
f 1 5 2
f 2 5 6
f 2 6 10
f 2 10 7
f 2 7 3
f 4 8 9
f 4 9 5
f 5 9 12
f 5 12 10
f 5 10 6
f 7 10 12
f 7 12 11
f 8 11 12
f 8 12 9

