# https://github.com/mikedh/trimesh
v -22.98148394 9.34718013 42.74804091 0.98823529 0.21568627 0.66274510
v -22.98148394 9.85076785 42.09479427 0.98823529 0.21568627 0.66274510
v -23.12028885 9.85076785 42.03901148 0.98823529 0.21568627 0.66274510
v -25.02639771 9.34718013 41.92157364 0.98823529 0.21568627 0.66274510
v -22.98148394 9.34718013 27.75124884 0.98823529 0.21568627 0.66274510
v -22.98148394 9.88660991 42.04781866 0.98823529 0.21568627 0.66274510
v -23.29232693 9.85076785 41.95973969 0.98823529 0.21568627 0.66274510
v -27.65242815 9.34718013 40.71636891 0.98823529 0.21568627 0.66274510
v -25.11143923 9.34718013 41.88634253 0.98823529 0.21568627 0.66274510
v -25.13929844 9.34718013 28.62615979 0.98823529 0.21568627 0.66274510
v -23.16720724 9.85076785 28.48229861 0.98823529 0.21568627 0.66274510
v -22.98148394 9.85076785 28.40743220 0.98823529 0.21568627 0.66274510
v -22.98148394 10.56966305 40.92775679 0.98823529 0.21568627 0.66274510
v -25.82989454 9.85076785 40.75600481 0.98823529 0.21568627 0.66274510
v -27.82691002 9.34718013 40.63269472 0.98823529 0.21568627 0.66274510
v -25.27125835 9.34718013 28.68634617 0.98823529 0.21568627 0.66274510
v -22.98148394 9.89821315 28.47055471 0.98823529 0.21568627 0.66274510
v -23.39056492 9.85076785 28.58505642 0.98823529 0.21568627 0.66274510
v -22.98148394 11.12585306 39.73870015 0.98823529 0.21568627 0.66274510
v -27.97451258 9.87113833 39.50529313 0.98823529 0.21568627 0.66274510
v -27.97451258 9.85076785 39.54786396 0.98823529 0.21568627 0.66274510
v -27.97451258 9.34718013 40.54902053 0.98823529 0.21568627 0.66274510
v -27.65927076 9.34718013 29.78879249 0.98823529 0.21568627 0.66274510
v -22.98148394 10.57946205 29.59061658 0.98823529 0.21568627 0.66274510
v -27.82837868 9.34718013 29.86806309 0.98823529 0.21568627 0.66274510
v -25.84700108 9.85076785 29.75356138 0.98823529 0.21568627 0.66274510
v -22.98148394 11.54976368 38.49826431 0.98823529 0.21568627 0.66274510
v -27.97451258 10.29865980 38.33238399 0.98823529 0.21568627 0.66274510
v -27.97451258 9.34718013 29.95026922 0.98823529 0.21568627 0.66274510
v -27.97451258 9.85076785 30.95289385 0.98823529 0.21568627 0.66274510
v -27.97451258 9.87113833 30.99399692 0.98823529 0.21568627 0.66274510
v -22.98148394 11.13358855 30.77820516 0.98823529 0.21568627 0.66274510
v -22.98148394 11.83546543 37.21672630 0.98823529 0.21568627 0.66274510
v -27.97451258 10.58693886 37.11543596 0.98823529 0.21568627 0.66274510
v -27.97451258 10.29865980 32.16837382 0.98823529 0.21568627 0.66274510
v -22.98148394 11.55543685 32.02157652 0.98823529 0.21568627 0.66274510
v -22.98148394 11.97986364 35.91463542 0.98823529 0.21568627 0.66274510
v -27.97451258 10.73185325 35.87353265 0.98823529 0.21568627 0.66274510
v -27.97451258 10.58693886 33.38532186 0.98823529 0.21568627 0.66274510
v -22.98148394 11.83907509 33.30164737 0.98823529 0.21568627 0.66274510
v -22.98148394 11.98089480 34.60520542 0.98823529 0.21568627 0.66274510
v -27.97451258 10.73185325 34.62575710 0.98823529 0.21568627 0.66274510
f 1 2 3
f 1 3 4
f 1 4 9
f 1 9 8
f 1 8 15
f 1 15 22
f 1 22 29
f 1 29 25
f 1 25 23
f 1 23 16
f 1 16 10
f 1 10 5
f 1 5 12
f 1 12 17
f 1 17 24
f 1 24 32
f 1 32 36
f 1 36 40
f 1 40 41
f 1 41 37
f 1 37 33
f 1 33 27
f 1 27 19
f 1 19 13
f 1 13 6
f 1 6 2
f 2 6 3
f 3 6 7
f 3 7 8
f 3 8 9
f 3 9 4
f 5 10 11
f 5 11 12
f 6 13 7
f 7 13 14
f 7 14 8
f 8 14 15
f 10 16 11
f 11 17 12
f 11 16 18
f 11 18 17
f 13 19 20
f 13 20 21
f 13 21 14
f 14 21 15
f 15 21 22
f 16 23 18
f 17 18 24
f 18 23 25
f 18 25 26
f 18 26 24
f 19 27 28
f 19 28 20
f 20 28 34
f 20 34 38
f 20 38 42
f 20 42 39
f 20 39 35
f 20 35 31
f 20 31 30
f 20 30 29
f 20 29 22
f 20 22 21
f 24 26 30
f 24 30 31
f 24 31 32
f 25 29 26
f 26 29 30
f 27 33 34
f 27 34 28
f 31 35 32
f 32 35 36
f 33 37 38
f 33 38 34
f 35 39 36
f 36 39 40
f 37 41 38
f 38 41 42
f 39 42 40
f 40 42 41

