# https://github.com/mikedh/trimesh
v 14.27558661 -8.87674809 41.54676294 0.29411765 0.11764706 0.31764706
v 14.27264810 -8.87674809 41.54676294 0.29411765 0.11764706 0.31764706
v 17.27499962 -9.78156447 41.54676294 0.29411765 0.11764706 0.31764706
v 17.27499962 -10.46398520 30.15821910 0.29411765 0.11764706 0.31764706
v 14.27558661 -9.62923884 30.15821910 0.29411765 0.11764706 0.31764706
v 13.02509665 -8.87979507 41.54676294 0.29411765 0.11764706 0.31764706
v 17.27499962 -40.00000000 41.54676294 0.29411765 0.11764706 0.31764706
v 17.27499962 -40.00000000 30.15821910 0.29411765 0.11764706 0.31764706
v 12.27303982 -12.35282779 30.15821910 0.29411765 0.11764706 0.31764706
v 12.27303982 -12.35282779 41.54676294 0.29411765 0.11764706 0.31764706
v 14.27558661 -40.00000000 41.54676294 0.29411765 0.11764706 0.31764706
v 14.27558661 -40.00000000 30.15821910 0.29411765 0.11764706 0.31764706
v 12.27303982 -19.37505722 30.15821910 0.29411765 0.11764706 0.31764706
v 12.27303982 -19.37505722 41.54676294 0.29411765 0.11764706 0.31764706
f 1 2 6
f 1 6 10
f 1 10 14
f 1 14 11
f 1 11 7
f 1 7 3
f 1 3 4
f 1 4 5
f 1 5 2
f 2 5 6
f 3 7 8
f 3 8 4
f 4 8 12
f 4 12 13
f 4 13 9
f 4 9 5
f 5 9 6
f 6 9 10
f 7 11 12
f 7 12 8
f 9 13 14
f 9 14 10
f 11 14 13
f 11 13 12

