# https://github.com/mikedh/trimesh
v 17.28404284 12.34127283 15.93225455 0.09019608 0.57254902 0.92549020
v 17.28404284 12.34127283 13.80086875 0.09019608 0.57254902 0.92549020
v 17.28404284 14.51122999 15.37431574 0.09019608 0.57254902 0.92549020
v 17.27433443 14.51122999 30.15821910 0.09019608 0.57254902 0.92549020
v 17.27433443 12.34127283 30.15821910 0.09019608 0.57254902 0.92549020
v 17.28404284 14.51122999 13.80086875 0.09019608 0.57254902 0.92549020
v 17.27433443 12.34127283 0.00000095 0.09019608 0.57254902 0.92549020
v 6.28954887 14.51122999 30.15821910 0.09019608 0.57254902 0.92549020
v 14.27436471 12.34127283 30.15821910 0.09019608 0.57254902 0.92549020
v 6.27876163 14.51122999 13.80086875 0.09019608 0.57254902 0.92549020
v 17.27433443 14.49997187 0.00000095 0.09019608 0.57254902 0.92549020
v 14.27436471 12.34127283 0.00000095 0.09019608 0.57254902 0.92549020
v 6.26797438 14.49997187 30.15821910 0.09019608 0.57254902 0.92549020
v 6.27876163 14.51122999 17.99869394 0.09019608 0.57254902 0.92549020
v 6.26365900 12.35019445 30.15821910 0.09019608 0.57254902 0.92549020
v 14.27436471 14.49997187 0.00000095 0.09019608 0.57254902 0.92549020
v 6.26365900 14.49997187 13.35510826 0.09019608 0.57254902 0.92549020
v 6.26365900 12.35019445 13.35510826 0.09019608 0.57254902 0.92549020
v 6.26365900 13.16095471 30.15821910 0.09019608 0.57254902 0.92549020
v 6.26365900 14.49997187 18.02231050 0.09019608 0.57254902 0.92549020
f 1 2 6
f 1 6 3
f 1 3 4
f 1 4 5
f 1 5 9
f 1 9 12
f 1 12 7
f 1 7 2
f 2 7 11
f 2 11 6
f 3 6 10
f 3 10 14
f 3 14 8
f 3 8 4
f 4 8 13
f 4 13 19
f 4 19 15
f 4 15 9
f 4 9 5
f 6 11 16
f 6 16 10
f 7 12 16
f 7 16 11
f 8 14 13
f 9 15 18
f 9 18 12
f 10 16 17
f 10 17 20
f 10 20 14
f 12 18 17
f 12 17 16
f 13 14 20
f 13 20 19
f 15 19 20
f 15 20 17
f 15 17 18

