# https://github.com/mikedh/trimesh
v 14.27192211 -12.35037804 30.15821791 0.58431373 0.01960784 0.82745098
v 6.26366019 -12.35037804 30.15821791 0.58431373 0.01960784 0.82745098
v 14.27192211 -16.21983290 30.15821791 0.58431373 0.01960784 0.82745098
v 14.27192211 -12.35037804 0.00382280 0.58431373 0.01960784 0.82745098
v 6.26366019 -14.49969649 30.15821791 0.58431373 0.01960784 0.82745098
v 6.26366019 -12.35037804 13.35428572 0.58431373 0.01960784 0.82745098
v 8.39214087 -16.21983290 30.15821791 0.58431373 0.01960784 0.82745098
v 14.27192211 -16.21983290 13.80294180 0.58431373 0.01960784 0.82745098
v 14.27192211 -14.49969649 0.00382280 0.58431373 0.01960784 0.82745098
v 6.26366019 -14.49969649 13.35428572 0.58431373 0.01960784 0.82745098
v 6.81479096 -16.21983290 17.99728370 0.58431373 0.01960784 0.82745098
v 6.81479096 -16.21983290 13.80294180 0.58431373 0.01960784 0.82745098
f 1 2 5
f 1 5 7
f 1 7 3
f 1 3 8
f 1 8 9
f 1 9 4
f 1 4 6
f 1 6 2
f 2 6 10
f 2 10 5
f 3 7 11
f 3 11 12
f 3 12 8
f 4 9 10
f 4 10 6
f 5 10 12
f 5 12 11
f 5 11 7
f 8 12 9
f 9 12 10

