# https://github.com/mikedh/trimesh
v -27.97500134 8.43182743 36.06893754 0.21176471 0.51764706 0.02352941
v -27.97500134 9.34692204 36.06893754 0.21176471 0.51764706 0.02352941
v -24.97404575 8.43182743 36.06893754 0.21176471 0.51764706 0.02352941
v -27.97500134 6.49238527 36.81051111 0.21176471 0.51764706 0.02352941
v -27.97500134 9.34692204 40.55145836 0.21176471 0.51764706 0.02352941
v -24.72421885 9.34692204 36.06893754 0.21176471 0.51764706 0.02352941
v -24.72421885 8.70006859 36.06893754 0.21176471 0.51764706 0.02352941
v -17.97583222 9.34692204 37.11099958 0.21176471 0.51764706 0.02352941
v -24.97404575 6.49238527 36.81051111 0.21176471 0.51764706 0.02352941
v -27.97500134 6.49238527 43.79526711 0.21176471 0.51764706 0.02352941
v -27.97500134 9.30975914 40.62589145 0.21176471 0.51764706 0.02352941
v -22.97441244 9.34692204 45.45576668 0.21176471 0.51764706 0.02352941
v -17.72500038 9.34692204 37.47673249 0.21176471 0.51764706 0.02352941
v -17.72500038 6.50020897 38.46182084 0.21176471 0.51764706 0.02352941
v -17.97583222 6.50020897 38.20819712 0.21176471 0.51764706 0.02352941
v -20.47512293 6.49238527 38.20635951 0.21176471 0.51764706 0.02352941
v -27.97500134 6.91011548 43.48466969 0.21176471 0.51764706 0.02352941
v -22.97441244 6.49238527 45.45576668 0.21176471 0.51764706 0.02352941
v -27.97500134 8.62267017 41.66887259 0.21176471 0.51764706 0.02352941
v -17.72500038 9.34692204 45.45576668 0.21176471 0.51764706 0.02352941
v -27.97500134 7.81934261 42.62639380 0.21176471 0.51764706 0.02352941
v -17.72500038 6.50020897 45.45576668 0.21176471 0.51764706 0.02352941
v -20.22529364 6.49238527 38.45998323 0.21176471 0.51764706 0.02352941
v -20.22529364 6.49238527 45.45576668 0.21176471 0.51764706 0.02352941
f 1 2 6
f 1 6 7
f 1 7 3
f 1 3 9
f 1 9 4
f 1 4 10
f 1 10 17
f 1 17 21
f 1 21 19
f 1 19 11
f 1 11 5
f 1 5 2
f 2 5 12
f 2 12 20
f 2 20 13
f 2 13 8
f 2 8 6
f 3 7 8
f 3 8 9
f 4 9 16
f 4 16 23
f 4 23 24
f 4 24 18
f 4 18 10
f 5 11 12
f 6 8 7
f 8 13 14
f 8 14 15
f 8 15 9
f 9 15 16
f 10 18 12
f 10 12 17
f 11 19 12
f 12 18 24
f 12 24 22
f 12 22 20
f 12 19 21
f 12 21 17
f 13 20 22
f 13 22 14
f 14 22 24
f 14 24 23
f 14 23 16
f 14 16 15

