# https://github.com/mikedh/trimesh
v -9.13758516 9.85056520 47.26270294 0.26274510 0.01960784 0.75686275
v -9.13758516 8.40847373 47.26270294 0.26274510 0.01960784 0.75686275
v -9.13758516 9.85056520 45.50016141 0.26274510 0.01960784 0.75686275
v -22.97430992 9.85056520 47.26270294 0.26274510 0.01960784 0.75686275
v -9.13758516 8.40847373 45.50016141 0.26274510 0.01960784 0.75686275
v -13.27901363 1.23008370 47.26270294 0.26274510 0.01960784 0.75686275
v -17.72468805 9.85056520 45.45576668 0.26274510 0.01960784 0.75686275
v -22.97430992 9.85056520 45.45576668 0.26274510 0.01960784 0.75686275
v -27.97500134 3.32951188 45.45576668 0.26274510 0.01960784 0.75686275
v -27.97500134 2.47978330 45.71028686 0.26274510 0.01960784 0.75686275
v -27.97500134 1.24864757 45.92748737 0.26274510 0.01960784 0.75686275
v -27.97500134 1.23008370 45.92854834 0.26274510 0.01960784 0.75686275
v -22.97430992 1.23008370 47.26270294 0.26274510 0.01960784 0.75686275
v -13.27901363 1.23008370 45.50016141 0.26274510 0.01960784 0.75686275
v -20.22319078 1.23008370 45.45576668 0.26274510 0.01960784 0.75686275
v -17.72468805 6.49974942 45.45576668 0.26274510 0.01960784 0.75686275
v -27.97500134 1.23008370 45.45576668 0.26274510 0.01960784 0.75686275
f 1 2 5
f 1 5 3
f 1 3 7
f 1 7 8
f 1 8 4
f 1 4 13
f 1 13 6
f 1 6 2
f 2 6 14
f 2 14 5
f 3 5 16
f 3 16 7
f 4 8 9
f 4 9 10
f 4 10 11
f 4 11 12
f 4 12 13
f 5 14 15
f 5 15 16
f 6 13 12
f 6 12 17
f 6 17 15
f 6 15 14
f 7 16 15
f 7 15 17
f 7 17 9
f 7 9 8
f 9 17 12
f 9 12 11
f 9 11 10

