# https://github.com/mikedh/trimesh
v 20.99960200 23.74705327 48.99941350 0.58431373 0.01960784 0.82745098
v 15.00073949 23.74705327 48.99941350 0.58431373 0.01960784 0.82745098
v 20.99960200 21.74017826 48.99941350 0.58431373 0.01960784 0.82745098
v 20.99960200 23.74705327 45.96711190 0.58431373 0.01960784 0.82745098
v 15.00073949 21.74017826 48.99941350 0.58431373 0.01960784 0.82745098
v 15.00073949 23.74705327 45.96711190 0.58431373 0.01960784 0.82745098
v 20.99960200 21.74017826 43.00000103 0.58431373 0.01960784 0.82745098
v 20.99960200 23.63959912 43.00000103 0.58431373 0.01960784 0.82745098
v 15.00073949 21.74017826 43.00000103 0.58431373 0.01960784 0.82745098
v 15.00073949 23.63959912 43.00000103 0.58431373 0.01960784 0.82745098
f 1 2 5
f 1 5 3
f 1 3 7
f 1 7 8
f 1 8 4
f 1 4 6
f 1 6 2
f 2 6 10
f 2 10 9
f 2 9 5
f 3 5 9
f 3 9 7
f 4 8 10
f 4 10 6
f 7 9 10
f 7 10 8

