# https://github.com/mikedh/trimesh
v -0.90205104 -13.74230943 57.49658125 0.13725490 0.19607843 0.36862745
v -1.50057065 -11.49999984 56.49987303 0.13725490 0.19607843 0.36862745
v -7.29794935 -13.74230943 57.49658125 0.13725490 0.19607843 0.36862745
v -0.90205104 -13.74230943 51.00750501 0.13725490 0.19607843 0.36862745
v -6.69942973 -11.49999984 56.49987303 0.13725490 0.19607843 0.36862745
v -1.50057065 -11.49999984 51.00750501 0.13725490 0.19607843 0.36862745
v -7.29794935 -13.74230943 51.00750501 0.13725490 0.19607843 0.36862745
v -6.69817751 -11.49999984 51.00750501 0.13725490 0.19607843 0.36862745
v -6.94359508 -12.41483421 51.00750501 0.13725490 0.19607843 0.36862745
f 1 2 5
f 1 5 3
f 1 3 7
f 1 7 4
f 1 4 6
f 1 6 2
f 2 6 8
f 2 8 5
f 3 5 7
f 4 7 9
f 4 9 8
f 4 8 6
f 5 8 9
f 5 9 7

