# https://github.com/mikedh/trimesh
v 24.00000016 -11.49806980 50.99983374 0.73333333 0.96078431 0.24705882
v 23.39986637 -11.50012581 51.91551233 0.73333333 0.96078431 0.24705882
v 24.00000016 -13.75029187 51.91551233 0.73333333 0.96078431 0.24705882
v 24.00000016 -11.49806980 49.00946324 0.73333333 0.96078431 0.24705882
v 15.94354484 -11.49806980 50.99983374 0.73333333 0.96078431 0.24705882
v 18.20055017 -11.50012581 51.91551233 0.73333333 0.96078431 0.24705882
v 24.00000016 -16.74948669 51.91551233 0.73333333 0.96078431 0.24705882
v 24.00000016 -15.55937040 49.00946324 0.73333333 0.96078431 0.24705882
v 16.21325006 -11.49806980 49.00946324 0.73333333 0.96078431 0.24705882
v 15.94354484 -11.49806980 49.49475363 0.73333333 0.96078431 0.24705882
v 15.94354484 -13.75029187 51.91551233 0.73333333 0.96078431 0.24705882
v 24.00000016 -16.74948669 50.20021505 0.73333333 0.96078431 0.24705882
v 15.94354484 -16.74948669 51.91551233 0.73333333 0.96078431 0.24705882
v 15.94354484 -16.00611456 49.45635029 0.73333333 0.96078431 0.24705882
v 15.94354484 -15.55937040 49.00946324 0.73333333 0.96078431 0.24705882
v 15.94354484 -11.49858310 49.00946324 0.73333333 0.96078431 0.24705882
v 15.94354484 -16.74948669 50.20021505 0.73333333 0.96078431 0.24705882
f 1 2 3
f 1 3 7
f 1 7 12
f 1 12 8
f 1 8 4
f 1 4 9
f 1 9 10
f 1 10 5
f 1 5 6
f 1 6 2
f 2 6 11
f 2 11 13
f 2 13 7
f 2 7 3
f 4 8 15
f 4 15 16
f 4 16 9
f 5 10 16
f 5 16 15
f 5 15 14
f 5 14 17
f 5 17 13
f 5 13 11
f 5 11 6
f 7 13 17
f 7 17 12
f 8 12 14
f 8 14 15
f 9 16 10
f 12 17 14

