# https://github.com/mikedh/trimesh
v 18.77127367 -5.06149380 42.79999906 0.58823529 0.57254902 0.65098039
v 19.71208505 -5.37882104 42.79999906 0.58823529 0.57254902 0.65098039
v 18.77127367 -5.06149380 46.74856210 0.58823529 0.57254902 0.65098039
v 18.77127367 13.46707263 42.79999906 0.58823529 0.57254902 0.65098039
v 23.95239505 -5.37882104 42.79999906 0.58823529 0.57254902 0.65098039
v 19.71208505 -5.37882104 46.74856210 0.58823529 0.57254902 0.65098039
v 18.77127367 13.46707263 46.74856210 0.58823529 0.57254902 0.65098039
v 23.95239505 13.46707263 42.79999906 0.58823529 0.57254902 0.65098039
v 24.00000016 -5.37882104 43.00020973 0.58823529 0.57254902 0.65098039
v 24.00000016 -5.37882104 46.74856210 0.58823529 0.57254902 0.65098039
v 24.00000016 13.46707263 46.74856210 0.58823529 0.57254902 0.65098039
v 24.00000016 13.46707263 43.00020973 0.58823529 0.57254902 0.65098039
f 1 2 6
f 1 6 3
f 1 3 7
f 1 7 4
f 1 4 8
f 1 8 5
f 1 5 2
f 2 5 9
f 2 9 10
f 2 10 6
f 3 6 10
f 3 10 11
f 3 11 7
f 4 7 11
f 4 11 12
f 4 12 8
f 5 8 12
f 5 12 9
f 9 12 11
f 9 11 10

