# https://github.com/mikedh/trimesh
v 18.75741462 -5.38066553 48.60395215 0.65098039 0.43137255 0.89411765
v 17.03701257 -5.38066553 48.60395215 0.65098039 0.43137255 0.89411765
v 19.65984899 -5.49743237 48.60395215 0.65098039 0.43137255 0.89411765
v 18.75741462 -5.38066553 42.79999906 0.65098039 0.43137255 0.89411765
v 17.03701257 -5.38066553 42.79999906 0.65098039 0.43137255 0.89411765
v 17.03701257 -11.43579340 48.60395215 0.65098039 0.43137255 0.89411765
v 19.65984899 -5.49743237 42.79999906 0.65098039 0.43137255 0.89411765
v 19.65984899 -10.94776635 48.60395215 0.65098039 0.43137255 0.89411765
v 17.03701257 -11.49747001 42.79999906 0.65098039 0.43137255 0.89411765
v 17.03701257 -11.49747001 45.99967154 0.65098039 0.43137255 0.89411765
v 19.65984899 -11.49747001 45.99967154 0.65098039 0.43137255 0.89411765
v 19.65984899 -11.49747001 42.79999906 0.65098039 0.43137255 0.89411765
f 1 2 6
f 1 6 8
f 1 8 3
f 1 3 7
f 1 7 4
f 1 4 5
f 1 5 2
f 2 5 9
f 2 9 10
f 2 10 6
f 3 8 11
f 3 11 12
f 3 12 7
f 4 7 12
f 4 12 9
f 4 9 5
f 6 10 11
f 6 11 8
f 9 12 11
f 9 11 10

