# https://github.com/mikedh/trimesh
v 15.00015192 -20.86458957 49.00000013 0.13333333 0.29803922 0.56862745
v 15.00015192 -23.74331917 49.00000013 0.13333333 0.29803922 0.56862745
v 15.00015192 -20.86458957 48.73679105 0.13333333 0.29803922 0.56862745
v 11.00039069 -20.86458957 49.00000013 0.13333333 0.29803922 0.56862745
v 11.00939690 -23.74331917 49.00000013 0.13333333 0.29803922 0.56862745
v 15.00015192 -23.74331917 48.81444759 0.13333333 0.29803922 0.56862745
v 15.00015192 -20.86487161 43.00017119 0.13333333 0.29803922 0.56862745
v 14.99976084 -20.86458957 40.65010191 0.13333333 0.29803922 0.56862745
v 11.00039069 -23.74331917 48.99836434 0.13333333 0.29803922 0.56862745
v 11.00039069 -20.86458957 40.65010191 0.13333333 0.29803922 0.56862745
v 15.00015192 -23.63962169 43.00017119 0.13333333 0.29803922 0.56862745
v 14.99976084 -23.74331917 42.04706416 0.13333333 0.29803922 0.56862745
v 14.99976084 -22.57587824 40.65010191 0.13333333 0.29803922 0.56862745
v 11.00039069 -23.74331917 42.04706416 0.13333333 0.29803922 0.56862745
v 11.00039069 -22.57587824 40.65010191 0.13333333 0.29803922 0.56862745
f 1 2 6
f 1 6 11
f 1 11 7
f 1 7 3
f 1 3 8
f 1 8 10
f 1 10 4
f 1 4 5
f 1 5 2
f 2 5 9
f 2 9 14
f 2 14 12
f 2 12 6
f 3 7 8
f 4 9 5
f 4 10 15
f 4 15 14
f 4 14 9
f 6 12 11
f 7 11 13
f 7 13 8
f 8 13 15
f 8 15 10
f 11 12 13
f 12 14 15
f 12 15 13

