# https://github.com/mikedh/trimesh
v -22.00014586 -9.75068575 57.49936397 0.38039216 0.78823529 0.52549020
v -22.99992259 -9.75068575 57.49936397 0.38039216 0.78823529 0.52549020
v -20.94565494 -13.74951065 57.49936397 0.38039216 0.78823529 0.52549020
v -22.00014586 -9.75068575 53.00006408 0.38039216 0.78823529 0.52549020
v -22.99992259 -9.75068575 53.00006408 0.38039216 0.78823529 0.52549020
v -24.00000016 -16.74931559 57.49936397 0.38039216 0.78823529 0.52549020
v -20.94565494 -13.74951065 51.00687138 0.38039216 0.78823529 0.52549020
v -20.94565494 -16.74931559 57.49936397 0.38039216 0.78823529 0.52549020
v -21.50175226 -11.74324576 51.00687138 0.38039216 0.78823529 0.52549020
v -23.28454917 -11.74324576 51.00687138 0.38039216 0.78823529 0.52549020
v -24.00000016 -16.74931559 51.00687138 0.38039216 0.78823529 0.52549020
v -20.94565494 -16.74931559 51.00687138 0.38039216 0.78823529 0.52549020
f 1 2 6
f 1 6 8
f 1 8 3
f 1 3 7
f 1 7 4
f 1 4 5
f 1 5 2
f 2 5 11
f 2 11 6
f 3 8 12
f 3 12 7
f 4 9 10
f 4 10 5
f 4 7 9
f 5 10 11
f 6 11 12
f 6 12 8
f 7 12 11
f 7 11 10
f 7 10 9

