# https://github.com/mikedh/trimesh
v -9.73530937 -11.74312919 51.00687138 0.43529412 0.89019608 0.96078431
v -9.01503377 -13.75009257 51.00687138 0.43529412 0.89019608 0.96078431
v -9.01503377 -13.75009257 49.00000013 0.43529412 0.89019608 0.96078431
v -23.28412425 -11.74312919 51.00687138 0.43529412 0.89019608 0.96078431
v -9.01503377 -16.74999999 51.00687138 0.43529412 0.89019608 0.96078431
v -9.01503377 -15.54974277 49.00000013 0.43529412 0.89019608 0.96078431
v -23.57018167 -13.75009257 49.00000013 0.43529412 0.89019608 0.96078431
v -23.82836683 -15.54974277 49.00000013 0.43529412 0.89019608 0.96078431
v -24.00000016 -16.74999999 50.19988037 0.43529412 0.89019608 0.96078431
v -24.00000016 -16.74999999 51.00687138 0.43529412 0.89019608 0.96078431
v -9.01503377 -16.74999999 50.19988037 0.43529412 0.89019608 0.96078431
f 1 2 3
f 1 3 7
f 1 7 4
f 1 4 10
f 1 10 5
f 1 5 2
f 2 5 11
f 2 11 6
f 2 6 3
f 3 6 8
f 3 8 7
f 4 7 8
f 4 8 9
f 4 9 10
f 5 10 9
f 5 9 11
f 6 11 9
f 6 9 8

