# https://github.com/mikedh/trimesh
v -0.87526564 -16.74999999 51.00687138 0.11764706 0.63921569 0.14117647
v -0.87526564 -13.75036614 51.00687138 0.11764706 0.63921569 0.14117647
v 3.64636541 -16.74999999 51.00687138 0.11764706 0.63921569 0.14117647
v -0.87526564 -16.74999999 57.49936397 0.11764706 0.63921569 0.14117647
v 1.60109751 -11.50051314 51.00687138 0.11764706 0.63921569 0.14117647
v -0.87526564 -13.75036614 57.49936397 0.11764706 0.63921569 0.14117647
v 1.59976973 -11.50051314 56.49959100 0.11764706 0.63921569 0.14117647
v 3.64636541 -13.74985285 51.00687138 0.11764706 0.63921569 0.14117647
v 3.64636541 -16.74999999 57.49936397 0.11764706 0.63921569 0.14117647
v 2.64962381 -11.50051314 51.00687138 0.11764706 0.63921569 0.14117647
v 3.64636541 -13.75036614 57.49936397 0.11764706 0.63921569 0.14117647
v 2.64962381 -11.50051314 56.49959100 0.11764706 0.63921569 0.14117647
v 3.64636541 -13.74985285 56.14557141 0.11764706 0.63921569 0.14117647
f 1 2 5
f 1 5 10
f 1 10 8
f 1 8 3
f 1 3 9
f 1 9 4
f 1 4 6
f 1 6 2
f 2 6 7
f 2 7 5
f 3 8 13
f 3 13 11
f 3 11 9
f 4 9 11
f 4 11 6
f 5 7 12
f 5 12 10
f 6 11 12
f 6 12 7
f 8 10 12
f 8 12 13
f 11 13 12

