# https://github.com/mikedh/trimesh
v 12.50677942 -11.49806886 48.60395403 0.31372549 0.36078431 0.56862745
v 23.99887579 -11.49806886 48.60395403 0.31372549 0.36078431 0.56862745
v 12.50677942 -11.49806886 50.99976606 0.31372549 0.36078431 0.56862745
v 12.50677942 0.22823783 48.60395403 0.31372549 0.36078431 0.56862745
v 23.99887579 -11.49806886 50.99976606 0.31372549 0.36078431 0.56862745
v 23.99887579 7.69999991 48.60395403 0.31372549 0.36078431 0.56862745
v 12.50677942 0.22823783 50.99976606 0.31372549 0.36078431 0.56862745
v 23.99887579 7.69999991 50.99976606 0.31372549 0.36078431 0.56862745
f 1 2 5
f 1 5 3
f 1 3 7
f 1 7 4
f 1 4 6
f 1 6 2
f 2 6 8
f 2 8 5
f 3 5 8
f 3 8 7
f 4 7 8
f 4 8 6

