# https://github.com/mikedh/trimesh
v 10.96638798 -0.77057693 50.99999544 0.54117647 0.42352941 0.64313725
v 10.94878449 -11.49912648 51.00687138 0.54117647 0.42352941 0.64313725
v 10.96638798 -11.56794978 51.00687138 0.54117647 0.42352941 0.64313725
v 10.96638798 -0.77057693 49.00000013 0.54117647 0.42352941 0.64313725
v -6.69968732 -11.49912648 50.99999544 0.54117647 0.42352941 0.64313725
v -6.69773143 -11.49912648 51.00687138 0.54117647 0.42352941 0.64313725
v 10.96638798 -16.74999999 51.00687138 0.54117647 0.42352941 0.64313725
v 10.96638798 -15.54872746 49.00000013 0.54117647 0.42352941 0.64313725
v -9.01161178 -13.74994780 49.00000013 0.54117647 0.42352941 0.64313725
v -9.01161178 -13.74994780 51.00687138 0.54117647 0.42352941 0.64313725
v 10.96638798 -16.74999999 50.19988037 0.54117647 0.42352941 0.64313725
v -9.01161178 -16.74999999 51.00687138 0.54117647 0.42352941 0.64313725
v -9.01161178 -16.23539144 49.68578512 0.54117647 0.42352941 0.64313725
v -9.01161178 -15.54872746 49.00000013 0.54117647 0.42352941 0.64313725
v -9.01161178 -16.74999999 50.19988037 0.54117647 0.42352941 0.64313725
f 1 2 3
f 1 3 7
f 1 7 11
f 1 11 8
f 1 8 4
f 1 4 5
f 1 5 6
f 1 6 2
f 2 6 10
f 2 10 12
f 2 12 7
f 2 7 3
f 4 8 14
f 4 14 9
f 4 9 5
f 5 9 10
f 5 10 6
f 7 12 15
f 7 15 11
f 8 11 13
f 8 13 14
f 9 14 13
f 9 13 15
f 9 15 12
f 9 12 10
f 11 15 13

