# https://github.com/mikedh/trimesh
v 12.50677942 -16.09716573 42.80000000 0.84313725 0.69803922 0.29411765
v 12.50677942 -16.09716573 47.19999175 0.84313725 0.69803922 0.29411765
v 12.50677942 -11.49851823 42.80000000 0.84313725 0.69803922 0.29411765
v 23.95162417 -16.09716573 42.80000000 0.84313725 0.69803922 0.29411765
v 12.50677942 -15.55919366 49.00885593 0.84313725 0.69803922 0.29411765
v 23.99887579 -16.09716573 47.19999175 0.84313725 0.69803922 0.29411765
v 12.50677942 -11.49851823 46.88331882 0.84313725 0.69803922 0.29411765
v 23.95162417 -11.49851823 42.80000000 0.84313725 0.69803922 0.29411765
v 23.99550081 -16.09716573 42.98234489 0.84313725 0.69803922 0.29411765
v 12.50677942 -11.49896854 49.00885593 0.84313725 0.69803922 0.29411765
v 23.99887579 -15.55919366 49.00885593 0.84313725 0.69803922 0.29411765
v 23.99887579 -16.09716573 43.00058014 0.84313725 0.69803922 0.29411765
v 16.21372575 -11.49851823 49.00885593 0.84313725 0.69803922 0.29411765
v 23.98762460 -11.49851823 42.95256233 0.84313725 0.69803922 0.29411765
v 23.99887579 -11.49851823 43.00058014 0.84313725 0.69803922 0.29411765
v 23.99887579 -11.49851823 49.00885593 0.84313725 0.69803922 0.29411765
f 1 2 5
f 1 5 10
f 1 10 7
f 1 7 3
f 1 3 8
f 1 8 4
f 1 4 9
f 1 9 12
f 1 12 6
f 1 6 2
f 2 6 11
f 2 11 5
f 3 7 13
f 3 13 16
f 3 16 15
f 3 15 14
f 3 14 8
f 4 8 9
f 5 11 16
f 5 16 13
f 5 13 10
f 6 12 15
f 6 15 16
f 6 16 11
f 7 10 13
f 8 14 9
f 9 15 12
f 9 14 15

