# https://github.com/mikedh/trimesh
v 12.50662807 0.22846463 50.99898765 0.20784314 0.16078431 0.65098039
v 12.50662807 0.24926543 48.59898274 0.20784314 0.16078431 0.65098039
v 11.00026189 0.24926543 48.59898274 0.20784314 0.16078431 0.65098039
v 10.96849382 -0.77158661 50.99898765 0.20784314 0.16078431 0.65098039
v 12.50662807 -11.49693227 50.99898765 0.20784314 0.16078431 0.65098039
v 12.50662807 0.24926543 42.80108394 0.20784314 0.16078431 0.65098039
v 11.00026189 0.24926543 40.64928590 0.20784314 0.16078431 0.65098039
v 10.96849382 -0.77158661 48.99915215 0.20784314 0.16078431 0.65098039
v 10.96849382 -11.49693227 50.99898765 0.20784314 0.16078431 0.65098039
v 12.50662807 -15.55793768 49.00827118 0.20784314 0.16078431 0.65098039
v 12.49970230 0.24926543 40.64928590 0.20784314 0.16078431 0.65098039
v 12.50662807 -16.09716573 42.80108394 0.20784314 0.16078431 0.65098039
v 11.00026189 -16.09716573 40.64928590 0.20784314 0.16078431 0.65098039
v 10.96849382 -15.54833731 48.99915215 0.20784314 0.16078431 0.65098039
v 10.96849382 -15.55793768 49.00827118 0.20784314 0.16078431 0.65098039
v 12.50662807 -16.09716573 47.19889559 0.20784314 0.16078431 0.65098039
v 12.49970230 -16.09716573 40.64928590 0.20784314 0.16078431 0.65098039
v 11.00026189 -16.09716573 47.19889559 0.20784314 0.16078431 0.65098039
f 1 2 3
f 1 3 4
f 1 4 9
f 1 9 5
f 1 5 10
f 1 10 16
f 1 16 12
f 1 12 6
f 1 6 2
f 2 6 11
f 2 11 7
f 2 7 3
f 3 7 8
f 3 8 4
f 4 8 14
f 4 14 15
f 4 15 9
f 5 9 15
f 5 15 10
f 6 12 17
f 6 17 11
f 7 11 17
f 7 17 13
f 7 13 14
f 7 14 8
f 10 15 18
f 10 18 16
f 12 16 18
f 12 18 13
f 12 13 17
f 13 18 15
f 13 15 14

