# https://github.com/mikedh/trimesh
v 11.00039069 -31.54473305 44.06129926 0.31764706 0.66666667 0.12941176
v 11.00039069 -23.74408254 42.04696450 0.31764706 0.66666667 0.12941176
v 14.99976084 -31.54473305 44.06129926 0.31764706 0.66666667 0.12941176
v 11.00039069 -31.54473305 54.73458278 0.31764706 0.66666667 0.12941176
v 14.99976084 -23.74408254 42.04696450 0.31764706 0.66666667 0.12941176
v 11.00039069 -23.74408254 57.33555985 0.31764706 0.66666667 0.12941176
v 15.00015192 -27.74940921 47.00049367 0.31764706 0.66666667 0.12941176
v 14.99976084 -31.54473305 54.73458278 0.31764706 0.66666667 0.12941176
v 15.00015192 -23.74408254 48.81579006 0.31764706 0.66666667 0.12941176
v 15.00015192 -23.74408254 57.33555985 0.31764706 0.66666667 0.12941176
v 15.00015192 -27.74940921 55.99915549 0.31764706 0.66666667 0.12941176
f 1 2 5
f 1 5 3
f 1 3 8
f 1 8 4
f 1 4 6
f 1 6 2
f 2 6 10
f 2 10 9
f 2 9 5
f 3 5 7
f 3 7 11
f 3 11 8
f 4 8 10
f 4 10 6
f 5 9 7
f 7 9 10
f 7 10 11
f 8 11 10

