# https://github.com/mikedh/trimesh
v 21.70478702 -11.49806886 42.79999906 0.71372549 0.28627451 0.18039216
v 21.70478702 -7.66365305 42.79999906 0.71372549 0.28627451 0.18039216
v 23.95259436 -11.49806886 42.79999906 0.71372549 0.28627451 0.18039216
v 21.70478702 -11.49806886 45.99967154 0.71372549 0.28627451 0.18039216
v 23.95259436 -7.66365305 42.79999906 0.71372549 0.28627451 0.18039216
v 21.70478702 -7.66365305 48.59883985 0.71372549 0.28627451 0.18039216
v 23.96607548 -7.66365305 42.85681156 0.71372549 0.28627451 0.18039216
v 24.00000016 -11.49806886 43.00054629 0.71372549 0.28627451 0.18039216
v 21.75016971 -11.49806886 48.60395215 0.71372549 0.28627451 0.18039216
v 21.70478702 -8.40238341 48.60395215 0.71372549 0.28627451 0.18039216
v 21.70478702 -7.66440372 48.60395215 0.71372549 0.28627451 0.18039216
v 21.75016971 -7.66365305 48.60395215 0.71372549 0.28627451 0.18039216
v 24.00000016 -7.66365305 43.00054629 0.71372549 0.28627451 0.18039216
v 24.00000016 -11.49806886 48.60395215 0.71372549 0.28627451 0.18039216
v 24.00000016 -7.66365305 48.60395215 0.71372549 0.28627451 0.18039216
f 1 2 5
f 1 5 3
f 1 3 8
f 1 8 14
f 1 14 9
f 1 9 4
f 1 4 10
f 1 10 11
f 1 11 6
f 1 6 2
f 2 6 12
f 2 12 15
f 2 15 13
f 2 13 7
f 2 7 5
f 3 5 7
f 3 7 8
f 4 9 10
f 6 11 12
f 7 13 8
f 8 13 15
f 8 15 14
f 9 14 15
f 9 15 12
f 9 12 11
f 9 11 10

