# https://github.com/mikedh/trimesh
v 11.00039069 23.74331729 42.04696262 0.61176471 0.61568627 0.94117647
v 11.00039069 31.54396968 44.06129832 0.61176471 0.61568627 0.94117647
v 14.99976084 23.74331729 42.04696262 0.61176471 0.61568627 0.94117647
v 11.00039069 23.74331729 57.33556173 0.61176471 0.61568627 0.94117647
v 14.99976084 31.54396968 44.06129832 0.61176471 0.61568627 0.94117647
v 11.00039069 31.54396968 54.73458466 0.61176471 0.61568627 0.94117647
v 15.00015192 27.74940921 47.00049367 0.61176471 0.61568627 0.94117647
v 15.00015192 23.74331729 48.81579006 0.61176471 0.61568627 0.94117647
v 14.99976084 23.74331729 57.33556173 0.61176471 0.61568627 0.94117647
v 14.99976084 31.54396968 54.73458466 0.61176471 0.61568627 0.94117647
v 15.00015192 27.74940921 55.99915549 0.61176471 0.61568627 0.94117647
v 15.00015192 23.74331729 55.34666719 0.61176471 0.61568627 0.94117647
f 1 2 5
f 1 5 3
f 1 3 8
f 1 8 12
f 1 12 9
f 1 9 4
f 1 4 6
f 1 6 2
f 2 6 10
f 2 10 5
f 3 5 7
f 3 7 8
f 4 9 10
f 4 10 6
f 5 10 11
f 5 11 7
f 7 11 12
f 7 12 8
f 9 12 11
f 9 11 10

