# https://github.com/mikedh/trimesh
v 12.50677942 -5.37882104 46.74856210 0.00392157 0.67450980 0.26666667
v 23.99887579 -5.37882104 46.74856210 0.00392157 0.67450980 0.26666667
v 12.50677942 -5.37882104 48.60395215 0.00392157 0.67450980 0.26666667
v 12.50677942 13.46707263 46.74856210 0.00392157 0.67450980 0.26666667
v 23.99887579 -5.37882104 48.60395215 0.00392157 0.67450980 0.26666667
v 23.99887579 13.46707263 46.74856210 0.00392157 0.67450980 0.26666667
v 12.50677942 0.22974670 48.60395215 0.00392157 0.67450980 0.26666667
v 12.50677942 13.46707263 48.59995669 0.00392157 0.67450980 0.26666667
v 23.99887579 7.69984197 48.60395215 0.00392157 0.67450980 0.26666667
v 23.99887579 13.46707263 48.59995669 0.00392157 0.67450980 0.26666667
f 1 2 5
f 1 5 3
f 1 3 7
f 1 7 8
f 1 8 4
f 1 4 6
f 1 6 2
f 2 6 10
f 2 10 9
f 2 9 5
f 3 5 9
f 3 9 7
f 4 8 10
f 4 10 6
f 7 9 8
f 8 9 10

