# https://github.com/mikedh/trimesh
v 15.00015192 23.74331541 49.00000013 0.41176471 0.06274510 0.69019608
v 15.00015192 21.74017826 49.00000013 0.41176471 0.06274510 0.69019608
v 15.00015192 23.74331541 48.81362970 0.41176471 0.06274510 0.69019608
v 14.98684002 23.74331541 49.00000013 0.41176471 0.06274510 0.69019608
v 11.00039069 21.74017826 49.00000013 0.41176471 0.06274510 0.69019608
v 15.00015192 21.74017826 43.00017119 0.41176471 0.06274510 0.69019608
v 15.00015192 23.63958972 43.00017119 0.41176471 0.06274510 0.69019608
v 14.99976084 23.74331541 42.04706416 0.41176471 0.06274510 0.69019608
v 11.00039069 23.74331541 48.99836434 0.41176471 0.06274510 0.69019608
v 11.00039069 21.74017826 40.65010191 0.41176471 0.06274510 0.69019608
v 14.99976084 21.74017826 40.65010191 0.41176471 0.06274510 0.69019608
v 14.99976084 22.57625616 40.65010191 0.41176471 0.06274510 0.69019608
v 11.00039069 23.74331541 42.04706416 0.41176471 0.06274510 0.69019608
v 11.00039069 22.57625616 40.65010191 0.41176471 0.06274510 0.69019608
f 1 2 6
f 1 6 7
f 1 7 3
f 1 3 8
f 1 8 13
f 1 13 9
f 1 9 4
f 1 4 5
f 1 5 2
f 2 5 10
f 2 10 11
f 2 11 6
f 3 7 8
f 4 9 5
f 5 9 13
f 5 13 14
f 5 14 10
f 6 11 12
f 6 12 7
f 7 12 8
f 8 12 14
f 8 14 13
f 10 14 12
f 10 12 11

