# https://github.com/mikedh/trimesh
v 21.00018863 -30.59605109 49.00102109 0.72156863 0.49803922 0.95294118
v 20.99960200 -25.94096431 49.00102109 0.72156863 0.49803922 0.95294118
v 24.00000016 -30.59605109 49.00102109 0.72156863 0.49803922 0.95294118
v 21.00018863 -30.59605109 55.05084394 0.72156863 0.49803922 0.95294118
v 20.99960200 -27.74983225 55.99866099 0.72156863 0.49803922 0.95294118
v 20.99960200 -23.75023271 49.00102109 0.72156863 0.49803922 0.95294118
v 24.00000016 -23.75023271 49.00102109 0.72156863 0.49803922 0.95294118
v 24.00000016 -30.59605109 55.05084394 0.72156863 0.49803922 0.95294118
v 20.99960200 -23.75109949 57.33318138 0.72156863 0.49803922 0.95294118
v 20.99960200 -21.75000049 53.69958778 0.72156863 0.49803922 0.95294118
v 24.00000016 -21.75000049 53.69958778 0.72156863 0.49803922 0.95294118
v 24.00000016 -21.75000049 58.00000066 0.72156863 0.49803922 0.95294118
v 20.99960200 -21.75000049 58.00000066 0.72156863 0.49803922 0.95294118
f 1 2 6
f 1 6 7
f 1 7 3
f 1 3 8
f 1 8 4
f 1 4 5
f 1 5 2
f 2 5 9
f 2 9 13
f 2 13 10
f 2 10 6
f 3 7 11
f 3 11 12
f 3 12 8
f 4 8 9
f 4 9 5
f 6 10 11
f 6 11 7
f 8 12 9
f 9 12 13
f 10 13 12
f 10 12 11

