# https://github.com/mikedh/trimesh
v 10.96834434 -16.74948669 50.20043127 0.21960784 0.94901961 0.44705882
v 10.96834434 -15.55937040 49.00946324 0.21960784 0.94901961 0.44705882
v 12.74349067 -16.74948669 50.20043127 0.21960784 0.94901961 0.44705882
v 10.96834434 -16.74948669 57.49999948 0.21960784 0.94901961 0.44705882
v 12.74349067 -15.55937040 49.00946324 0.21960784 0.94901961 0.44705882
v 10.96834434 -11.49806980 49.00946324 0.21960784 0.94901961 0.44705882
v 12.74349067 -16.74948669 57.49999948 0.21960784 0.94901961 0.44705882
v 10.96834434 -13.75029187 57.49999948 0.21960784 0.94901961 0.44705882
v 12.74349067 -11.49909734 49.00946324 0.21960784 0.94901961 0.44705882
v 11.32528484 -11.49806980 49.00946324 0.21960784 0.94901961 0.44705882
v 10.96834434 -11.49806980 51.00078325 0.21960784 0.94901961 0.44705882
v 12.74349067 -13.75029187 57.49999948 0.21960784 0.94901961 0.44705882
v 10.96834434 -11.56901398 56.53010309 0.21960784 0.94901961 0.44705882
v 12.74349067 -11.49806980 50.47303390 0.21960784 0.94901961 0.44705882
v 12.74349067 -11.49806980 50.99579693 0.21960784 0.94901961 0.44705882
v 12.74349067 -11.49858310 51.00078325 0.21960784 0.94901961 0.44705882
f 1 2 5
f 1 5 3
f 1 3 7
f 1 7 4
f 1 4 8
f 1 8 13
f 1 13 11
f 1 11 6
f 1 6 2
f 2 6 10
f 2 10 9
f 2 9 5
f 3 5 9
f 3 9 14
f 3 14 15
f 3 15 16
f 3 16 12
f 3 12 7
f 4 7 12
f 4 12 8
f 6 11 15
f 6 15 14
f 6 14 10
f 8 12 13
f 9 10 14
f 11 13 15
f 12 16 13
f 13 16 15

