# https://github.com/mikedh/trimesh
v 19.65984899 -11.49806886 42.79999906 0.43529412 0.98823529 0.10196078
v 21.70478702 -11.49806886 42.79999906 0.43529412 0.98823529 0.10196078
v 19.65984899 -11.49806886 45.99967154 0.43529412 0.98823529 0.10196078
v 19.65984899 -7.66365305 42.79999906 0.43529412 0.98823529 0.10196078
v 21.70478702 -7.66365305 42.79999906 0.43529412 0.98823529 0.10196078
v 21.70478702 -11.49806886 45.99967154 0.43529412 0.98823529 0.10196078
v 20.02736098 -11.49806886 48.60395215 0.43529412 0.98823529 0.10196078
v 19.65984899 -10.94814992 48.60395215 0.43529412 0.98823529 0.10196078
v 19.65984899 -7.66365305 45.99967154 0.43529412 0.98823529 0.10196078
v 21.70478702 -7.66365305 48.59883985 0.43529412 0.98823529 0.10196078
v 21.70478702 -8.40238341 48.60395215 0.43529412 0.98823529 0.10196078
v 21.22958397 -11.49806886 48.60395215 0.43529412 0.98823529 0.10196078
v 19.65984899 -7.98271902 48.60395215 0.43529412 0.98823529 0.10196078
v 21.00679381 -7.66365305 48.60395215 0.43529412 0.98823529 0.10196078
v 21.70478702 -7.66440372 48.60395215 0.43529412 0.98823529 0.10196078
f 1 2 6
f 1 6 12
f 1 12 7
f 1 7 3
f 1 3 8
f 1 8 13
f 1 13 9
f 1 9 4
f 1 4 5
f 1 5 2
f 2 5 10
f 2 10 15
f 2 15 11
f 2 11 6
f 3 7 8
f 4 9 14
f 4 14 10
f 4 10 5
f 6 11 12
f 7 12 11
f 7 11 15
f 7 15 14
f 7 14 13
f 7 13 8
f 9 13 14
f 10 14 15

