# https://github.com/mikedh/trimesh
v 24.00000016 -23.75087951 49.00102109 0.64313725 0.42352941 0.60392157
v 20.99960200 -23.75087951 49.00102109 0.64313725 0.42352941 0.60392157
v 24.00000016 -30.59605109 49.00102109 0.64313725 0.42352941 0.60392157
v 24.00000016 -20.86458957 48.99984595 0.64313725 0.42352941 0.60392157
v 20.99960200 -25.93988507 49.00102109 0.64313725 0.42352941 0.60392157
v 20.99960200 -20.86458957 48.99984595 0.64313725 0.42352941 0.60392157
v 21.00018863 -30.59605109 49.00102109 0.64313725 0.42352941 0.60392157
v 24.00000016 -30.59605109 44.79572440 0.64313725 0.42352941 0.60392157
v 24.00000016 -20.86458957 43.00058672 0.64313725 0.42352941 0.60392157
v 20.99960200 -27.74977021 46.99970210 0.64313725 0.42352941 0.60392157
v 20.99960200 -20.86458957 43.00058672 0.64313725 0.42352941 0.60392157
v 21.00018863 -30.59605109 44.79572440 0.64313725 0.42352941 0.60392157
v 24.00000016 -23.64037941 43.00058672 0.64313725 0.42352941 0.60392157
v 20.99960200 -23.64037941 43.00058672 0.64313725 0.42352941 0.60392157
f 1 2 5
f 1 5 7
f 1 7 3
f 1 3 8
f 1 8 13
f 1 13 9
f 1 9 4
f 1 4 6
f 1 6 2
f 2 6 11
f 2 11 14
f 2 14 10
f 2 10 5
f 3 7 12
f 3 12 8
f 4 9 11
f 4 11 6
f 5 10 7
f 7 10 12
f 8 12 14
f 8 14 13
f 9 13 14
f 9 14 11
f 10 14 12

