# https://github.com/mikedh/trimesh
v 20.99960200 23.75058055 57.33312685 0.03529412 0.28235294 0.11764706
v 20.99960200 23.74705327 57.33312685 0.03529412 0.28235294 0.11764706
v 20.99960200 27.74999959 55.99900319 0.03529412 0.28235294 0.11764706
v 15.00073949 27.74999959 55.99900319 0.03529412 0.28235294 0.11764706
v 15.00073949 23.74705327 57.33312685 0.03529412 0.28235294 0.11764706
v 20.99960200 23.74705327 45.96802380 0.03529412 0.28235294 0.11764706
v 20.99960200 27.74960851 47.00060649 0.03529412 0.28235294 0.11764706
v 15.00073949 27.74999959 47.00060649 0.03529412 0.28235294 0.11764706
v 15.00073949 23.74705327 45.96691072 0.03529412 0.28235294 0.11764706
v 15.15695037 23.74705327 45.96691072 0.03529412 0.28235294 0.11764706
f 1 2 6
f 1 6 7
f 1 7 3
f 1 3 4
f 1 4 5
f 1 5 2
f 2 5 9
f 2 9 10
f 2 10 6
f 3 7 8
f 3 8 4
f 4 8 9
f 4 9 5
f 6 10 7
f 7 10 8
f 8 10 9

