# https://github.com/mikedh/trimesh
v 20.99960200 -20.86458957 48.99941350 0.72156863 0.86274510 0.97254902
v 15.00073949 -20.86458957 48.99941350 0.72156863 0.86274510 0.97254902
v 20.99960200 -23.74950507 48.99941350 0.72156863 0.86274510 0.97254902
v 20.99960200 -20.86458957 43.00000103 0.72156863 0.86274510 0.97254902
v 15.00073949 -23.74950507 48.99941350 0.72156863 0.86274510 0.97254902
v 15.00073949 -20.86458957 48.73688318 0.72156863 0.86274510 0.97254902
v 20.99960200 -23.74950507 45.96769853 0.72156863 0.86274510 0.97254902
v 20.99960200 -23.63965553 43.00000103 0.72156863 0.86274510 0.97254902
v 17.11898607 -20.86458957 43.00000103 0.72156863 0.86274510 0.97254902
v 15.00073949 -23.74950507 45.96769853 0.72156863 0.86274510 0.97254902
v 15.00073949 -20.86487161 43.00000103 0.72156863 0.86274510 0.97254902
v 15.00073949 -23.63965553 43.00058766 0.72156863 0.86274510 0.97254902
f 1 2 5
f 1 5 3
f 1 3 7
f 1 7 8
f 1 8 4
f 1 4 9
f 1 9 6
f 1 6 2
f 2 6 11
f 2 11 12
f 2 12 10
f 2 10 5
f 3 5 10
f 3 10 7
f 4 8 11
f 4 11 9
f 6 9 11
f 7 10 8
f 8 12 11
f 8 10 12

