# https://github.com/mikedh/trimesh
v 24.00000016 -5.38066506 48.60395215 0.61176471 0.12156863 0.84705882
v 19.71210386 -5.38066506 48.60395215 0.61176471 0.12156863 0.84705882
v 24.00000016 -7.66327795 48.60395215 0.61176471 0.12156863 0.84705882
v 24.00000016 -5.38066506 43.00054629 0.61176471 0.12156863 0.84705882
v 19.71167893 -5.38155863 48.60395215 0.61176471 0.12156863 0.84705882
v 19.71210386 -5.38066506 42.79999906 0.61176471 0.12156863 0.84705882
v 21.00701192 -7.66327795 48.60395215 0.61176471 0.12156863 0.84705882
v 24.00000016 -7.66327795 43.00054629 0.61176471 0.12156863 0.84705882
v 23.96601343 -7.66327795 42.85681156 0.61176471 0.12156863 0.84705882
v 23.95241762 -5.38066506 42.79999906 0.61176471 0.12156863 0.84705882
v 19.65984899 -5.49752168 48.60395215 0.61176471 0.12156863 0.84705882
v 19.65984899 -5.49752168 42.79999906 0.61176471 0.12156863 0.84705882
v 19.65984899 -6.66876816 48.60395215 0.61176471 0.12156863 0.84705882
v 19.65984899 -7.66327795 45.99967154 0.61176471 0.12156863 0.84705882
v 23.95241762 -7.66327795 42.79999906 0.61176471 0.12156863 0.84705882
v 19.65984899 -7.66327795 42.79999906 0.61176471 0.12156863 0.84705882
f 1 2 5
f 1 5 11
f 1 11 13
f 1 13 7
f 1 7 3
f 1 3 8
f 1 8 4
f 1 4 10
f 1 10 6
f 1 6 2
f 2 6 5
f 3 7 14
f 3 14 16
f 3 16 15
f 3 15 9
f 3 9 8
f 4 8 9
f 4 9 10
f 5 6 12
f 5 12 11
f 6 10 15
f 6 15 16
f 6 16 12
f 7 13 14
f 9 15 10
f 11 12 16
f 11 16 14
f 11 14 13

