# https://github.com/mikedh/trimesh
v -9.17519592 -16.74970668 51.00687138 0.81960784 0.09411765 0.83529412
v -9.17519592 -16.74970668 57.49936397 0.81960784 0.09411765 0.83529412
v -9.17519592 -13.75025897 51.00687138 0.81960784 0.09411765 0.83529412
v -0.87526623 -16.74970668 51.00687138 0.81960784 0.09411765 0.83529412
v -9.17519592 -13.75025897 57.49936397 0.81960784 0.09411765 0.83529412
v -0.87526623 -16.74970668 57.49936397 0.81960784 0.09411765 0.83529412
v -7.29763723 -13.74231037 51.00687138 0.81960784 0.09411765 0.83529412
v -0.87526623 -13.74996472 51.00687138 0.81960784 0.09411765 0.83529412
v -0.87526623 -13.75025897 57.49936397 0.81960784 0.09411765 0.83529412
v -7.29763723 -13.74231037 57.49618641 0.81960784 0.09411765 0.83529412
v -0.90207665 -13.74231037 51.00687138 0.81960784 0.09411765 0.83529412
v -0.87526623 -13.74996472 57.41546888 0.81960784 0.09411765 0.83529412
v -0.90207665 -13.74231037 57.49618641 0.81960784 0.09411765 0.83529412
f 1 2 5
f 1 5 3
f 1 3 7
f 1 7 11
f 1 11 8
f 1 8 4
f 1 4 6
f 1 6 2
f 2 6 9
f 2 9 5
f 3 5 10
f 3 10 7
f 4 8 12
f 4 12 9
f 4 9 6
f 5 9 13
f 5 13 10
f 7 10 13
f 7 13 11
f 8 11 13
f 8 13 12
f 9 12 13

