# https://github.com/mikedh/trimesh
v 13.50912076 -5.38066553 48.60395215 0.80392157 0.70196078 0.09803922
v 13.93176153 -5.38066553 45.99967154 0.80392157 0.70196078 0.09803922
v 12.50677848 -5.38066553 48.60395215 0.80392157 0.70196078 0.09803922
v 13.93176153 -7.29265326 48.60395215 0.80392157 0.70196078 0.09803922
v 13.93176153 -5.38066553 42.79999906 0.80392157 0.70196078 0.09803922
v 12.50677848 -5.38066553 42.79999906 0.80392157 0.70196078 0.09803922
v 12.50677848 -11.49747001 48.60395215 0.80392157 0.70196078 0.09803922
v 13.93176153 -9.28009110 48.60395215 0.80392157 0.70196078 0.09803922
v 13.93176153 -11.49747001 42.79999906 0.80392157 0.70196078 0.09803922
v 12.50677848 -11.49747001 42.79999906 0.80392157 0.70196078 0.09803922
v 13.24995696 -11.49747001 48.60395215 0.80392157 0.70196078 0.09803922
v 13.93176153 -11.49747001 45.99967154 0.80392157 0.70196078 0.09803922
f 1 2 5
f 1 5 6
f 1 6 3
f 1 3 7
f 1 7 11
f 1 11 8
f 1 8 4
f 1 4 2
f 2 4 8
f 2 8 12
f 2 12 9
f 2 9 5
f 3 6 10
f 3 10 7
f 5 9 10
f 5 10 6
f 7 10 9
f 7 9 12
f 7 12 11
f 8 11 12

