# https://github.com/mikedh/trimesh
v 15.34364327 21.74017826 49.00000013 0.09019608 0.57254902 0.92549020
v 10.99999960 21.74017826 49.00000013 0.09019608 0.57254902 0.92549020
v 15.34364327 18.85012227 49.00000013 0.09019608 0.57254902 0.92549020
v 15.34364327 21.74017826 43.00017119 0.09019608 0.57254902 0.92549020
v 10.99999960 18.85012227 49.00000013 0.09019608 0.57254902 0.92549020
v 10.99999960 21.74017826 40.65010191 0.09019608 0.57254902 0.92549020
v 10.99999960 18.84729067 48.06242459 0.09019608 0.57254902 0.92549020
v 15.34364327 18.84842255 48.06324248 0.09019608 0.57254902 0.92549020
v 15.34364327 18.84729067 41.45362111 0.09019608 0.57254902 0.92549020
v 14.99963863 21.74017826 40.65010191 0.09019608 0.57254902 0.92549020
v 10.99999960 18.84729067 40.65010191 0.09019608 0.57254902 0.92549020
v 15.34364327 18.84729067 41.70702019 0.09019608 0.57254902 0.92549020
v 14.99963863 18.84729067 40.65010191 0.09019608 0.57254902 0.92549020
f 1 2 5
f 1 5 3
f 1 3 8
f 1 8 12
f 1 12 9
f 1 9 4
f 1 4 10
f 1 10 6
f 1 6 2
f 2 6 11
f 2 11 7
f 2 7 5
f 3 5 7
f 3 7 8
f 4 9 10
f 6 10 13
f 6 13 11
f 7 11 13
f 7 13 9
f 7 9 12
f 7 12 8
f 9 13 10

