# https://github.com/mikedh/trimesh
v 15.00124057 4.90006673 5.00872215 0.56470588 0.92549020 0.07058824
v 15.00124057 7.00219660 5.00523248 0.56470588 0.92549020 0.07058824
v 23.44242687 16.48254915 40.64928402 0.56470588 0.92549020 0.07058824
v 15.00124057 16.48254915 40.64928402 0.56470588 0.92549020 0.07058824
v 15.00124057 18.58601820 40.64928402 0.56470588 0.92549020 0.07058824
v 23.44242687 18.58601820 40.64928402 0.56470588 0.92549020 0.07058824
f 1 2 3
f 1 3 4
f 1 4 5
f 1 5 2
f 2 5 6
f 2 6 3
f 3 6 5
f 3 5 4

