# https://github.com/mikedh/trimesh
v -2.99999994 0.00301421 4.18355356 0.97647059 0.60392157 0.73725490
v -0.00006385 0.00301421 4.18355356 0.97647059 0.60392157 0.73725490
v -2.99999994 0.00301421 5.05363250 0.97647059 0.60392157 0.73725490
v -2.99999994 2.10237791 4.18355356 0.97647059 0.60392157 0.73725490
v -0.00006385 0.00301421 4.55352403 0.97647059 0.60392157 0.73725490
v -0.00006385 6.89555095 4.18355356 0.97647059 0.60392157 0.73725490
v -0.50019997 0.00301421 5.05363250 0.97647059 0.60392157 0.73725490
v -2.99999994 1.58873778 7.12489398 0.97647059 0.60392157 0.73725490
v -2.99999994 2.74722823 4.34824088 0.97647059 0.60392157 0.73725490
v -1.99972749 6.88675055 4.18355356 0.97647059 0.60392157 0.73725490
v -0.49667588 0.00301421 5.05017781 0.97647059 0.60392157 0.73725490
v -0.00006385 2.10477810 7.12489398 0.97647059 0.60392157 0.73725490
v -0.50019997 1.58873778 7.12489398 0.97647059 0.60392157 0.73725490
v -1.99737810 6.89555095 4.18355356 0.97647059 0.60392157 0.73725490
v -0.00006385 7.33718558 4.52588491 0.97647059 0.60392157 0.73725490
v -2.99999994 7.18837419 7.12489398 0.97647059 0.60392157 0.73725490
v -2.99999994 3.40727957 4.56820809 0.97647059 0.60392157 0.73725490
v -2.99999994 4.05052963 4.83452978 0.97647059 0.60392157 0.73725490
v -2.99999994 4.67217803 5.14605355 0.97647059 0.60392157 0.73725490
v -2.99999994 5.27062453 5.50105290 0.97647059 0.60392157 0.73725490
v -0.00006385 8.17565085 7.12489398 0.97647059 0.60392157 0.73725490
v -1.99972749 7.33718558 4.52588491 0.97647059 0.60392157 0.73725490
v -2.99999994 5.84266900 5.89779965 0.97647059 0.60392157 0.73725490
v -0.00006385 7.76361877 4.88376316 0.97647059 0.60392157 0.73725490
v -1.99972749 8.17565085 7.12489398 0.97647059 0.60392157 0.73725490
v -1.99972749 8.17565085 5.26409850 0.97647059 0.60392157 0.73725490
v -1.99855270 8.17565085 5.26006804 0.97647059 0.60392157 0.73725490
v -2.99999994 6.89395111 6.80876313 0.97647059 0.60392157 0.73725490
v -0.00006385 8.17565085 5.26006804 0.97647059 0.60392157 0.73725490
v -1.99972749 7.76361877 4.88376316 0.97647059 0.60392157 0.73725490
v -2.99999994 6.38431141 6.33456728 0.97647059 0.60392157 0.73725490
f 1 2 5
f 1 5 11
f 1 11 7
f 1 7 3
f 1 3 8
f 1 8 16
f 1 16 28
f 1 28 31
f 1 31 23
f 1 23 20
f 1 20 19
f 1 19 18
f 1 18 17
f 1 17 9
f 1 9 4
f 1 4 10
f 1 10 14
f 1 14 6
f 1 6 2
f 2 6 15
f 2 15 24
f 2 24 29
f 2 29 21
f 2 21 12
f 2 12 5
f 3 7 13
f 3 13 8
f 4 9 10
f 5 12 13
f 5 13 11
f 6 14 22
f 6 22 15
f 7 11 13
f 8 13 12
f 8 12 21
f 8 21 25
f 8 25 16
f 9 17 10
f 10 17 18
f 10 18 19
f 10 19 20
f 10 20 14
f 14 20 23
f 14 23 22
f 15 22 30
f 15 30 24
f 16 25 26
f 16 26 27
f 16 27 28
f 21 29 27
f 21 27 26
f 21 26 25
f 22 23 31
f 22 31 30
f 24 30 27
f 24 27 29
f 27 30 31
f 27 31 28

