# https://github.com/mikedh/trimesh
v 1.94232852 10.98922549 22.07559554 0.79607843 0.45882353 0.78039216
v 0.00022990 10.98922549 22.07559554 0.79607843 0.45882353 0.78039216
v 0.00022990 10.61702922 22.51921332 0.79607843 0.45882353 0.78039216
v 0.00022990 10.24428184 22.96337809 0.79607843 0.45882353 0.78039216
v 1.94232852 10.15336768 23.07134441 0.79607843 0.45882353 0.78039216
v 1.94937566 10.43189510 22.73951942 0.79607843 0.45882353 0.78039216
v 1.94937566 10.71042252 22.40769361 0.79607843 0.45882353 0.78039216
v 2.99999994 9.37949598 20.78054755 0.79607843 0.45882353 0.78039216
v 2.22480497 10.65587386 21.60109041 0.79607843 0.45882353 0.78039216
v 2.99999994 9.73709127 20.27925586 0.79607843 0.45882353 0.78039216
v 0.00022990 9.73709127 20.27925586 0.79607843 0.45882353 0.78039216
v 0.00022990 10.15336768 23.07134441 0.79607843 0.45882353 0.78039216
v 2.22480497 9.62799478 22.82561923 0.79607843 0.45882353 0.78039216
v 2.99999994 8.59873793 21.71124305 0.79607843 0.45882353 0.78039216
v 0.00022990 9.99716080 22.99836501 0.79607843 0.45882353 0.78039216
v 0.00022990 9.62827033 22.82589231 0.79607843 0.45882353 0.78039216
v 2.99999994 9.00123838 21.25614502 0.79607843 0.45882353 0.78039216
v 2.99999994 9.73268326 20.28608914 0.79607843 0.45882353 0.78039216
v 2.75305328 10.02856718 20.70756732 0.79607843 0.45882353 0.78039216
v 2.49494861 10.33574628 21.14544539 0.79607843 0.45882353 0.78039216
v 2.99999994 8.17474770 20.27925586 0.79607843 0.45882353 0.78039216
v 0.00022990 8.17474770 20.27925586 0.79607843 0.45882353 0.78039216
v 2.75305328 8.63923589 22.36314051 0.79607843 0.45882353 0.78039216
v 2.49494861 9.12383528 22.58973332 0.79607843 0.45882353 0.78039216
v 2.99999994 8.17474770 22.14310832 0.79607843 0.45882353 0.78039216
v 0.00022990 8.36924812 22.23686107 0.79607843 0.45882353 0.78039216
v 2.99882535 8.17474770 22.14584163 0.79607843 0.45882353 0.78039216
v 0.00022990 8.17474770 22.14584163 0.79607843 0.45882353 0.78039216
f 1 2 3
f 1 3 4
f 1 4 5
f 1 5 6
f 1 6 7
f 1 7 8
f 1 8 9
f 1 9 10
f 1 10 11
f 1 11 2
f 2 11 22
f 2 22 28
f 2 28 26
f 2 26 16
f 2 16 15
f 2 15 12
f 2 12 4
f 2 4 3
f 4 12 5
f 5 13 14
f 5 14 6
f 5 12 15
f 5 15 16
f 5 16 13
f 6 14 17
f 6 17 7
f 7 17 8
f 8 17 14
f 8 14 25
f 8 25 21
f 8 21 10
f 8 10 18
f 8 18 19
f 8 19 20
f 8 20 9
f 9 20 10
f 10 20 19
f 10 19 18
f 10 21 22
f 10 22 11
f 13 23 24
f 13 24 14
f 13 16 23
f 14 24 23
f 14 23 25
f 16 26 27
f 16 27 23
f 21 25 27
f 21 27 28
f 21 28 22
f 23 27 25
f 26 28 27

