# https://github.com/mikedh/trimesh
v -2.99999994 6.70726403 11.19052511 0.85490196 0.00784314 0.35686275
v -0.00006385 6.70726403 11.19052511 0.85490196 0.00784314 0.35686275
v -2.99999994 6.70726403 12.07992334 0.85490196 0.00784314 0.35686275
v -2.99999994 9.41453224 11.19052511 0.85490196 0.00784314 0.35686275
v -0.00006385 6.70726403 11.57525346 0.85490196 0.00784314 0.35686275
v -0.00006385 11.47496164 11.19052511 0.85490196 0.00784314 0.35686275
v -0.50019997 6.70726403 12.07992334 0.85490196 0.00784314 0.35686275
v -2.99999994 8.11013028 12.48841129 0.85490196 0.00784314 0.35686275
v -2.99999994 9.52713195 11.63077724 0.85490196 0.00784314 0.35686275
v -1.99972749 11.47496164 11.19052511 0.85490196 0.00784314 0.35686275
v -0.00006385 8.76671871 12.48841129 0.85490196 0.00784314 0.35686275
v -0.00006385 11.51980675 11.38936918 0.85490196 0.00784314 0.35686275
v -0.50019997 8.11013028 12.48841129 0.85490196 0.00784314 0.35686275
v -2.99999994 9.66897886 12.48841129 0.85490196 0.00784314 0.35686275
v -2.99999994 9.65045599 12.31561390 0.85490196 0.00784314 0.35686275
v -1.99972749 11.51980675 11.38936918 0.85490196 0.00784314 0.35686275
v -0.00006385 11.68700035 12.48841129 0.85490196 0.00784314 0.35686275
v -0.00006385 11.61632078 11.93749263 0.85490196 0.00784314 0.35686275
v -1.99972749 11.68700035 12.48841129 0.85490196 0.00784314 0.35686275
v -1.99972749 11.61632078 11.93749263 0.85490196 0.00784314 0.35686275
f 1 2 5
f 1 5 7
f 1 7 3
f 1 3 8
f 1 8 14
f 1 14 15
f 1 15 9
f 1 9 4
f 1 4 10
f 1 10 6
f 1 6 2
f 2 6 12
f 2 12 18
f 2 18 17
f 2 17 11
f 2 11 5
f 3 7 13
f 3 13 8
f 4 9 10
f 5 11 7
f 6 10 16
f 6 16 12
f 7 11 13
f 8 13 11
f 8 11 17
f 8 17 19
f 8 19 14
f 9 15 16
f 9 16 10
f 12 16 20
f 12 20 18
f 14 19 15
f 15 19 20
f 15 20 16
f 17 18 20
f 17 20 19

