# https://github.com/mikedh/trimesh
v 0.42386880 2.51492779 8.37216697 0.05098039 0.19607843 0.01568627
v 0.42386880 2.98744278 7.12501572 0.05098039 0.19607843 0.01568627
v 2.99999994 3.11588572 7.12501572 0.05098039 0.19607843 0.01568627
v 2.99999994 2.67061647 8.37216697 0.05098039 0.19607843 0.01568627
v 0.42386880 10.46750139 8.37216697 0.05098039 0.19607843 0.01568627
v 0.42386880 9.73576533 7.12501572 0.05098039 0.19607843 0.01568627
v 2.99999994 9.73576533 7.12501572 0.05098039 0.19607843 0.01568627
v 2.99999994 10.46750139 8.37216697 0.05098039 0.19607843 0.01568627
v 0.42386880 10.31181271 8.07084849 0.05098039 0.19607843 0.01568627
v 0.42386880 10.03312983 7.58883641 0.05098039 0.19607843 0.01568627
v 2.99999994 10.03312983 7.58883641 0.05098039 0.19607843 0.01568627
v 2.99999994 10.31181271 8.07084849 0.05098039 0.19607843 0.01568627
v 0.42386880 10.16857981 7.82239493 0.05098039 0.19607843 0.01568627
f 1 2 3
f 1 3 4
f 1 4 8
f 1 8 5
f 1 5 9
f 1 9 13
f 1 13 10
f 1 10 6
f 1 6 2
f 2 6 7
f 2 7 3
f 3 7 11
f 3 11 12
f 3 12 8
f 3 8 4
f 5 8 12
f 5 12 9
f 6 10 11
f 6 11 7
f 9 12 13
f 10 13 11
f 11 13 12

