# https://github.com/mikedh/trimesh
v 0.00022990 -10.32670487 21.13198692 0.16078431 0.61960784 0.57647059
v 0.00022990 -10.15547011 19.60630003 0.16078431 0.61960784 0.57647059
v 2.50258305 -10.32670487 21.13198692 0.16078431 0.61960784 0.57647059
v 0.00022990 -2.96360545 21.13198692 0.16078431 0.61960784 0.57647059
v 2.99999994 -10.15547011 19.60630003 0.16078431 0.61960784 0.57647059
v 0.00022990 -2.78646605 19.60630003 0.16078431 0.61960784 0.57647059
v 2.99999994 -10.03368669 19.81776954 0.16078431 0.61960784 0.57647059
v 2.75305328 -10.02852029 20.70725558 0.16078431 0.61960784 0.57647059
v 2.99999994 -9.37900821 20.78043404 0.16078431 0.61960784 0.57647059
v 2.66789920 -9.92592683 21.13198692 0.16078431 0.61960784 0.57647059
v 2.99999994 -3.11491223 21.13198692 0.16078431 0.61960784 0.57647059
v 2.99999994 -2.94736761 19.60630003 0.16078431 0.61960784 0.57647059
v 2.99999994 -9.73254918 20.28610888 0.16078431 0.61960784 0.57647059
v 2.77302034 -9.66685999 21.13198692 0.16078431 0.61960784 0.57647059
v 2.71282532 -9.81595269 21.13198692 0.16078431 0.61960784 0.57647059
v 2.99999994 -9.09927576 21.13198692 0.16078431 0.61960784 0.57647059
f 1 2 5
f 1 5 3
f 1 3 10
f 1 10 15
f 1 15 14
f 1 14 16
f 1 16 11
f 1 11 4
f 1 4 6
f 1 6 2
f 2 6 12
f 2 12 5
f 3 5 7
f 3 7 8
f 3 8 9
f 3 9 10
f 4 11 6
f 5 12 11
f 5 11 16
f 5 16 9
f 5 9 13
f 5 13 7
f 6 11 12
f 7 13 8
f 8 13 9
f 9 14 15
f 9 15 10
f 9 16 14

