# https://github.com/mikedh/trimesh
v 0.00022990 -8.18250758 21.13198692 0.45098039 0.53333333 0.89411765
v 2.99999994 -8.18250758 21.13198692 0.45098039 0.53333333 0.89411765
v 0.00022990 -8.18250758 22.14952581 0.45098039 0.53333333 0.89411765
v 0.00022990 -2.96363403 21.13198692 0.45098039 0.53333333 0.89411765
v 2.99999994 -8.18250758 22.13525878 0.45098039 0.53333333 0.89411765
v 2.99999994 -3.11480654 21.13198692 0.45098039 0.53333333 0.89411765
v 2.99471448 -8.18250758 22.14952581 0.45098039 0.53333333 0.89411765
v 0.00022990 -7.76382769 22.52275684 0.45098039 0.53333333 0.89411765
v 0.00022990 -1.82704073 23.07537405 0.45098039 0.53333333 0.89411765
v 2.99999994 -8.17255397 22.14496069 0.45098039 0.53333333 0.89411765
v 2.99999994 -2.06468648 23.07537405 0.45098039 0.53333333 0.89411765
v 2.99999994 -7.76382769 22.52275684 0.45098039 0.53333333 0.89411765
v 0.00022990 -7.33706138 22.88057916 0.45098039 0.53333333 0.89411765
v 0.00022990 -7.08137436 23.07537405 0.45098039 0.53333333 0.89411765
v 2.99999994 -7.08137436 23.07537405 0.45098039 0.53333333 0.89411765
v 2.99999994 -7.33706138 22.88057916 0.45098039 0.53333333 0.89411765
f 1 2 5
f 1 5 7
f 1 7 3
f 1 3 8
f 1 8 13
f 1 13 14
f 1 14 9
f 1 9 4
f 1 4 6
f 1 6 2
f 2 6 11
f 2 11 15
f 2 15 16
f 2 16 12
f 2 12 10
f 2 10 5
f 3 7 12
f 3 12 8
f 4 9 6
f 5 10 7
f 6 9 11
f 7 10 12
f 8 12 16
f 8 16 13
f 9 14 15
f 9 15 11
f 13 16 15
f 13 15 14

