# https://github.com/mikedh/trimesh
v -2.99999994 -9.31219048 10.82846834 0.84313725 0.69803922 0.29411765
v -2.99999994 -9.13398548 10.29589611 0.84313725 0.69803922 0.29411765
v -1.99972749 -11.04128924 9.68437570 0.84313725 0.69803922 0.29411765
v -1.99972749 -11.23369794 10.26051458 0.84313725 0.69803922 0.29411765
v -1.98504364 -11.42223245 10.82846834 0.84313725 0.69803922 0.29411765
v -2.99999994 -1.98644279 10.82846834 0.84313725 0.69803922 0.29411765
v -2.99999994 -8.86797060 9.65269047 0.84313725 0.69803922 0.29411765
v -1.99972749 -10.81788791 9.11906210 0.84313725 0.69803922 0.29411765
v -0.94277497 -12.74456094 8.37261607 0.84313725 0.69803922 0.29411765
v -0.95070430 -12.96667088 8.98334479 0.84313725 0.69803922 0.29411765
v -0.94277497 -13.19007140 9.59407310 0.84313725 0.69803922 0.29411765
v -1.22500096 -12.71356830 9.92597376 0.84313725 0.69803922 0.29411765
v -1.49489249 -12.25772670 10.24493622 0.84313725 0.69803922 0.29411765
v -1.75274300 -11.81867239 10.55122450 0.84313725 0.69803922 0.29411765
v -0.00006385 -11.58881491 10.71228994 0.84313725 0.69803922 0.29411765
v -0.00006385 -11.42223245 10.82846834 0.84313725 0.69803922 0.29411765
v -0.00006385 -1.98644279 10.82846834 0.84313725 0.69803922 0.29411765
v -2.99999994 0.00221429 10.20929044 0.84313725 0.69803922 0.29411765
v -2.99999994 -8.55675857 9.03060818 0.84313725 0.69803922 0.29411765
v -1.99972749 -10.56607755 8.56589461 0.84313725 0.69803922 0.29411765
v -1.75274300 -11.08002943 8.52047948 0.84313725 0.69803922 0.29411765
v -1.49489249 -11.61205918 8.47321610 0.84313725 0.69803922 0.29411765
v -1.22500096 -12.16733403 8.42384042 0.84313725 0.69803922 0.29411765
v -0.00006385 -12.74456094 8.37261607 0.84313725 0.69803922 0.29411765
v -0.00006385 -12.79363146 8.50542898 0.84313725 0.69803922 0.29411765
v -1.99972749 -10.34267621 8.13101801 0.84313725 0.69803922 0.29411765
v -0.00006385 -13.19007140 9.59407310 0.84313725 0.69803922 0.29411765
v -0.00006385 0.00221429 10.20929044 0.84313725 0.69803922 0.29411765
v -2.99999994 0.00221429 8.35307736 0.84313725 0.69803922 0.29411765
v -2.99999994 -8.20164160 8.43202556 0.84313725 0.69803922 0.29411765
v -0.00006385 -10.34267621 8.13101801 0.84313725 0.69803922 0.29411765
v -2.99999994 -7.99244478 8.13101801 0.84313725 0.69803922 0.29411765
v -0.00006385 0.00221429 8.85317225 0.84313725 0.69803922 0.29411765
v -0.50019997 0.00221429 8.35307736 0.84313725 0.69803922 0.29411765
v -2.99999994 -0.82682339 8.13101801 0.84313725 0.69803922 0.29411765
v -0.00006385 -1.60033318 8.13101801 0.84313725 0.69803922 0.29411765
v -0.49667588 0.00221429 8.35650984 0.84313725 0.69803922 0.29411765
v -0.50019997 -0.82682339 8.13101801 0.84313725 0.69803922 0.29411765
f 1 2 3
f 1 3 4
f 1 4 5
f 1 5 16
f 1 16 17
f 1 17 6
f 1 6 18
f 1 18 29
f 1 29 35
f 1 35 32
f 1 32 30
f 1 30 19
f 1 19 7
f 1 7 2
f 2 7 8
f 2 8 3
f 3 8 9
f 3 9 10
f 3 10 11
f 3 11 4
f 4 11 12
f 4 12 13
f 4 13 14
f 4 14 5
f 5 14 13
f 5 13 11
f 5 11 15
f 5 15 16
f 6 17 28
f 6 28 18
f 7 19 20
f 7 20 8
f 8 20 21
f 8 21 22
f 8 22 23
f 8 23 9
f 9 24 25
f 9 25 11
f 9 11 10
f 9 23 26
f 9 26 31
f 9 31 24
f 11 25 27
f 11 27 15
f 11 13 12
f 15 27 25
f 15 25 24
f 15 24 31
f 15 31 36
f 15 36 33
f 15 33 28
f 15 28 17
f 15 17 16
f 18 28 33
f 18 33 37
f 18 37 34
f 18 34 29
f 19 30 26
f 19 26 20
f 20 26 21
f 21 26 22
f 22 26 23
f 26 30 32
f 26 32 35
f 26 35 38
f 26 38 36
f 26 36 31
f 29 34 38
f 29 38 35
f 33 36 37
f 34 37 36
f 34 36 38

