# https://github.com/mikedh/trimesh
v -2.99999994 0.82892088 19.27581744 0.56470588 0.01568627 0.61568627
v -0.50045105 0.82892088 19.27581744 0.56470588 0.01568627 0.61568627
v -2.99999994 1.58985767 20.27915756 0.56470588 0.01568627 0.61568627
v -2.99999994 7.99215771 19.27581744 0.56470588 0.01568627 0.61568627
v -0.50045105 1.58985767 20.27915756 0.56470588 0.01568627 0.61568627
v -0.00005007 1.60103399 19.27581744 0.56470588 0.01568627 0.61568627
v -0.00005007 2.10491012 20.27915756 0.56470588 0.01568627 0.61568627
v -2.99999994 7.18930942 20.27915756 0.56470588 0.01568627 0.61568627
v -2.99999994 7.80401967 19.54632176 0.56470588 0.01568627 0.61568627
v -1.99981201 9.73569953 20.27915756 0.56470588 0.01568627 0.61568627
v -1.99981201 10.03280986 19.81751332 0.56470588 0.01568627 0.61568627
v -1.99981201 10.31036092 19.33563490 0.56470588 0.01568627 0.61568627
v -1.99981201 10.34202805 19.27581744 0.56470588 0.01568627 0.61568627
v 0.13625546 2.64045337 19.27581744 0.56470588 0.01568627 0.61568627
v 0.13625546 2.97481837 20.27915756 0.56470588 0.01568627 0.61568627
v -2.99999994 7.36720268 20.08801723 0.56470588 0.01568627 0.61568627
v -0.00373404 9.73663147 20.27915756 0.56470588 0.01568627 0.61568627
v 0.13625546 10.01883895 19.83951514 0.56470588 0.01568627 0.61568627
v 0.13625546 10.03280986 19.81751332 0.56470588 0.01568627 0.61568627
v 0.13625546 10.19300691 19.54160694 0.56470588 0.01568627 0.61568627
v 0.13625546 10.31036092 19.33563490 0.56470588 0.01568627 0.61568627
v -0.00373404 10.34295917 19.27581744 0.56470588 0.01568627 0.61568627
v 0.13625546 10.34295917 19.27581744 0.56470588 0.01568627 0.61568627
v 0.13625546 9.73663147 20.27915756 0.56470588 0.01568627 0.61568627
f 1 2 5
f 1 5 3
f 1 3 8
f 1 8 16
f 1 16 9
f 1 9 4
f 1 4 13
f 1 13 22
f 1 22 23
f 1 23 14
f 1 14 6
f 1 6 2
f 2 6 7
f 2 7 5
f 3 5 7
f 3 7 15
f 3 15 24
f 3 24 17
f 3 17 10
f 3 10 8
f 4 9 10
f 4 10 11
f 4 11 12
f 4 12 13
f 6 14 15
f 6 15 7
f 8 10 16
f 9 16 10
f 10 17 11
f 11 18 19
f 11 19 20
f 11 20 12
f 11 17 18
f 12 21 23
f 12 23 22
f 12 22 13
f 12 20 21
f 14 23 21
f 14 21 20
f 14 20 19
f 14 19 18
f 14 18 24
f 14 24 15
f 17 24 18

