# https://github.com/mikedh/trimesh
v 0.00022990 -6.15727567 10.82846834 0.58431373 0.01960784 0.82745098
v 2.99999994 -5.72529442 10.82846834 0.58431373 0.01960784 0.82745098
v 2.99999994 -4.51958459 11.76815589 0.58431373 0.01960784 0.82745098
v 0.00022990 -4.71271054 11.76815589 0.58431373 0.01960784 0.82745098
v 0.00022990 -1.98608375 10.82846834 0.58431373 0.01960784 0.82745098
v 2.99999994 -1.98608375 10.82846834 0.58431373 0.01960784 0.82745098
v 2.99999994 -2.91210802 11.76815589 0.58431373 0.01960784 0.82745098
v 0.00022990 -2.91210802 11.76815589 0.58431373 0.01960784 0.82745098
f 1 2 3
f 1 3 4
f 1 4 8
f 1 8 5
f 1 5 6
f 1 6 2
f 2 6 7
f 2 7 3
f 3 7 8
f 3 8 4
f 5 8 7
f 5 7 6

