# https://github.com/mikedh/trimesh
v 0.00293657 -9.73638882 14.91820464 0.49019608 0.22352941 0.25098039
v 2.99999994 -9.90027004 14.91820464 0.49019608 0.22352941 0.25098039
v 0.00000000 -9.73638882 13.34058601 0.49019608 0.22352941 0.25098039
v -2.86785432 -9.73638882 14.91820464 0.49019608 0.22352941 0.25098039
v 2.99999994 -11.68704971 14.91820464 0.49019608 0.22352941 0.25098039
v 2.99999994 -10.12302074 13.34058601 0.49019608 0.22352941 0.25098039
v -2.99999994 -9.73638882 13.34058601 0.49019608 0.22352941 0.25098039
v -2.97592017 -9.73638882 14.40767145 0.49019608 0.22352941 0.25098039
v -1.99980420 -11.68704971 14.91820464 0.49019608 0.22352941 0.25098039
v 1.94224750 -13.80000019 14.35315899 0.49019608 0.22352941 0.25098039
v 2.22474554 -13.23914520 14.50264358 0.49019608 0.22352941 0.25098039
v 2.49490995 -12.70136093 14.64610550 0.49019608 0.22352941 0.25098039
v 2.75274072 -12.18426117 14.78400821 0.49019608 0.22352941 0.25098039
v 2.99999994 -11.68744699 14.91650598 0.49019608 0.22352941 0.25098039
v 2.99999994 -11.74074868 13.34058601 0.49019608 0.22352941 0.25098039
v -2.99999994 -9.73718422 13.34058601 0.49019608 0.22352941 0.25098039
v -2.99999994 -9.73638882 14.08445727 0.49019608 0.22352941 0.25098039
v -2.97826936 -9.73638882 14.39145664 0.49019608 0.22352941 0.25098039
v -1.99980420 -11.68744699 14.91650598 0.49019608 0.22352941 0.25098039
v -1.75254497 -12.18465928 14.78385378 0.49019608 0.22352941 0.25098039
v -1.49471420 -12.70175904 14.64595117 0.49019608 0.22352941 0.25098039
v -1.22454969 -13.23954331 14.50248915 0.49019608 0.22352941 0.25098039
v -0.94205165 -13.80000019 14.35315899 0.49019608 0.22352941 0.25098039
v 1.94929526 -13.80000019 13.91999333 0.49019608 0.22352941 0.25098039
v 2.99999994 -11.73438383 14.31069176 0.49019608 0.22352941 0.25098039
v 2.99999994 -11.75029512 13.70333328 0.49019608 0.22352941 0.25098039
v 1.94929526 -13.80000019 13.48667324 0.49019608 0.22352941 0.25098039
v 2.34162104 -13.02832797 13.34058601 0.49019608 0.22352941 0.25098039
v -2.99999994 -9.75031120 13.70333328 0.49019608 0.22352941 0.25098039
v -1.99980420 -11.74074868 13.34058601 0.49019608 0.22352941 0.25098039
v -1.99980420 -11.73438383 14.31069176 0.49019608 0.22352941 0.25098039
v -1.99980420 -11.75029512 13.70333328 0.49019608 0.22352941 0.25098039
v -0.95027411 -13.80000019 13.70333328 0.49019608 0.22352941 0.25098039
v 1.94694587 -13.80000019 13.34058601 0.49019608 0.22352941 0.25098039
v -0.94557553 -13.80000019 13.34058601 0.49019608 0.22352941 0.25098039
f 1 2 3
f 1 3 7
f 1 7 17
f 1 17 18
f 1 18 8
f 1 8 4
f 1 4 9
f 1 9 5
f 1 5 2
f 2 5 14
f 2 14 25
f 2 25 26
f 2 26 15
f 2 15 6
f 2 6 3
f 3 6 15
f 3 15 28
f 3 28 34
f 3 34 35
f 3 35 30
f 3 30 16
f 3 16 7
f 4 8 9
f 5 10 11
f 5 11 12
f 5 12 13
f 5 13 14
f 5 9 23
f 5 23 10
f 7 16 29
f 7 29 17
f 8 18 9
f 9 18 19
f 9 19 20
f 9 20 21
f 9 21 22
f 9 22 23
f 10 24 25
f 10 25 11
f 10 23 33
f 10 33 35
f 10 35 34
f 10 34 27
f 10 27 24
f 11 25 12
f 12 25 13
f 13 25 14
f 15 26 27
f 15 27 28
f 16 30 29
f 17 29 31
f 17 31 19
f 17 19 18
f 19 31 20
f 20 31 21
f 21 31 22
f 22 31 23
f 23 31 32
f 23 32 33
f 24 27 26
f 24 26 25
f 27 34 28
f 29 32 31
f 29 30 32
f 30 35 32
f 32 35 33

