# https://github.com/mikedh/trimesh
v -2.99999994 -5.86711254 21.48851538 0.36470588 0.43529412 0.89019608
v -1.99972749 -8.18279218 21.48851538 0.36470588 0.43529412 0.89019608
v -1.99972749 -8.18279218 22.13438030 0.36470588 0.43529412 0.89019608
v -1.99972749 -8.17237548 22.14525351 0.36470588 0.43529412 0.89019608
v -1.99972749 -7.76372570 22.52270749 0.36470588 0.43529412 0.89019608
v -1.99972749 -7.33664764 22.88058903 0.36470588 0.43529412 0.89019608
v -2.99999994 -5.84227294 21.50855337 0.36470588 0.43529412 0.89019608
v -2.99999994 -1.44809034 21.48851538 0.36470588 0.43529412 0.89019608
v -0.00006385 -8.18279218 21.48851538 0.36470588 0.43529412 0.89019608
v -1.99414756 -8.18279218 22.15022415 0.36470588 0.43529412 0.89019608
v -0.00006385 -7.76372570 22.52270749 0.36470588 0.43529412 0.89019608
v -0.00006385 -7.33664764 22.88058903 0.36470588 0.43529412 0.89019608
v -0.00006385 -7.18360426 22.99739769 0.36470588 0.43529412 0.89019608
v -1.99972749 -7.08104123 23.07537405 0.36470588 0.43529412 0.89019608
v -2.99999994 -5.27096506 21.90557814 0.36470588 0.43529412 0.89019608
v -2.99999994 0.00221429 22.35293109 0.36470588 0.43529412 0.89019608
v -0.50019997 -1.44809034 21.48851538 0.36470588 0.43529412 0.89019608
v -0.00006385 -8.18279218 22.15022415 0.36470588 0.43529412 0.89019608
v -0.00006385 -2.49214928 21.48851538 0.36470588 0.43529412 0.89019608
v -0.00006385 -7.08104123 23.07537405 0.36470588 0.43529412 0.89019608
v -2.99999994 -3.40800465 22.83833905 0.36470588 0.43529412 0.89019608
v -2.99999994 -4.05062587 22.57210291 0.36470588 0.43529412 0.89019608
v -2.99999994 -4.67241411 22.26066468 0.36470588 0.43529412 0.89019608
v -2.99999994 -2.68044855 23.07537405 0.36470588 0.43529412 0.89019608
v -2.99999994 -2.74695432 23.05813271 0.36470588 0.43529412 0.89019608
v -2.99999994 0.00141313 23.07537405 0.36470588 0.43529412 0.89019608
v -2.99324542 0.00221429 23.07537405 0.36470588 0.43529412 0.89019608
v -0.50019997 0.00221429 22.35293109 0.36470588 0.43529412 0.89019608
v -0.00006385 -2.00177008 21.48882630 0.36470588 0.43529412 0.89019608
v -0.00065115 -2.00177008 21.48851538 0.36470588 0.43529412 0.89019608
v -0.00006385 0.00221429 23.07537405 0.36470588 0.43529412 0.89019608
v -0.00006385 0.00221429 22.85294085 0.36470588 0.43529412 0.89019608
f 1 2 3
f 1 3 4
f 1 4 5
f 1 5 6
f 1 6 7
f 1 7 15
f 1 15 23
f 1 23 22
f 1 22 21
f 1 21 25
f 1 25 24
f 1 24 26
f 1 26 16
f 1 16 8
f 1 8 17
f 1 17 30
f 1 30 19
f 1 19 9
f 1 9 2
f 2 9 18
f 2 18 10
f 2 10 3
f 3 10 4
f 4 10 5
f 5 10 18
f 5 18 11
f 5 11 12
f 5 12 6
f 6 12 13
f 6 13 14
f 6 14 7
f 7 14 15
f 8 16 28
f 8 28 17
f 9 19 29
f 9 29 32
f 9 32 31
f 9 31 20
f 9 20 13
f 9 13 12
f 9 12 11
f 9 11 18
f 13 20 14
f 14 21 22
f 14 22 23
f 14 23 15
f 14 20 31
f 14 31 27
f 14 27 26
f 14 26 24
f 14 24 25
f 14 25 21
f 16 26 27
f 16 27 31
f 16 31 32
f 16 32 28
f 17 29 30
f 17 28 29
f 19 30 29
f 28 32 29

