# https://github.com/mikedh/trimesh
v 2.99999974 -4.79701802 3.86214939 0.56470588 0.92549020 0.07058824
v 2.99999974 -6.41832073 3.86214939 0.56470588 0.92549020 0.07058824
v 2.99999974 -4.79701802 2.97711989 0.56470588 0.92549020 0.07058824
v -1.99999996 -4.79701802 3.86214939 0.56470588 0.92549020 0.07058824
v 2.83750944 -6.98224052 3.86214939 0.56470588 0.92549020 0.07058824
v 2.99999974 -6.39326892 3.84474847 0.56470588 0.92549020 0.07058824
v 2.99999974 -5.34110545 3.23717050 0.56470588 0.92549020 0.07058824
v 2.99706326 -4.79701802 2.97068431 0.56470588 0.92549020 0.07058824
v -1.99999996 -4.79701802 2.97711989 0.56470588 0.92549020 0.07058824
v -1.99999996 -6.41832073 3.86214939 0.56470588 0.92549020 0.07058824
v 2.22474533 -7.31208565 2.63745688 0.56470588 0.92549020 0.07058824
v 2.75283839 -7.02816810 3.69148382 0.56470588 0.92549020 0.07058824
v -1.83750966 -6.98224052 3.86214939 0.56470588 0.92549020 0.07058824
v 2.49490995 -7.16725619 3.17471966 0.56470588 0.92549020 0.07058824
v 1.94234517 -7.46291638 2.07707403 0.56470588 0.92549020 0.07058824
v 1.94919717 -7.08740443 1.86064294 0.56470588 0.92549020 0.07058824
v 2.99999974 -5.87501595 3.52725384 0.56470588 0.92549020 0.07058824
v 1.94919717 -6.71215405 1.64373641 0.56470588 0.92549020 0.07058824
v 1.94234517 -6.33690326 1.42730531 0.56470588 0.92549020 0.07058824
v 2.22474533 -5.92746754 1.83776058 0.56470588 0.92549020 0.07058824
v 2.49490995 -5.53421084 2.23200762 0.56470588 0.92549020 0.07058824
v 2.75283839 -5.15635053 2.61076121 0.56470588 0.92549020 0.07058824
v -1.99706307 -4.79701802 2.97068431 0.56470588 0.92549020 0.07058824
v -1.99999996 -5.34110545 3.23717050 0.56470588 0.92549020 0.07058824
v -1.99999996 -6.39326892 3.84474847 0.56470588 0.92549020 0.07058824
v -0.94234519 -7.46291638 2.07707403 0.56470588 0.92549020 0.07058824
v -1.75283862 -7.02816810 3.69124529 0.56470588 0.92549020 0.07058824
v -1.22474535 -7.31208565 2.63698063 0.56470588 0.92549020 0.07058824
v -0.94234519 -6.33690326 1.42730531 0.56470588 0.92549020 0.07058824
v -1.49442045 -5.53447200 2.23176908 0.56470588 0.92549020 0.07058824
v -1.75283862 -5.15661169 2.61076121 0.56470588 0.92549020 0.07058824
v -1.99999996 -5.87501595 3.52725384 0.56470588 0.92549020 0.07058824
v -1.22474535 -5.92772828 1.83776058 0.56470588 0.92549020 0.07058824
v -1.49442045 -7.16725619 3.17448113 0.56470588 0.92549020 0.07058824
v -0.95017612 -6.89977924 1.75218967 0.56470588 0.92549020 0.07058824
f 1 2 6
f 1 6 17
f 1 17 7
f 1 7 3
f 1 3 8
f 1 8 23
f 1 23 9
f 1 9 4
f 1 4 10
f 1 10 13
f 1 13 5
f 1 5 2
f 2 5 6
f 3 7 8
f 4 9 24
f 4 24 32
f 4 32 25
f 4 25 10
f 5 11 12
f 5 12 6
f 5 13 11
f 6 12 14
f 6 14 11
f 6 11 15
f 6 15 16
f 6 16 17
f 7 17 18
f 7 18 19
f 7 19 20
f 7 20 21
f 7 21 22
f 7 22 8
f 8 22 21
f 8 21 20
f 8 20 19
f 8 19 29
f 8 29 23
f 9 23 24
f 10 25 13
f 11 14 12
f 11 13 26
f 11 26 15
f 13 25 27
f 13 27 28
f 13 28 26
f 15 26 18
f 15 18 16
f 16 18 17
f 18 26 29
f 18 29 19
f 23 29 30
f 23 30 31
f 23 31 24
f 24 31 30
f 24 30 33
f 24 33 29
f 24 29 32
f 25 32 26
f 25 26 28
f 25 28 34
f 25 34 27
f 26 35 29
f 26 32 35
f 27 34 28
f 29 35 32
f 29 33 30

