# https://github.com/mikedh/trimesh
v 2.98489701 -0.84774141 25.45228552 0.79215686 0.22352941 0.34509804
v 1.94238836 -1.75625464 27.40643647 0.79215686 0.22352941 0.34509804
v 2.49453363 -1.27705402 26.37550985 0.79215686 0.22352941 0.34509804
v 2.75285032 -1.05164197 25.89036758 0.79215686 0.22352941 0.34509804
v 2.95619515 -1.42534525 25.45228552 0.79215686 0.22352941 0.34509804
v -1.98489723 -0.84774141 25.45228552 0.79215686 0.22352941 0.34509804
v 1.94919902 -2.60961619 27.25588210 0.79215686 0.22352941 0.34509804
v 1.94919902 -2.18282088 27.33106346 0.79215686 0.22352941 0.34509804
v 2.95473596 -1.45303548 25.45228552 0.79215686 0.22352941 0.34509804
v 2.22502829 -1.51184851 26.88035617 0.79215686 0.22352941 0.34509804
v -0.94238837 -1.75625464 27.40643647 0.79215686 0.22352941 0.34509804
v -1.95619538 -1.42534525 25.45228552 0.79215686 0.22352941 0.34509804
v -1.75285013 -1.05164197 25.89055841 0.79215686 0.22352941 0.34509804
v -1.49453375 -1.27728279 26.37589234 0.79215686 0.22352941 0.34509804
v -1.22454198 -1.51184851 26.88054700 0.79215686 0.22352941 0.34509804
v 2.84430694 -2.69474622 25.45228552 0.79215686 0.22352941 0.34509804
v 2.90560211 -2.09128303 25.45228552 0.79215686 0.22352941 0.34509804
v -0.94238837 -3.03641130 27.18050910 0.79215686 0.22352941 0.34509804
v 1.94238836 -3.03641130 27.18050910 0.79215686 0.22352941 0.34509804
v 2.90900744 -2.05260824 25.45228552 0.79215686 0.22352941 0.34509804
v 2.95327635 -1.47248721 25.45228552 0.79215686 0.22352941 0.34509804
v -1.95473577 -1.45303548 25.45228552 0.79215686 0.22352941 0.34509804
v -1.91192646 -2.01667972 25.45228552 0.79215686 0.22352941 0.34509804
v -0.95017190 -2.39633297 27.29337778 0.79215686 0.22352941 0.34509804
v 2.84041508 -2.72861529 25.45228552 0.79215686 0.22352941 0.34509804
v -1.90754806 -2.07160243 25.45228552 0.79215686 0.22352941 0.34509804
v -1.84430676 -2.69474622 25.45228552 0.79215686 0.22352941 0.34509804
v -1.84041489 -2.72861529 25.45228552 0.79215686 0.22352941 0.34509804
v -1.22454198 -3.08629942 26.60296798 0.79215686 0.22352941 0.34509804
v 2.78301137 -3.18561792 25.45228552 0.79215686 0.22352941 0.34509804
v 2.22502829 -3.08629942 26.60258549 0.79215686 0.22352941 0.34509804
v 2.49453363 -3.13412789 26.04800076 0.79215686 0.22352941 0.34509804
v 2.75285032 -3.18012579 25.51503248 0.79215686 0.22352941 0.34509804
v 2.79565963 -3.08538393 25.45228552 0.79215686 0.22352941 0.34509804
v -1.79565985 -3.08515526 25.45228552 0.79215686 0.22352941 0.34509804
v -1.75285013 -3.18012579 25.51522413 0.79215686 0.22352941 0.34509804
v -1.49453375 -3.13412789 26.04838324 0.79215686 0.22352941 0.34509804
v -1.78301118 -3.18561792 25.45228552 0.79215686 0.22352941 0.34509804
f 1 2 3
f 1 3 4
f 1 4 5
f 1 5 9
f 1 9 21
f 1 21 20
f 1 20 17
f 1 17 16
f 1 16 25
f 1 25 34
f 1 34 30
f 1 30 38
f 1 38 35
f 1 35 28
f 1 28 27
f 1 27 26
f 1 26 23
f 1 23 22
f 1 22 12
f 1 12 6
f 1 6 11
f 1 11 2
f 2 7 8
f 2 8 9
f 2 9 10
f 2 10 3
f 2 11 7
f 3 10 9
f 3 9 5
f 3 5 4
f 6 12 13
f 6 13 14
f 6 14 15
f 6 15 11
f 7 16 17
f 7 17 8
f 7 11 18
f 7 18 19
f 7 19 16
f 8 17 20
f 8 20 21
f 8 21 9
f 11 15 22
f 11 22 23
f 11 23 24
f 11 24 18
f 12 22 14
f 12 14 13
f 14 22 15
f 16 19 25
f 18 24 26
f 18 26 27
f 18 27 28
f 18 28 29
f 18 29 19
f 19 29 30
f 19 30 31
f 19 31 25
f 23 26 24
f 25 31 32
f 25 32 33
f 25 33 34
f 28 35 36
f 28 36 37
f 28 37 29
f 29 37 38
f 29 38 30
f 30 34 33
f 30 33 32
f 30 32 31
f 35 38 36
f 36 38 37

