# https://github.com/mikedh/trimesh
v 0.00022990 5.37216883 11.19039823 0.31372549 0.36078431 0.56862745
v 2.99999994 3.85629653 13.70101939 0.31372549 0.36078431 0.56862745
v 2.99999994 5.10543957 11.19039823 0.31372549 0.36078431 0.56862745
v 0.00022990 2.43613629 11.19039823 0.31372549 0.36078431 0.56862745
v 0.00022990 4.00431951 13.70101939 0.31372549 0.36078431 0.56862745
v 2.99999994 3.49557968 13.70101939 0.31372549 0.36078431 0.56862745
v 2.99999994 2.43613629 11.19039823 0.31372549 0.36078431 0.56862745
v 0.00022990 3.49557968 13.70101939 0.31372549 0.36078431 0.56862745
f 1 2 3
f 1 3 7
f 1 7 4
f 1 4 8
f 1 8 5
f 1 5 2
f 2 6 7
f 2 7 3
f 2 5 8
f 2 8 6
f 4 7 6
f 4 6 8

