# https://github.com/mikedh/trimesh
v 0.00022990 9.73632301 14.91799550 0.14901961 0.86666667 0.16078431
v 0.00022990 9.99567282 13.70113850 0.14901961 0.86666667 0.16078431
v 2.99999994 10.14404332 13.70101939 0.14901961 0.86666667 0.16078431
v 2.99999994 9.90060399 14.91799550 0.14901961 0.86666667 0.16078431
v 2.99999994 11.68701516 14.91799550 0.14901961 0.86666667 0.16078431
v 0.00022990 11.68741327 14.91656603 0.14901961 0.86666667 0.16078431
v 0.95894660 10.04499667 13.70101939 0.14901961 0.86666667 0.16078431
v 0.00022990 11.95949194 13.70101939 0.14901961 0.86666667 0.16078431
v 2.99999994 11.75026140 13.70101939 0.14901961 0.86666667 0.16078431
v 2.99999994 11.68741327 14.91656603 0.14901961 0.86666667 0.16078431
v 2.75305328 12.18423485 14.78398035 0.14901961 0.86666667 0.16078431
v 2.49494861 12.70134365 14.64615331 0.14901961 0.86666667 0.16078431
v 2.22480497 13.23913697 14.50260831 0.14901961 0.86666667 0.16078431
v 1.94232852 13.79960290 14.35310701 0.14901961 0.86666667 0.16078431
v 0.00022990 13.79960290 14.35310701 0.14901961 0.86666667 0.16078431
v 0.00022990 13.63293490 14.39765960 0.14901961 0.86666667 0.16078431
v 0.00022990 13.23953426 14.50260831 0.14901961 0.86666667 0.16078431
v 0.00022990 13.79960290 13.70101939 0.14901961 0.86666667 0.16078431
v 2.99999994 11.75026140 13.70328277 0.14901961 0.86666667 0.16078431
v 1.94937566 13.79960290 13.70101939 0.14901961 0.86666667 0.16078431
v 2.99999994 11.73435093 14.31069870 0.14901961 0.86666667 0.16078431
v 1.94937566 13.79960290 13.91997027 0.14901961 0.86666667 0.16078431
f 1 2 3
f 1 3 4
f 1 4 5
f 1 5 6
f 1 6 17
f 1 17 16
f 1 16 15
f 1 15 18
f 1 18 8
f 1 8 2
f 2 7 3
f 2 8 7
f 3 7 8
f 3 8 18
f 3 18 20
f 3 20 9
f 3 9 19
f 3 19 21
f 3 21 10
f 3 10 5
f 3 5 4
f 5 10 11
f 5 11 12
f 5 12 13
f 5 13 14
f 5 14 15
f 5 15 16
f 5 16 17
f 5 17 6
f 9 20 22
f 9 22 19
f 10 21 11
f 11 21 12
f 12 21 13
f 13 21 14
f 14 22 20
f 14 20 18
f 14 18 15
f 14 21 22
f 19 22 21

