# https://github.com/mikedh/trimesh
v 2.99999994 4.25931189 4.18355356 0.03529412 0.28235294 0.11764706
v 2.99999994 1.88657195 4.18355356 0.03529412 0.28235294 0.11764706
v 2.99999994 4.25931189 2.75305806 0.03529412 0.28235294 0.11764706
v -1.99980420 4.25931189 4.18355356 0.03529412 0.28235294 0.11764706
v 2.99999994 0.00221470 3.55319195 0.03529412 0.28235294 0.11764706
v 0.00000000 0.00221470 4.18355356 0.03529412 0.28235294 0.11764706
v 2.99999994 3.75592764 2.56975821 0.03529412 0.28235294 0.11764706
v -1.99980420 4.25931189 2.75305806 0.03529412 0.28235294 0.11764706
v -2.99999994 2.10201044 4.18355356 0.03529412 0.28235294 0.11764706
v 2.99999994 0.00221470 2.41195148 0.03529412 0.28235294 0.11764706
v -2.99999994 0.00221470 4.18355356 0.03529412 0.28235294 0.11764706
v 2.99999994 3.24879301 2.41195148 0.03529412 0.28235294 0.11764706
v -1.99980420 3.75592764 2.56975821 0.03529412 0.28235294 0.11764706
v -2.99999994 2.07284077 4.17592364 0.03529412 0.28235294 0.11764706
v -1.99980420 3.24879301 2.41195148 0.03529412 0.28235294 0.11764706
v -1.99980420 0.00221470 2.41195148 0.03529412 0.28235294 0.11764706
v -2.99999994 0.00221470 3.95325931 0.03529412 0.28235294 0.11764706
v -2.99999994 1.38777154 4.05245237 0.03529412 0.28235294 0.11764706
v -2.99999994 0.69561815 3.97805737 0.03529412 0.28235294 0.11764706
f 1 2 5
f 1 5 10
f 1 10 12
f 1 12 7
f 1 7 3
f 1 3 8
f 1 8 4
f 1 4 9
f 1 9 11
f 1 11 6
f 1 6 2
f 2 6 5
f 3 7 13
f 3 13 8
f 4 8 9
f 5 6 11
f 5 11 17
f 5 17 16
f 5 16 10
f 7 12 15
f 7 15 13
f 8 13 9
f 9 14 18
f 9 18 19
f 9 19 17
f 9 17 11
f 9 13 15
f 9 15 14
f 10 16 15
f 10 15 12
f 14 15 18
f 15 16 17
f 15 17 19
f 15 19 18

