# https://github.com/mikedh/trimesh
v 2.99999974 3.24901797 2.41195148 0.29411765 0.11764706 0.31764706
v 2.99999974 0.00221480 2.41195148 0.29411765 0.11764706 0.31764706
v 2.99999974 3.22422835 2.40415952 0.29411765 0.11764706 0.31764706
v 2.75283839 3.18005197 1.89136002 0.29411765 0.11764706 0.31764706
v 2.49490995 3.13396873 1.35825685 0.29411765 0.11764706 0.31764706
v 2.22474533 3.08629634 0.80390407 0.29411765 0.11764706 0.31764706
v 1.94234517 3.03639937 0.22594263 0.29411765 0.11764706 0.31764706
v -1.99999996 3.24901797 2.41195148 0.29411765 0.11764706 0.31764706
v 2.99999974 0.00221480 1.95628672 0.29411765 0.11764706 0.31764706
v -1.99999996 0.00221480 2.41195148 0.29411765 0.11764706 0.31764706
v 2.99999974 2.63563408 2.25258685 0.29411765 0.11764706 0.31764706
v 1.94919717 2.60957301 0.15062802 0.29411765 0.11764706 0.31764706
v -0.94234519 3.03639937 0.22594263 0.29411765 0.11764706 0.31764706
v -1.22474535 3.08629634 0.80366800 0.29411765 0.11764706 0.31764706
v -1.49442045 3.13396873 1.35802078 0.29411765 0.11764706 0.31764706
v -1.75283862 3.18005197 1.89112395 0.29411765 0.11764706 0.31764706
v -1.99999996 3.22422835 2.40415952 0.29411765 0.11764706 0.31764706
v 1.94234517 1.75592069 0.00023570 0.29411765 0.11764706 0.31764706
v 2.99999974 0.27839643 1.95628672 0.29411765 0.11764706 0.31764706
v -1.99999996 0.00221480 1.95628672 0.29411765 0.11764706 0.31764706
v 2.99999974 2.04036549 2.13170577 0.29411765 0.11764706 0.31764706
v 1.94919717 2.18274685 0.07531342 0.29411765 0.11764706 0.31764706
v -0.95017612 2.39631899 0.11308875 0.29411765 0.11764706 0.31764706
v -1.99999996 2.04036549 2.13170577 0.29411765 0.11764706 0.31764706
v -1.99999996 2.63563408 2.25258685 0.29411765 0.11764706 0.31764706
v 2.99999974 1.43937641 2.04151710 0.29411765 0.11764706 0.31764706
v 2.22474533 1.51183833 0.52625595 0.29411765 0.11764706 0.31764706
v -0.94234519 1.75592069 0.00023570 0.29411765 0.11764706 0.31764706
v 2.49490995 1.27697279 1.03102824 0.29411765 0.11764706 0.31764706
v 2.75283839 1.05164156 1.51596817 0.29411765 0.11764706 0.31764706
v 2.99999974 0.83457356 1.98272905 0.29411765 0.11764706 0.31764706
v -1.99999996 0.27839643 1.95628672 0.29411765 0.11764706 0.31764706
v -1.99999996 1.43937641 2.04151710 0.29411765 0.11764706 0.31764706
v -1.22474535 1.51183833 0.52601988 0.29411765 0.11764706 0.31764706
v -1.99999996 0.83457356 1.98272905 0.29411765 0.11764706 0.31764706
v -1.75283862 1.05164156 1.51573210 0.29411765 0.11764706 0.31764706
v -1.49442045 1.27729050 1.03079217 0.29411765 0.11764706 0.31764706
f 1 2 9
f 1 9 19
f 1 19 31
f 1 31 26
f 1 26 21
f 1 21 11
f 1 11 3
f 1 3 4
f 1 4 5
f 1 5 6
f 1 6 7
f 1 7 13
f 1 13 8
f 1 8 10
f 1 10 2
f 2 10 20
f 2 20 9
f 3 11 4
f 4 11 5
f 5 11 6
f 6 11 7
f 7 11 12
f 7 12 22
f 7 22 13
f 8 13 14
f 8 14 15
f 8 15 16
f 8 16 17
f 8 17 25
f 8 25 24
f 8 24 33
f 8 33 35
f 8 35 32
f 8 32 20
f 8 20 10
f 9 18 19
f 9 20 28
f 9 28 18
f 11 21 12
f 12 21 22
f 13 23 24
f 13 24 25
f 13 25 14
f 13 22 23
f 14 25 15
f 15 25 16
f 16 25 17
f 18 22 26
f 18 26 27
f 18 27 19
f 18 28 22
f 19 27 29
f 19 29 30
f 19 30 31
f 20 32 28
f 21 26 22
f 22 28 23
f 23 28 24
f 24 28 33
f 26 31 30
f 26 30 29
f 26 29 27
f 28 32 34
f 28 34 33
f 32 35 36
f 32 36 37
f 32 37 34
f 33 34 37
f 33 37 36
f 33 36 35

