# https://github.com/mikedh/trimesh
v 1.94234517 7.46291638 2.07733478 0.54117647 0.42352941 0.64313725
v 2.22474533 7.31208071 2.63748156 0.54117647 0.42352941 0.64313725
v 2.99999974 6.39327139 3.84465881 0.54117647 0.42352941 0.64313725
v 1.94919717 7.08755249 1.86066844 0.54117647 0.42352941 0.64313725
v 1.94919717 6.71218901 1.64373312 0.54117647 0.42352941 0.64313725
v -0.94234519 7.46291638 2.07733478 0.54117647 0.42352941 0.64313725
v -1.75283862 7.02828490 3.69113095 0.54117647 0.42352941 0.64313725
v 2.99706326 6.89563732 4.18355356 0.54117647 0.42352941 0.64313725
v 2.49490995 7.16720355 3.17469417 0.54117647 0.42352941 0.64313725
v 2.99999974 6.88717087 4.18355356 0.54117647 0.42352941 0.64313725
v 2.99999974 5.87491190 3.52735008 0.54117647 0.42352941 0.64313725
v 2.75283839 7.02797151 3.69140075 0.54117647 0.42352941 0.64313725
v 1.94234517 6.33682553 1.42733657 0.54117647 0.42352941 0.64313725
v -0.94234519 6.33682553 1.42733657 0.54117647 0.42352941 0.64313725
v -0.95017612 6.89971426 1.75220119 0.54117647 0.42352941 0.64313725
v 2.99999974 5.34118688 3.23702327 0.54117647 0.42352941 0.64313725
v -1.99999996 5.87491190 3.52735008 0.54117647 0.42352941 0.64313725
v -1.99999996 6.39327139 3.84465881 0.54117647 0.42352941 0.64313725
v -1.22474535 7.31208071 2.63721177 0.54117647 0.42352941 0.64313725
v -1.49442045 7.16720355 3.17442437 0.54117647 0.42352941 0.64313725
v -1.99999996 6.88717087 4.18355356 0.54117647 0.42352941 0.64313725
v -1.99706307 6.89563732 4.18355356 0.54117647 0.42352941 0.64313725
v 2.99999974 4.25931189 4.18355356 0.54117647 0.42352941 0.64313725
v 2.22474533 5.92728082 1.83800406 0.54117647 0.42352941 0.64313725
v 2.99999974 4.27938155 2.76025038 0.54117647 0.42352941 0.64313725
v 2.99999974 4.25931189 2.75296511 0.54117647 0.42352941 0.64313725
v -1.99999996 4.25931189 2.75296511 0.54117647 0.42352941 0.64313725
v -1.99999996 4.27938155 2.76025038 0.54117647 0.42352941 0.64313725
v -1.22474535 5.92728082 1.83773426 0.54117647 0.42352941 0.64313725
v -1.99999996 5.34118688 3.23702327 0.54117647 0.42352941 0.64313725
v 2.99999974 4.79303691 2.97502734 0.54117647 0.42352941 0.64313725
v 2.75283839 5.15648419 2.61076944 0.54117647 0.42352941 0.64313725
v 2.49490995 5.53435643 2.23221161 0.54117647 0.42352941 0.64313725
v -1.99999996 4.25931189 4.18355356 0.54117647 0.42352941 0.64313725
v -1.99999996 4.79303691 2.97502734 0.54117647 0.42352941 0.64313725
v -1.75283862 5.15648419 2.61076944 0.54117647 0.42352941 0.64313725
v -1.49442045 5.53467023 2.23194182 0.54117647 0.42352941 0.64313725
f 1 2 3
f 1 3 4
f 1 4 5
f 1 5 6
f 1 6 2
f 2 6 7
f 2 7 8
f 2 8 9
f 2 9 3
f 3 10 23
f 3 23 26
f 3 26 25
f 3 25 31
f 3 31 16
f 3 16 11
f 3 11 4
f 3 9 12
f 3 12 10
f 4 11 5
f 5 13 14
f 5 14 15
f 5 15 6
f 5 11 16
f 5 16 13
f 6 15 17
f 6 17 18
f 6 18 19
f 6 19 7
f 7 19 20
f 7 20 18
f 7 18 21
f 7 21 22
f 7 22 8
f 8 10 12
f 8 12 9
f 8 22 21
f 8 21 34
f 8 34 23
f 8 23 10
f 13 16 24
f 13 24 25
f 13 25 26
f 13 26 27
f 13 27 14
f 14 27 28
f 14 28 29
f 14 29 30
f 14 30 17
f 14 17 15
f 16 31 32
f 16 32 33
f 16 33 24
f 17 30 35
f 17 35 28
f 17 28 27
f 17 27 34
f 17 34 21
f 17 21 18
f 18 20 19
f 23 34 27
f 23 27 26
f 24 33 25
f 25 33 32
f 25 32 31
f 28 35 36
f 28 36 37
f 28 37 29
f 29 37 30
f 30 37 36
f 30 36 35

