# https://github.com/mikedh/trimesh
v 2.99999994 -8.18250758 22.13521765 0.02352941 0.06666667 0.67843137
v 2.99999994 -8.18250758 21.13217611 0.02352941 0.06666667 0.67843137
v 2.99471448 -8.18250758 22.14945754 0.02352941 0.06666667 0.67843137
v 2.75305328 -8.63939629 22.36305168 0.02352941 0.06666667 0.67843137
v 2.99999994 -8.59873464 21.71144539 0.02352941 0.06666667 0.67843137
v 2.99999994 -9.09985566 21.13217611 0.02352941 0.06666667 0.67843137
v 0.00022990 -8.18250758 21.13217611 0.02352941 0.06666667 0.67843137
v 2.22480497 -9.62790101 22.82574590 0.02352941 0.06666667 0.67843137
v 0.00022990 -8.18250758 22.14945754 0.02352941 0.06666667 0.67843137
v 0.00022990 -8.63939629 22.36324168 0.02352941 0.06666667 0.67843137
v 2.49494861 -9.12403270 22.58974730 0.02352941 0.06666667 0.67843137
v 1.94232852 -10.15347379 23.07161749 0.02352941 0.06666667 0.67843137
v 1.94937566 -10.43205797 22.73954821 0.02352941 0.06666667 0.67843137
v 2.99999994 -9.00122521 21.25615654 0.02352941 0.06666667 0.67843137
v 1.94937566 -10.71064132 22.40766976 0.02352941 0.06666667 0.67843137
v 2.77302034 -9.66691427 21.13217611 0.02352941 0.06666667 0.67843137
v 0.00022990 -10.32655846 21.13217611 0.02352941 0.06666667 0.67843137
v 0.00022990 -10.15347379 23.07161749 0.02352941 0.06666667 0.67843137
v 1.94232852 -10.98922549 22.07579049 0.02352941 0.06666667 0.67843137
v 0.00022990 -10.52574327 22.62809924 0.02352941 0.06666667 0.67843137
v 2.71282532 -9.81609663 21.13217611 0.02352941 0.06666667 0.67843137
v 0.00022990 -10.33590009 21.14546678 0.02352941 0.06666667 0.67843137
v 2.50258305 -10.32655846 21.13217611 0.02352941 0.06666667 0.67843137
v 2.49494861 -10.33590009 21.14527677 0.02352941 0.06666667 0.67843137
v 2.22480497 -10.65569455 21.60113565 0.02352941 0.06666667 0.67843137
v 2.66789920 -9.92626655 21.13217611 0.02352941 0.06666667 0.67843137
v 0.00022990 -10.98922549 22.07579049 0.02352941 0.06666667 0.67843137
v 0.00022990 -10.65596928 21.60113565 0.02352941 0.06666667 0.67843137
v 2.51315398 -10.30100777 21.13217611 0.02352941 0.06666667 0.67843137
f 1 2 7
f 1 7 9
f 1 9 3
f 1 3 4
f 1 4 5
f 1 5 14
f 1 14 6
f 1 6 2
f 2 6 16
f 2 16 21
f 2 21 26
f 2 26 29
f 2 29 23
f 2 23 17
f 2 17 7
f 3 8 4
f 3 9 10
f 3 10 8
f 4 8 11
f 4 11 5
f 5 11 8
f 5 8 12
f 5 12 13
f 5 13 14
f 6 14 15
f 6 15 16
f 7 17 22
f 7 22 28
f 7 28 27
f 7 27 20
f 7 20 18
f 7 18 10
f 7 10 9
f 8 10 18
f 8 18 12
f 12 19 15
f 12 15 13
f 12 18 20
f 12 20 19
f 13 15 14
f 15 19 16
f 16 19 21
f 17 23 24
f 17 24 22
f 19 24 25
f 19 25 26
f 19 26 21
f 19 20 27
f 19 27 28
f 19 28 24
f 22 24 28
f 23 29 24
f 24 29 26
f 24 26 25

