# https://github.com/mikedh/trimesh
v -2.99999994 -6.81420381 6.73443065 0.01568627 0.29803922 0.65882353
v -2.99999994 -6.38433979 6.33462815 0.01568627 0.29803922 0.65882353
v -1.99972749 -7.83973700 4.95387517 0.01568627 0.29803922 0.65882353
v -1.99972749 -7.83973700 6.73443065 0.01568627 0.29803922 0.65882353
v -2.99999994 -1.64738970 6.73443065 0.01568627 0.29803922 0.65882353
v -1.99972749 -7.33694951 4.52595647 0.01568627 0.29803922 0.65882353
v -1.99972749 -7.76374297 4.88386762 0.01568627 0.29803922 0.65882353
v -2.99999994 -5.84240373 5.89771246 0.01568627 0.29803922 0.65882353
v -1.83761639 -6.98231126 3.86214939 0.01568627 0.29803922 0.65882353
v -0.00006385 -7.83973700 4.95387517 0.01568627 0.29803922 0.65882353
v -0.00006385 -7.83973700 6.73443065 0.01568627 0.29803922 0.65882353
v -0.50019997 -1.64738970 6.73443065 0.01568627 0.29803922 0.65882353
v -2.99999994 0.00221429 5.05368514 0.01568627 0.29803922 0.65882353
v -1.99972749 -6.89403583 4.18857026 0.01568627 0.29803922 0.65882353
v -2.99999994 -5.27053076 5.50072141 0.01568627 0.29803922 0.65882353
v -1.99972749 -6.41811469 3.86214939 0.01568627 0.29803922 0.65882353
v -0.00006385 -6.98231126 3.86214939 0.01568627 0.29803922 0.65882353
v -0.00006385 -2.14403628 6.73443065 0.01568627 0.29803922 0.65882353
v -0.00006385 0.00221429 4.55351005 0.01568627 0.29803922 0.65882353
v -0.50019997 0.00221429 5.05368514 0.01568627 0.29803922 0.65882353
v -2.99999994 0.00221429 3.95352499 0.01568627 0.29803922 0.65882353
v -2.99999994 -4.67255887 5.14590385 0.01568627 0.29803922 0.65882353
v -2.99999994 -4.05002336 4.83438419 0.01568627 0.29803922 0.65882353
v -2.99999994 -3.40753004 4.56812995 0.01568627 0.29803922 0.65882353
v -2.99999994 -2.74738143 4.34826638 0.01568627 0.29803922 0.65882353
v -2.99999994 -2.07264809 4.17620002 0.01568627 0.29803922 0.65882353
v -2.99999994 -1.38793584 4.05249103 0.01568627 0.29803922 0.65882353
v -2.99999994 -0.69631505 3.97826630 0.01568627 0.29803922 0.65882353
v -2.76799295 -0.70015325 3.86214939 0.01568627 0.29803922 0.65882353
v -0.00006385 0.00144644 3.86214939 0.01568627 0.29803922 0.65882353
v -0.00006385 0.00221429 4.54873025 0.01568627 0.29803922 0.65882353
v -2.99999994 -0.00008842 3.95324368 0.01568627 0.29803922 0.65882353
v -2.99676940 0.00221429 3.95183795 0.01568627 0.29803922 0.65882353
v -2.80822728 -0.13749154 3.86214939 0.01568627 0.29803922 0.65882353
v -0.06114916 0.00221429 3.86214939 0.01568627 0.29803922 0.65882353
v -2.81762485 0.00221429 3.86214939 0.01568627 0.29803922 0.65882353
v -2.81762485 -0.00008842 3.86214939 0.01568627 0.29803922 0.65882353
f 1 2 3
f 1 3 4
f 1 4 11
f 1 11 18
f 1 18 12
f 1 12 5
f 1 5 13
f 1 13 21
f 1 21 32
f 1 32 28
f 1 28 27
f 1 27 26
f 1 26 25
f 1 25 24
f 1 24 23
f 1 23 22
f 1 22 15
f 1 15 8
f 1 8 2
f 2 6 7
f 2 7 3
f 2 8 6
f 3 7 9
f 3 9 17
f 3 17 10
f 3 10 11
f 3 11 4
f 5 12 20
f 5 20 13
f 6 8 14
f 6 14 9
f 6 9 7
f 8 15 14
f 9 14 16
f 9 16 29
f 9 29 34
f 9 34 37
f 9 37 36
f 9 36 35
f 9 35 30
f 9 30 17
f 10 17 30
f 10 30 31
f 10 31 19
f 10 19 18
f 10 18 11
f 12 18 19
f 12 19 20
f 13 20 19
f 13 19 31
f 13 31 35
f 13 35 36
f 13 36 33
f 13 33 21
f 14 15 16
f 15 22 16
f 16 22 23
f 16 23 24
f 16 24 25
f 16 25 26
f 16 26 27
f 16 27 28
f 16 28 29
f 21 33 32
f 28 32 29
f 29 32 34
f 30 35 31
f 32 33 36
f 32 36 37
f 32 37 34

