# https://github.com/mikedh/trimesh
v 0.00022990 -13.19007140 9.59407310 0.21960784 0.94901961 0.44705882
v 0.00022990 -12.79363146 8.50542898 0.21960784 0.94901961 0.44705882
v 1.94232852 -13.19007140 9.59407310 0.21960784 0.94901961 0.44705882
v 0.00022990 -11.58881491 10.71228994 0.21960784 0.94901961 0.44705882
v 0.00022990 -12.74456094 8.37261607 0.21960784 0.94901961 0.44705882
v 1.94232852 -12.74456094 8.37261607 0.21960784 0.94901961 0.44705882
v 1.94937566 -12.89306470 8.77976842 0.21960784 0.94901961 0.44705882
v 1.94937566 -13.04156764 9.18718480 0.21960784 0.94901961 0.44705882
v 2.99999994 -11.23369794 10.26051458 0.21960784 0.94901961 0.44705882
v 2.22480497 -12.71356830 9.92623780 0.21960784 0.94901961 0.44705882
v 2.49494861 -12.25772670 10.24493622 0.21960784 0.94901961 0.44705882
v 2.98502450 -11.42223245 10.82846834 0.21960784 0.94901961 0.44705882
v 0.00022990 -11.42223245 10.82846834 0.21960784 0.94901961 0.44705882
v 0.00022990 -10.34267621 8.13101801 0.21960784 0.94901961 0.44705882
v 2.22480497 -12.16733403 8.42384042 0.21960784 0.94901961 0.44705882
v 2.99999994 -10.81788791 9.11906210 0.21960784 0.94901961 0.44705882
v 2.99999994 -10.34267621 8.13101801 0.21960784 0.94901961 0.44705882
v 2.99999994 -11.04128924 9.68437570 0.21960784 0.94901961 0.44705882
v 2.99999994 -11.39124064 10.82846834 0.21960784 0.94901961 0.44705882
v 2.75305328 -11.81867239 10.55148853 0.21960784 0.94901961 0.44705882
v 0.00022990 -1.98644279 10.82846834 0.21960784 0.94901961 0.44705882
v 0.00022990 -2.63598449 8.13101801 0.21960784 0.94901961 0.44705882
v 2.49494861 -11.61205918 8.47321610 0.21960784 0.94901961 0.44705882
v 2.75305328 -11.07873803 8.52047948 0.21960784 0.94901961 0.44705882
v 2.99999994 -10.56607755 8.56589461 0.21960784 0.94901961 0.44705882
v 2.99999994 -2.80385834 8.13101801 0.21960784 0.94901961 0.44705882
v 2.99999994 -1.98644279 10.82846834 0.21960784 0.94901961 0.44705882
v 0.00022990 0.00221429 10.20929044 0.21960784 0.94901961 0.44705882
v 0.00022990 0.00221429 9.69704946 0.21960784 0.94901961 0.44705882
v 2.99999994 0.00221429 9.85283396 0.21960784 0.94901961 0.44705882
v 2.99999994 0.00221429 10.20929044 0.21960784 0.94901961 0.44705882
f 1 2 3
f 1 3 4
f 1 4 13
f 1 13 21
f 1 21 28
f 1 28 29
f 1 29 22
f 1 22 14
f 1 14 5
f 1 5 2
f 2 5 6
f 2 6 7
f 2 7 3
f 3 7 8
f 3 8 9
f 3 9 10
f 3 10 11
f 3 11 12
f 3 12 4
f 4 12 13
f 5 14 17
f 5 17 6
f 6 15 16
f 6 16 7
f 6 17 15
f 7 16 18
f 7 18 8
f 8 18 9
f 9 19 12
f 9 12 20
f 9 20 11
f 9 11 10
f 9 18 16
f 9 16 25
f 9 25 17
f 9 17 26
f 9 26 30
f 9 30 31
f 9 31 27
f 9 27 19
f 11 20 12
f 12 19 27
f 12 27 21
f 12 21 13
f 14 22 26
f 14 26 17
f 15 23 16
f 15 17 23
f 16 23 24
f 16 24 25
f 17 25 24
f 17 24 23
f 21 27 31
f 21 31 28
f 22 29 26
f 26 29 30
f 28 31 30
f 28 30 29

