# https://github.com/mikedh/trimesh
v -2.99999994 -7.75644454 19.60630003 0.23529412 0.93333333 0.61176471
v -1.99972749 -10.15509338 19.60630003 0.23529412 0.93333333 0.61176471
v -1.99972749 -10.03337659 19.81780985 0.23529412 0.93333333 0.61176471
v -1.99972749 -9.73228761 20.28615248 0.23529412 0.93333333 0.61176471
v -1.99972749 -9.37903288 20.78047352 0.23529412 0.93333333 0.61176471
v -1.99972749 -9.00015508 21.25581765 0.23529412 0.93333333 0.61176471
v -2.99999994 -7.36841429 20.08827674 0.23529412 0.93333333 0.61176471
v -2.99999994 -1.22856792 19.60630003 0.23529412 0.93333333 0.61176471
v -0.00006385 -10.15509338 19.60630003 0.23529412 0.93333333 0.61176471
v -0.71869756 -10.57698530 21.48851538 0.23529412 0.93333333 0.61176471
v -1.29195996 -10.57606981 21.48851538 0.23529412 0.93333333 0.61176471
v -1.49489249 -10.33538189 21.14545691 0.23529412 0.93333333 0.61176471
v -1.75274300 -10.02788529 20.70732961 0.23529412 0.93333333 0.61176471
v -1.33160669 -10.47997774 21.48851538 0.23529412 0.93333333 0.61176471
v -1.42205991 -10.25850774 21.48851538 0.23529412 0.93333333 0.61176471
v -1.69988076 -9.56481187 21.48851538 0.23529412 0.93333333 0.61176471
v -1.86434126 -9.14841126 21.48851538 0.23529412 0.93333333 0.61176471
v -1.99972749 -8.79515817 21.48851538 0.23529412 0.93333333 0.61176471
v -1.81470936 -9.27745033 21.48851538 0.23529412 0.93333333 0.61176471
v -2.99999994 -6.89344360 20.59733737 0.23529412 0.93333333 0.61176471
v -2.99999994 -1.44820776 21.48851538 0.23529412 0.93333333 0.61176471
v -0.50019997 -1.22856792 19.60630003 0.23529412 0.93333333 0.61176471
v -0.00006385 -10.57698530 21.48851538 0.23529412 0.93333333 0.61176471
v -0.00006385 -1.84721980 19.60630003 0.23529412 0.93333333 0.61176471
v -2.99999994 -6.38461123 21.07176024 0.23529412 0.93333333 0.61176471
v -2.99999994 -5.86845781 21.48851538 0.23529412 0.93333333 0.61176471
v -0.50019997 -1.44820776 21.48851538 0.23529412 0.93333333 0.61176471
v -0.00065115 -2.00188318 21.48851538 0.23529412 0.93333333 0.61176471
v -0.00006385 -2.49241188 21.48851538 0.23529412 0.93333333 0.61176471
v -0.00006385 -2.09614509 21.18156824 0.23529412 0.93333333 0.61176471
f 1 2 3
f 1 3 4
f 1 4 5
f 1 5 6
f 1 6 7
f 1 7 20
f 1 20 25
f 1 25 26
f 1 26 21
f 1 21 8
f 1 8 22
f 1 22 24
f 1 24 9
f 1 9 2
f 2 9 23
f 2 23 10
f 2 10 11
f 2 11 3
f 3 11 12
f 3 12 13
f 3 13 4
f 4 13 5
f 5 13 12
f 5 12 11
f 5 11 14
f 5 14 15
f 5 15 16
f 5 16 6
f 6 17 18
f 6 18 7
f 6 16 19
f 6 19 17
f 7 18 20
f 8 21 27
f 8 27 22
f 9 24 30
f 9 30 29
f 9 29 23
f 10 23 29
f 10 29 28
f 10 28 27
f 10 27 21
f 10 21 26
f 10 26 18
f 10 18 17
f 10 17 19
f 10 19 16
f 10 16 15
f 10 15 14
f 10 14 11
f 18 25 20
f 18 26 25
f 22 27 28
f 22 28 24
f 24 28 30
f 28 29 30

