# https://github.com/mikedh/trimesh
v 0.00022990 -4.71307040 11.76824781 0.31764706 0.66666667 0.12941176
v 0.00022990 -2.91180656 11.76824781 0.31764706 0.66666667 0.12941176
v 2.99999994 -4.51982600 11.76824781 0.31764706 0.66666667 0.12941176
v 2.99999994 -3.89654197 14.22033076 0.31764706 0.66666667 0.12941176
v 0.00022990 -4.05082040 14.22033076 0.31764706 0.66666667 0.12941176
v 0.00022990 -3.46174228 14.22033076 0.31764706 0.66666667 0.12941176
v 2.99999994 -2.91180656 11.76824781 0.31764706 0.66666667 0.12941176
v 2.99999994 -3.46174228 14.22033076 0.31764706 0.66666667 0.12941176
f 1 2 7
f 1 7 3
f 1 3 4
f 1 4 5
f 1 5 6
f 1 6 2
f 2 6 8
f 2 8 7
f 3 7 8
f 3 8 4
f 4 8 6
f 4 6 5

