# https://github.com/mikedh/trimesh
v 0.00003414 -7.83973700 6.73443065 0.28627451 0.61568627 0.42745098
v 0.00003414 -7.83973700 4.95374850 0.28627451 0.61568627 0.42745098
v -1.99980420 -7.83973700 6.73443065 0.28627451 0.61568627 0.42745098
v 0.00003414 -10.00362271 6.73443065 0.28627451 0.61568627 0.42745098
v -1.99980420 -7.83973700 4.95374850 0.28627451 0.61568627 0.42745098
v 0.00003414 -10.15345158 4.33505467 0.28627451 0.61568627 0.42745098
v -1.99980420 -9.45671724 6.73443065 0.28627451 0.61568627 0.42745098
v -1.77366235 -10.00362271 6.73443065 0.28627451 0.61568627 0.42745098
v 0.00003414 -10.01348830 6.72057160 0.28627451 0.61568627 0.42745098
v -1.49465601 -9.12438063 4.81657364 0.28627451 0.61568627 0.42745098
v -1.75290812 -8.63944070 5.04324048 0.28627451 0.61568627 0.42745098
v -1.99980420 -8.17299815 5.26145073 0.28627451 0.61568627 0.42745098
v -0.94271328 -10.15345158 4.33505467 0.28627451 0.61568627 0.42745098
v -1.22485218 -9.62812638 4.58051171 0.28627451 0.61568627 0.42745098
v 0.00003414 -10.24439700 4.44310325 0.28627451 0.61568627 0.42745098
v -1.99980420 -9.37964486 6.62591240 0.28627451 0.61568627 0.42745098
v -1.75290812 -10.02859432 6.69872730 0.28627451 0.61568627 0.42745098
v -1.49465601 -10.33595932 6.26089694 0.28627451 0.61568627 0.42745098
v -1.22485218 -10.65596434 5.80521573 0.28627451 0.61568627 0.42745098
v -0.94271328 -10.98922549 5.33074267 0.28627451 0.61568627 0.42745098
v 0.00003414 -10.88995593 5.47214459 0.28627451 0.61568627 0.42745098
v -1.99980420 -8.59874616 5.69505322 0.28627451 0.61568627 0.42745098
v -0.95054503 -10.57118472 4.83278105 0.28627451 0.61568627 0.42745098
v -1.99980420 -9.00106482 6.15026475 0.28627451 0.61568627 0.42745098
v 0.00003414 -10.98922549 5.33074267 0.28627451 0.61568627 0.42745098
f 1 2 5
f 1 5 3
f 1 3 7
f 1 7 8
f 1 8 4
f 1 4 9
f 1 9 21
f 1 21 25
f 1 25 15
f 1 15 6
f 1 6 2
f 2 6 13
f 2 13 5
f 3 5 12
f 3 12 22
f 3 22 24
f 3 24 16
f 3 16 7
f 4 8 9
f 5 10 11
f 5 11 12
f 5 13 14
f 5 14 10
f 6 15 13
f 7 16 17
f 7 17 8
f 8 17 18
f 8 18 19
f 8 19 20
f 8 20 9
f 9 20 21
f 10 22 11
f 10 14 22
f 11 22 12
f 13 15 20
f 13 20 23
f 13 23 24
f 13 24 22
f 13 22 14
f 15 25 20
f 16 20 19
f 16 19 18
f 16 18 17
f 16 24 20
f 20 24 23
f 20 25 21

