# https://github.com/mikedh/trimesh
v -1.99980420 -8.79547156 21.48851620 0.57254902 0.58823529 0.56862745
v -1.86451050 -9.14864733 21.48851620 0.57254902 0.58823529 0.56862745
v -1.99980420 -8.59856108 21.71135245 0.57254902 0.58823529 0.56862745
v -1.99980420 -8.18359334 21.48851620 0.57254902 0.58823529 0.56862745
v -1.81477907 -9.27827288 21.48851620 0.57254902 0.58823529 0.56862745
v -0.94271328 -10.15352314 23.07146286 0.57254902 0.58823529 0.56862745
v -1.49465601 -9.12420543 22.58999324 0.57254902 0.58823529 0.56862745
v -1.75290812 -8.63948101 22.36328199 0.57254902 0.58823529 0.56862745
v -1.99432194 -8.18359334 22.15020770 0.57254902 0.58823529 0.56862745
v -1.99980420 -8.18359334 22.13440169 0.57254902 0.58823529 0.56862745
v -1.22485218 -9.62815353 22.82584625 0.57254902 0.58823529 0.56862745
v 0.00003414 -8.18359334 21.48851620 0.57254902 0.58823529 0.56862745
v -1.70004383 -9.56526263 21.48851620 0.57254902 0.58823529 0.56862745
v -0.95054503 -10.57123654 22.57356704 0.57254902 0.58823529 0.56862745
v -0.94271328 -10.98922549 22.07582585 0.57254902 0.58823529 0.56862745
v 0.00003414 -10.15352314 23.07146286 0.57254902 0.58823529 0.56862745
v 0.00003414 -9.99698313 22.99832059 0.57254902 0.58823529 0.56862745
v 0.00003414 -8.18359334 22.15020770 0.57254902 0.58823529 0.56862745
v 0.00003414 -9.62815353 22.82584625 0.57254902 0.58823529 0.56862745
v 0.00003414 -10.57672949 21.48851620 0.57254902 0.58823529 0.56862745
v -1.42182075 -10.25925543 21.48851620 0.57254902 0.58823529 0.56862745
v -1.22485218 -10.65582369 21.60132895 0.57254902 0.58823529 0.56862745
v -1.29161788 -10.57672949 21.48851620 0.57254902 0.58823529 0.56862745
v 0.00003414 -10.98922549 22.07582585 0.57254902 0.58823529 0.56862745
v -1.33116817 -10.48060863 21.48851620 0.57254902 0.58823529 0.56862745
f 1 2 3
f 1 3 10
f 1 10 4
f 1 4 12
f 1 12 20
f 1 20 23
f 1 23 25
f 1 25 21
f 1 21 13
f 1 13 5
f 1 5 2
f 2 5 6
f 2 6 3
f 3 7 8
f 3 8 9
f 3 9 10
f 3 6 11
f 3 11 7
f 4 10 9
f 4 9 18
f 4 18 12
f 5 13 14
f 5 14 6
f 6 14 15
f 6 15 24
f 6 24 16
f 6 16 17
f 6 17 11
f 7 11 8
f 8 11 9
f 9 11 19
f 9 19 18
f 11 17 19
f 12 18 19
f 12 19 17
f 12 17 16
f 12 16 24
f 12 24 20
f 13 21 15
f 13 15 14
f 15 21 22
f 15 22 23
f 15 23 20
f 15 20 24
f 21 25 22
f 22 25 23

