# https://github.com/mikedh/trimesh
v -2.99999994 0.00350486 8.35329534 0.25098039 0.46274510 0.24313725
v -0.50031754 0.00350486 8.35329534 0.25098039 0.46274510 0.24313725
v -2.99999994 0.00350486 10.20911277 0.25098039 0.46274510 0.24313725
v -2.99999994 0.85808254 8.10963268 0.25098039 0.46274510 0.24313725
v -0.49663116 0.00350486 8.35661266 0.25098039 0.46274510 0.24313725
v -0.50031754 0.85808254 8.10963268 0.25098039 0.46274510 0.24313725
v -0.00031401 1.62100536 8.10963268 0.25098039 0.46274510 0.24313725
v 0.42361659 0.00350486 10.20911277 0.25098039 0.46274510 0.24313725
v -2.99999994 2.43685561 11.19009677 0.25098039 0.46274510 0.24313725
v -2.99999994 7.97740785 8.10963268 0.25098039 0.46274510 0.24313725
v -0.00031401 0.00350486 8.85328659 0.25098039 0.46274510 0.24313725
v 0.42361659 2.67309110 8.10963268 0.25098039 0.46274510 0.24313725
v 0.42361659 0.00350486 9.71907348 0.25098039 0.46274510 0.24313725
v 0.42361659 2.43685561 11.19009677 0.25098039 0.46274510 0.24313725
v -2.99999994 9.41418266 11.19009677 0.25098039 0.46274510 0.24313725
v -2.99999994 8.20202491 8.43200335 0.25098039 0.46274510 0.24313725
v -1.99999297 10.33201439 8.10963268 0.25098039 0.46274510 0.24313725
v 0.42361659 10.33201439 8.10963268 0.25098039 0.46274510 0.24313725
v 0.42361659 11.47446236 11.19009677 0.25098039 0.46274510 0.24313725
v -1.99999297 11.47446236 11.19009677 0.25098039 0.46274510 0.24313725
v -1.99999297 11.39700831 10.84601361 0.25098039 0.46274510 0.24313725
v -2.99999994 9.35480074 10.95608400 0.25098039 0.46274510 0.24313725
v -2.99999994 8.55702343 9.03060571 0.25098039 0.46274510 0.24313725
v -1.99999297 10.56695767 8.56589749 0.25098039 0.46274510 0.24313725
v -1.75267205 11.07944624 8.52036145 0.25098039 0.46274510 0.24313725
v -1.49462742 11.61258890 8.47301581 0.25098039 0.46274510 0.24313725
v -1.22518860 12.16767703 8.42386139 0.25098039 0.46274510 0.24313725
v -0.94267986 12.74471065 8.37259551 0.25098039 0.46274510 0.24313725
v 0.42361659 12.74471065 8.37259551 0.25098039 0.46274510 0.24313725
v 0.42361659 13.18878082 9.59422651 0.25098039 0.46274510 0.24313725
v -0.94267986 13.18878082 9.59422651 0.25098039 0.46274510 0.24313725
v -1.22518860 12.71372870 9.92594538 0.25098039 0.46274510 0.24313725
v -1.49462742 12.25804008 10.24469727 0.25098039 0.46274510 0.24313725
v -1.75267205 11.81913302 10.55108508 0.25098039 0.46274510 0.24313725
v -1.99999297 11.23435515 10.26068012 0.25098039 0.46274510 0.24313725
v -2.99999994 9.13405622 10.29566148 0.25098039 0.46274510 0.24313725
v -2.99999994 8.86813100 9.65272954 0.25098039 0.46274510 0.24313725
v -1.99999297 10.81868413 9.11926486 0.25098039 0.46274510 0.24313725
v -1.99999297 11.04071922 9.68439379 0.25098039 0.46274510 0.24313725
v -0.95072280 12.96674491 8.98356195 0.25098039 0.46274510 0.24313725
v 0.42361659 13.11907186 9.40182933 0.25098039 0.46274510 0.24313725
v 0.42361659 12.93189125 8.88706148 0.25098039 0.46274510 0.24313725
f 1 2 5
f 1 5 11
f 1 11 13
f 1 13 8
f 1 8 3
f 1 3 9
f 1 9 15
f 1 15 22
f 1 22 36
f 1 36 37
f 1 37 23
f 1 23 16
f 1 16 10
f 1 10 4
f 1 4 6
f 1 6 2
f 2 6 7
f 2 7 5
f 3 8 14
f 3 14 9
f 4 10 17
f 4 17 18
f 4 18 12
f 4 12 7
f 4 7 6
f 5 7 11
f 7 12 11
f 8 13 12
f 8 12 18
f 8 18 29
f 8 29 42
f 8 42 41
f 8 41 30
f 8 30 19
f 8 19 14
f 9 14 19
f 9 19 20
f 9 20 15
f 10 16 17
f 11 12 13
f 15 20 21
f 15 21 22
f 16 23 17
f 17 24 25
f 17 25 26
f 17 26 27
f 17 27 28
f 17 28 29
f 17 29 18
f 17 23 24
f 19 30 31
f 19 31 20
f 20 31 32
f 20 32 33
f 20 33 34
f 20 34 21
f 21 35 22
f 21 34 35
f 22 35 36
f 23 37 24
f 24 38 25
f 24 37 38
f 25 38 26
f 26 38 27
f 27 38 28
f 28 38 39
f 28 39 40
f 28 40 31
f 28 31 41
f 28 41 42
f 28 42 29
f 30 41 31
f 31 40 39
f 31 39 35
f 31 35 32
f 32 35 33
f 33 35 34
f 35 39 36
f 36 39 38
f 36 38 37

