# https://github.com/mikedh/trimesh
v 0.00022990 8.64367352 16.21231976 0.80392157 0.70196078 0.09803922
v 0.00022990 9.73647189 14.91812228 0.80392157 0.70196078 0.09803922
v 2.99999994 9.90033173 14.91799561 0.80392157 0.70196078 0.09803922
v 2.99999994 8.89899696 16.21231976 0.80392157 0.70196078 0.09803922
v 0.00022990 11.47577267 16.21231976 0.80392157 0.70196078 0.09803922
v 1.75675146 9.83597917 14.91799561 0.80392157 0.70196078 0.09803922
v 0.00022990 11.68700282 14.91799561 0.80392157 0.70196078 0.09803922
v 2.99999994 11.68700282 14.91799561 0.80392157 0.70196078 0.09803922
v 2.99999994 11.47577267 16.21231976 0.80392157 0.70196078 0.09803922
v 0.00022990 11.51986597 16.01706239 0.80392157 0.70196078 0.09803922
v 0.00022990 11.61639399 15.46892270 0.80392157 0.70196078 0.09803922
v 2.99999994 11.61639399 15.46892270 0.80392157 0.70196078 0.09803922
v 2.99999994 11.51986597 16.01706239 0.80392157 0.70196078 0.09803922
f 1 2 3
f 1 3 4
f 1 4 9
f 1 9 5
f 1 5 10
f 1 10 11
f 1 11 7
f 1 7 2
f 2 6 3
f 2 7 6
f 3 6 7
f 3 7 8
f 3 8 12
f 3 12 13
f 3 13 9
f 3 9 4
f 5 9 13
f 5 13 10
f 7 11 12
f 7 12 8
f 10 13 12
f 10 12 11

