# https://github.com/mikedh/trimesh
v -2.99999994 8.10979797 14.91799550 0.61176471 0.12156863 0.84705882
v -2.99999994 8.65007702 13.70101939 0.61176471 0.12156863 0.84705882
v -0.50019997 8.10979797 14.91799550 0.61176471 0.12156863 0.84705882
v -2.99999994 9.66936792 14.91799550 0.61176471 0.12156863 0.84705882
v -0.50019997 8.65007702 13.70101939 0.61176471 0.12156863 0.84705882
v -2.99999994 9.75013106 13.70101939 0.61176471 0.12156863 0.84705882
v -0.00006385 9.14412663 13.70101939 0.61176471 0.12156863 0.84705882
v -0.00006385 8.76704526 14.91799550 0.61176471 0.12156863 0.84705882
v -2.99999994 9.72562336 14.39873174 0.61176471 0.12156863 0.84705882
v -1.99972749 11.68678320 14.91799550 0.61176471 0.12156863 0.84705882
v -2.99999994 9.75013106 13.70328277 0.61176471 0.12156863 0.84705882
v -1.99972749 11.74972263 13.70101939 0.61176471 0.12156863 0.84705882
v -0.00006385 13.79944333 13.70101939 0.61176471 0.12156863 0.84705882
v -0.00006385 9.73676308 14.91799550 0.61176471 0.12156863 0.84705882
v -1.99972749 11.73412719 14.31069870 0.61176471 0.12156863 0.84705882
v -1.98768668 11.68678320 14.91799550 0.61176471 0.12156863 0.84705882
v -0.00006385 13.63290365 14.39765960 0.61176471 0.12156863 0.84705882
v -0.94277497 13.79944333 14.35310701 0.61176471 0.12156863 0.84705882
v -1.22500096 13.23966916 14.50260831 0.61176471 0.12156863 0.84705882
v -1.49489249 12.70161756 14.64603425 0.61176471 0.12156863 0.84705882
v -1.75274300 12.18417480 14.78386128 0.61176471 0.12156863 0.84705882
v -1.99972749 11.74972263 13.70328277 0.61176471 0.12156863 0.84705882
v -0.95070430 13.79944333 13.70101939 0.61176471 0.12156863 0.84705882
v -0.00006385 13.79944333 14.35310701 0.61176471 0.12156863 0.84705882
v -0.00006385 11.68678320 14.91656603 0.61176471 0.12156863 0.84705882
v -0.00006385 11.89621116 14.86081573 0.61176471 0.12156863 0.84705882
v -0.00006385 12.70161756 14.64603425 0.61176471 0.12156863 0.84705882
v -0.95070430 13.79944333 13.70328277 0.61176471 0.12156863 0.84705882
f 1 2 5
f 1 5 3
f 1 3 8
f 1 8 14
f 1 14 16
f 1 16 10
f 1 10 4
f 1 4 9
f 1 9 11
f 1 11 6
f 1 6 2
f 2 6 12
f 2 12 23
f 2 23 13
f 2 13 7
f 2 7 5
f 3 5 7
f 3 7 8
f 4 10 9
f 6 11 22
f 6 22 12
f 7 13 24
f 7 24 17
f 7 17 27
f 7 27 26
f 7 26 25
f 7 25 14
f 7 14 8
f 9 10 15
f 9 15 11
f 10 16 17
f 10 17 18
f 10 18 19
f 10 19 20
f 10 20 21
f 10 21 15
f 11 15 22
f 12 22 28
f 12 28 23
f 13 23 28
f 13 28 18
f 13 18 24
f 14 25 16
f 15 21 20
f 15 20 19
f 15 19 18
f 15 18 22
f 16 25 26
f 16 26 27
f 16 27 17
f 17 24 18
f 18 28 22

