# https://github.com/mikedh/trimesh
v 0.00003414 10.15336028 23.07134441 0.94117647 0.52156863 0.41176471
v 0.00003414 10.24424482 22.96337809 0.94117647 0.52156863 0.41176471
v -0.94271328 10.15336028 23.07134441 0.94117647 0.52156863 0.41176471
v 0.00003414 9.99692802 22.99836501 0.94117647 0.52156863 0.41176471
v 0.00003414 10.52571284 22.62799972 0.94117647 0.52156863 0.41176471
v -0.94271328 10.98922549 22.07559554 0.94117647 0.52156863 0.41176471
v -0.95054503 10.57115511 22.57360652 0.94117647 0.52156863 0.41176471
v -1.99980420 9.00105084 21.25614502 0.94117647 0.52156863 0.41176471
v -1.99980420 8.59867871 21.71124305 0.94117647 0.52156863 0.41176471
v -1.22485218 9.62815600 22.82589231 0.94117647 0.52156863 0.41176471
v 0.00003414 9.62815600 22.82589231 0.94117647 0.52156863 0.41176471
v 0.00003414 10.98922549 22.07559554 0.94117647 0.52156863 0.41176471
v -1.22485218 10.65598079 21.60136349 0.94117647 0.52156863 0.41176471
v -1.99980420 9.37973780 20.78054755 0.94117647 0.52156863 0.41176471
v -1.99980420 9.73721794 20.27925586 0.94117647 0.52156863 0.41176471
v -1.75290812 8.63943906 22.36314051 0.94117647 0.52156863 0.41176471
v -1.49465601 9.12415854 22.59000640 0.94117647 0.52156863 0.41176471
v -1.99980420 8.17565085 22.14228824 0.94117647 0.52156863 0.41176471
v -1.99843363 8.17565085 22.14638862 0.94117647 0.52156863 0.41176471
v 0.00003414 8.17565085 22.14638862 0.94117647 0.52156863 0.41176471
v 0.00003414 9.73721794 20.27925586 0.94117647 0.52156863 0.41176471
v -1.49465601 10.33595602 21.14571930 0.94117647 0.52156863 0.41176471
v -1.75290812 10.02860008 20.70756732 0.94117647 0.52156863 0.41176471
v -1.99980420 9.73281157 20.28608914 0.94117647 0.52156863 0.41176471
v -1.99980420 8.17565085 20.27925586 0.94117647 0.52156863 0.41176471
v 0.00003414 8.17565085 20.27925586 0.94117647 0.52156863 0.41176471
f 1 2 3
f 1 3 4
f 1 4 11
f 1 11 20
f 1 20 26
f 1 26 21
f 1 21 12
f 1 12 5
f 1 5 2
f 2 5 6
f 2 6 3
f 3 6 7
f 3 7 8
f 3 8 9
f 3 9 10
f 3 10 4
f 4 10 11
f 5 12 6
f 6 13 14
f 6 14 8
f 6 8 7
f 6 12 21
f 6 21 15
f 6 15 13
f 8 14 24
f 8 24 15
f 8 15 25
f 8 25 18
f 8 18 9
f 9 16 17
f 9 17 10
f 9 18 19
f 9 19 16
f 10 17 19
f 10 19 20
f 10 20 11
f 13 15 22
f 13 22 14
f 14 22 23
f 14 23 24
f 15 24 23
f 15 23 22
f 15 21 26
f 15 26 25
f 16 19 17
f 18 25 26
f 18 26 20
f 18 20 19

