# https://github.com/mikedh/trimesh
v -2.99999994 0.85716993 8.10963227 0.15686275 0.10980392 0.65490196
v -2.99999994 1.58893437 7.12499022 0.15686275 0.10980392 0.65490196
v -0.50031754 0.85716993 8.10963227 0.15686275 0.10980392 0.65490196
v -2.99999994 7.97819420 8.10963227 0.15686275 0.10980392 0.65490196
v -0.50031754 1.58893437 7.12499022 0.15686275 0.10980392 0.65490196
v -2.99999994 7.18799993 7.12499022 0.15686275 0.10980392 0.65490196
v -0.00031401 1.62046824 8.10963227 0.15686275 0.10980392 0.65490196
v -0.00031401 2.10552867 7.12499022 0.15686275 0.10980392 0.65490196
v -1.99999297 10.33208349 8.10963227 0.15686275 0.10980392 0.65490196
v -1.99999297 10.31167946 8.07088304 0.15686275 0.10980392 0.65490196
v -1.99999297 10.03344240 7.58882736 0.15686275 0.10980392 0.65490196
v -1.99999297 9.73572749 7.12499022 0.15686275 0.10980392 0.65490196
v -2.99999994 7.80475996 7.86017027 0.15686275 0.10980392 0.65490196
v -2.99999994 7.36792734 7.31835224 0.15686275 0.10980392 0.65490196
v 0.42361659 2.98754148 7.12499022 0.15686275 0.10980392 0.65490196
v 0.42361659 2.67313325 8.10963227 0.15686275 0.10980392 0.65490196
v 0.42361659 10.33208349 8.10963227 0.15686275 0.10980392 0.65490196
v 0.42361659 10.31167946 8.07088304 0.15686275 0.10980392 0.65490196
v 0.42361659 10.03344240 7.58882736 0.15686275 0.10980392 0.65490196
v 0.42361659 9.87855652 7.34746249 0.15686275 0.10980392 0.65490196
v 0.42361659 9.73572749 7.12499022 0.15686275 0.10980392 0.65490196
f 1 2 5
f 1 5 3
f 1 3 7
f 1 7 16
f 1 16 17
f 1 17 9
f 1 9 4
f 1 4 13
f 1 13 14
f 1 14 6
f 1 6 2
f 2 6 12
f 2 12 21
f 2 21 15
f 2 15 8
f 2 8 5
f 3 5 8
f 3 8 7
f 4 9 10
f 4 10 11
f 4 11 12
f 4 12 13
f 6 14 12
f 7 8 15
f 7 15 16
f 9 17 18
f 9 18 10
f 10 18 19
f 10 19 11
f 11 19 20
f 11 20 12
f 12 20 21
f 12 14 13
f 15 21 20
f 15 20 19
f 15 19 18
f 15 18 17
f 15 17 16

