# https://github.com/mikedh/trimesh
v -2.99968038 -6.85334539 15.34057199 0.09019608 0.57254902 0.92549020
v -0.50012718 -6.85334539 15.34057199 0.09019608 0.57254902 0.92549020
v -2.99968038 -6.85334539 16.47360583 0.09019608 0.57254902 0.92549020
v -2.99968038 -5.43683478 14.22033076 0.09019608 0.57254902 0.92549020
v -0.00028049 -6.85334539 15.84213296 0.09019608 0.57254902 0.92549020
v -0.50012718 -5.43683478 14.22033076 0.09019608 0.57254902 0.92549020
v -0.00028049 -4.91564410 14.22033076 0.09019608 0.57254902 0.92549020
v -0.00028049 -6.85334539 16.47360583 0.09019608 0.57254902 0.92549020
v -2.99968038 -2.12933166 16.47360583 0.09019608 0.57254902 0.92549020
v -2.99968038 -3.46167442 14.22033076 0.09019608 0.57254902 0.92549020
v 0.26466385 -5.82807460 16.47360583 0.09019608 0.57254902 0.92549020
v 0.26466385 -4.03743555 14.22033076 0.09019608 0.57254902 0.92549020
v 0.26466385 -2.12933166 16.47360583 0.09019608 0.57254902 0.92549020
v 0.26466385 -3.46167442 14.22033076 0.09019608 0.57254902 0.92549020
f 1 2 5
f 1 5 8
f 1 8 3
f 1 3 9
f 1 9 10
f 1 10 4
f 1 4 6
f 1 6 2
f 2 6 7
f 2 7 5
f 3 8 11
f 3 11 13
f 3 13 9
f 4 10 14
f 4 14 12
f 4 12 7
f 4 7 6
f 5 11 8
f 5 7 12
f 5 12 11
f 9 13 14
f 9 14 10
f 11 12 14
f 11 14 13

