# https://github.com/mikedh/trimesh
v 0.00022990 8.62754754 11.19052511 0.72156863 0.86274510 0.97254902
v 2.99999994 8.89468108 11.19052511 0.72156863 0.86274510 0.97254902
v 2.99999994 9.90032268 12.48841129 0.72156863 0.86274510 0.97254902
v 0.00022990 9.74309749 12.48841129 0.72156863 0.86274510 0.97254902
v 0.00022990 11.47497069 11.19052511 0.72156863 0.86274510 0.97254902
v 2.99999994 11.47497069 11.19052511 0.72156863 0.86274510 0.97254902
v 2.99999994 11.68700035 12.48841129 0.72156863 0.86274510 0.97254902
v 0.00022990 11.68700035 12.48841129 0.72156863 0.86274510 0.97254902
v 0.00022990 11.51989229 11.38936918 0.72156863 0.86274510 0.97254902
v 2.99999994 11.51989229 11.38936918 0.72156863 0.86274510 0.97254902
v 2.99999994 11.61632407 11.93749263 0.72156863 0.86274510 0.97254902
v 0.00022990 11.64477423 12.15844443 0.72156863 0.86274510 0.97254902
v 0.00022990 11.55852472 11.60866931 0.72156863 0.86274510 0.97254902
v 0.00022990 11.61632407 11.93749263 0.72156863 0.86274510 0.97254902
f 1 2 3
f 1 3 4
f 1 4 8
f 1 8 12
f 1 12 14
f 1 14 13
f 1 13 9
f 1 9 5
f 1 5 6
f 1 6 2
f 2 6 10
f 2 10 11
f 2 11 7
f 2 7 3
f 3 7 8
f 3 8 4
f 5 9 10
f 5 10 6
f 7 11 12
f 7 12 8
f 9 13 10
f 10 13 11
f 11 13 14
f 11 14 12

