# https://github.com/mikedh/trimesh
v 0.42386880 0.00350486 9.71914011 0.20784314 0.16078431 0.65098039
v 2.99999994 0.00350486 9.85315393 0.20784314 0.16078431 0.65098039
v 0.42386880 0.00350486 10.20928386 0.20784314 0.16078431 0.65098039
v 0.42386880 1.86111339 9.07760999 0.20784314 0.16078431 0.65098039
v 2.99999994 2.06249398 9.07760999 0.20784314 0.16078431 0.65098039
v 2.99999994 0.00350486 10.20928386 0.20784314 0.16078431 0.65098039
v 0.42386880 2.43685561 11.19019157 0.20784314 0.16078431 0.65098039
v 0.42386880 13.00159940 9.07760999 0.20784314 0.16078431 0.65098039
v 2.99999994 10.79932062 9.07760999 0.20784314 0.16078431 0.65098039
v 2.99999994 2.43685561 11.19019157 0.20784314 0.16078431 0.65098039
v 0.42386880 11.47446236 11.19019157 0.20784314 0.16078431 0.65098039
v 0.42386880 13.18878082 9.59422568 0.20784314 0.16078431 0.65098039
v 1.94937217 13.04161781 9.18701371 0.20784314 0.16078431 0.65098039
v 1.94937217 13.00159940 9.07760999 0.20784314 0.16078431 0.65098039
v 2.98285093 10.83675707 9.07760999 0.20784314 0.16078431 0.65098039
v 2.99999994 10.81868413 9.11917932 0.20784314 0.16078431 0.65098039
v 2.99999994 11.47446236 11.19019157 0.20784314 0.16078431 0.65098039
v 1.94256294 13.18878082 9.59422568 0.20784314 0.16078431 0.65098039
v 2.99999994 11.23435515 10.26057298 0.20784314 0.16078431 0.65098039
v 2.99999994 11.04071922 9.68460231 0.20784314 0.16078431 0.65098039
v 2.29537822 12.28256753 9.07760999 0.20784314 0.16078431 0.65098039
v 2.95384884 10.89872014 9.07760999 0.20784314 0.16078431 0.65098039
v 2.87188685 11.07170034 9.07760999 0.20784314 0.16078431 0.65098039
v 2.99999994 11.39700831 10.84605680 0.20784314 0.16078431 0.65098039
v 2.75285279 11.81913302 10.55135014 0.20784314 0.16078431 0.65098039
v 2.49486142 12.25674951 10.24506207 0.20784314 0.16078431 0.65098039
v 2.22501698 12.71372870 9.92636529 0.20784314 0.16078431 0.65098039
f 1 2 6
f 1 6 3
f 1 3 7
f 1 7 11
f 1 11 12
f 1 12 8
f 1 8 4
f 1 4 5
f 1 5 2
f 2 5 9
f 2 9 16
f 2 16 20
f 2 20 19
f 2 19 24
f 2 24 17
f 2 17 10
f 2 10 6
f 3 6 10
f 3 10 7
f 4 8 14
f 4 14 21
f 4 21 23
f 4 23 22
f 4 22 15
f 4 15 9
f 4 9 5
f 7 10 17
f 7 17 11
f 8 12 13
f 8 13 14
f 9 15 16
f 11 17 18
f 11 18 12
f 12 18 13
f 13 18 19
f 13 19 20
f 13 20 14
f 14 20 21
f 15 22 16
f 16 22 23
f 16 23 20
f 17 24 25
f 17 25 26
f 17 26 27
f 17 27 18
f 18 27 19
f 19 27 26
f 19 26 25
f 19 25 24
f 20 23 21

