# https://github.com/mikedh/trimesh
v 0.00022990 -11.68663021 14.91835681 0.53333333 0.58823529 0.72941176
v 2.99999994 -11.68663021 14.91835681 0.53333333 0.58823529 0.72941176
v 0.00022990 -11.61639728 15.46889823 0.53333333 0.58823529 0.72941176
v 0.00022990 -9.73645298 14.91835681 0.53333333 0.58823529 0.72941176
v 2.99999994 -11.61639728 15.46889823 0.53333333 0.58823529 0.72941176
v 2.99999994 -9.90021328 14.91835681 0.53333333 0.58823529 0.72941176
v 0.00022990 -11.51974012 16.01700358 0.53333333 0.58823529 0.72941176
v 0.00022990 -8.13500566 16.47360583 0.53333333 0.58823529 0.72941176
v 2.99999994 -11.51974012 16.01700358 0.53333333 0.58823529 0.72941176
v 2.99999994 -8.49625305 16.47360583 0.53333333 0.58823529 0.72941176
v 0.00022990 -11.44637823 16.34282173 0.53333333 0.58823529 0.72941176
v 0.00022990 -11.41682505 16.47360583 0.53333333 0.58823529 0.72941176
v 2.99999994 -11.41682505 16.47360583 0.53333333 0.58823529 0.72941176
f 1 2 5
f 1 5 3
f 1 3 7
f 1 7 11
f 1 11 12
f 1 12 8
f 1 8 4
f 1 4 6
f 1 6 2
f 2 6 10
f 2 10 13
f 2 13 9
f 2 9 5
f 3 5 9
f 3 9 7
f 4 8 6
f 6 8 10
f 7 9 11
f 8 12 13
f 8 13 10
f 9 13 11
f 11 13 12

