# https://github.com/mikedh/trimesh
v -1.99999996 -7.08155532 23.07565783 0.41176471 0.06274510 0.69019608
v -0.94234519 -7.46263754 25.32926665 0.41176471 0.06274510 0.69019608
v -1.22474535 -7.31199023 24.76927533 0.41176471 0.06274510 0.69019608
v -1.49442045 -7.16720108 24.23202489 0.41176471 0.06274510 0.69019608
v -1.75283862 -7.02827091 23.71524181 0.41176471 0.06274510 0.69019608
v -1.99999996 -6.89436238 23.21807147 0.41176471 0.06274510 0.69019608
v -1.99999996 -4.61317119 23.07565783 0.41176471 0.06274510 0.69019608
v 2.99999974 -7.08155532 23.07565783 0.41176471 0.06274510 0.69019608
v -0.94234519 -6.33696701 25.97936850 0.41176471 0.06274510 0.69019608
v -0.95017612 -6.89994169 25.65417569 0.41176471 0.06274510 0.69019608
v -1.99999996 -5.87526107 23.87925957 0.41176471 0.06274510 0.69019608
v -1.99999996 -6.39304148 23.56174192 0.41176471 0.06274510 0.69019608
v 1.94234517 -7.46263754 25.32926665 0.41176471 0.06274510 0.69019608
v -1.99999996 -4.61317119 24.50661972 0.41176471 0.06274510 0.69019608
v 2.99999974 -4.61317119 23.07565783 0.41176471 0.06274510 0.69019608
v 2.99999974 -6.89436238 23.21807147 0.41176471 0.06274510 0.69019608
v 2.75283839 -7.02799207 23.71495721 0.41176471 0.06274510 0.69019608
v 2.49490995 -7.16720108 24.23174111 0.41176471 0.06274510 0.69019608
v 2.22474533 -7.31199023 24.76899155 0.41176471 0.06274510 0.69019608
v -1.22474535 -5.92770854 25.56861300 0.41176471 0.06274510 0.69019608
v -1.99999996 -5.34102114 24.16920390 0.41176471 0.06274510 0.69019608
v 1.94234517 -6.33696701 25.97936850 0.41176471 0.06274510 0.69019608
v 2.99999974 -6.39304148 23.56174192 0.41176471 0.06274510 0.69019608
v 1.94919717 -7.08741430 25.54587212 0.41176471 0.06274510 0.69019608
v -1.99999996 -4.79283210 24.43157573 0.41176471 0.06274510 0.69019608
v -1.75283862 -5.15661744 24.79571190 0.41176471 0.06274510 0.69019608
v -1.49442045 -5.53463075 25.17463000 0.41176471 0.06274510 0.69019608
v 2.99999974 -4.61317119 24.50661972 0.41176471 0.06274510 0.69019608
v 1.94919717 -6.71219066 25.76247842 0.41176471 0.06274510 0.69019608
v 2.99999974 -5.34102114 24.16920390 0.41176471 0.06274510 0.69019608
v 2.22474533 -5.92742970 25.56861300 0.41176471 0.06274510 0.69019608
v 2.99999974 -5.87526107 23.87925957 0.41176471 0.06274510 0.69019608
v 2.49490995 -5.53435191 25.17434540 0.41176471 0.06274510 0.69019608
v 2.75283839 -5.15633860 24.79542730 0.41176471 0.06274510 0.69019608
v 2.99999974 -4.79283210 24.43157573 0.41176471 0.06274510 0.69019608
f 1 2 3
f 1 3 4
f 1 4 5
f 1 5 6
f 1 6 12
f 1 12 11
f 1 11 21
f 1 21 25
f 1 25 14
f 1 14 7
f 1 7 15
f 1 15 8
f 1 8 13
f 1 13 2
f 2 9 10
f 2 10 11
f 2 11 12
f 2 12 3
f 2 13 22
f 2 22 9
f 3 12 4
f 4 12 5
f 5 12 6
f 7 14 28
f 7 28 15
f 8 15 28
f 8 28 35
f 8 35 30
f 8 30 32
f 8 32 23
f 8 23 16
f 8 16 17
f 8 17 18
f 8 18 19
f 8 19 13
f 9 14 20
f 9 20 21
f 9 21 11
f 9 11 10
f 9 22 28
f 9 28 14
f 13 19 23
f 13 23 24
f 13 24 22
f 14 25 26
f 14 26 27
f 14 27 20
f 16 23 17
f 17 23 18
f 18 23 19
f 20 27 21
f 21 27 26
f 21 26 25
f 22 24 29
f 22 29 30
f 22 30 31
f 22 31 28
f 23 32 24
f 24 32 29
f 28 31 33
f 28 33 34
f 28 34 35
f 29 32 30
f 30 35 34
f 30 34 33
f 30 33 31

