# https://github.com/mikedh/trimesh
v 0.00022990 -13.80000019 13.05316437 0.05490196 0.43137255 0.30980392
v 1.94232852 -13.80000019 13.05316437 0.05490196 0.43137255 0.30980392
v 0.00022990 -13.80000019 13.34058601 0.05490196 0.43137255 0.30980392
v 0.00022990 -11.67965010 12.42925783 0.05490196 0.43137255 0.30980392
v 2.22480497 -13.23940183 12.90374440 0.05490196 0.43137255 0.30980392
v 2.99999994 -11.73446937 13.09562641 0.05490196 0.43137255 0.30980392
v 1.94702668 -13.80000019 13.34058601 0.05490196 0.43137255 0.30980392
v 2.99999994 -11.67965010 12.42925783 0.05490196 0.43137255 0.30980392
v 0.00022990 -9.97304545 13.34058601 0.05490196 0.43137255 0.30980392
v 0.00022990 -9.71215338 12.42925783 0.05490196 0.43137255 0.30980392
v 2.49494861 -12.70121122 12.76030119 0.05490196 0.43137255 0.30980392
v 2.99999994 -11.74087123 13.34058601 0.05490196 0.43137255 0.30980392
v 2.34167142 -13.02852702 13.34058601 0.05490196 0.43137255 0.30980392
v 2.75305328 -12.18422827 12.62247796 0.05490196 0.43137255 0.30980392
v 2.99999994 -11.68725205 12.48982874 0.05490196 0.43137255 0.30980392
v 2.99999994 -9.87701178 12.42925783 0.05490196 0.43137255 0.30980392
v 2.99999994 -10.12309888 13.34058601 0.05490196 0.43137255 0.30980392
f 1 2 7
f 1 7 3
f 1 3 9
f 1 9 10
f 1 10 4
f 1 4 8
f 1 8 2
f 2 5 6
f 2 6 7
f 2 8 5
f 3 7 13
f 3 13 12
f 3 12 17
f 3 17 9
f 4 10 16
f 4 16 8
f 5 11 6
f 5 8 11
f 6 12 13
f 6 13 7
f 6 11 14
f 6 14 15
f 6 15 8
f 6 8 16
f 6 16 17
f 6 17 12
f 8 15 14
f 8 14 11
f 9 17 10
f 10 17 16

