# https://github.com/mikedh/trimesh
v 0.00022990 -8.17278017 5.26145896 0.72156863 0.49803922 0.95294118
v 2.99706367 -8.17278017 5.26145896 0.72156863 0.49803922 0.95294118
v 0.00022990 -8.17278017 6.73443065 0.72156863 0.49803922 0.95294118
v 0.00022990 -6.98192796 3.86214939 0.72156863 0.49803922 0.95294118
v 2.99999994 -8.17278017 5.26202076 0.72156863 0.49803922 0.95294118
v 2.83762007 -6.98192796 3.86214939 0.72156863 0.49803922 0.95294118
v 2.99999994 -8.17278017 6.73443065 0.72156863 0.49803922 0.95294118
v 0.00022990 -2.99473134 6.73443065 0.72156863 0.49803922 0.95294118
v 0.00022990 -0.94417288 3.86214939 0.72156863 0.49803922 0.95294118
v 2.99999994 -7.76380055 4.88386762 0.72156863 0.49803922 0.95294118
v 2.99999994 -6.41798925 3.86214939 0.72156863 0.49803922 0.95294118
v 2.99999994 -6.89418841 4.18857026 0.72156863 0.49803922 0.95294118
v 2.99999994 -7.33713129 4.52595647 0.72156863 0.49803922 0.95294118
v 2.99999994 -3.14403009 6.73443065 0.72156863 0.49803922 0.95294118
v 2.99999994 -1.34607678 3.86214939 0.72156863 0.49803922 0.95294118
f 1 2 5
f 1 5 7
f 1 7 3
f 1 3 8
f 1 8 9
f 1 9 4
f 1 4 6
f 1 6 2
f 2 6 5
f 3 7 14
f 3 14 8
f 4 9 15
f 4 15 11
f 4 11 6
f 5 6 10
f 5 10 13
f 5 13 12
f 5 12 11
f 5 11 15
f 5 15 14
f 5 14 7
f 6 11 12
f 6 12 13
f 6 13 10
f 8 14 9
f 9 14 15

