# https://github.com/mikedh/trimesh
v 0.42386880 -2.81031490 19.60599363 0.43529412 0.89019608 0.96078431
v 2.99999994 -2.94719652 19.60599363 0.43529412 0.89019608 0.96078431
v 0.42386880 0.00221429 17.68240391 0.43529412 0.89019608 0.96078431
v 0.42386880 -10.15543227 19.60599363 0.43529412 0.89019608 0.96078431
v 2.99999994 0.00221429 17.55361283 0.43529412 0.89019608 0.96078431
v 2.99999994 -10.15543227 19.60599363 0.43529412 0.89019608 0.96078431
v 0.42386880 0.00221429 17.20311650 0.43529412 0.89019608 0.96078431
v 0.42386880 -12.74456094 19.03379247 0.43529412 0.89019608 0.96078431
v 2.99999994 0.00221429 17.20311650 0.43529412 0.89019608 0.96078431
v 1.94256294 -12.74456094 19.03379247 0.43529412 0.89019608 0.96078431
v 2.99999994 -10.31168439 19.33522527 0.43529412 0.89019608 0.96078431
v 0.42386880 -2.12978097 16.47360604 0.43529412 0.89019608 0.96078431
v 0.42386880 -13.00282828 18.32636053 0.43529412 0.89019608 0.96078431
v 2.99999994 -2.12978097 16.47360604 0.43529412 0.89019608 0.96078431
v 1.94256294 -13.19007140 17.81242181 0.43529412 0.89019608 0.96078431
v 1.94937217 -12.89306470 18.62656651 0.43529412 0.89019608 0.96078431
v 2.99999994 -10.81788791 18.28741635 0.43529412 0.89019608 0.96078431
v 2.22501698 -12.16733403 18.98258252 0.43529412 0.89019608 0.96078431
v 2.49486142 -11.61205918 18.93321260 0.43529412 0.89019608 0.96078431
v 2.75285279 -11.07873803 18.88598911 0.43529412 0.89019608 0.96078431
v 2.99999994 -10.56607755 18.84060565 0.43529412 0.89019608 0.96078431
v 0.42386880 -11.41577630 16.47360604 0.43529412 0.89019608 0.96078431
v 0.42386880 -13.19007140 17.81242181 0.43529412 0.89019608 0.96078431
v 2.99999994 -11.41577630 16.47360604 0.43529412 0.89019608 0.96078431
v 2.22501698 -12.71356830 17.48032456 0.43529412 0.89019608 0.96078431
v 2.99999994 -11.23369794 17.14577366 0.43529412 0.89019608 0.96078431
v 1.94937217 -13.04156764 18.21934096 0.43529412 0.89019608 0.96078431
v 2.99999994 -11.04128924 17.72196129 0.43529412 0.89019608 0.96078431
v 2.99999994 -11.39640621 16.56038670 0.43529412 0.89019608 0.96078431
v 2.75285279 -11.81867239 16.85507341 0.43529412 0.89019608 0.96078431
v 2.49486142 -12.25772670 17.16141269 0.43529412 0.89019608 0.96078431
f 1 2 3
f 1 3 7
f 1 7 12
f 1 12 22
f 1 22 23
f 1 23 13
f 1 13 8
f 1 8 4
f 1 4 6
f 1 6 2
f 2 5 3
f 2 6 11
f 2 11 21
f 2 21 17
f 2 17 28
f 2 28 26
f 2 26 29
f 2 29 24
f 2 24 14
f 2 14 9
f 2 9 5
f 3 5 9
f 3 9 7
f 4 8 10
f 4 10 6
f 6 10 11
f 7 9 14
f 7 14 12
f 8 13 10
f 10 13 15
f 10 15 16
f 10 16 17
f 10 17 18
f 10 18 11
f 11 18 19
f 11 19 20
f 11 20 21
f 12 14 24
f 12 24 22
f 13 23 15
f 15 24 25
f 15 25 26
f 15 26 27
f 15 27 16
f 15 23 22
f 15 22 24
f 16 27 28
f 16 28 17
f 17 21 20
f 17 20 19
f 17 19 18
f 24 29 30
f 24 30 31
f 24 31 25
f 25 31 26
f 26 28 27
f 26 31 30
f 26 30 29

