# https://github.com/mikedh/trimesh
v 2.99999974 3.22751030 25.00117766 0.08627451 0.01960784 0.83137255
v 1.94234517 3.03619003 27.18065058 0.08627451 0.01960784 0.83137255
v 2.22474533 3.08607199 26.60264389 0.08627451 0.01960784 0.83137255
v 2.49490995 3.13406003 26.04818172 0.08627451 0.01960784 0.83137255
v 2.75283839 3.18015376 25.51514434 0.08627451 0.01960784 0.83137255
v 2.99999974 3.22435317 25.00235554 0.08627451 0.01960784 0.83137255
v 2.99999974 0.00221470 25.00117766 0.08627451 0.01960784 0.83137255
v -1.99999996 3.22751030 25.00117766 0.08627451 0.01960784 0.83137255
v 1.94919717 2.18282520 27.33109636 0.08627451 0.01960784 0.83137255
v 1.94919717 2.60966554 27.25575626 0.08627451 0.01960784 0.83137255
v 2.99999974 2.63586933 25.15374314 0.08627451 0.01960784 0.83137255
v -0.94234519 3.03619003 27.18065058 0.08627451 0.01960784 0.83137255
v 2.99999974 0.00221470 25.44992729 0.08627451 0.01960784 0.83137255
v -1.99999996 0.00221470 25.00117766 0.08627451 0.01960784 0.83137255
v -1.99999996 3.22435317 25.00235554 0.08627451 0.01960784 0.83137255
v -1.75283862 3.18015376 25.51537959 0.08627451 0.01960784 0.83137255
v -1.49442045 3.13406003 26.04841696 0.08627451 0.01960784 0.83137255
v -1.22474535 3.08607199 26.60287914 0.08627451 0.01960784 0.83137255
v -0.95017612 2.39624537 27.29342631 0.08627451 0.01960784 0.83137255
v -0.94234519 1.75598505 27.40620204 0.08627451 0.01960784 0.83137255
v 1.94234517 1.75598505 27.40620204 0.08627451 0.01960784 0.83137255
v 2.99999974 1.43964333 25.36493381 0.08627451 0.01960784 0.83137255
v 2.99999974 2.04012407 25.27475994 0.08627451 0.01960784 0.83137255
v -1.99999996 2.63586933 25.15374314 0.08627451 0.01960784 0.83137255
v -1.99999996 2.04012407 25.27475994 0.08627451 0.01960784 0.83137255
v 2.99999974 0.27846110 25.44992729 0.08627451 0.01960784 0.83137255
v -1.99999996 0.00221470 25.44992729 0.08627451 0.01960784 0.83137255
v -1.99999996 1.43964333 25.36493381 0.08627451 0.01960784 0.83137255
v -1.22474535 1.51194095 26.88046393 0.08627451 0.01960784 0.83137255
v -1.99999996 0.27846110 25.44992729 0.08627451 0.01960784 0.83137255
v 2.22474533 1.51194095 26.88022868 0.08627451 0.01960784 0.83137255
v 2.49490995 1.27705258 26.37544405 0.08627451 0.01960784 0.83137255
v 2.75283839 1.05163550 25.89043667 0.08627451 0.01960784 0.83137255
v 2.99999974 0.83474254 25.42355817 0.08627451 0.01960784 0.83137255
v -1.99999996 0.83474254 25.42355817 0.08627451 0.01960784 0.83137255
v -1.75283862 1.05163550 25.89067192 0.08627451 0.01960784 0.83137255
v -1.49442045 1.27736823 26.37567930 0.08627451 0.01960784 0.83137255
f 1 2 3
f 1 3 4
f 1 4 5
f 1 5 6
f 1 6 11
f 1 11 23
f 1 23 22
f 1 22 34
f 1 34 26
f 1 26 13
f 1 13 7
f 1 7 14
f 1 14 8
f 1 8 12
f 1 12 2
f 2 9 10
f 2 10 11
f 2 11 3
f 2 12 9
f 3 11 4
f 4 11 5
f 5 11 6
f 7 13 27
f 7 27 14
f 8 14 27
f 8 27 30
f 8 30 35
f 8 35 28
f 8 28 25
f 8 25 24
f 8 24 15
f 8 15 16
f 8 16 17
f 8 17 18
f 8 18 12
f 9 12 19
f 9 19 20
f 9 20 21
f 9 21 22
f 9 22 23
f 9 23 10
f 10 23 11
f 12 18 24
f 12 24 25
f 12 25 19
f 13 26 21
f 13 21 20
f 13 20 27
f 15 24 16
f 16 24 17
f 17 24 18
f 19 25 20
f 20 25 28
f 20 28 29
f 20 29 30
f 20 30 27
f 21 26 31
f 21 31 22
f 22 31 32
f 22 32 33
f 22 33 34
f 26 34 33
f 26 33 32
f 26 32 31
f 28 35 36
f 28 36 37
f 28 37 29
f 29 37 30
f 30 37 36
f 30 36 35

