# https://github.com/mikedh/trimesh
v 0.00022990 1.61767611 4.18355356 0.81960784 0.09411765 0.83529412
v 2.99999994 1.88677512 4.18355356 0.81960784 0.09411765 0.83529412
v 2.99999994 3.11602493 7.12489398 0.81960784 0.09411765 0.83529412
v 0.00022990 2.96509816 7.12489398 0.81960784 0.09411765 0.83529412
v 0.00022990 6.89561429 4.18355356 0.81960784 0.09411765 0.83529412
v 2.99999994 6.88662306 4.18355356 0.81960784 0.09411765 0.83529412
v 2.99999994 8.17817031 7.12489398 0.81960784 0.09411765 0.83529412
v 0.00022990 8.17817031 7.12489398 0.81960784 0.09411765 0.83529412
v 0.00022990 7.33683435 4.52588491 0.81960784 0.09411765 0.83529412
v 2.99735731 6.89561429 4.18355356 0.81960784 0.09411765 0.83529412
v 2.99999994 6.89432989 4.18873559 0.81960784 0.09411765 0.83529412
v 2.99999994 8.17817031 5.26669034 0.81960784 0.09411765 0.83529412
v 0.00022990 8.17817031 5.25891648 0.81960784 0.09411765 0.83529412
v 0.00022990 7.50767018 4.66897797 0.81960784 0.09411765 0.83529412
v 2.99999994 7.33683435 4.52588491 0.81960784 0.09411765 0.83529412
v 2.99706367 8.17817031 5.25891648 0.81960784 0.09411765 0.83529412
v 2.99999994 7.76328235 4.88376316 0.81960784 0.09411765 0.83529412
v 0.00022990 7.76328235 4.88376316 0.81960784 0.09411765 0.83529412
f 1 2 3
f 1 3 4
f 1 4 8
f 1 8 13
f 1 13 18
f 1 18 14
f 1 14 9
f 1 9 5
f 1 5 10
f 1 10 6
f 1 6 2
f 2 6 11
f 2 11 15
f 2 15 17
f 2 17 12
f 2 12 7
f 2 7 3
f 3 7 8
f 3 8 4
f 5 9 15
f 5 15 10
f 6 10 11
f 7 12 16
f 7 16 13
f 7 13 8
f 9 14 15
f 10 15 11
f 12 17 16
f 13 16 17
f 13 17 18
f 14 18 17
f 14 17 15

