# https://github.com/mikedh/trimesh
v -2.99999994 2.43613588 11.19039823 0.43529412 0.98823529 0.10196078
v -0.00006385 2.43613588 11.19039823 0.43529412 0.98823529 0.10196078
v -2.99999994 3.49555624 13.70101939 0.43529412 0.98823529 0.10196078
v -2.99999994 6.70726362 11.19039823 0.43529412 0.98823529 0.10196078
v -0.00006385 3.49555624 13.70101939 0.43529412 0.98823529 0.10196078
v -0.00006385 6.70726362 11.19039823 0.43529412 0.98823529 0.10196078
v -2.99999994 5.35016865 13.70101939 0.43529412 0.98823529 0.10196078
v -2.99999994 6.70726362 12.08002709 0.43529412 0.98823529 0.10196078
v -0.00006385 4.85599567 13.70101939 0.43529412 0.98823529 0.10196078
v -0.00006385 6.70726362 11.57524873 0.43529412 0.98823529 0.10196078
v -0.50019997 5.35016865 13.70101939 0.43529412 0.98823529 0.10196078
v -0.50019997 6.70726362 12.08002709 0.43529412 0.98823529 0.10196078
f 1 2 5
f 1 5 3
f 1 3 7
f 1 7 8
f 1 8 4
f 1 4 6
f 1 6 2
f 2 6 10
f 2 10 9
f 2 9 5
f 3 5 9
f 3 9 11
f 3 11 7
f 4 8 12
f 4 12 10
f 4 10 6
f 7 11 12
f 7 12 8
f 9 10 11
f 10 12 11

