# https://github.com/mikedh/trimesh
v -2.99999994 0.00301421 22.35290971 0.26274510 0.77254902 0.45490196
v -0.50019997 0.00301421 22.35290971 0.26274510 0.77254902 0.45490196
v -2.99999994 0.00301421 23.22154014 0.26274510 0.77254902 0.45490196
v -2.99999994 1.58873778 20.27954375 0.26274510 0.77254902 0.45490196
v -0.49667588 0.00301421 22.35636522 0.26274510 0.77254902 0.45490196
v -0.50019997 1.58873778 20.27954375 0.26274510 0.77254902 0.45490196
v -0.00006385 0.00301421 23.22154014 0.26274510 0.77254902 0.45490196
v -2.99999994 2.10797821 23.22154014 0.26274510 0.77254902 0.45490196
v -2.99999994 7.18997404 20.27954375 0.26274510 0.77254902 0.45490196
v -0.00006385 0.00301421 22.85289068 0.26274510 0.77254902 0.45490196
v -0.00006385 2.10477810 20.27954375 0.26274510 0.77254902 0.45490196
v -0.00006385 6.89475103 23.22154014 0.26274510 0.77254902 0.45490196
v -2.99999994 2.74722823 23.05823964 0.26274510 0.77254902 0.45490196
v -1.99972749 6.88835040 23.22154014 0.26274510 0.77254902 0.45490196
v -2.99999994 6.89395111 20.59779182 0.26274510 0.77254902 0.45490196
v -1.99855270 8.17565085 22.14611965 0.26274510 0.77254902 0.45490196
v -1.99972749 8.17565085 22.14208836 0.26274510 0.77254902 0.45490196
v -1.99972749 8.17565085 20.27954375 0.26274510 0.77254902 0.45490196
v -0.00006385 8.17565085 20.27954375 0.26274510 0.77254902 0.45490196
v -0.00006385 7.33718558 22.88053885 0.26274510 0.77254902 0.45490196
v -1.99796540 6.89475103 23.22154014 0.26274510 0.77254902 0.45490196
v -2.99999994 3.40727957 22.83820168 0.26274510 0.77254902 0.45490196
v -2.99999994 5.27062453 21.90534619 0.26274510 0.77254902 0.45490196
v -2.99999994 4.67217803 22.26045904 0.26274510 0.77254902 0.45490196
v -2.99999994 4.05052963 22.57208317 0.26274510 0.77254902 0.45490196
v -2.99999994 6.38431141 21.07185237 0.26274510 0.77254902 0.45490196
v -0.00006385 8.17565085 22.14611965 0.26274510 0.77254902 0.45490196
v -1.99972749 7.76361877 22.52254545 0.26274510 0.77254902 0.45490196
v -0.00006385 7.59320572 22.66568540 0.26274510 0.77254902 0.45490196
v -1.99972749 7.33718558 22.88053885 0.26274510 0.77254902 0.45490196
v -1.99972749 6.89395111 23.21779592 0.26274510 0.77254902 0.45490196
v -2.99999994 5.84266900 21.50875983 0.26274510 0.77254902 0.45490196
v -0.00006385 7.76361877 22.52254545 0.26274510 0.77254902 0.45490196
f 1 2 5
f 1 5 10
f 1 10 7
f 1 7 3
f 1 3 8
f 1 8 13
f 1 13 22
f 1 22 25
f 1 25 24
f 1 24 23
f 1 23 32
f 1 32 26
f 1 26 15
f 1 15 9
f 1 9 4
f 1 4 6
f 1 6 2
f 2 6 5
f 3 7 12
f 3 12 21
f 3 21 14
f 3 14 8
f 4 9 18
f 4 18 19
f 4 19 11
f 4 11 6
f 5 6 10
f 6 11 10
f 7 10 11
f 7 11 19
f 7 19 27
f 7 27 33
f 7 33 29
f 7 29 20
f 7 20 12
f 8 14 13
f 9 15 16
f 9 16 17
f 9 17 18
f 12 20 30
f 12 30 21
f 13 14 22
f 14 21 23
f 14 23 24
f 14 24 25
f 14 25 22
f 15 26 16
f 16 27 19
f 16 19 18
f 16 18 17
f 16 26 28
f 16 28 33
f 16 33 27
f 20 29 30
f 21 31 32
f 21 32 23
f 21 30 31
f 26 32 30
f 26 30 28
f 28 30 29
f 28 29 33
f 30 32 31

