# https://github.com/mikedh/trimesh
v 1.94232852 10.98895076 5.33084631 0.13725490 0.19607843 0.36862745
v 2.22480497 10.65572992 5.80523547 0.13725490 0.19607843 0.36862745
v 2.99999994 9.37952806 6.62592556 0.13725490 0.19607843 0.36862745
v 1.94937566 10.71048668 4.99874660 0.13725490 0.19607843 0.36862745
v 0.00022990 10.89842238 5.22269575 0.13725490 0.19607843 0.36862745
v 0.00022990 10.98895076 5.33084631 0.13725490 0.19607843 0.36862745
v 2.99999994 9.73558766 7.12462131 0.13725490 0.19607843 0.36862745
v 2.49494861 10.33599139 6.26105322 0.13725490 0.19607843 0.36862745
v 2.99999994 9.73283625 7.12025154 0.13725490 0.19607843 0.36862745
v 2.99999994 9.00117997 6.15044407 0.13725490 0.19607843 0.36862745
v 2.75305328 10.02835990 6.69911883 0.13725490 0.19607843 0.36862745
v 1.94937566 10.43202260 4.66691996 0.13725490 0.19607843 0.36862745
v 1.94232852 10.15355851 4.33482107 0.13725490 0.19607843 0.36862745
v 0.00022990 10.15355851 4.33482107 0.13725490 0.19607843 0.36862745
v 0.00022990 9.73558766 7.12462131 0.13725490 0.19607843 0.36862745
v 2.99999994 8.17817113 7.12462131 0.13725490 0.19607843 0.36862745
v 2.99999994 8.59861784 5.69544557 0.13725490 0.19607843 0.36862745
v 2.22480497 9.62799971 4.58061781 0.13725490 0.19607843 0.36862745
v 0.00022990 9.99699136 4.40801351 0.13725490 0.19607843 0.36862745
v 0.00022990 8.17817113 7.12462131 0.13725490 0.19607843 0.36862745
v 2.99999994 8.17817113 5.26666566 0.13725490 0.19607843 0.36862745
v 2.75305328 8.63934200 5.04326351 0.13725490 0.19607843 0.36862745
v 2.49494861 9.12390273 4.81658351 0.13725490 0.19607843 0.36862745
v 2.99706367 8.17817113 5.25901929 0.13725490 0.19607843 0.36862745
v 0.00022990 8.17817113 5.25901929 0.13725490 0.19607843 0.36862745
f 1 2 3
f 1 3 4
f 1 4 5
f 1 5 6
f 1 6 15
f 1 15 7
f 1 7 2
f 2 7 8
f 2 8 3
f 3 9 7
f 3 7 16
f 3 16 21
f 3 21 17
f 3 17 10
f 3 10 4
f 3 8 11
f 3 11 9
f 4 12 13
f 4 13 5
f 4 10 12
f 5 13 14
f 5 14 19
f 5 19 25
f 5 25 20
f 5 20 15
f 5 15 6
f 7 9 11
f 7 11 8
f 7 15 20
f 7 20 16
f 10 17 12
f 12 17 13
f 13 17 18
f 13 18 19
f 13 19 14
f 16 20 25
f 16 25 24
f 16 24 21
f 17 21 22
f 17 22 23
f 17 23 18
f 18 23 22
f 18 22 24
f 18 24 25
f 18 25 19
f 21 24 22

