# https://github.com/mikedh/trimesh
v -2.99964029 0.00350486 17.20315269 0.67843137 0.35686275 0.43529412
v 0.67645585 0.00350486 17.20315269 0.67843137 0.35686275 0.43529412
v -2.99964029 0.00350486 19.05323042 0.67843137 0.35686275 0.43529412
v -2.99964029 2.43169209 16.21244664 0.67843137 0.35686275 0.43529412
v 0.67645585 0.00350486 17.66972028 0.67843137 0.35686275 0.43529412
v 0.67645585 2.43169209 16.21244664 0.67843137 0.35686275 0.43529412
v -0.50008204 0.00350486 19.05323042 0.67843137 0.35686275 0.43529412
v -2.99964029 0.82710059 19.27542015 0.67843137 0.35686275 0.43529412
v -2.99964029 9.41547323 16.21244664 0.67843137 0.35686275 0.43529412
v -0.00017037 0.00350486 18.55337982 0.67843137 0.35686275 0.43529412
v 0.67645585 2.67180011 19.27542015 0.67843137 0.35686275 0.43529412
v 0.67645585 11.47575375 16.21244664 0.67843137 0.35686275 0.43529412
v -0.00017037 1.60035128 19.27542015 0.67843137 0.35686275 0.43529412
v -0.50008204 0.82710059 19.27542015 0.67843137 0.35686275 0.43529412
v -2.99964029 7.99289883 19.27542015 0.67843137 0.35686275 0.43529412
v -2.99964029 9.35480074 16.45022810 0.67843137 0.35686275 0.43529412
v -1.99981695 11.39700831 16.56027319 0.67843137 0.35686275 0.43529412
v -1.99981695 11.47575375 16.21244664 0.67843137 0.35686275 0.43529412
v 0.67645585 10.34234061 19.27542015 0.67843137 0.35686275 0.43529412
v 0.67645585 13.18878082 17.81214913 0.67843137 0.35686275 0.43529412
v -1.99981695 10.34234061 19.27542015 0.67843137 0.35686275 0.43529412
v -2.99964029 8.20202491 18.97436983 0.67843137 0.35686275 0.43529412
v -2.99964029 9.13405622 17.11049906 0.67843137 0.35686275 0.43529412
v -1.99981695 11.23435515 17.14588141 0.67843137 0.35686275 0.43529412
v -1.75292026 11.81913302 16.85532634 0.67843137 0.35686275 0.43529412
v -1.49450671 12.25804008 17.16177338 0.67843137 0.35686275 0.43529412
v -1.22493587 12.71372870 17.48051457 0.67843137 0.35686275 0.43529412
v -0.94276839 13.18878082 17.81214913 0.67843137 0.35686275 0.43529412
v 0.67645585 12.74471065 19.03374024 0.67843137 0.35686275 0.43529412
v 0.67645585 13.10616285 18.04003580 0.67843137 0.35686275 0.43529412
v -0.94276839 12.74471065 19.03374024 0.67843137 0.35686275 0.43529412
v -1.22493587 12.16767703 18.98246613 0.67843137 0.35686275 0.43529412
v -1.49450671 11.61258890 18.93329033 0.67843137 0.35686275 0.43529412
v -1.75292026 11.07944624 18.88591425 0.67843137 0.35686275 0.43529412
v -1.99981695 10.56695767 18.84063649 0.67843137 0.35686275 0.43529412
v -2.99964029 8.55702343 18.37586822 0.67843137 0.35686275 0.43529412
v -1.99981695 10.81868413 18.28741224 0.67843137 0.35686275 0.43529412
v -1.99981695 11.04071922 17.72219407 0.67843137 0.35686275 0.43529412
v -2.99964029 8.86813100 17.75337877 0.67843137 0.35686275 0.43529412
v -0.95068630 12.96674491 18.42294489 0.67843137 0.35686275 0.43529412
v 0.67645585 12.92543675 18.53718804 0.67843137 0.35686275 0.43529412
f 1 2 5
f 1 5 10
f 1 10 7
f 1 7 3
f 1 3 8
f 1 8 15
f 1 15 22
f 1 22 36
f 1 36 39
f 1 39 23
f 1 23 16
f 1 16 9
f 1 9 4
f 1 4 6
f 1 6 2
f 2 6 12
f 2 12 20
f 2 20 30
f 2 30 41
f 2 41 29
f 2 29 19
f 2 19 11
f 2 11 5
f 3 7 14
f 3 14 8
f 4 9 18
f 4 18 12
f 4 12 6
f 5 11 10
f 7 10 11
f 7 11 13
f 7 13 14
f 8 14 13
f 8 13 11
f 8 11 19
f 8 19 21
f 8 21 15
f 9 16 17
f 9 17 18
f 12 18 28
f 12 28 20
f 15 21 22
f 16 23 24
f 16 24 17
f 17 25 18
f 17 24 25
f 18 25 26
f 18 26 27
f 18 27 28
f 19 29 31
f 19 31 21
f 20 28 30
f 21 31 32
f 21 32 33
f 21 33 34
f 21 34 35
f 21 35 36
f 21 36 22
f 23 37 38
f 23 38 24
f 23 39 37
f 24 38 28
f 24 28 27
f 24 27 26
f 24 26 25
f 28 38 40
f 28 40 30
f 29 41 31
f 30 40 31
f 30 31 41
f 31 40 38
f 31 38 37
f 31 37 32
f 32 37 33
f 33 37 34
f 34 37 35
f 35 37 39
f 35 39 36

