# https://github.com/mikedh/trimesh
v 2.99999994 -8.17278017 6.73443065 0.64313725 0.42352941 0.60392157
v 2.99999994 -9.45721817 6.73443065 0.64313725 0.42352941 0.60392157
v 2.99999994 -8.17278017 5.26192041 0.64313725 0.42352941 0.60392157
v 0.00022990 -8.17278017 6.73443065 0.64313725 0.42352941 0.60392157
v 2.77360763 -10.00363504 6.73443065 0.64313725 0.42352941 0.60392157
v 2.75305328 -10.02844709 6.69896254 0.64313725 0.42352941 0.60392157
v 2.99999994 -9.37974932 6.62591240 0.64313725 0.42352941 0.60392157
v 2.99999994 -8.17305573 5.26145073 0.64313725 0.42352941 0.60392157
v 2.99706367 -8.17278017 5.26121631 0.64313725 0.42352941 0.60392157
v 0.00022990 -8.17278017 5.26121631 0.64313725 0.42352941 0.60392157
v 0.00022990 -10.00363504 6.73443065 0.64313725 0.42352941 0.60392157
v 2.22480497 -10.65591664 5.80545015 0.64313725 0.42352941 0.60392157
v 2.49494861 -10.33584087 6.26113219 0.64313725 0.42352941 0.60392157
v 0.00022990 -10.15554002 6.51809908 0.64313725 0.42352941 0.60392157
v 0.00022990 -10.88997732 5.47214459 0.64313725 0.42352941 0.60392157
v 1.94232852 -10.98922549 5.33074267 0.64313725 0.42352941 0.60392157
v 1.94937566 -10.71050313 4.99884695 0.64313725 0.42352941 0.60392157
v 2.99999994 -9.00122768 6.15026475 0.64313725 0.42352941 0.60392157
v 2.99999994 -8.59872066 5.69505322 0.64313725 0.42352941 0.60392157
v 2.75305328 -8.63924658 5.04324048 0.64313725 0.42352941 0.60392157
v 2.22480497 -9.62786975 4.58074695 0.64313725 0.42352941 0.60392157
v 0.00022990 -9.99701850 4.40810482 0.64313725 0.42352941 0.60392157
v 0.00022990 -10.98922549 5.33074267 0.64313725 0.42352941 0.60392157
v 1.94937566 -10.43205714 4.66695040 0.64313725 0.42352941 0.60392157
v 0.00022990 -10.24431227 4.44310325 0.64313725 0.42352941 0.60392157
v 1.94232852 -10.15333478 4.33505467 0.64313725 0.42352941 0.60392157
v 2.49494861 -9.12390931 4.81657364 0.64313725 0.42352941 0.60392157
v 0.00022990 -10.15333478 4.33505467 0.64313725 0.42352941 0.60392157
f 1 2 7
f 1 7 18
f 1 18 19
f 1 19 8
f 1 8 3
f 1 3 9
f 1 9 10
f 1 10 4
f 1 4 11
f 1 11 5
f 1 5 2
f 2 5 6
f 2 6 7
f 3 8 9
f 4 10 22
f 4 22 28
f 4 28 25
f 4 25 23
f 4 23 15
f 4 15 14
f 4 14 11
f 5 12 13
f 5 13 6
f 5 11 14
f 5 14 15
f 5 15 12
f 6 13 7
f 7 13 12
f 7 12 16
f 7 16 17
f 7 17 18
f 8 19 20
f 8 20 9
f 9 20 21
f 9 21 22
f 9 22 10
f 12 15 16
f 15 23 16
f 16 24 17
f 16 23 25
f 16 25 24
f 17 24 18
f 18 24 19
f 19 24 26
f 19 26 21
f 19 21 27
f 19 27 20
f 20 27 21
f 21 26 22
f 22 26 28
f 24 25 26
f 25 28 26

