# https://github.com/mikedh/trimesh
v -2.99999994 -9.66902081 14.91835681 0.30980392 0.39607843 0.20784314
v -1.99972749 -11.68697650 14.91835681 0.30980392 0.39607843 0.20784314
v -2.99999994 -9.65056786 15.09085778 0.30980392 0.39607843 0.20784314
v -2.99999994 -8.11001348 14.91835681 0.30980392 0.39607843 0.20784314
v -0.00006385 -11.68697650 14.91835681 0.30980392 0.39607843 0.20784314
v -1.99972749 -11.61647871 15.46889823 0.30980392 0.39607843 0.20784314
v -2.99999994 -9.52707766 15.77568497 0.30980392 0.39607843 0.20784314
v -1.99972749 -11.51948431 16.01700358 0.30980392 0.39607843 0.20784314
v -2.99999994 -6.85381836 15.34039792 0.30980392 0.39607843 0.20784314
v -0.50019997 -8.11001348 14.91835681 0.30980392 0.39607843 0.20784314
v -0.00006385 -11.61647871 15.46889823 0.30980392 0.39607843 0.20784314
v -0.00006385 -8.76673681 14.91835681 0.30980392 0.39607843 0.20784314
v -2.99999994 -9.35485338 16.45000684 0.30980392 0.39607843 0.20784314
v -1.99972749 -11.41681189 16.47360583 0.30980392 0.39607843 0.20784314
v -0.00006385 -11.51948431 16.01700358 0.30980392 0.39607843 0.20784314
v -0.00006385 -11.45797528 16.29090398 0.30980392 0.39607843 0.20784314
v -2.99999994 -6.85381836 16.47360583 0.30980392 0.39607843 0.20784314
v -0.50019997 -6.85381836 15.34039792 0.30980392 0.39607843 0.20784314
v -0.00006385 -6.85381836 15.84221892 0.30980392 0.39607843 0.20784314
v -2.99999994 -9.34681054 16.47360583 0.30980392 0.39607843 0.20784314
v -0.00006385 -11.41681189 16.47360583 0.30980392 0.39607843 0.20784314
v -0.00006385 -6.85381836 16.47360583 0.30980392 0.39607843 0.20784314
f 1 2 3
f 1 3 7
f 1 7 13
f 1 13 20
f 1 20 17
f 1 17 9
f 1 9 4
f 1 4 10
f 1 10 12
f 1 12 5
f 1 5 2
f 2 5 11
f 2 11 6
f 2 6 3
f 3 6 8
f 3 8 7
f 4 9 18
f 4 18 10
f 5 12 19
f 5 19 22
f 5 22 21
f 5 21 16
f 5 16 15
f 5 15 11
f 6 11 15
f 6 15 8
f 7 8 14
f 7 14 13
f 8 15 16
f 8 16 14
f 9 17 22
f 9 22 19
f 9 19 18
f 10 18 12
f 12 18 19
f 13 14 20
f 14 16 21
f 14 21 22
f 14 22 17
f 14 17 20

