# https://github.com/mikedh/trimesh
v 2.99999994 4.25931189 24.65347263 0.77647059 0.86666667 0.97647059
v 2.99999994 3.75592764 24.83655779 0.77647059 0.86666667 0.97647059
v 2.99999994 4.25931189 23.22154096 0.77647059 0.86666667 0.97647059
v -1.99980420 4.25931189 24.65347263 0.77647059 0.86666667 0.97647059
v 2.99999994 3.22712432 25.00100410 0.77647059 0.86666667 0.97647059
v -1.99980420 3.75592764 24.83655779 0.77647059 0.86666667 0.97647059
v 2.99999994 1.88823884 23.22154096 0.77647059 0.86666667 0.97647059
v -1.99980420 4.25931189 23.22154096 0.77647059 0.86666667 0.97647059
v -2.99999994 2.10742751 23.22154096 0.77647059 0.86666667 0.97647059
v 2.99999994 0.00221470 25.00100410 0.77647059 0.86666667 0.97647059
v -1.99980420 3.22712432 25.00100410 0.77647059 0.86666667 0.97647059
v 2.99999994 0.00221470 23.85319315 0.77647059 0.86666667 0.97647059
v 0.00000000 0.00221470 23.22154096 0.77647059 0.86666667 0.97647059
v -2.99999994 0.00221470 23.22154096 0.77647059 0.86666667 0.97647059
v -2.99999994 2.07284077 23.23042444 0.77647059 0.86666667 0.97647059
v -1.99980420 0.00221470 25.00100410 0.77647059 0.86666667 0.97647059
v -2.99999994 1.38777154 23.35410711 0.77647059 0.86666667 0.97647059
v -2.99999994 0.69561815 23.42849142 0.77647059 0.86666667 0.97647059
v -2.99999994 0.00221470 23.45322779 0.77647059 0.86666667 0.97647059
f 1 2 5
f 1 5 10
f 1 10 12
f 1 12 7
f 1 7 3
f 1 3 8
f 1 8 4
f 1 4 6
f 1 6 2
f 2 6 11
f 2 11 5
f 3 7 13
f 3 13 14
f 3 14 9
f 3 9 8
f 4 8 9
f 4 9 6
f 5 11 16
f 5 16 10
f 6 9 11
f 7 12 13
f 9 14 19
f 9 19 18
f 9 18 17
f 9 17 15
f 9 15 11
f 10 16 19
f 10 19 14
f 10 14 13
f 10 13 12
f 11 15 17
f 11 17 18
f 11 18 19
f 11 19 16

