# https://github.com/mikedh/trimesh
v -2.99999974 -9.55129007 11.76806397 0.00392157 0.67450980 0.26666667
v -2.99999974 -9.52685722 11.63055084 0.00392157 0.67450980 0.26666667
v -1.99953193 -11.58672647 11.76806397 0.00392157 0.67450980 0.26666667
v -2.99999974 -2.91309713 11.76806397 0.00392157 0.67450980 0.26666667
v -2.99999974 -9.35488792 10.95641528 0.00392157 0.67450980 0.26666667
v -1.99953193 -11.39690303 10.84631281 0.00392157 0.67450980 0.26666667
v -1.99953193 -11.51906728 11.38919028 0.00392157 0.67450980 0.26666667
v -1.98484932 -11.42227522 10.82856026 0.00392157 0.67450980 0.26666667
v -0.00006406 -11.58672647 11.76806397 0.00392157 0.67450980 0.26666667
v -0.00006406 -2.91309713 11.76806397 0.00392157 0.67450980 0.26666667
v -2.99999974 -1.98653162 10.82856026 0.00392157 0.67450980 0.26666667
v -2.99999974 -9.31166076 10.82856026 0.00392157 0.67450980 0.26666667
v -0.00006406 -11.42227522 10.82856026 0.00392157 0.67450980 0.26666667
v -0.00006406 -1.98653162 10.82856026 0.00392157 0.67450980 0.26666667
f 1 2 3
f 1 3 9
f 1 9 10
f 1 10 4
f 1 4 11
f 1 11 12
f 1 12 5
f 1 5 2
f 2 5 6
f 2 6 7
f 2 7 3
f 3 7 8
f 3 8 13
f 3 13 9
f 4 10 14
f 4 14 11
f 5 12 8
f 5 8 6
f 6 8 7
f 8 12 11
f 8 11 14
f 8 14 13
f 9 13 14
f 9 14 10

