# https://github.com/mikedh/trimesh
v 2.99999974 0.00189884 1.95645863 0.58823529 0.57254902 0.65098039
v 2.99999974 0.00158299 2.40178237 0.58823529 0.57254902 0.65098039
v 2.99999974 -0.27855292 1.95645863 0.58823529 0.57254902 0.65098039
v 1.94234517 -1.75597806 0.00000045 0.58823529 0.57254902 0.65098039
v -1.99999996 0.00189884 1.95645863 0.58823529 0.57254902 0.65098039
v 1.21701241 0.00189884 2.40178237 0.58823529 0.57254902 0.65098039
v 2.99999974 -3.21540142 2.40178237 0.58823529 0.57254902 0.65098039
v 2.99999974 -0.83471920 1.98279238 0.58823529 0.57254902 0.65098039
v 2.75283839 -1.05169030 1.51607345 0.58823529 0.57254902 0.65098039
v 2.49490995 -1.27718871 1.03101426 0.58823529 0.57254902 0.65098039
v 2.22474533 -1.51184605 0.52620577 0.58823529 0.57254902 0.65098039
v 2.99999974 -1.43952231 2.04157385 0.58823529 0.57254902 0.65098039
v 1.94919717 -2.18265657 0.07547463 0.58823529 0.57254902 0.65098039
v 1.94919717 -2.60965074 0.15071357 0.58823529 0.57254902 0.65098039
v 1.94234517 -3.03632904 0.22595332 0.58823529 0.57254902 0.65098039
v -0.94234519 -1.75597806 0.00000045 0.58823529 0.57254902 0.65098039
v -1.99999996 -0.27855292 1.95645863 0.58823529 0.57254902 0.65098039
v -1.99999996 0.00189884 2.40178237 0.58823529 0.57254902 0.65098039
v 2.99853150 -3.22424439 2.40178237 0.58823529 0.57254902 0.65098039
v 2.75283839 -3.18002914 1.89132959 0.58823529 0.57254902 0.65098039
v 2.99999974 -2.63586398 2.25247910 0.58823529 0.57254902 0.65098039
v 2.99999974 -2.04021990 2.13162598 0.58823529 0.57254902 0.65098039
v 2.22474533 -3.08622909 0.80388597 0.58823529 0.57254902 0.65098039
v -1.22474535 -3.08622909 0.80365073 0.58823529 0.57254902 0.65098039
v -0.94234519 -3.03632904 0.22595332 0.58823529 0.57254902 0.65098039
v -0.95017612 -2.39615366 0.11309451 0.58823529 0.57254902 0.65098039
v -1.99999996 -2.04021990 2.13162598 0.58823529 0.57254902 0.65098039
v -1.99999996 -1.43952231 2.04157385 0.58823529 0.57254902 0.65098039
v -1.22474535 -1.51184605 0.52597053 0.58823529 0.57254902 0.65098039
v -1.49442045 -1.27718871 1.03077983 0.58823529 0.57254902 0.65098039
v -1.75283862 -1.05169030 1.51583820 0.58823529 0.57254902 0.65098039
v -1.99999996 -0.83471920 1.98279238 0.58823529 0.57254902 0.65098039
v -1.99999996 -3.21540142 2.40178237 0.58823529 0.57254902 0.65098039
v -1.99853131 -3.22424439 2.40178237 0.58823529 0.57254902 0.65098039
v 2.49490995 -3.13391856 1.35830620 0.58823529 0.57254902 0.65098039
v -1.75283862 -3.18002914 1.89109517 0.58823529 0.57254902 0.65098039
v -1.49442045 -3.13391856 1.35807095 0.58823529 0.57254902 0.65098039
v -1.99999996 -2.63586398 2.25247910 0.58823529 0.57254902 0.65098039
f 1 2 7
f 1 7 21
f 1 21 22
f 1 22 12
f 1 12 8
f 1 8 3
f 1 3 4
f 1 4 16
f 1 16 5
f 1 5 18
f 1 18 6
f 1 6 2
f 2 6 18
f 2 18 33
f 2 33 34
f 2 34 19
f 2 19 7
f 3 8 9
f 3 9 10
f 3 10 11
f 3 11 4
f 4 11 12
f 4 12 13
f 4 13 14
f 4 14 15
f 4 15 25
f 4 25 16
f 5 16 17
f 5 17 32
f 5 32 28
f 5 28 27
f 5 27 38
f 5 38 33
f 5 33 18
f 7 19 20
f 7 20 21
f 8 12 9
f 9 12 10
f 10 12 11
f 12 22 13
f 13 22 14
f 14 22 21
f 14 21 15
f 15 21 23
f 15 23 19
f 15 19 24
f 15 24 25
f 16 25 26
f 16 26 27
f 16 27 28
f 16 28 29
f 16 29 17
f 17 29 30
f 17 30 31
f 17 31 32
f 19 23 20
f 19 34 24
f 20 23 35
f 20 35 21
f 21 35 23
f 24 34 36
f 24 36 37
f 24 37 38
f 24 38 25
f 25 38 27
f 25 27 26
f 28 32 31
f 28 31 30
f 28 30 29
f 33 38 36
f 33 36 34
f 36 38 37

