# https://github.com/mikedh/trimesh
v 1.94234517 7.46291638 25.32932423 0.54509804 0.71372549 0.60000000
v 1.94234517 6.33682553 25.97936850 0.54509804 0.71372549 0.60000000
v 1.94919717 6.71218901 25.76259687 0.54509804 0.71372549 0.60000000
v 1.94919717 7.08755249 25.54582524 0.54509804 0.71372549 0.60000000
v 2.99999974 6.39327139 23.56167940 0.54509804 0.71372549 0.60000000
v 2.22474533 7.31208071 24.76917416 0.54509804 0.71372549 0.60000000
v -0.94234519 7.46291638 25.32932423 0.54509804 0.71372549 0.60000000
v 2.99999974 4.25931189 24.65336488 0.54509804 0.71372549 0.60000000
v 2.99999974 4.27938155 24.64607550 0.54509804 0.71372549 0.60000000
v 2.22474533 5.92728082 25.56850114 0.54509804 0.71372549 0.60000000
v 2.99999974 5.34118688 24.16934045 0.54509804 0.71372549 0.60000000
v -0.94234519 6.33682553 25.97936850 0.54509804 0.71372549 0.60000000
v 2.99999974 5.87491190 23.87914277 0.54509804 0.71372549 0.60000000
v 2.99999974 6.88905203 23.22180994 0.54509804 0.71372549 0.60000000
v 2.75283839 7.02797151 23.71501150 0.54509804 0.71372549 0.60000000
v 2.49490995 7.16720355 24.23169998 0.54509804 0.71372549 0.60000000
v 2.99804208 6.89532393 23.22180994 0.54509804 0.71372549 0.60000000
v -1.75283862 7.02828490 23.71528129 0.54509804 0.71372549 0.60000000
v -1.22474535 7.31208071 24.76944395 0.54509804 0.71372549 0.60000000
v -1.99999996 6.39327139 23.56167940 0.54509804 0.71372549 0.60000000
v -1.99999996 5.87491190 23.87914277 0.54509804 0.71372549 0.60000000
v -0.95017612 6.89971426 25.65434595 0.54509804 0.71372549 0.60000000
v -1.99999996 4.25931189 24.65336488 0.54509804 0.71372549 0.60000000
v 2.99999974 4.25931189 23.22180994 0.54509804 0.71372549 0.60000000
v 2.99999974 4.79303691 24.43146387 0.54509804 0.71372549 0.60000000
v 2.75283839 5.15648419 24.79562882 0.54509804 0.71372549 0.60000000
v 2.49490995 5.53435643 25.17437172 0.54509804 0.71372549 0.60000000
v -1.99999996 5.34118688 24.16934045 0.54509804 0.71372549 0.60000000
v -1.22474535 5.92728082 25.56877093 0.54509804 0.71372549 0.60000000
v -1.99999996 4.27938155 24.64607550 0.54509804 0.71372549 0.60000000
v -1.99804190 6.89532393 23.22180994 0.54509804 0.71372549 0.60000000
v -1.99999996 6.88905203 23.22180994 0.54509804 0.71372549 0.60000000
v -1.49442045 7.16720355 24.23196978 0.54509804 0.71372549 0.60000000
v -1.99999996 4.25931189 23.22180994 0.54509804 0.71372549 0.60000000
v -1.99999996 4.79303691 24.43146387 0.54509804 0.71372549 0.60000000
v -1.75283862 5.15648419 24.79562882 0.54509804 0.71372549 0.60000000
v -1.49442045 5.53467023 25.17464152 0.54509804 0.71372549 0.60000000
f 1 2 3
f 1 3 4
f 1 4 5
f 1 5 6
f 1 6 7
f 1 7 12
f 1 12 2
f 2 8 9
f 2 9 10
f 2 10 11
f 2 11 3
f 2 12 23
f 2 23 8
f 3 11 13
f 3 13 4
f 4 13 5
f 5 14 15
f 5 15 16
f 5 16 6
f 5 13 11
f 5 11 25
f 5 25 9
f 5 9 8
f 5 8 24
f 5 24 14
f 6 16 17
f 6 17 18
f 6 18 7
f 7 18 19
f 7 19 20
f 7 20 21
f 7 21 22
f 7 22 12
f 8 23 34
f 8 34 24
f 9 25 26
f 9 26 27
f 9 27 10
f 10 27 11
f 11 27 26
f 11 26 25
f 12 22 21
f 12 21 28
f 12 28 29
f 12 29 30
f 12 30 23
f 14 24 34
f 14 34 32
f 14 32 31
f 14 31 17
f 14 17 15
f 15 17 16
f 17 31 18
f 18 31 32
f 18 32 20
f 18 20 33
f 18 33 19
f 19 33 20
f 20 32 34
f 20 34 23
f 20 23 30
f 20 30 35
f 20 35 28
f 20 28 21
f 28 35 36
f 28 36 37
f 28 37 29
f 29 37 30
f 30 37 36
f 30 36 35

