# https://github.com/mikedh/trimesh
v 0.00022990 1.62942883 23.22154014 0.11764706 0.63921569 0.14117647
v 0.00022990 2.96719565 20.27954375 0.11764706 0.63921569 0.14117647
v 2.99999994 3.11583636 20.27954375 0.11764706 0.63921569 0.14117647
v 2.99999994 1.88826886 23.22154014 0.11764706 0.63921569 0.14117647
v 0.00022990 6.89528363 23.22154014 0.11764706 0.63921569 0.14117647
v 0.00022990 8.17474770 20.27954375 0.11764706 0.63921569 0.14117647
v 2.99999994 8.17474770 20.27954375 0.11764706 0.63921569 0.14117647
v 2.99999994 6.88887683 23.22154014 0.11764706 0.63921569 0.14117647
v 2.99794461 6.89528363 23.22154014 0.11764706 0.63921569 0.14117647
v 0.00022990 7.33736160 22.88053885 0.11764706 0.63921569 0.14117647
v 0.00022990 8.17474770 22.14583176 0.11764706 0.63921569 0.14117647
v 2.99999994 8.17474770 22.14323992 0.11764706 0.63921569 0.14117647
v 2.99999994 6.89400210 23.21779592 0.11764706 0.63921569 0.14117647
v 2.99999994 7.33736160 22.88053885 0.11764706 0.63921569 0.14117647
v 0.00022990 7.76342300 22.52254545 0.11764706 0.63921569 0.14117647
v 2.99882535 8.17474770 22.14583176 0.11764706 0.63921569 0.14117647
v 2.99999994 7.76342300 22.52254545 0.11764706 0.63921569 0.14117647
f 1 2 3
f 1 3 4
f 1 4 8
f 1 8 9
f 1 9 5
f 1 5 10
f 1 10 15
f 1 15 11
f 1 11 6
f 1 6 2
f 2 6 7
f 2 7 3
f 3 7 12
f 3 12 17
f 3 17 14
f 3 14 13
f 3 13 8
f 3 8 4
f 5 9 14
f 5 14 10
f 6 11 16
f 6 16 12
f 6 12 7
f 8 13 9
f 9 13 14
f 10 14 17
f 10 17 15
f 11 15 17
f 11 17 16
f 12 16 17

