# https://github.com/mikedh/trimesh
v 0.00022990 9.74301523 12.48841129 0.80392157 0.56862745 0.40392157
v 0.00022990 9.99558398 13.70101939 0.80392157 0.56862745 0.40392157
v 0.00022990 11.68731785 12.48841129 0.80392157 0.56862745 0.40392157
v 2.99999994 9.90027415 12.48841129 0.80392157 0.56862745 0.40392157
v 2.99999994 10.14410666 13.70101939 0.80392157 0.56862745 0.40392157
v 0.00022990 13.79960372 13.70101939 0.80392157 0.56862745 0.40392157
v 2.99999994 11.68731785 12.48841129 0.80392157 0.56862745 0.40392157
v 0.00022990 13.79960372 13.05329012 0.80392157 0.56862745 0.40392157
v 2.99999994 11.75006316 13.70101939 0.80392157 0.56862745 0.40392157
v 1.94937566 13.79960372 13.70101939 0.80392157 0.56862745 0.40392157
v 1.94232852 13.79960372 13.05329012 0.80392157 0.56862745 0.40392157
v 2.22480497 13.23926611 12.90385066 0.80392157 0.56862745 0.40392157
v 2.49494861 12.70116763 12.76034602 0.80392157 0.56862745 0.40392157
v 2.75305328 12.18411640 12.62242018 0.80392157 0.56862745 0.40392157
v 2.99999994 11.73457548 13.09566492 0.80392157 0.56862745 0.40392157
v 1.94937566 13.79960372 13.48641529 0.80392157 0.56862745 0.40392157
f 1 2 6
f 1 6 8
f 1 8 3
f 1 3 7
f 1 7 4
f 1 4 5
f 1 5 2
f 2 5 9
f 2 9 10
f 2 10 6
f 3 8 11
f 3 11 7
f 4 7 15
f 4 15 9
f 4 9 5
f 6 10 16
f 6 16 11
f 6 11 8
f 7 11 12
f 7 12 13
f 7 13 14
f 7 14 15
f 9 15 16
f 9 16 10
f 11 16 15
f 11 15 12
f 12 15 13
f 13 15 14

