# https://github.com/mikedh/trimesh
v 2.99977272 10.34234061 19.27542015 0.61176471 0.61568627 0.94117647
v 2.99977272 10.56695767 18.84063649 0.61176471 0.61568627 0.94117647
v 2.75303663 11.07944624 18.88591425 0.61176471 0.61568627 0.94117647
v 2.49493030 11.61258890 18.93329033 0.61176471 0.61568627 0.94117647
v 2.22499888 12.16638646 18.98246613 0.61176471 0.61568627 0.94117647
v 1.94256006 12.74471065 19.03374024 0.61176471 0.61568627 0.94117647
v 0.67681572 10.34234061 19.27542015 0.61176471 0.61568627 0.94117647
v 2.99977272 2.80347215 19.27542015 0.61176471 0.61568627 0.94117647
v 2.99977272 10.81868413 18.28741224 0.61176471 0.61568627 0.94117647
v 1.94938224 12.89316423 18.62654348 0.61176471 0.61568627 0.94117647
v 0.67681572 12.74471065 19.03374024 0.61176471 0.61568627 0.94117647
v 0.67681572 2.67180011 19.27542015 0.61176471 0.61568627 0.94117647
v 0.67681572 0.00350486 17.66972028 0.61176471 0.61568627 0.94117647
v 2.99977272 0.00350486 17.55337840 0.61176471 0.61568627 0.94117647
v 2.99977272 11.04071922 17.72219407 0.61176471 0.61568627 0.94117647
v 1.94938224 13.04161781 18.21934631 0.61176471 0.61568627 0.94117647
v 0.67681572 12.92543675 18.53718804 0.61176471 0.61568627 0.94117647
v 0.67681572 0.00350486 17.20315269 0.61176471 0.61568627 0.94117647
v 2.99977272 0.00350486 17.20315269 0.61176471 0.61568627 0.94117647
v 2.99977272 11.23435515 17.14588141 0.61176471 0.61568627 0.94117647
v 1.94256006 13.18878082 17.81214913 0.61176471 0.61568627 0.94117647
v 0.67681572 13.18878082 17.81214913 0.61176471 0.61568627 0.94117647
v 0.67681572 13.10616285 18.04003580 0.61176471 0.61568627 0.94117647
v 0.67681572 2.43169209 16.21244664 0.61176471 0.61568627 0.94117647
v 2.99977272 2.43169209 16.21244664 0.61176471 0.61568627 0.94117647
v 2.99977272 11.39700831 16.56027319 0.61176471 0.61568627 0.94117647
v 2.75303663 11.81913302 16.85502632 0.61176471 0.61568627 0.94117647
v 2.49493030 12.25674951 17.16147356 0.61176471 0.61568627 0.94117647
v 2.22499888 12.71372870 17.48021475 0.61176471 0.61568627 0.94117647
v 2.99977272 11.47575375 16.21244664 0.61176471 0.61568627 0.94117647
v 0.67681572 11.47575375 16.21244664 0.61176471 0.61568627 0.94117647
f 1 2 3
f 1 3 4
f 1 4 5
f 1 5 6
f 1 6 11
f 1 11 7
f 1 7 12
f 1 12 8
f 1 8 14
f 1 14 19
f 1 19 25
f 1 25 30
f 1 30 26
f 1 26 20
f 1 20 15
f 1 15 9
f 1 9 2
f 2 9 3
f 3 9 4
f 4 9 5
f 5 9 6
f 6 9 10
f 6 10 16
f 6 16 11
f 7 11 17
f 7 17 23
f 7 23 22
f 7 22 31
f 7 31 24
f 7 24 18
f 7 18 13
f 7 13 12
f 8 12 13
f 8 13 14
f 9 15 10
f 10 15 16
f 11 16 17
f 13 18 19
f 13 19 14
f 15 20 16
f 16 21 22
f 16 22 23
f 16 23 17
f 16 20 21
f 18 24 25
f 18 25 19
f 20 26 27
f 20 27 28
f 20 28 29
f 20 29 21
f 21 29 30
f 21 30 31
f 21 31 22
f 24 31 30
f 24 30 25
f 26 30 27
f 27 30 28
f 28 30 29

