# https://github.com/mikedh/trimesh
v 0.42386880 1.86082591 9.07760999 0.72941176 0.16862745 0.51764706
v 0.42386880 2.51516674 8.37216738 0.72941176 0.16862745 0.51764706
v 2.99999994 2.67002712 8.37216738 0.72941176 0.16862745 0.51764706
v 2.99999994 2.06258076 9.07760999 0.72941176 0.16862745 0.51764706
v 0.42386880 13.00206907 9.07760999 0.72941176 0.16862745 0.51764706
v 0.42386880 10.46649871 8.37216738 0.72941176 0.16862745 0.51764706
v 2.99999994 10.46649871 8.37216738 0.72941176 0.16862745 0.51764706
v 2.99999994 10.79912156 9.07760999 0.72941176 0.16862745 0.51764706
v 1.94937217 13.00206907 9.07760999 0.72941176 0.16862745 0.51764706
v 0.42386880 12.74469502 8.37258153 0.72941176 0.16862745 0.51764706
v 1.94256294 12.74469502 8.37258153 0.72941176 0.16862745 0.51764706
v 2.22501698 12.16669409 8.42381862 0.72941176 0.16862745 0.51764706
v 2.49486142 11.61268596 8.47305323 0.72941176 0.16862745 0.51764706
v 2.75285279 11.07939771 8.52028536 0.72941176 0.16862745 0.51764706
v 2.99999994 10.56683100 8.56579138 0.72941176 0.16862745 0.51764706
v 2.98285093 10.83620103 9.07760999 0.72941176 0.16862745 0.51764706
v 2.29537822 12.28338514 9.07760999 0.72941176 0.16862745 0.51764706
v 1.94937217 12.89301206 8.77971660 0.72941176 0.16862745 0.51764706
v 2.87188685 11.07176368 9.07760999 0.72941176 0.16862745 0.51764706
v 2.95384884 10.89836398 9.07760999 0.72941176 0.16862745 0.51764706
f 1 2 3
f 1 3 4
f 1 4 8
f 1 8 16
f 1 16 20
f 1 20 19
f 1 19 17
f 1 17 9
f 1 9 5
f 1 5 10
f 1 10 6
f 1 6 2
f 2 6 7
f 2 7 3
f 3 7 15
f 3 15 8
f 3 8 4
f 5 9 11
f 5 11 10
f 6 10 11
f 6 11 7
f 7 11 12
f 7 12 13
f 7 13 14
f 7 14 15
f 8 15 16
f 9 17 18
f 9 18 11
f 11 18 19
f 11 19 20
f 11 20 12
f 12 20 13
f 13 20 16
f 13 16 14
f 14 16 15
f 17 19 18

