# https://github.com/mikedh/trimesh
v -2.99999974 -9.73713158 13.34058606 0.69411765 0.37647059 0.17647059
v -2.99999974 -8.60564895 13.34058606 0.69411765 0.37647059 0.17647059
v -2.99999974 -9.72557236 13.00752618 0.69411765 0.37647059 0.17647059
v -1.99953193 -11.73354730 13.09556235 0.69411765 0.37647059 0.17647059
v -1.99953193 -11.74034727 13.34058606 0.69411765 0.37647059 0.17647059
v -0.50044488 -8.60564895 13.34058606 0.69411765 0.37647059 0.17647059
v -2.99999974 -6.85402523 12.06621647 0.69411765 0.37647059 0.17647059
v -2.99999974 -9.66369401 12.42928867 0.69411765 0.37647059 0.17647059
v -1.99953193 -11.68662856 12.48992888 0.69411765 0.37647059 0.17647059
v -1.75257150 -12.18369279 12.62244485 0.69411765 0.37647059 0.17647059
v -1.49503993 -12.70115529 12.76034766 0.69411765 0.37647059 0.17647059
v -1.22517493 -13.23901853 12.90363731 0.69411765 0.37647059 0.17647059
v -0.94297649 -13.80000019 13.05308335 0.69411765 0.37647059 0.17647059
v -1.41046851 -12.89291006 13.34058606 0.69411765 0.37647059 0.17647059
v -0.50044488 -6.85402523 12.06621647 0.69411765 0.37647059 0.17647059
v -0.00006406 -9.11427239 13.34058606 0.69411765 0.37647059 0.17647059
v -2.99999974 -6.85402523 11.76824781 0.69411765 0.37647059 0.17647059
v -2.99999974 -9.65077514 12.31570355 0.69411765 0.37647059 0.17647059
v -1.99953193 -11.61591116 11.93770197 0.69411765 0.37647059 0.17647059
v -0.00006406 -13.80000019 13.05308335 0.69411765 0.37647059 0.17647059
v -0.94650027 -13.80000019 13.34058606 0.69411765 0.37647059 0.17647059
v -1.99953193 -11.58599194 11.76824781 0.69411765 0.37647059 0.17647059
v -0.20444488 -6.85402523 11.76824781 0.69411765 0.37647059 0.17647059
v -0.00006406 -7.93722986 11.76824781 0.69411765 0.37647059 0.17647059
v -0.00006406 -13.80000019 13.34058606 0.69411765 0.37647059 0.17647059
v -2.99999974 -9.55217760 11.76824781 0.69411765 0.37647059 0.17647059
v -0.00006406 -11.58599194 11.76824781 0.69411765 0.37647059 0.17647059
f 1 2 7
f 1 7 17
f 1 17 26
f 1 26 18
f 1 18 8
f 1 8 3
f 1 3 4
f 1 4 5
f 1 5 14
f 1 14 21
f 1 21 25
f 1 25 16
f 1 16 6
f 1 6 2
f 2 6 15
f 2 15 7
f 3 8 9
f 3 9 4
f 4 10 11
f 4 11 12
f 4 12 13
f 4 13 5
f 4 9 10
f 5 13 14
f 6 16 15
f 7 15 23
f 7 23 17
f 8 18 9
f 9 19 10
f 9 18 19
f 10 19 11
f 11 19 12
f 12 19 13
f 13 20 25
f 13 25 21
f 13 21 14
f 13 19 22
f 13 22 27
f 13 27 20
f 15 16 23
f 16 24 23
f 16 25 20
f 16 20 27
f 16 27 24
f 17 23 24
f 17 24 27
f 17 27 22
f 17 22 26
f 18 26 22
f 18 22 19

