# https://github.com/mikedh/trimesh
v 0.26498341 -5.82829504 16.47360583 0.56470588 0.26274510 0.52156863
v 0.26498341 -4.03688362 14.22033076 0.56470588 0.26274510 0.52156863
v 2.99999994 -3.89674267 14.22033076 0.56470588 0.26274510 0.52156863
v 2.99999994 -5.50347278 16.47360583 0.56470588 0.26274510 0.52156863
v 0.26498341 -2.12923131 16.47360583 0.56470588 0.26274510 0.52156863
v 0.26498341 -3.46183563 14.22033076 0.56470588 0.26274510 0.52156863
v 2.99999994 -3.46183563 14.22033076 0.56470588 0.26274510 0.52156863
v 2.99999994 -2.12923131 16.47360583 0.56470588 0.26274510 0.52156863
f 1 2 3
f 1 3 4
f 1 4 8
f 1 8 5
f 1 5 6
f 1 6 2
f 2 6 7
f 2 7 3
f 3 7 8
f 3 8 4
f 5 8 7
f 5 7 6

