# https://github.com/mikedh/trimesh
v 2.99999994 0.00221470 3.55328654 0.13333333 0.29803922 0.56862745
v 0.00053525 0.00174482 3.86214939 0.13333333 0.29803922 0.56862745
v 2.99999994 -1.34604275 3.86214939 0.13333333 0.29803922 0.56862745
v 2.99999994 0.00221470 3.54042278 0.13333333 0.29803922 0.56862745
v -0.06096886 0.00221470 3.86214939 0.13333333 0.29803922 0.56862745
v 2.99999994 -4.79701802 3.86214939 0.13333333 0.29803922 0.56862745
v 2.99999994 0.00127515 2.40201679 0.13333333 0.29803922 0.56862745
v 1.21695000 0.00221470 2.40201679 0.13333333 0.29803922 0.56862745
v -2.81726457 0.00221470 3.86214939 0.13333333 0.29803922 0.56862745
v 2.99999994 -4.79701802 2.97729427 0.13333333 0.29803922 0.56862745
v -1.99948752 -4.79701802 3.86214939 0.13333333 0.29803922 0.56862745
v 2.99999994 -3.21528174 2.40201679 0.13333333 0.29803922 0.56862745
v -1.99948752 0.00221470 2.40201679 0.13333333 0.29803922 0.56862745
v -2.81783398 0.00033560 3.86214939 0.13333333 0.29803922 0.56862745
v 2.99658309 -4.79701802 2.97086280 0.13333333 0.29803922 0.56862745
v 2.99999994 -4.79232047 2.97514990 0.13333333 0.29803922 0.56862745
v -2.76771945 -0.70010060 3.86214939 0.13333333 0.29803922 0.56862745
v -1.99948752 -4.79701802 2.97729427 0.13333333 0.29803922 0.56862745
v 2.99999994 -3.22420758 2.40430347 0.13333333 0.29803922 0.56862745
v 2.99886093 -3.22420758 2.40201679 0.13333333 0.29803922 0.56862745
v -1.99948752 -3.21528174 2.40201679 0.13333333 0.29803922 0.56862745
v -2.80815284 -0.13730873 3.86214939 0.13333333 0.29803922 0.56862745
v 2.99999994 -4.27885472 2.76018951 0.13333333 0.29803922 0.56862745
v -1.99664008 -4.79701802 2.97086280 0.13333333 0.29803922 0.56862745
v -1.99948752 -3.22420758 2.40430347 0.13333333 0.29803922 0.56862745
v -1.99948752 -3.75599427 2.56981168 0.13333333 0.29803922 0.56862745
v -1.99948752 -4.27885472 2.76018951 0.13333333 0.29803922 0.56862745
v -1.99948752 -4.79232047 2.97514990 0.13333333 0.29803922 0.56862745
v 2.99999994 -3.75599427 2.56981168 0.13333333 0.29803922 0.56862745
v -1.99834850 -3.22420758 2.40201679 0.13333333 0.29803922 0.56862745
f 1 2 3
f 1 3 6
f 1 6 10
f 1 10 16
f 1 16 23
f 1 23 29
f 1 29 19
f 1 19 12
f 1 12 7
f 1 7 4
f 1 4 8
f 1 8 13
f 1 13 9
f 1 9 5
f 1 5 2
f 2 5 9
f 2 9 14
f 2 14 22
f 2 22 17
f 2 17 11
f 2 11 6
f 2 6 3
f 4 7 8
f 6 11 18
f 6 18 24
f 6 24 15
f 6 15 10
f 7 12 20
f 7 20 30
f 7 30 21
f 7 21 13
f 7 13 8
f 9 13 14
f 10 15 16
f 11 17 18
f 12 19 20
f 13 21 14
f 14 21 22
f 15 23 16
f 15 24 27
f 15 27 23
f 17 22 21
f 17 21 25
f 17 25 26
f 17 26 27
f 17 27 28
f 17 28 18
f 18 28 24
f 19 29 20
f 20 29 26
f 20 26 30
f 21 30 25
f 23 27 26
f 23 26 29
f 24 28 27
f 25 30 26

