# https://github.com/mikedh/trimesh
v -2.99999994 -6.85334539 11.76824781 0.71372549 0.28627451 0.18039216
v -0.20417108 -6.85334539 11.76824781 0.71372549 0.28627451 0.18039216
v -2.99999994 -6.85334539 12.06611735 0.71372549 0.28627451 0.18039216
v -2.99999994 -2.91219213 11.76824781 0.71372549 0.28627451 0.18039216
v -0.50019997 -5.43661352 14.22033076 0.71372549 0.28627451 0.18039216
v -0.35247917 -6.85334539 11.91754265 0.71372549 0.28627451 0.18039216
v -0.00006385 -6.06318567 11.76824781 0.71372549 0.28627451 0.18039216
v -0.00006385 -4.91575638 14.22033076 0.71372549 0.28627451 0.18039216
v -0.50019997 -6.85334539 12.06611735 0.71372549 0.28627451 0.18039216
v -2.99999994 -5.43661352 14.22033076 0.71372549 0.28627451 0.18039216
v -2.99999994 -3.46159998 14.22033076 0.71372549 0.28627451 0.18039216
v -0.00006385 -2.91219213 11.76824781 0.71372549 0.28627451 0.18039216
v -0.00006385 -3.46159998 14.22033076 0.71372549 0.28627451 0.18039216
f 1 2 6
f 1 6 9
f 1 9 3
f 1 3 10
f 1 10 11
f 1 11 4
f 1 4 12
f 1 12 7
f 1 7 2
f 2 5 6
f 2 7 8
f 2 8 5
f 3 9 5
f 3 5 10
f 4 11 13
f 4 13 12
f 5 9 6
f 5 8 13
f 5 13 11
f 5 11 10
f 7 12 13
f 7 13 8

