# https://github.com/mikedh/trimesh
v 2.99999994 0.00221470 25.44976772 0.92549020 0.70196078 0.03137255
v 2.98472982 -0.84798416 25.45209469 0.92549020 0.70196078 0.03137255
v 2.99999994 -0.27877562 25.44976772 0.92549020 0.70196078 0.03137255
v 2.99999994 0.00221470 23.85311254 0.92549020 0.70196078 0.03137255
v -1.99980420 0.00221470 25.44976772 0.92549020 0.70196078 0.03137255
v 2.95888795 -1.37517973 25.45209469 0.92549020 0.70196078 0.03137255
v 2.99999994 -0.83488340 25.42347838 0.92549020 0.70196078 0.03137255
v -1.98453408 -0.84798416 25.45209469 0.92549020 0.70196078 0.03137255
v 2.99999994 -2.06500624 23.07560601 0.92549020 0.70196078 0.03137255
v 0.00000000 0.00221470 23.07560601 0.92549020 0.70196078 0.03137255
v -2.99999994 0.00221470 23.45319242 0.92549020 0.70196078 0.03137255
v -2.99999994 -0.00004421 23.45342520 0.92549020 0.70196078 0.03137255
v -1.99980420 -0.27877562 25.44976772 0.92549020 0.70196078 0.03137255
v 2.95595147 -1.42532428 25.45209469 0.92549020 0.70196078 0.03137255
v 2.99999994 -1.43978039 25.36461877 0.92549020 0.70196078 0.03137255
v -1.99980420 -0.83488340 25.42347838 0.92549020 0.70196078 0.03137255
v -1.95634302 -1.42577606 25.45209469 0.92549020 0.70196078 0.03137255
v 2.99999994 -4.61289235 23.07560601 0.92549020 0.70196078 0.03137255
v -2.99295218 0.00221470 23.07560601 0.92549020 0.70196078 0.03137255
v -2.99999994 0.00221470 23.44458449 0.92549020 0.70196078 0.03137255
v -2.99999994 -0.69574349 23.42853172 0.92549020 0.70196078 0.03137255
v 2.95301478 -1.47275834 25.45209469 0.92549020 0.70196078 0.03137255
v 2.90896631 -2.05280894 25.45209469 0.92549020 0.70196078 0.03137255
v 2.99999994 -2.04061164 25.27458474 0.92549020 0.70196078 0.03137255
v -1.99980420 -1.43978039 25.36461877 0.92549020 0.70196078 0.03137255
v -1.95458113 -1.45333303 25.45209469 0.92549020 0.70196078 0.03137255
v 2.99999994 -4.61289235 24.50638447 0.92549020 0.70196078 0.03137255
v -1.99980420 -4.61289235 23.07560601 0.92549020 0.70196078 0.03137255
v -2.99999994 0.00131114 23.07560601 0.92549020 0.70196078 0.03137255
v -2.99999994 -1.38782881 23.35408490 0.92549020 0.70196078 0.03137255
v 2.90544253 -2.09165975 25.45209469 0.92549020 0.70196078 0.03137255
v 2.85082232 -2.63195608 25.45209469 0.92549020 0.70196078 0.03137255
v 2.99999994 -2.63557013 25.15360824 0.92549020 0.70196078 0.03137255
v -1.99980420 -2.04061164 25.27458474 0.92549020 0.70196078 0.03137255
v -1.90759597 -2.07178256 25.45209469 0.92549020 0.70196078 0.03137255
v 2.99999994 -4.27904719 24.64620546 0.92549020 0.70196078 0.03137255
v 2.78328116 -3.18535347 25.45209469 0.92549020 0.70196078 0.03137255
v -1.99980420 -4.61289235 24.50638447 0.92549020 0.70196078 0.03137255
v -2.96534842 -2.74941188 23.07560601 0.92549020 0.70196078 0.03137255
v -2.99999994 -2.67984192 23.07560601 0.92549020 0.70196078 0.03137255
v -2.99999994 -2.07268613 23.23054947 0.92549020 0.70196078 0.03137255
v 2.84025057 -2.72863133 25.45209469 0.92549020 0.70196078 0.03137255
v 2.83144091 -2.80181514 25.45209469 0.92549020 0.70196078 0.03137255
v 2.99999994 -3.22420408 25.00192288 0.92549020 0.70196078 0.03137255
v -1.99980420 -2.63557013 25.15360824 0.92549020 0.70196078 0.03137255
v -1.84416610 -2.69474971 25.45209469 0.92549020 0.70196078 0.03137255
v 2.99999994 -3.75591736 24.83651091 0.92549020 0.70196078 0.03137255
v -1.78308542 -3.18535347 25.45209469 0.92549020 0.70196078 0.03137255
v -1.99980420 -4.27904719 24.64620546 0.92549020 0.70196078 0.03137255
v -1.99980420 -3.75591736 24.83651091 0.92549020 0.70196078 0.03137255
v -1.99980420 -3.22420408 25.00192288 0.92549020 0.70196078 0.03137255
v -1.79600635 -3.08506416 25.45209469 0.92549020 0.70196078 0.03137255
v -1.83124517 -2.80181514 25.45209469 0.92549020 0.70196078 0.03137255
f 1 2 3
f 1 3 7
f 1 7 15
f 1 15 24
f 1 24 33
f 1 33 44
f 1 44 47
f 1 47 36
f 1 36 27
f 1 27 18
f 1 18 9
f 1 9 4
f 1 4 10
f 1 10 19
f 1 19 20
f 1 20 11
f 1 11 5
f 1 5 8
f 1 8 2
f 2 6 7
f 2 7 3
f 2 8 17
f 2 17 26
f 2 26 35
f 2 35 46
f 2 46 53
f 2 53 52
f 2 52 48
f 2 48 37
f 2 37 43
f 2 43 42
f 2 42 32
f 2 32 31
f 2 31 23
f 2 23 22
f 2 22 14
f 2 14 6
f 4 9 10
f 5 11 12
f 5 12 13
f 5 13 8
f 6 14 15
f 6 15 7
f 8 13 16
f 8 16 17
f 9 18 28
f 9 28 39
f 9 39 40
f 9 40 29
f 9 29 19
f 9 19 10
f 11 20 29
f 11 29 40
f 11 40 41
f 11 41 30
f 11 30 21
f 11 21 12
f 12 21 13
f 13 21 16
f 14 22 15
f 15 22 23
f 15 23 24
f 16 25 17
f 16 21 25
f 17 25 26
f 18 27 38
f 18 38 28
f 19 29 20
f 21 30 25
f 23 31 24
f 24 31 32
f 24 32 33
f 25 34 26
f 25 30 34
f 26 34 35
f 27 36 37
f 27 37 48
f 27 48 38
f 28 38 39
f 30 41 34
f 32 42 33
f 33 42 43
f 33 43 37
f 33 37 44
f 34 41 45
f 34 45 46
f 34 46 35
f 36 47 37
f 37 47 44
f 38 48 49
f 38 49 40
f 38 40 39
f 40 49 50
f 40 50 51
f 40 51 45
f 40 45 41
f 45 51 52
f 45 52 53
f 45 53 46
f 48 52 51
f 48 51 50
f 48 50 49

