# https://github.com/mikedh/trimesh
v -0.50021694 -8.10974697 14.91820464 0.18431373 0.94117647 0.73725490
v -0.00020152 -8.76661425 14.91820464 0.18431373 0.94117647 0.73725490
v -0.00020152 -9.11343997 13.34058601 0.18431373 0.94117647 0.73725490
v -0.50021694 -8.60466683 13.34058601 0.18431373 0.94117647 0.73725490
v -2.99999994 -8.10974697 14.91820464 0.18431373 0.94117647 0.73725490
v 0.00303190 -9.73638882 14.91820464 0.18431373 0.94117647 0.73725490
v -0.00020152 -9.73638882 13.34058601 0.18431373 0.94117647 0.73725490
v -2.99999994 -8.60466683 13.34058601 0.18431373 0.94117647 0.73725490
v -2.99999994 -9.66918861 14.91820464 0.18431373 0.94117647 0.73725490
v -2.86801472 -9.73638882 14.91820464 0.18431373 0.94117647 0.73725490
v -2.99999994 -9.73638882 13.34058601 0.18431373 0.94117647 0.73725490
v -2.99999994 -9.72508213 14.39871472 0.18431373 0.94117647 0.73725490
v -2.97236842 -9.73638882 14.42496719 0.18431373 0.94117647 0.73725490
v -2.99999994 -9.73638882 14.08445727 0.18431373 0.94117647 0.73725490
v -2.97824735 -9.73638882 14.39145664 0.18431373 0.94117647 0.73725490
v -2.97589590 -9.73638882 14.40767145 0.18431373 0.94117647 0.73725490
f 1 2 3
f 1 3 4
f 1 4 8
f 1 8 5
f 1 5 9
f 1 9 10
f 1 10 6
f 1 6 2
f 2 6 3
f 3 6 7
f 3 7 11
f 3 11 8
f 3 8 4
f 5 8 11
f 5 11 14
f 5 14 12
f 5 12 9
f 6 10 13
f 6 13 16
f 6 16 15
f 6 15 14
f 6 14 11
f 6 11 7
f 9 12 13
f 9 13 10
f 12 14 15
f 12 15 16
f 12 16 13

