# https://github.com/mikedh/trimesh
v 0.00003414 9.73556545 7.12462131 0.09411765 0.97254902 0.46666667
v 0.00003414 10.98922549 5.33084631 0.09411765 0.97254902 0.46666667
v -1.99980420 9.73556545 7.12462131 0.09411765 0.97254902 0.46666667
v 0.00003414 8.17565085 7.12462131 0.09411765 0.97254902 0.46666667
v 0.00003414 10.52571284 4.77834837 0.09411765 0.97254902 0.46666667
v -0.94271328 10.98922549 5.33084631 0.09411765 0.97254902 0.46666667
v -1.22485218 10.65598079 5.80523547 0.09411765 0.97254902 0.46666667
v -1.49465601 10.33595602 6.26078014 0.09411765 0.97254902 0.46666667
v -1.75290812 10.02860008 6.69884574 0.09411765 0.97254902 0.46666667
v -1.99980420 9.73281157 7.12025154 0.09411765 0.97254902 0.46666667
v -1.99980420 8.17565085 7.12462131 0.09411765 0.97254902 0.46666667
v 0.00003414 8.17565085 5.26011163 0.09411765 0.97254902 0.46666667
v 0.00003414 10.15336028 4.33482107 0.09411765 0.97254902 0.46666667
v -0.94271328 10.15336028 4.33482107 0.09411765 0.97254902 0.46666667
v -0.95054503 10.57115511 4.83297023 0.09411765 0.97254902 0.46666667
v -1.99980420 9.00105084 6.15044407 0.09411765 0.97254902 0.46666667
v -1.99980420 9.37973780 6.62592556 0.09411765 0.97254902 0.46666667
v -1.99980420 8.17565085 5.26420790 0.09411765 0.97254902 0.46666667
v -1.99843363 8.17565085 5.26011163 0.09411765 0.97254902 0.46666667
v -1.22485218 9.62815600 4.58061781 0.09411765 0.97254902 0.46666667
v -1.99980420 8.59867871 5.69544557 0.09411765 0.97254902 0.46666667
v -1.75290812 8.63943906 5.04326351 0.09411765 0.97254902 0.46666667
v -1.49465601 9.12415854 4.81658351 0.09411765 0.97254902 0.46666667
f 1 2 6
f 1 6 3
f 1 3 11
f 1 11 4
f 1 4 12
f 1 12 13
f 1 13 5
f 1 5 2
f 2 5 6
f 3 6 7
f 3 7 8
f 3 8 9
f 3 9 10
f 3 10 17
f 3 17 16
f 3 16 21
f 3 21 18
f 3 18 11
f 4 11 18
f 4 18 19
f 4 19 12
f 5 13 14
f 5 14 6
f 6 14 15
f 6 15 16
f 6 16 17
f 6 17 7
f 7 17 8
f 8 17 9
f 9 17 10
f 12 19 14
f 12 14 13
f 14 20 21
f 14 21 16
f 14 16 15
f 14 19 20
f 18 21 19
f 19 21 22
f 19 22 20
f 20 22 23
f 20 23 21
f 21 23 22

