# https://github.com/mikedh/trimesh
v -2.99999994 8.10976836 12.48841129 0.06666667 0.69411765 0.45098039
v -0.50019997 8.10976836 12.48841129 0.06666667 0.69411765 0.45098039
v -2.99999994 8.65004988 13.70101939 0.06666667 0.69411765 0.45098039
v -2.99999994 9.66934654 12.48841129 0.06666667 0.69411765 0.45098039
v -0.50019997 8.65004988 13.70101939 0.06666667 0.69411765 0.45098039
v -0.00006385 8.76701894 12.48841129 0.06666667 0.69411765 0.45098039
v -0.00006385 9.14410277 13.70101939 0.06666667 0.69411765 0.45098039
v -2.99999994 9.75011050 13.70101939 0.06666667 0.69411765 0.45098039
v -2.99999994 9.72560197 13.00771048 0.06666667 0.69411765 0.45098039
v -1.99972749 11.68677251 12.48841129 0.06666667 0.69411765 0.45098039
v -0.00006385 11.68677251 12.48841129 0.06666667 0.69411765 0.45098039
v -0.00006385 13.79944415 13.70101939 0.06666667 0.69411765 0.45098039
v -1.99972749 11.74971194 13.70101939 0.06666667 0.69411765 0.45098039
v -1.99972749 11.73411650 13.09566492 0.06666667 0.69411765 0.45098039
v -1.75274300 12.18472344 12.62253883 0.06666667 0.69411765 0.45098039
v -1.49489249 12.70161180 12.76046467 0.06666667 0.69411765 0.45098039
v -1.22500096 13.23966669 12.90385066 0.06666667 0.69411765 0.45098039
v -0.94277497 13.79944415 13.05329012 0.06666667 0.69411765 0.45098039
v -0.00006385 13.79944415 13.05329012 0.06666667 0.69411765 0.45098039
v -0.95070430 13.79944415 13.70101939 0.06666667 0.69411765 0.45098039
f 1 2 5
f 1 5 3
f 1 3 8
f 1 8 9
f 1 9 4
f 1 4 10
f 1 10 11
f 1 11 6
f 1 6 2
f 2 6 7
f 2 7 5
f 3 5 7
f 3 7 12
f 3 12 20
f 3 20 13
f 3 13 8
f 4 9 10
f 6 11 19
f 6 19 12
f 6 12 7
f 8 13 14
f 8 14 9
f 9 14 10
f 10 14 15
f 10 15 16
f 10 16 17
f 10 17 18
f 10 18 19
f 10 19 11
f 12 19 18
f 12 18 20
f 13 20 18
f 13 18 14
f 14 18 17
f 14 17 16
f 14 16 15

