# https://github.com/mikedh/trimesh
v 0.00022990 5.35662809 16.21244643 0.69411765 0.05882353 0.66666667
v 2.99999994 5.10091188 16.21244643 0.69411765 0.05882353 0.66666667
v 2.99999994 3.85640758 13.70101939 0.69411765 0.05882353 0.66666667
v 0.00022990 4.00445359 13.70101939 0.69411765 0.05882353 0.66666667
v 0.00022990 2.43149858 16.21244643 0.69411765 0.05882353 0.66666667
v 2.99999994 2.43149858 16.21244643 0.69411765 0.05882353 0.66666667
v 2.99999994 3.49559860 13.70101939 0.69411765 0.05882353 0.66666667
v 0.00022990 3.49559860 13.70101939 0.69411765 0.05882353 0.66666667
f 1 2 3
f 1 3 4
f 1 4 8
f 1 8 5
f 1 5 6
f 1 6 2
f 2 6 7
f 2 7 3
f 3 7 8
f 3 8 4
f 5 8 7
f 5 7 6

