# https://github.com/mikedh/trimesh
v -2.99999994 7.29416159 15.32612266 0.91764706 0.71372549 0.99607843
v -0.50019997 7.29416159 15.32612266 0.91764706 0.71372549 0.99607843
v -2.99999994 7.29416159 16.21231976 0.91764706 0.71372549 0.99607843
v -2.99999994 8.10986542 14.91799561 0.91764706 0.71372549 0.99607843
v -0.00006385 7.29416159 15.83105473 0.91764706 0.71372549 0.99607843
v -0.50019997 8.10986542 14.91799561 0.91764706 0.71372549 0.99607843
v -0.00006385 8.76689967 14.91799561 0.91764706 0.71372549 0.99607843
v -0.00006385 7.29416159 16.21231976 0.91764706 0.71372549 0.99607843
v -2.99999994 9.41576359 16.21231976 0.91764706 0.71372549 0.99607843
v -2.99999994 9.66903150 14.91799561 0.91764706 0.71372549 0.99607843
v -0.00006385 11.68657427 14.91799561 0.91764706 0.71372549 0.99607843
v -0.00006385 11.47544612 16.21231976 0.91764706 0.71372549 0.99607843
v -1.99972749 11.47544612 16.21231976 0.91764706 0.71372549 0.99607843
v -2.99999994 9.52713277 15.77568332 0.91764706 0.71372549 0.99607843
v -2.99999994 9.65054153 15.09082549 0.91764706 0.71372549 0.99607843
v -1.99972749 11.68657427 14.91799561 0.91764706 0.71372549 0.99607843
v -0.00006385 11.61648447 15.46892270 0.91764706 0.71372549 0.99607843
v -0.00006385 11.47845581 16.20002910 0.91764706 0.71372549 0.99607843
v -1.99972749 11.51973519 16.01706239 0.91764706 0.71372549 0.99607843
v -1.99972749 11.61648447 15.46892270 0.91764706 0.71372549 0.99607843
v -0.00006385 11.51973519 16.01706239 0.91764706 0.71372549 0.99607843
f 1 2 5
f 1 5 8
f 1 8 3
f 1 3 9
f 1 9 14
f 1 14 15
f 1 15 10
f 1 10 4
f 1 4 6
f 1 6 2
f 2 6 7
f 2 7 5
f 3 8 12
f 3 12 13
f 3 13 9
f 4 10 16
f 4 16 11
f 4 11 7
f 4 7 6
f 5 7 11
f 5 11 17
f 5 17 21
f 5 21 18
f 5 18 12
f 5 12 8
f 9 13 14
f 10 15 16
f 11 16 20
f 11 20 17
f 12 18 13
f 13 18 19
f 13 19 14
f 14 19 15
f 15 19 20
f 15 20 16
f 17 20 19
f 17 19 21
f 18 21 19

