# https://github.com/mikedh/trimesh
v -2.99999994 -7.99287004 8.13088146 0.58039216 0.87843137 0.69019608
v -2.99999994 -7.80470156 7.86020400 0.58039216 0.87843137 0.69019608
v -1.99972749 -9.73203262 7.12048843 0.58039216 0.87843137 0.69019608
v -1.99972749 -10.03291597 7.58870604 0.58039216 0.87843137 0.69019608
v -1.99972749 -10.31144257 8.07086741 0.58039216 0.87843137 0.69019608
v -1.99972749 -10.34311463 8.13088146 0.58039216 0.87843137 0.69019608
v -2.99999994 -0.82662804 8.13088146 0.58039216 0.87843137 0.69019608
v -2.99999994 -7.36781548 7.31843861 0.58039216 0.87843137 0.69019608
v -1.99972749 -9.45630021 6.73443065 0.58039216 0.87843137 0.69019608
v -1.77359428 -10.00310697 6.73443065 0.58039216 0.87843137 0.69019608
v -0.00006385 -10.34311463 8.13088146 0.58039216 0.87843137 0.69019608
v -0.50019997 -0.82662804 8.13088146 0.58039216 0.87843137 0.69019608
v -2.99999994 -1.64730374 6.73443065 0.58039216 0.87843137 0.69019608
v -2.99999994 -6.89366774 6.80893546 0.58039216 0.87843137 0.69019608
v -2.99999994 -6.81355647 6.73443065 0.58039216 0.87843137 0.69019608
v -0.00006385 -10.00310697 6.73443065 0.58039216 0.87843137 0.69019608
v -0.00006385 -1.60072759 8.13088146 0.58039216 0.87843137 0.69019608
v -0.50019997 -1.64730374 6.73443065 0.58039216 0.87843137 0.69019608
v -0.00006385 -2.14473955 6.73443065 0.58039216 0.87843137 0.69019608
f 1 2 3
f 1 3 4
f 1 4 5
f 1 5 6
f 1 6 11
f 1 11 17
f 1 17 12
f 1 12 7
f 1 7 13
f 1 13 15
f 1 15 14
f 1 14 8
f 1 8 2
f 2 8 9
f 2 9 3
f 3 9 10
f 3 10 4
f 4 10 5
f 5 10 6
f 6 10 16
f 6 16 11
f 7 12 18
f 7 18 13
f 8 14 9
f 9 14 15
f 9 15 13
f 9 13 18
f 9 18 19
f 9 19 16
f 9 16 10
f 11 16 19
f 11 19 17
f 12 17 19
f 12 19 18

