# https://github.com/mikedh/trimesh
v -2.99999994 -9.34705648 16.47360604 0.38039216 0.78823529 0.52549020
v -1.99999297 -11.41577630 16.47360604 0.38039216 0.78823529 0.52549020
v -1.99999297 -11.39640621 16.56038670 0.38039216 0.78823529 0.52549020
v -1.99999297 -11.23369794 17.14577366 0.38039216 0.78823529 0.52549020
v -1.99999297 -11.04128924 17.72196129 0.38039216 0.78823529 0.52549020
v -2.99999994 -9.13398548 17.11050955 0.38039216 0.78823529 0.52549020
v -2.99999994 -2.12978097 16.47360604 0.38039216 0.78823529 0.52549020
v 0.42361659 -11.41577630 16.47360604 0.38039216 0.78823529 0.52549020
v -0.94267986 -13.19007140 17.81242181 0.38039216 0.78823529 0.52549020
v -1.22518860 -12.71356830 17.48032456 0.38039216 0.78823529 0.52549020
v -1.49462742 -12.25772670 17.16171950 0.38039216 0.78823529 0.52549020
v -1.75267205 -11.81867239 16.85538022 0.38039216 0.78823529 0.52549020
v -1.99999297 -10.81788791 18.28741635 0.38039216 0.78823529 0.52549020
v -0.95072280 -12.96667088 18.42295394 0.38039216 0.78823529 0.52549020
v -0.94267986 -12.74456094 19.03379247 0.38039216 0.78823529 0.52549020
v -2.99999994 -8.86797060 17.75354575 0.38039216 0.78823529 0.52549020
v -2.99999994 0.00221429 17.20311650 0.38039216 0.78823529 0.52549020
v 0.42361659 -2.12978097 16.47360604 0.38039216 0.78823529 0.52549020
v 0.42361659 -13.19007140 17.81242181 0.38039216 0.78823529 0.52549020
v 0.42361659 -13.00282828 18.32636053 0.38039216 0.78823529 0.52549020
v -1.99999297 -10.56607755 18.84060565 0.38039216 0.78823529 0.52549020
v -1.22518860 -12.16733403 18.98258252 0.38039216 0.78823529 0.52549020
v -1.49462742 -11.61205918 18.93321260 0.38039216 0.78823529 0.52549020
v -1.75267205 -11.08002943 18.88598911 0.38039216 0.78823529 0.52549020
v 0.42361659 -12.74456094 19.03379247 0.38039216 0.78823529 0.52549020
v -1.99999297 -10.15543227 19.60599363 0.38039216 0.78823529 0.52549020
v -1.99999297 -10.31168439 19.33522527 0.38039216 0.78823529 0.52549020
v -2.99999994 -8.55675857 18.37573045 0.38039216 0.78823529 0.52549020
v -2.99999994 0.00221429 19.05311115 0.38039216 0.78823529 0.52549020
v 0.42361659 0.00221429 17.20311650 0.38039216 0.78823529 0.52549020
v 0.42361659 -10.15543227 19.60599363 0.38039216 0.78823529 0.52549020
v -2.99999994 -7.75613033 19.60599363 0.38039216 0.78823529 0.52549020
v -2.99999994 -7.80520166 19.54589075 0.38039216 0.78823529 0.52549020
v -2.99999994 -8.20164160 18.97430320 0.38039216 0.78823529 0.52549020
v -0.50031754 0.00221429 19.05311115 0.38039216 0.78823529 0.52549020
v -2.99999994 -1.22842850 19.60599363 0.38039216 0.78823529 0.52549020
v 0.42361659 0.00221429 17.68240391 0.38039216 0.78823529 0.52549020
v 0.42361659 -2.81031490 19.60599363 0.38039216 0.78823529 0.52549020
v -0.49663116 0.00221429 19.04973790 0.38039216 0.78823529 0.52549020
v -0.50031754 -1.22842850 19.60599363 0.38039216 0.78823529 0.52549020
v -0.00031401 -1.84826977 19.60599363 0.38039216 0.78823529 0.52549020
v -0.00031401 0.00221429 18.55327824 0.38039216 0.78823529 0.52549020
f 1 2 3
f 1 3 4
f 1 4 5
f 1 5 6
f 1 6 16
f 1 16 28
f 1 28 34
f 1 34 33
f 1 33 32
f 1 32 36
f 1 36 29
f 1 29 17
f 1 17 7
f 1 7 18
f 1 18 8
f 1 8 2
f 2 8 19
f 2 19 9
f 2 9 10
f 2 10 11
f 2 11 12
f 2 12 3
f 3 12 4
f 4 12 11
f 4 11 10
f 4 10 9
f 4 9 5
f 5 13 6
f 5 9 14
f 5 14 15
f 5 15 13
f 6 13 16
f 7 17 30
f 7 30 18
f 8 18 30
f 8 30 37
f 8 37 38
f 8 38 31
f 8 31 25
f 8 25 20
f 8 20 19
f 9 19 20
f 9 20 15
f 9 15 14
f 13 21 16
f 13 15 22
f 13 22 23
f 13 23 24
f 13 24 21
f 15 20 25
f 15 25 31
f 15 31 26
f 15 26 27
f 15 27 22
f 16 21 28
f 17 29 35
f 17 35 39
f 17 39 42
f 17 42 37
f 17 37 30
f 21 27 28
f 21 24 27
f 22 27 23
f 23 27 24
f 26 31 38
f 26 38 41
f 26 41 40
f 26 40 36
f 26 36 32
f 26 32 33
f 26 33 34
f 26 34 28
f 26 28 27
f 29 36 40
f 29 40 35
f 35 40 41
f 35 41 39
f 37 42 38
f 38 42 41
f 39 41 42

