# https://github.com/mikedh/trimesh
v 0.13625536 2.64065489 19.27571955 0.65098039 0.43137255 0.89411765
v 3.00000015 2.80276888 19.27571955 0.65098039 0.43137255 0.89411765
v 3.00000015 3.11568687 20.27915797 0.65098039 0.43137255 0.89411765
v 0.13625536 2.97393126 20.27915797 0.65098039 0.43137255 0.89411765
v 0.13625536 10.34295917 19.27571955 0.65098039 0.43137255 0.89411765
v 3.00000015 10.34295917 19.27571955 0.65098039 0.43137255 0.89411765
v 3.00000015 9.73672771 20.27915797 0.65098039 0.43137255 0.89411765
v 0.13625536 9.73672771 20.27915797 0.65098039 0.43137255 0.89411765
v 0.13625536 10.31204467 19.33554277 0.65098039 0.43137255 0.89411765
v 3.00000015 10.31204467 19.33554277 0.65098039 0.43137255 0.89411765
v 3.00000015 10.03305745 19.81756637 0.65098039 0.43137255 0.89411765
v 0.13625536 10.01948547 19.83957025 0.65098039 0.43137255 0.89411765
v 0.13625536 9.90487382 20.01776292 0.65098039 0.43137255 0.89411765
v 0.13625536 10.19290902 19.54153496 0.65098039 0.43137255 0.89411765
v 0.13625536 10.03305745 19.81756637 0.65098039 0.43137255 0.89411765
f 1 2 3
f 1 3 4
f 1 4 8
f 1 8 13
f 1 13 12
f 1 12 15
f 1 15 14
f 1 14 9
f 1 9 5
f 1 5 6
f 1 6 2
f 2 6 10
f 2 10 11
f 2 11 7
f 2 7 3
f 3 7 8
f 3 8 4
f 5 9 10
f 5 10 6
f 7 11 12
f 7 12 13
f 7 13 8
f 9 14 10
f 10 14 11
f 11 14 15
f 11 15 12

