# https://github.com/mikedh/trimesh
v 0.00022990 -10.34311463 8.13088146 0.81176471 0.39607843 0.87843137
v 0.00022990 -10.00360379 6.73443065 0.81176471 0.39607843 0.87843137
v 2.99999994 -10.34311463 8.13088146 0.81176471 0.39607843 0.87843137
v 0.00022990 -2.63545024 8.13088146 0.81176471 0.39607843 0.87843137
v 2.77360763 -10.00360379 6.73443065 0.81176471 0.39607843 0.87843137
v 0.00022990 -2.99457794 6.73443065 0.81176471 0.39607843 0.87843137
v 2.99999994 -10.31142694 8.07086741 0.81176471 0.39607843 0.87843137
v 2.99999994 -2.80294243 8.13088146 0.81176471 0.39607843 0.87843137
v 2.99999994 -3.14396285 6.73443065 0.81176471 0.39607843 0.87843137
v 2.99999994 -9.45661278 6.73443065 0.81176471 0.39607843 0.87843137
v 2.99999994 -9.73274824 7.12048843 0.81176471 0.39607843 0.87843137
v 2.99999994 -10.03302784 7.58870604 0.81176471 0.39607843 0.87843137
f 1 2 5
f 1 5 3
f 1 3 8
f 1 8 4
f 1 4 6
f 1 6 2
f 2 6 9
f 2 9 10
f 2 10 5
f 3 5 7
f 3 7 12
f 3 12 11
f 3 11 10
f 3 10 9
f 3 9 8
f 4 8 9
f 4 9 6
f 5 10 11
f 5 11 12
f 5 12 7

