# https://github.com/mikedh/trimesh
v 0.00022990 -11.67906280 12.42925772 0.73333333 0.96078431 0.24705882
v 0.00022990 -11.61634464 11.93755083 0.73333333 0.96078431 0.24705882
v 2.99999994 -11.67906280 12.42925772 0.73333333 0.96078431 0.24705882
v 0.00022990 -10.72213884 12.42925772 0.73333333 0.96078431 0.24705882
v 0.00022990 -11.58667547 11.76800762 0.73333333 0.96078431 0.24705882
v 2.99999994 -11.61634464 11.93755083 0.73333333 0.96078431 0.24705882
v 2.99999994 -9.87675515 12.42925772 0.73333333 0.96078431 0.24705882
v 1.40996913 -9.79338125 12.42925772 0.73333333 0.96078431 0.24705882
v 0.00022990 -9.71226031 12.42910103 0.73333333 0.96078431 0.24705882
v 0.00022990 -11.42218063 10.82862503 0.73333333 0.96078431 0.24705882
v 2.99999994 -11.58667547 11.76800762 0.73333333 0.96078431 0.24705882
v 2.99999994 -8.27499609 10.82862503 0.73333333 0.96078431 0.24705882
v 0.00022990 -7.84272777 10.82862503 0.73333333 0.96078431 0.24705882
v 2.98473085 -11.42218063 10.82862503 0.73333333 0.96078431 0.24705882
v 2.99999994 -11.51945059 11.38927727 0.73333333 0.96078431 0.24705882
v 2.99999994 -11.39176048 10.82862503 0.73333333 0.96078431 0.24705882
v 2.99999994 -11.39701818 10.84633132 0.73333333 0.96078431 0.24705882
f 1 2 6
f 1 6 3
f 1 3 7
f 1 7 8
f 1 8 4
f 1 4 9
f 1 9 13
f 1 13 10
f 1 10 5
f 1 5 2
f 2 5 11
f 2 11 6
f 3 6 11
f 3 11 15
f 3 15 17
f 3 17 16
f 3 16 12
f 3 12 7
f 4 8 9
f 5 10 14
f 5 14 11
f 7 12 13
f 7 13 9
f 7 9 8
f 10 13 12
f 10 12 16
f 10 16 14
f 11 14 15
f 14 16 17
f 14 17 15

