# https://github.com/mikedh/trimesh
v 13.10325149 3.27202683 -0.00000066 0.08627451 0.01960784 0.83137255
v 13.10325149 9.36597075 -0.00000066 0.08627451 0.01960784 0.83137255
v 13.81592634 3.27202683 -0.00000066 0.08627451 0.01960784 0.83137255
v 13.10325149 16.48218439 40.64928590 0.08627451 0.01960784 0.83137255
v 13.81592634 9.36597075 -0.00000066 0.08627451 0.01960784 0.83137255
v 13.10325149 11.24422794 5.77748280 0.08627451 0.01960784 0.83137255
v 15.00123963 4.89896822 5.00555963 0.08627451 0.01960784 0.83137255
v 15.00123963 16.48218439 40.64928590 0.08627451 0.01960784 0.83137255
v 13.10325149 22.57612831 40.64928590 0.08627451 0.01960784 0.83137255
v 14.99993946 10.99102159 5.00158110 0.08627451 0.01960784 0.83137255
v 15.00123963 7.00208708 5.00555963 0.08627451 0.01960784 0.83137255
v 14.99993946 22.57612831 40.64928590 0.08627451 0.01960784 0.83137255
v 15.00123963 18.58530372 40.64928590 0.08627451 0.01960784 0.83137255
f 1 2 5
f 1 5 3
f 1 3 8
f 1 8 4
f 1 4 9
f 1 9 6
f 1 6 2
f 2 6 5
f 3 5 11
f 3 11 7
f 3 7 8
f 4 8 13
f 4 13 12
f 4 12 9
f 5 6 10
f 5 10 11
f 6 9 12
f 6 12 10
f 7 11 13
f 7 13 8
f 10 12 11
f 11 12 13

