# https://github.com/mikedh/trimesh
v 12.50739049 -5.38066506 42.79999906 0.06666667 0.69411765 0.45098039
v 12.50739049 -5.38066506 46.74856210 0.06666667 0.69411765 0.45098039
v 12.50739049 -2.67283174 42.79999906 0.06666667 0.69411765 0.45098039
v 18.75727173 -5.38066506 42.79999906 0.06666667 0.69411765 0.45098039
v 12.50739049 -2.67283174 46.74856210 0.06666667 0.69411765 0.45098039
v 18.75727173 -5.38066506 46.74856210 0.06666667 0.69411765 0.45098039
v 18.77076225 -2.67283174 42.79999906 0.06666667 0.69411765 0.45098039
v 18.77076225 -5.06150367 42.79999906 0.06666667 0.69411765 0.45098039
v 17.67505519 -2.67283174 46.74856210 0.06666667 0.69411765 0.45098039
v 18.77076225 -5.06150367 46.74856210 0.06666667 0.69411765 0.45098039
v 18.77076225 -2.67283174 45.99989717 0.06666667 0.69411765 0.45098039
v 18.77076225 -3.81348834 46.74856210 0.06666667 0.69411765 0.45098039
f 1 2 5
f 1 5 3
f 1 3 7
f 1 7 8
f 1 8 4
f 1 4 6
f 1 6 2
f 2 6 10
f 2 10 12
f 2 12 9
f 2 9 5
f 3 5 9
f 3 9 11
f 3 11 7
f 4 8 10
f 4 10 6
f 7 11 12
f 7 12 10
f 7 10 8
f 9 12 11

