# https://github.com/mikedh/trimesh
v 10.99999960 16.48143606 40.64928590 0.67843137 0.35686275 0.43529412
v 10.99999960 18.84705940 40.64928590 0.67843137 0.35686275 0.43529412
v 12.50029269 16.48143606 40.64928590 0.67843137 0.35686275 0.43529412
v 10.99999960 16.48143606 47.19962887 0.67843137 0.35686275 0.43529412
v 10.99999960 18.84705940 48.06250920 0.67843137 0.35686275 0.43529412
v 15.00078274 18.84705940 40.64928590 0.67843137 0.35686275 0.43529412
v 23.44263933 16.48305869 40.64928590 0.67843137 0.35686275 0.43529412
v 23.95164485 16.48143606 42.80031775 0.67843137 0.35686275 0.43529412
v 24.00000016 16.48143606 47.19962887 0.67843137 0.35686275 0.43529412
v 24.00000016 18.84705940 48.06250920 0.67843137 0.35686275 0.43529412
v 23.63351663 18.84705940 41.45338326 0.67843137 0.35686275 0.43529412
v 23.44263933 18.58583394 40.64928590 0.67843137 0.35686275 0.43529412
v 24.00000016 16.48143606 43.00061680 0.67843137 0.35686275 0.43529412
v 23.95291775 16.48143606 42.80394656 0.67843137 0.35686275 0.43529412
v 24.00000016 18.84705940 43.00061680 0.67843137 0.35686275 0.43529412
f 1 2 6
f 1 6 12
f 1 12 7
f 1 7 3
f 1 3 8
f 1 8 14
f 1 14 13
f 1 13 9
f 1 9 4
f 1 4 5
f 1 5 2
f 2 5 10
f 2 10 15
f 2 15 11
f 2 11 6
f 3 7 8
f 4 9 10
f 4 10 5
f 6 11 12
f 7 12 11
f 7 11 13
f 7 13 14
f 7 14 8
f 9 13 15
f 9 15 10
f 11 15 13

