# https://github.com/mikedh/trimesh
v 12.74366365 -16.74948669 50.20043127 0.57254902 0.58823529 0.56862745
v 12.74366365 -15.55937040 49.00946324 0.57254902 0.58823529 0.56862745
v 15.94354484 -16.74948669 50.20043127 0.57254902 0.58823529 0.56862745
v 12.74366365 -16.74948669 57.49999948 0.57254902 0.58823529 0.56862745
v 12.74366365 -11.49909734 49.00946324 0.57254902 0.58823529 0.56862745
v 15.94354484 -15.55937040 49.00946324 0.57254902 0.58823529 0.56862745
v 15.94354484 -16.74948669 57.49999948 0.57254902 0.58823529 0.56862745
v 12.74366365 -13.75029187 57.49999948 0.57254902 0.58823529 0.56862745
v 15.94354484 -11.49858310 49.00946324 0.57254902 0.58823529 0.56862745
v 12.74366365 -11.49806980 50.47303390 0.57254902 0.58823529 0.56862745
v 15.94354484 -11.49806980 49.49482696 0.57254902 0.58823529 0.56862745
v 15.94354484 -13.75029187 57.49999948 0.57254902 0.58823529 0.56862745
v 14.05011434 -11.50012581 56.49935221 0.57254902 0.58823529 0.56862745
v 12.74366365 -11.49858310 51.00078325 0.57254902 0.58823529 0.56862745
v 12.74366365 -11.49806980 50.99579693 0.57254902 0.58823529 0.56862745
v 15.94354484 -11.49806980 51.00078325 0.57254902 0.58823529 0.56862745
v 15.09972328 -11.50012581 56.49935221 0.57254902 0.58823529 0.56862745
v 13.25014404 -11.49806980 51.00078325 0.57254902 0.58823529 0.56862745
f 1 2 6
f 1 6 3
f 1 3 7
f 1 7 4
f 1 4 8
f 1 8 14
f 1 14 15
f 1 15 10
f 1 10 5
f 1 5 2
f 2 5 9
f 2 9 6
f 3 6 9
f 3 9 11
f 3 11 16
f 3 16 12
f 3 12 7
f 4 7 12
f 4 12 8
f 5 10 11
f 5 11 9
f 8 13 14
f 8 12 17
f 8 17 13
f 10 15 18
f 10 18 16
f 10 16 11
f 12 16 17
f 13 17 16
f 13 16 18
f 13 18 15
f 13 15 14

