# https://github.com/mikedh/trimesh
v 15.01874817 -19.27316446 42.76358310 0.77647059 0.86666667 0.97647059
v 23.94400554 -19.27316446 42.76358310 0.77647059 0.86666667 0.97647059
v 15.01874817 -17.16981950 42.76358310 0.77647059 0.86666667 0.97647059
v 15.00124057 -18.58517963 40.64577554 0.77647059 0.86666667 0.97647059
v 23.94400554 -17.17122590 42.76358310 0.77647059 0.86666667 0.97647059
v 23.44241935 -18.58517963 40.64577554 0.77647059 0.86666667 0.97647059
v 15.00124057 -16.48183467 40.64577554 0.77647059 0.86666667 0.97647059
v 23.75930286 -17.16981950 42.76358310 0.77647059 0.86666667 0.97647059
v 15.00124057 -4.90006720 5.00892709 0.77647059 0.86666667 0.97647059
v 15.00124057 -7.00341310 5.00523248 0.77647059 0.86666667 0.97647059
v 23.44241935 -16.48183467 40.64577554 0.77647059 0.86666667 0.97647059
f 1 2 5
f 1 5 8
f 1 8 3
f 1 3 7
f 1 7 4
f 1 4 6
f 1 6 2
f 2 6 10
f 2 10 11
f 2 11 5
f 3 8 9
f 3 9 7
f 4 10 6
f 4 7 9
f 4 9 10
f 5 11 8
f 8 11 9
f 9 11 10

