# https://github.com/mikedh/trimesh
v 15.00164105 23.74685773 51.70294677 0.29411765 0.11764706 0.31764706
v 15.00164105 23.74685773 57.33306480 0.29411765 0.11764706 0.31764706
v 20.99960200 23.74685773 51.70294677 0.29411765 0.11764706 0.31764706
v 15.00164105 21.75019604 53.70005408 0.29411765 0.11764706 0.31764706
v 11.00039069 23.74294877 51.70726186 0.29411765 0.11764706 0.31764706
v 20.99960200 23.74685773 57.33306480 0.29411765 0.11764706 0.31764706
v 11.00039069 23.74294877 57.33491493 0.29411765 0.11764706 0.31764706
v 20.99960200 21.75019604 53.70005408 0.29411765 0.11764706 0.31764706
v 11.00039069 21.75019604 53.70067078 0.29411765 0.11764706 0.31764706
v 20.99960200 21.75019604 58.00000066 0.29411765 0.11764706 0.31764706
v 15.00066240 23.74294877 57.33491493 0.29411765 0.11764706 0.31764706
v 11.00039069 21.75019604 57.99938395 0.29411765 0.11764706 0.31764706
v 15.00164105 21.75019604 58.00000066 0.29411765 0.11764706 0.31764706
f 1 2 6
f 1 6 3
f 1 3 8
f 1 8 4
f 1 4 5
f 1 5 7
f 1 7 2
f 2 7 11
f 2 11 6
f 3 6 10
f 3 10 8
f 4 8 10
f 4 10 13
f 4 13 12
f 4 12 9
f 4 9 5
f 5 9 12
f 5 12 7
f 6 11 10
f 7 12 13
f 7 13 10
f 7 10 11

