# https://github.com/mikedh/trimesh
v 8.99428562 -13.75036614 57.49936397 0.15686275 0.10980392 0.65490196
v 6.79962297 -11.50051314 56.49959100 0.15686275 0.10980392 0.65490196
v 3.64636564 -13.75036614 57.49936397 0.15686275 0.10980392 0.65490196
v 8.99428562 -16.74999999 57.49936397 0.15686275 0.10980392 0.65490196
v 8.99428562 -13.74779683 52.05240873 0.15686275 0.10980392 0.65490196
v 5.75045681 -11.50051314 56.49959100 0.15686275 0.10980392 0.65490196
v 6.79962297 -11.50051314 51.00687138 0.15686275 0.10980392 0.65490196
v 3.64636564 -13.74985285 56.14557141 0.15686275 0.10980392 0.65490196
v 3.64636564 -16.74999999 57.49936397 0.15686275 0.10980392 0.65490196
v 8.99428562 -16.74999999 51.00687138 0.15686275 0.10980392 0.65490196
v 8.99428562 -13.74779683 51.00687138 0.15686275 0.10980392 0.65490196
v 5.75150409 -11.50051314 51.00687138 0.15686275 0.10980392 0.65490196
v 3.64636564 -13.74985285 51.00687138 0.15686275 0.10980392 0.65490196
v 3.64636564 -16.74999999 51.00687138 0.15686275 0.10980392 0.65490196
f 1 2 6
f 1 6 3
f 1 3 9
f 1 9 4
f 1 4 10
f 1 10 11
f 1 11 5
f 1 5 2
f 2 5 11
f 2 11 7
f 2 7 12
f 2 12 6
f 3 6 8
f 3 8 13
f 3 13 14
f 3 14 9
f 4 9 14
f 4 14 10
f 6 12 13
f 6 13 8
f 7 11 10
f 7 10 14
f 7 14 13
f 7 13 12

