# https://github.com/mikedh/trimesh
v 8.99480926 -16.74999999 51.00687138 0.25098039 0.46274510 0.24313725
v 8.99480926 -13.74779683 51.00687138 0.25098039 0.46274510 0.24313725
v 10.96815068 -16.74999999 51.00687138 0.25098039 0.46274510 0.24313725
v 8.99480926 -16.74999999 57.49936397 0.25098039 0.46274510 0.24313725
v 8.99480926 -13.74779683 52.05240873 0.25098039 0.46274510 0.24313725
v 9.90005454 -11.50051314 56.49959100 0.25098039 0.46274510 0.24313725
v 9.90140642 -11.50051314 51.00687138 0.25098039 0.46274510 0.24313725
v 10.96815068 -11.56886169 51.00687138 0.25098039 0.46274510 0.24313725
v 10.96815068 -16.74999999 57.49936397 0.25098039 0.46274510 0.24313725
v 8.99480926 -13.75036614 57.49936397 0.25098039 0.46274510 0.24313725
v 10.96815068 -11.56886169 56.53009933 0.25098039 0.46274510 0.24313725
v 10.94999159 -11.50051314 56.49959100 0.25098039 0.46274510 0.24313725
v 10.96815068 -12.95690514 57.14725091 0.25098039 0.46274510 0.24313725
v 10.94999159 -11.50051314 51.00687138 0.25098039 0.46274510 0.24313725
v 10.96815068 -13.75036614 57.49936397 0.25098039 0.46274510 0.24313725
f 1 2 7
f 1 7 14
f 1 14 8
f 1 8 3
f 1 3 9
f 1 9 4
f 1 4 10
f 1 10 5
f 1 5 2
f 2 5 6
f 2 6 7
f 3 8 11
f 3 11 13
f 3 13 15
f 3 15 9
f 4 9 15
f 4 15 10
f 5 10 6
f 6 11 12
f 6 12 14
f 6 14 7
f 6 10 13
f 6 13 11
f 8 14 12
f 8 12 11
f 10 15 13

