# https://github.com/mikedh/trimesh
v 20.99960200 21.75000049 53.69958778 0.09411765 0.97254902 0.46666667
v 24.00000016 21.75000049 53.69958778 0.09411765 0.97254902 0.46666667
v 20.99960200 21.75000049 58.00000066 0.09411765 0.97254902 0.46666667
v 20.99960200 23.75023271 49.00102109 0.09411765 0.97254902 0.46666667
v 24.00000016 21.75000049 58.00000066 0.09411765 0.97254902 0.46666667
v 24.00000016 23.75196439 49.00102109 0.09411765 0.97254902 0.46666667
v 21.00018863 30.59605109 55.05084394 0.09411765 0.97254902 0.46666667
v 20.99960200 27.74983225 55.99954281 0.09411765 0.97254902 0.46666667
v 20.99960200 26.04747084 49.00102109 0.09411765 0.97254902 0.46666667
v 24.00000016 30.59605109 55.05084394 0.09411765 0.97254902 0.46666667
v 24.00000016 30.59605109 49.00102109 0.09411765 0.97254902 0.46666667
v 21.00018863 30.59605109 49.00102109 0.09411765 0.97254902 0.46666667
f 1 2 5
f 1 5 3
f 1 3 8
f 1 8 9
f 1 9 4
f 1 4 2
f 2 4 6
f 2 6 11
f 2 11 10
f 2 10 5
f 3 5 10
f 3 10 7
f 3 7 8
f 4 9 12
f 4 12 11
f 4 11 6
f 7 12 8
f 7 10 11
f 7 11 12
f 8 12 9

