# https://github.com/mikedh/trimesh
v 13.10325149 -22.57612831 40.64928590 0.79607843 0.45882353 0.78039216
v 14.99993946 -22.57612831 40.64928590 0.79607843 0.45882353 0.78039216
v 13.10325149 -16.48218439 40.64928590 0.79607843 0.45882353 0.78039216
v 13.10325149 -11.24422794 5.77748280 0.79607843 0.45882353 0.78039216
v 15.00123963 -18.58530372 40.64928590 0.79607843 0.45882353 0.78039216
v 14.99993946 -10.99102159 5.00158110 0.79607843 0.45882353 0.78039216
v 15.00123963 -7.00208708 5.00555963 0.79607843 0.45882353 0.78039216
v 13.10325149 -3.27202683 -0.00000066 0.79607843 0.45882353 0.78039216
v 15.00123963 -16.48218439 40.64928590 0.79607843 0.45882353 0.78039216
v 13.10325149 -9.36597075 -0.00000066 0.79607843 0.45882353 0.78039216
v 13.81592634 -9.36597075 -0.00000066 0.79607843 0.45882353 0.78039216
v 15.00123963 -4.89896822 5.00555963 0.79607843 0.45882353 0.78039216
v 13.81592634 -3.27202683 -0.00000066 0.79607843 0.45882353 0.78039216
f 1 2 5
f 1 5 9
f 1 9 3
f 1 3 8
f 1 8 10
f 1 10 4
f 1 4 2
f 2 4 6
f 2 6 7
f 2 7 5
f 3 9 13
f 3 13 8
f 4 10 11
f 4 11 6
f 5 7 12
f 5 12 9
f 6 11 7
f 7 11 13
f 7 13 12
f 8 13 11
f 8 11 10
f 9 12 13

