# https://github.com/mikedh/trimesh
v 12.86787801 13.46736688 42.80000000 0.69411765 0.05882353 0.66666667
v 12.86787801 16.48143606 42.80000000 0.69411765 0.05882353 0.66666667
v 23.95205473 13.46736688 42.80000000 0.69411765 0.05882353 0.66666667
v 12.86787801 13.46736688 48.59943023 0.69411765 0.05882353 0.66666667
v 12.86787801 16.48143606 47.19995979 0.69411765 0.05882353 0.66666667
v 23.95205473 16.48143606 42.80000000 0.69411765 0.05882353 0.66666667
v 23.95314526 16.48143606 42.80397382 0.69411765 0.05882353 0.66666667
v 24.00000016 13.46736688 43.00041092 0.69411765 0.05882353 0.66666667
v 24.00000016 13.46736688 48.59943023 0.69411765 0.05882353 0.66666667
v 12.86787801 15.24984228 48.59943023 0.69411765 0.05882353 0.66666667
v 24.00000016 16.48143606 47.19995979 0.69411765 0.05882353 0.66666667
v 24.00000016 16.48143606 43.00041092 0.69411765 0.05882353 0.66666667
v 24.00000016 15.24984228 48.59943023 0.69411765 0.05882353 0.66666667
f 1 2 6
f 1 6 3
f 1 3 8
f 1 8 9
f 1 9 4
f 1 4 10
f 1 10 5
f 1 5 2
f 2 5 11
f 2 11 12
f 2 12 7
f 2 7 6
f 3 6 7
f 3 7 8
f 4 9 13
f 4 13 10
f 5 10 13
f 5 13 11
f 7 12 8
f 8 12 11
f 8 11 13
f 8 13 9

