# https://github.com/mikedh/trimesh
v 20.99960200 -23.75068020 57.33238793 0.01568627 0.29803922 0.65882353
v 15.00073949 -23.74950507 57.33238793 0.01568627 0.29803922 0.65882353
v 15.00073949 -27.74999959 55.99952213 0.01568627 0.29803922 0.65882353
v 20.99960200 -27.74999959 55.99840905 0.01568627 0.29803922 0.65882353
v 20.99960200 -23.74950507 57.32348700 0.01568627 0.29803922 0.65882353
v 20.99666511 -23.74950507 57.33238793 0.01568627 0.29803922 0.65882353
v 15.00073949 -23.74950507 45.96853710 0.01568627 0.29803922 0.65882353
v 15.00073949 -27.74960851 47.00100885 0.01568627 0.29803922 0.65882353
v 20.99960200 -27.74999959 47.00100885 0.01568627 0.29803922 0.65882353
v 20.99960200 -23.74950507 45.96742590 0.01568627 0.29803922 0.65882353
v 20.83928003 -23.74950507 45.96742590 0.01568627 0.29803922 0.65882353
f 1 2 3
f 1 3 4
f 1 4 9
f 1 9 10
f 1 10 5
f 1 5 6
f 1 6 2
f 2 6 5
f 2 5 10
f 2 10 11
f 2 11 7
f 2 7 8
f 2 8 3
f 3 8 9
f 3 9 4
f 7 11 8
f 8 11 9
f 9 11 10

