# https://github.com/mikedh/trimesh
v 12.86787801 15.24845280 48.59921965 0.67058824 0.20784314 0.12549020
v 10.99999960 15.24845280 48.59921965 0.67058824 0.20784314 0.12549020
v 12.86787801 13.46729919 48.59921965 0.67058824 0.20784314 0.12549020
v 12.86787801 16.48143606 47.19926599 0.67058824 0.20784314 0.12549020
v 10.99999960 16.48143606 47.19926599 0.67058824 0.20784314 0.12549020
v 10.99999960 0.24926543 48.59921965 0.67058824 0.20784314 0.12549020
v 12.86787801 13.46729919 42.80096642 0.67058824 0.20784314 0.12549020
v 12.50658952 0.24926543 48.59921965 0.67058824 0.20784314 0.12549020
v 12.86787801 16.48143606 42.80096642 0.67058824 0.20784314 0.12549020
v 10.99999960 16.48143606 40.64928590 0.67058824 0.20784314 0.12549020
v 10.99999960 0.24926543 40.64928590 0.67058824 0.20784314 0.12549020
v 12.50658952 0.24926543 42.80096642 0.67058824 0.20784314 0.12549020
v 12.49982452 0.24926543 40.64928590 0.67058824 0.20784314 0.12549020
v 12.49982452 16.48143606 40.64928590 0.67058824 0.20784314 0.12549020
f 1 2 6
f 1 6 8
f 1 8 3
f 1 3 7
f 1 7 9
f 1 9 4
f 1 4 5
f 1 5 2
f 2 5 10
f 2 10 11
f 2 11 6
f 3 8 12
f 3 12 7
f 4 9 14
f 4 14 10
f 4 10 5
f 6 11 13
f 6 13 12
f 6 12 8
f 7 12 13
f 7 13 14
f 7 14 9
f 10 14 13
f 10 13 11

