# https://github.com/mikedh/trimesh
v 15.94354484 -16.74999999 51.91605947 0.14901961 0.86666667 0.16078431
v 15.94354484 -16.74999999 57.49945234 0.14901961 0.86666667 0.16078431
v 15.94354484 -13.75013112 51.91605947 0.14901961 0.86666667 0.16078431
v 24.00000016 -16.74999999 51.91605947 0.14901961 0.86666667 0.16078431
v 15.94354484 -13.75013112 57.49945234 0.14901961 0.86666667 0.16078431
v 24.00000016 -16.74999999 57.49945234 0.14901961 0.86666667 0.16078431
v 17.60120608 -13.74777991 51.91605947 0.14901961 0.86666667 0.16078431
v 24.00000016 -13.75013112 51.91605947 0.14901961 0.86666667 0.16078431
v 24.00000016 -13.75013112 57.49945234 0.14901961 0.86666667 0.16078431
v 17.60120608 -13.74777991 57.49890708 0.14901961 0.86666667 0.16078431
v 23.99921047 -13.74777991 51.91605947 0.14901961 0.86666667 0.16078431
v 23.99921047 -13.74777991 57.46665391 0.14901961 0.86666667 0.16078431
v 23.99763485 -13.74777991 57.49890708 0.14901961 0.86666667 0.16078431
f 1 2 5
f 1 5 3
f 1 3 7
f 1 7 11
f 1 11 8
f 1 8 4
f 1 4 6
f 1 6 2
f 2 6 9
f 2 9 5
f 3 5 10
f 3 10 7
f 4 8 9
f 4 9 6
f 5 9 13
f 5 13 10
f 7 10 13
f 7 13 12
f 7 12 11
f 8 11 12
f 8 12 9
f 9 12 13

