# https://github.com/mikedh/trimesh
v 15.00164105 -23.74950507 51.70049873 0.28627451 0.61568627 0.42745098
v 11.00039069 -23.74324208 51.70728254 0.28627451 0.61568627 0.42745098
v 11.00039069 -21.75000049 53.70023270 0.28627451 0.61568627 0.42745098
v 20.99960200 -23.74950507 51.70049873 0.28627451 0.61568627 0.42745098
v 15.00164105 -23.74950507 57.33342204 0.28627451 0.61568627 0.42745098
v 11.00039069 -23.74324208 57.33527217 0.28627451 0.61568627 0.42745098
v 11.00039069 -21.75000049 58.00000066 0.28627451 0.61568627 0.42745098
v 20.99960200 -21.75000049 53.70023270 0.28627451 0.61568627 0.42745098
v 20.99960200 -23.74950507 57.32417328 0.28627451 0.61568627 0.42745098
v 20.99568740 -23.74950507 57.33342204 0.28627451 0.61568627 0.42745098
v 15.00066240 -21.75000049 58.00000066 0.28627451 0.61568627 0.42745098
v 20.99960200 -21.75000049 57.99938395 0.28627451 0.61568627 0.42745098
f 1 2 3
f 1 3 8
f 1 8 4
f 1 4 9
f 1 9 10
f 1 10 5
f 1 5 6
f 1 6 2
f 2 6 7
f 2 7 3
f 3 7 11
f 3 11 12
f 3 12 8
f 4 8 12
f 4 12 9
f 5 10 11
f 5 11 7
f 5 7 6
f 9 12 10
f 10 12 11

