# https://github.com/mikedh/trimesh
v 13.10325055 22.57612831 40.64928590 0.54509804 0.71372549 0.60000000
v 13.10325055 19.46461711 31.07585343 0.54509804 0.71372549 0.60000000
v 11.75001359 17.24589855 24.24791963 0.54509804 0.71372549 0.60000000
v 11.00020454 16.18957630 20.99709032 0.54509804 0.71372549 0.60000000
v 11.00020454 22.57612831 40.64928590 0.54509804 0.71372549 0.60000000
v 13.10325055 -22.57612831 40.64928590 0.54509804 0.71372549 0.60000000
v 13.10325055 11.52231138 6.64092155 0.54509804 0.71372549 0.60000000
v 11.00020454 11.31458267 6.00030680 0.54509804 0.71372549 0.60000000
v 11.00020454 -22.57612831 40.64928590 0.54509804 0.71372549 0.60000000
v 11.00020454 -16.18957630 20.99709032 0.54509804 0.71372549 0.60000000
v 11.75001359 -17.24589855 24.24791963 0.54509804 0.71372549 0.60000000
v 13.10325055 -19.46461711 31.07585343 0.54509804 0.71372549 0.60000000
v 13.10325055 9.55993818 0.60480545 0.54509804 0.71372549 0.60000000
v 11.00020454 9.68811134 1.00270356 0.54509804 0.71372549 0.60000000
v 11.00020454 -11.31458267 6.00030680 0.54509804 0.71372549 0.60000000
v 13.10325055 -11.52231138 6.64092155 0.54509804 0.71372549 0.60000000
v 13.10325055 9.36104929 -0.00000066 0.54509804 0.71372549 0.60000000
v 11.00020454 9.36104929 -0.00000066 0.54509804 0.71372549 0.60000000
v 11.00020454 -9.68811134 1.00270356 0.54509804 0.71372549 0.60000000
v 13.10325055 -9.55993818 0.60480545 0.54509804 0.71372549 0.60000000
v 13.10325055 -9.36104929 -0.00000066 0.54509804 0.71372549 0.60000000
v 11.00020454 -9.36104929 -0.00000066 0.54509804 0.71372549 0.60000000
f 1 2 3
f 1 3 4
f 1 4 5
f 1 5 9
f 1 9 6
f 1 6 12
f 1 12 16
f 1 16 20
f 1 20 21
f 1 21 17
f 1 17 13
f 1 13 7
f 1 7 2
f 2 7 3
f 3 7 4
f 4 7 8
f 4 8 14
f 4 14 18
f 4 18 22
f 4 22 19
f 4 19 15
f 4 15 10
f 4 10 9
f 4 9 5
f 6 9 10
f 6 10 11
f 6 11 12
f 7 13 8
f 8 13 14
f 10 15 16
f 10 16 11
f 11 16 12
f 13 17 18
f 13 18 14
f 15 19 20
f 15 20 16
f 17 21 22
f 17 22 18
f 19 22 20
f 20 22 21

