# https://github.com/mikedh/trimesh
v 15.34406913 18.84729067 41.45393887 0.56470588 0.26274510 0.52156863
v 15.34406913 18.84729067 41.70658210 0.56470588 0.26274510 0.52156863
v 15.34406913 21.74017826 43.00008752 0.56470588 0.26274510 0.52156863
v 23.63312367 18.84729067 41.45393887 0.56470588 0.26274510 0.52156863
v 15.34406913 18.84842255 48.06329701 0.56470588 0.26274510 0.52156863
v 23.97881768 18.84729067 48.06255809 0.56470588 0.26274510 0.52156863
v 15.34406913 21.74017826 48.99999825 0.56470588 0.26274510 0.52156863
v 23.99915406 21.74017826 43.00008752 0.56470588 0.26274510 0.52156863
v 23.98898587 18.84729067 42.95428648 0.56470588 0.26274510 0.52156863
v 15.34406913 18.85012227 48.99999825 0.56470588 0.26274510 0.52156863
v 23.99915406 18.84729067 48.06255809 0.56470588 0.26274510 0.52156863
v 23.99915406 21.74017826 48.99999825 0.56470588 0.26274510 0.52156863
v 23.99915406 18.84729067 43.00008752 0.56470588 0.26274510 0.52156863
v 23.99915406 18.85012227 48.99999825 0.56470588 0.26274510 0.52156863
f 1 2 5
f 1 5 10
f 1 10 7
f 1 7 3
f 1 3 8
f 1 8 4
f 1 4 9
f 1 9 13
f 1 13 11
f 1 11 6
f 1 6 2
f 2 6 5
f 3 7 12
f 3 12 8
f 4 8 9
f 5 6 10
f 6 11 14
f 6 14 10
f 7 10 14
f 7 14 12
f 8 12 14
f 8 14 11
f 8 11 13
f 8 13 9

