# https://github.com/mikedh/trimesh
v 24.00000016 30.59605109 49.00102109 0.97647059 0.60392157 0.73725490
v 24.00000016 30.59605109 44.79572440 0.97647059 0.60392157 0.73725490
v 21.00018863 30.59605109 49.00102109 0.97647059 0.60392157 0.73725490
v 24.00000016 23.75130067 49.00102109 0.97647059 0.60392157 0.73725490
v 21.00018863 30.59605109 44.79572440 0.97647059 0.60392157 0.73725490
v 24.00000016 23.64034181 43.00058672 0.97647059 0.60392157 0.73725490
v 20.99960200 27.74927195 46.99970210 0.97647059 0.60392157 0.73725490
v 20.99960200 26.04762125 49.00102109 0.97647059 0.60392157 0.73725490
v 20.99960200 23.75043390 49.00102109 0.97647059 0.60392157 0.73725490
v 24.00000016 21.74017826 48.99984595 0.97647059 0.60392157 0.73725490
v 20.99960200 23.64034181 43.00058672 0.97647059 0.60392157 0.73725490
v 24.00000016 21.74017826 43.00058672 0.97647059 0.60392157 0.73725490
v 20.99960200 21.74017826 48.99984595 0.97647059 0.60392157 0.73725490
v 20.99960200 21.74017826 43.00058672 0.97647059 0.60392157 0.73725490
f 1 2 5
f 1 5 3
f 1 3 8
f 1 8 9
f 1 9 4
f 1 4 10
f 1 10 12
f 1 12 6
f 1 6 2
f 2 6 11
f 2 11 5
f 3 5 7
f 3 7 8
f 4 9 10
f 5 11 7
f 6 12 14
f 6 14 11
f 7 11 14
f 7 14 13
f 7 13 9
f 7 9 8
f 9 13 10
f 10 13 14
f 10 14 12

