# https://github.com/mikedh/trimesh
v -20.94565494 -16.74999999 51.00687138 0.56470588 0.01568627 0.61568627
v -20.94565494 -13.75036614 51.00687138 0.56470588 0.01568627 0.61568627
v -16.13348956 -16.74999999 51.00687138 0.56470588 0.01568627 0.61568627
v -20.94565494 -16.74999999 57.49936397 0.56470588 0.01568627 0.61568627
v -19.14986576 -11.50051314 51.25030063 0.56470588 0.01568627 0.61568627
v -19.21440594 -11.74358796 51.00687138 0.56470588 0.01568627 0.61568627
v -20.94565494 -13.75036614 57.49936397 0.56470588 0.01568627 0.61568627
v -16.13348956 -13.75036614 51.00687138 0.56470588 0.01568627 0.61568627
v -16.13348956 -16.74999999 57.49936397 0.56470588 0.01568627 0.61568627
v -18.10028220 -11.50051314 51.25030063 0.56470588 0.01568627 0.61568627
v -19.14986576 -11.50051314 56.49959100 0.56470588 0.01568627 0.61568627
v -18.03527197 -11.74358796 51.00687138 0.56470588 0.01568627 0.61568627
v -16.13348956 -13.75036614 57.49936397 0.56470588 0.01568627 0.61568627
v -18.10028220 -11.50051314 56.49959100 0.56470588 0.01568627 0.61568627
f 1 2 6
f 1 6 12
f 1 12 8
f 1 8 3
f 1 3 9
f 1 9 4
f 1 4 7
f 1 7 2
f 2 5 6
f 2 7 11
f 2 11 5
f 3 8 13
f 3 13 9
f 4 9 13
f 4 13 7
f 5 10 12
f 5 12 6
f 5 11 14
f 5 14 10
f 7 13 14
f 7 14 11
f 8 12 10
f 8 10 14
f 8 14 13

