# https://github.com/mikedh/trimesh
v 12.50739049 -2.67098773 42.79999906 0.81176471 0.39607843 0.87843137
v 18.77076225 -2.67098773 42.79999906 0.81176471 0.39607843 0.87843137
v 12.50739049 -2.67098773 46.74856210 0.81176471 0.39607843 0.87843137
v 12.50739049 13.46549325 42.79999906 0.81176471 0.39607843 0.87843137
v 18.77076225 -2.67098773 45.99989717 0.81176471 0.39607843 0.87843137
v 18.77076225 13.46549325 42.79999906 0.81176471 0.39607843 0.87843137
v 17.67505519 -2.67098773 46.74856210 0.81176471 0.39607843 0.87843137
v 12.50739049 13.46549325 46.74856210 0.81176471 0.39607843 0.87843137
v 18.77076225 -2.47824713 46.74856210 0.81176471 0.39607843 0.87843137
v 18.77076225 13.46549325 46.74856210 0.81176471 0.39607843 0.87843137
f 1 2 5
f 1 5 7
f 1 7 3
f 1 3 8
f 1 8 4
f 1 4 6
f 1 6 2
f 2 6 10
f 2 10 9
f 2 9 5
f 3 7 9
f 3 9 10
f 3 10 8
f 4 8 10
f 4 10 6
f 5 9 7

