# https://github.com/mikedh/trimesh
v 10.99999960 -20.86458769 42.76358310 0.58039216 0.87843137 0.69019608
v 10.99999960 -20.86458769 48.99938906 0.58039216 0.87843137 0.69019608
v 10.99999960 -16.09763202 42.76358310 0.58039216 0.87843137 0.69019608
v 15.00078274 -20.86458769 42.76358310 0.58039216 0.87843137 0.69019608
v 10.99999960 -18.84953940 48.99938906 0.58039216 0.87843137 0.69019608
v 24.00000016 -20.86458769 48.99938906 0.58039216 0.87843137 0.69019608
v 10.99999960 -16.09763202 47.19976613 0.58039216 0.87843137 0.69019608
v 12.50029269 -16.09763202 42.76358310 0.58039216 0.87843137 0.69019608
v 23.94273640 -19.27280346 42.76358310 0.58039216 0.87843137 0.69019608
v 24.00000016 -20.86458769 43.00043912 0.58039216 0.87843137 0.69019608
v 24.00000016 -18.84953940 48.99938906 0.58039216 0.87843137 0.69019608
v 24.00000016 -16.09763202 47.19976613 0.58039216 0.87843137 0.69019608
v 23.95164485 -16.09763202 42.80020964 0.58039216 0.87843137 0.69019608
v 23.94273640 -17.17235591 42.76358310 0.58039216 0.87843137 0.69019608
v 23.95164485 -17.18215558 42.80020964 0.58039216 0.87843137 0.69019608
v 24.00000016 -16.09763202 43.00043912 0.58039216 0.87843137 0.69019608
f 1 2 5
f 1 5 7
f 1 7 3
f 1 3 8
f 1 8 14
f 1 14 9
f 1 9 4
f 1 4 10
f 1 10 6
f 1 6 2
f 2 6 11
f 2 11 5
f 3 7 12
f 3 12 16
f 3 16 13
f 3 13 8
f 4 9 10
f 5 11 12
f 5 12 7
f 6 10 16
f 6 16 12
f 6 12 11
f 8 13 14
f 9 14 13
f 9 13 15
f 9 15 10
f 10 15 13
f 10 13 16

