# https://github.com/mikedh/trimesh
v 17.60059313 -13.74755993 51.91551233 0.91764706 0.71372549 0.99607843
v 17.60059313 -13.74755993 57.49901425 0.91764706 0.71372549 0.99607843
v 18.20001243 -11.50000078 51.91551233 0.91764706 0.71372549 0.99607843
v 23.99940789 -13.74755993 51.91551233 0.91764706 0.71372549 0.99607843
v 18.20001243 -11.50000078 56.49992944 0.91764706 0.71372549 0.99607843
v 23.99815567 -13.74755993 57.49901425 0.91764706 0.71372549 0.99607843
v 23.39998859 -11.50000078 51.91551233 0.91764706 0.71372549 0.99607843
v 23.99940789 -13.74755993 57.46676860 0.91764706 0.71372549 0.99607843
v 23.39998859 -11.50000078 56.49992944 0.91764706 0.71372549 0.99607843
f 1 2 5
f 1 5 3
f 1 3 7
f 1 7 4
f 1 4 8
f 1 8 6
f 1 6 2
f 2 6 9
f 2 9 5
f 3 5 9
f 3 9 7
f 4 7 9
f 4 9 8
f 6 8 9

