# https://github.com/mikedh/trimesh
v 17.03670985 -5.38066553 48.60395215 0.36470588 0.43529412 0.89019608
v 17.03670985 -5.38066553 42.79999906 0.36470588 0.43529412 0.89019608
v 15.94063051 -5.38066553 48.60395215 0.36470588 0.43529412 0.89019608
v 17.03670985 -11.43579340 48.60395215 0.36470588 0.43529412 0.89019608
v 13.93176247 -5.38066553 42.79999906 0.36470588 0.43529412 0.89019608
v 17.03670985 -11.49747001 42.79999906 0.36470588 0.43529412 0.89019608
v 13.93176247 -5.38066553 45.99967154 0.36470588 0.43529412 0.89019608
v 14.52873844 -6.50761843 48.60395215 0.36470588 0.43529412 0.89019608
v 16.94187381 -11.49747001 48.60395215 0.36470588 0.43529412 0.89019608
v 17.03670985 -11.49747001 45.99967154 0.36470588 0.43529412 0.89019608
v 13.93176247 -11.49747001 42.79999906 0.36470588 0.43529412 0.89019608
v 14.38192580 -6.63097260 48.60395215 0.36470588 0.43529412 0.89019608
v 13.93176247 -7.29265326 48.60395215 0.36470588 0.43529412 0.89019608
v 14.03146075 -7.04295115 48.60395215 0.36470588 0.43529412 0.89019608
v 14.13480663 -6.89983642 48.60395215 0.36470588 0.43529412 0.89019608
v 14.24696790 -6.74474567 48.60395215 0.36470588 0.43529412 0.89019608
v 15.10717363 -11.49747001 48.60395215 0.36470588 0.43529412 0.89019608
v 13.93176247 -11.49747001 45.99967154 0.36470588 0.43529412 0.89019608
v 13.93176247 -9.28009110 48.60395215 0.36470588 0.43529412 0.89019608
f 1 2 5
f 1 5 7
f 1 7 3
f 1 3 8
f 1 8 12
f 1 12 16
f 1 16 15
f 1 15 14
f 1 14 13
f 1 13 19
f 1 19 17
f 1 17 9
f 1 9 4
f 1 4 10
f 1 10 6
f 1 6 2
f 2 6 11
f 2 11 5
f 3 7 8
f 4 9 10
f 5 11 18
f 5 18 19
f 5 19 13
f 5 13 7
f 6 10 9
f 6 9 17
f 6 17 18
f 6 18 11
f 7 12 8
f 7 13 14
f 7 14 15
f 7 15 16
f 7 16 12
f 17 19 18

