# https://github.com/mikedh/trimesh
v 10.99999960 -20.86458769 40.64928496 0.80392157 0.56862745 0.40392157
v 14.99996672 -20.86458769 40.64928496 0.80392157 0.56862745 0.40392157
v 10.99999960 -20.86458769 42.76358216 0.80392157 0.56862745 0.40392157
v 10.99999960 -16.09763202 40.64928496 0.80392157 0.56862745 0.40392157
v 15.01727032 -18.58587531 40.64928496 0.80392157 0.56862745 0.40392157
v 15.01727032 -19.27280346 42.76358216 0.80392157 0.56862745 0.40392157
v 14.99996672 -20.86458769 42.76358216 0.80392157 0.56862745 0.40392157
v 10.99999960 -16.09763202 42.76358216 0.80392157 0.56862745 0.40392157
v 12.50033123 -16.09763202 40.64928496 0.80392157 0.56862745 0.40392157
v 15.01727032 -16.48309441 40.64928496 0.80392157 0.56862745 0.40392157
v 15.01727032 -17.17048886 42.76358216 0.80392157 0.56862745 0.40392157
v 12.50033123 -16.09763202 42.76358216 0.80392157 0.56862745 0.40392157
f 1 2 7
f 1 7 3
f 1 3 8
f 1 8 4
f 1 4 9
f 1 9 10
f 1 10 5
f 1 5 2
f 2 5 6
f 2 6 7
f 3 7 6
f 3 6 11
f 3 11 12
f 3 12 8
f 4 8 12
f 4 12 9
f 5 10 11
f 5 11 6
f 9 12 10
f 10 12 11

